<svg width="212" height="182" viewBox="0 0 212 182" fill="none" xmlns="http://www.w3.org/2000/svg">
<g clip-path="url(#clip0_2_199)">
<path opacity="0.1" d="M167.676 156.176C191.702 156.176 211.179 151.59 211.179 145.932C211.179 140.275 191.702 135.688 167.676 135.688C143.65 135.688 124.173 140.275 124.173 145.932C124.173 151.59 143.65 156.176 167.676 156.176Z" fill="#6C63FF"/>
<g opacity="0.5">
<path d="M130.414 25.824C129.827 26.026 129.109 26.5522 128.755 27.991C128.061 30.8113 129.673 32.7289 129.142 35.6689C128.994 36.4487 128.714 37.1826 128.318 37.8234C127.67 38.8881 126.966 39.3919 126.283 40.1375C125.416 41.09 124.795 42.3257 124.494 43.6959C124.165 45.2082 124.137 46.7938 124.414 48.3215C124.657 49.5983 125.071 50.5284 125.433 51.5633C125.883 52.8832 126.235 54.2494 126.485 55.6453C126.621 56.3251 126.699 57.0206 126.715 57.72C126.705 58.6493 126.636 59.5763 126.509 60.4929L125.523 68.8267C125.374 69.9163 125.284 71.0167 125.254 72.1207C125.267 73.2272 125.372 74.3292 125.569 75.4098C125.914 77.6142 126.287 79.8984 127.079 81.0654C127.872 82.2324 129.222 81.8135 130.051 79.452C130.84 77.1928 130.858 74.178 131.554 71.7641C132.651 67.9614 134.831 67.4502 136.041 63.8219C137.202 60.3309 136.846 56.0717 137.434 52.1019C137.846 49.2567 138.754 46.6633 139.287 43.853C140.052 39.8058 139.976 35.604 139.365 32.492C138.9 29.935 137.894 27.5684 136.446 25.6245C135.934 24.9388 135.384 24.3278 134.74 24.2655C134.055 24.2007 133.456 25.2455 132.779 25.5597C131.996 25.9313 131.21 25.5497 130.414 25.824Z" fill="#6C63FF"/>
<path d="M134.125 24.4775C134.125 24.4775 132.964 60.4705 128.082 81.6938" stroke="#535461" stroke-width="2" stroke-miterlimit="10"/>
<path d="M128.726 28.1606C128.726 28.1606 133.944 33.9158 132.954 44.8679" stroke="#535461" stroke-width="2" stroke-miterlimit="10"/>
<path d="M124.348 44.5387C124.348 44.5387 132.912 46.6259 132.276 52.8325" stroke="#535461" stroke-width="2" stroke-miterlimit="10"/>
<path d="M139.379 32.4172C139.379 32.4172 135.913 36.0928 132.826 46.5037" stroke="#535461" stroke-width="2" stroke-miterlimit="10"/>
<path d="M135.994 63.8818C135.994 63.8818 133.629 66.126 131.731 58.2686" stroke="#535461" stroke-width="2" stroke-miterlimit="10"/>
<path d="M125.789 68.4725C125.789 68.4725 130.611 67.7095 131.056 64.0513" stroke="#535461" stroke-width="2" stroke-miterlimit="10"/>
</g>
<path d="M142.072 1.68347C140.878 1.89793 139.441 2.56871 138.85 4.63593C137.692 8.69057 141.213 11.7602 140.402 15.9969C140.16 17.1628 139.651 18.2219 138.933 19.0516C137.698 20.5253 136.286 21.1687 134.948 22.1686C133.61 23.1686 132.221 24.7421 131.593 27.1559C130.99 29.4775 131.251 32.0409 131.879 33.956C132.507 35.8711 133.456 37.3 134.304 38.8759C135.334 40.8157 136.196 42.8799 136.875 45.0352C137.217 46.0176 137.447 47.052 137.558 48.1099C137.667 49.4065 137.529 50.8005 137.391 52.1645L136.166 64.3184C136.004 65.9343 135.839 67.5751 135.932 69.1311C136.037 70.9241 136.475 72.4901 136.907 74.0187C137.838 77.3152 138.834 80.7515 140.59 82.5668C142.345 84.3822 145.099 83.9932 146.583 80.6168C147.995 77.4025 147.736 72.9663 148.94 69.5127C150.838 64.0691 155.3 63.6277 157.447 58.4609C159.505 53.5036 158.354 47.1623 159.182 41.402C159.774 37.275 161.38 33.5845 162.203 29.5223C163.391 23.6698 162.821 17.4731 161.252 12.815C159.684 8.15694 157.204 4.83542 154.542 2.28444C153.414 1.19971 152.219 0.219714 150.879 0.0401727C149.454 -0.151837 148.316 1.29945 146.947 1.66602C145.354 2.06749 143.691 1.39172 142.072 1.68347Z" fill="#6C63FF"/>
<path d="M149.621 0.231907C149.621 0.231907 150.745 53.0694 142.714 83.6238" stroke="#535461" stroke-width="2" stroke-miterlimit="10"/>
<path d="M138.805 4.89001C138.805 4.89001 150.167 14.1164 149.193 30.1156" stroke="#535461" stroke-width="2" stroke-miterlimit="10"/>
<path d="M131.348 28.3725C131.348 28.3725 149.279 32.6765 148.571 41.7234" stroke="#535461" stroke-width="2" stroke-miterlimit="10"/>
<path d="M161.273 12.6801C161.273 12.6801 154.458 17.595 149.09 32.482" stroke="#535461" stroke-width="2" stroke-miterlimit="10"/>
<path d="M157.34 58.5305C157.34 58.5305 152.667 61.5228 147.968 49.6506" stroke="#535461" stroke-width="2" stroke-miterlimit="10"/>
<path d="M136.669 63.8194C136.669 63.8194 146.575 63.388 147.139 58.0641" stroke="#535461" stroke-width="2" stroke-miterlimit="10"/>
<path d="M13.8416 144.279C13.8416 144.279 15.5664 147.022 13.0451 151.136C10.5237 155.251 8.44082 158.747 9.28675 161.32C9.28675 161.32 13.0904 153.657 16.1859 153.55C19.2815 153.443 17.248 148.887 13.8416 144.279Z" fill="#6C63FF"/>
<path opacity="0.1" d="M13.8416 144.279C13.9955 144.542 14.1175 144.831 14.2039 145.137C17.2254 149.436 18.8328 153.448 15.9307 153.55C13.2262 153.645 9.98243 159.503 9.20442 160.984C9.23009 161.098 9.26102 161.21 9.29704 161.32C9.29704 161.32 13.1007 153.657 16.1962 153.55C19.2918 153.443 17.248 148.887 13.8416 144.279Z" fill="black"/>
<path d="M17.0483 147.762C17.0483 148.725 16.9598 149.508 16.8425 149.508C16.7252 149.508 16.6367 148.728 16.6367 147.762C16.6367 146.797 16.7478 147.264 16.8569 147.264C16.966 147.264 17.0483 146.8 17.0483 147.762Z" fill="#FFD037"/>
<path d="M18.1495 148.91C17.4518 149.371 16.8446 149.658 16.7931 149.53C16.7417 149.403 17.2624 148.944 17.9601 148.486C18.6579 148.027 18.3821 148.361 18.4356 148.486C18.4891 148.61 18.8452 148.448 18.1495 148.91Z" fill="#FFD037"/>
<path d="M4.73599 144.279C4.73599 144.279 3.01119 147.022 5.53252 151.136C8.05386 155.251 10.1327 158.744 9.29086 161.318C9.29086 161.318 5.48724 153.655 2.39166 153.548C-0.703921 153.44 1.3255 148.887 4.73599 144.279Z" fill="#6C63FF"/>
<path opacity="0.1" d="M4.73599 144.279C4.58569 144.543 4.46718 144.832 4.38403 145.137C1.36254 149.436 -0.244935 153.448 2.65717 153.55C5.36169 153.645 8.60546 159.503 9.38348 160.984C9.3578 161.098 9.32688 161.21 9.29086 161.32C9.29086 161.32 5.48724 153.657 2.39166 153.55C-0.703921 153.443 1.3255 148.887 4.73599 144.279Z" fill="black"/>
<path d="M1.52515 147.762C1.52515 148.725 1.61365 149.508 1.73097 149.508C1.84829 149.508 1.93679 148.728 1.93679 147.762C1.93679 146.797 1.82565 147.264 1.71656 147.264C1.60748 147.264 1.52515 146.8 1.52515 147.762Z" fill="#FFD037"/>
<path d="M0.423997 148.91C1.12174 149.371 1.72892 149.658 1.78037 149.53C1.83183 149.403 1.3111 148.944 0.613354 148.486C-0.0843865 148.027 0.191417 148.361 0.137903 148.486C0.0843891 148.61 -0.271685 148.448 0.423997 148.91Z" fill="#FFD037"/>
<path d="M2.07469 160.961C2.07469 160.961 6.89713 160.782 8.35024 159.527C9.80335 158.273 15.7599 156.784 16.1283 158.779C16.4967 160.774 23.3753 168.781 17.9313 168.834C12.4873 168.886 5.28142 167.806 3.83036 166.737C2.37931 165.667 2.07469 160.961 2.07469 160.961Z" fill="#A8A8A8"/>
<path opacity="0.2" d="M18.0281 168.14C12.584 168.193 5.37816 167.113 3.9271 166.043C2.82183 165.228 2.38137 162.303 2.23523 160.954H2.07469C2.07469 160.954 2.37931 165.667 3.83036 166.736C5.28142 167.806 12.4873 168.889 17.9313 168.834C19.5038 168.819 20.0451 168.14 20.0163 167.138C19.7981 167.751 19.1992 168.13 18.0281 168.14Z" fill="black"/>
<path d="M202.193 143.144C202.57 142.772 202.845 142.269 202.981 141.703C203.084 141.129 202.882 140.444 202.429 140.234C201.923 140 201.382 140.424 200.972 140.855C200.562 141.286 200.091 141.775 199.554 141.683C199.83 141.38 200.037 140.995 200.153 140.566C200.27 140.138 200.293 139.68 200.221 139.237C200.198 139.053 200.133 138.881 200.036 138.738C199.754 138.374 199.245 138.531 198.908 138.818C197.837 139.73 197.539 141.491 197.533 143.077C197.426 142.506 197.516 141.91 197.512 141.331C197.508 140.753 197.376 140.085 196.969 139.78C196.716 139.616 196.432 139.534 196.145 139.543C195.664 139.521 195.129 139.581 194.799 140.007C194.388 140.536 194.497 141.426 194.853 142.002C195.209 142.578 195.748 142.95 196.246 143.354C196.645 143.641 196.986 144.034 197.242 144.503C197.273 144.568 197.297 144.637 197.317 144.708H200.332C201.007 144.291 201.633 143.765 202.193 143.144Z" fill="#6C63FF"/>
<path opacity="0.1" d="M30.2005 119.774C36.7497 129.863 34.2058 144.603 30.044 156.405C28.6506 160.358 27.074 164.54 27.6627 168.776C28.381 173.958 32.1908 177.753 36.2084 179.748C43.5152 183.409 52.2626 182.536 58.9745 177.477C64.7767 173.103 68.9323 165.991 74.8332 161.817C84.7127 154.834 97.2803 157.47 108.004 162.28C115.59 165.684 123.885 170.113 131.424 166.554C136.728 164.061 140.396 157.959 142.395 151.5C143.36 148.381 144.06 145.017 145.894 142.523C146.989 141.055 148.417 140.01 149.883 139.132C163.261 131.1 180.139 135.392 193.122 126.494C201.892 120.48 207.507 109.131 209.999 97.2989C212.492 85.4666 212.196 73.0583 211.564 60.8745C211.115 52.2141 210.31 42.9702 205.743 36.2848C200.912 29.2154 192.62 26.5846 185.126 27.9287C177.632 29.2727 170.835 34.0854 164.866 39.726C157.397 46.7755 150.471 55.5556 141.3 58.4133C135.055 60.3583 128.485 59.2935 122.043 58.927C111.274 58.311 100.504 59.675 89.7945 61.1712C79.5425 62.6075 69.2122 64.1885 59.45 68.2282C52.5384 71.0884 46.9977 76.2776 40.471 79.9034C36.2167 82.2673 31.5774 82.9206 27.5515 85.9305C22.5891 89.6385 18.0425 96.0895 19.3186 103.635C20.5165 110.819 26.722 114.42 30.2005 119.774Z" fill="#6C63FF"/>
<path opacity="0.1" d="M113.686 119.769C162.301 119.769 201.711 115.183 201.711 109.525C201.711 103.868 162.301 99.2813 113.686 99.2813C65.0719 99.2813 25.662 103.868 25.662 109.525C25.662 115.183 65.0719 119.769 113.686 119.769Z" fill="#6C63FF"/>
<path opacity="0.1" d="M46.0344 178.868C70.0604 178.868 89.5372 174.282 89.5372 168.624C89.5372 162.967 70.0604 158.38 46.0344 158.38C22.0085 158.38 2.53163 162.967 2.53163 168.624C2.53163 174.282 22.0085 178.868 46.0344 178.868Z" fill="#6C63FF"/>
<path d="M90.5046 106.331L89.8151 107.545C89.8151 107.545 90.5663 108.76 90.6384 108.912C90.7104 109.064 92.8304 108.837 92.8304 108.837L93.0177 107.927L92.7049 106.864L90.5046 106.331Z" fill="#E6E6F0"/>
<path d="M67.3227 105.648L65.9437 105.949L66.8205 108.002L67.7611 108.608L68.638 109.366L68.8891 108.533L68.2613 106.937L67.3227 105.648Z" fill="#FDC2CC"/>
<path d="M89.8789 85.9105C89.8789 85.9105 97.2103 88.0351 98.5873 90.399C98.5873 90.399 99.8407 91.6907 98.5873 94.0422C97.3338 96.3937 95.5802 101.71 95.5802 101.71C95.5802 101.71 94.3267 106.872 93.8266 107.251C93.3264 107.63 90.4428 107.934 90.1917 106.503C90.1917 106.503 91.8198 103.391 91.8198 101.947C91.8198 100.503 94.514 93.6732 94.514 93.6732C94.514 93.6732 88.3743 92.8378 86.4314 93.3689C84.4884 93.9001 87.3102 85.0751 89.8789 85.9105Z" fill="#565171"/>
<path opacity="0.1" d="M89.8789 85.9105C89.8789 85.9105 97.2103 88.0351 98.5873 90.399C98.5873 90.399 99.8407 91.6907 98.5873 94.0422C97.3338 96.3937 95.5802 101.71 95.5802 101.71C95.5802 101.71 94.3267 106.872 93.8266 107.251C93.3264 107.63 90.4428 107.934 90.1917 106.503C90.1917 106.503 91.8198 103.391 91.8198 101.947C91.8198 100.503 94.514 93.6732 94.514 93.6732C94.514 93.6732 88.3743 92.8378 86.4314 93.3689C84.4884 93.9001 87.3102 85.0751 89.8789 85.9105Z" fill="black"/>
<path d="M88.3743 87.9603C88.3599 88.4016 88.3208 88.8979 88.2653 89.4315C87.8639 93.2966 86.5569 99.0445 86.5569 99.0445C86.5569 99.0445 85.2417 102.461 84.8651 104.663C84.4884 106.864 81.9197 107.406 81.9197 107.406C81.9197 107.406 74.9012 108.403 73.4604 108.014C72.0196 107.625 69.7556 109.154 68.6359 108.924C67.5162 108.695 66.8185 105.508 66.8185 105.508C68.7618 105.522 70.6849 105.03 72.458 104.067C75.3396 102.473 79.4766 103.231 79.4766 103.231C79.7852 103.123 80.0722 102.939 80.3199 102.691C80.5677 102.443 80.771 102.136 80.9174 101.79C81.3558 100.65 81.3558 93.743 81.2302 93.2867C80.4069 90.2943 80.4749 88.3742 80.7116 87.2546C80.7908 86.7655 80.969 86.308 81.2302 85.923L88.3743 87.9603Z" fill="#565171"/>
<path opacity="0.1" d="M88.3743 87.9603C88.3599 88.4016 88.3208 88.8979 88.2652 89.4315C87.6354 89.4913 85.8694 89.5487 84.5604 88.5687C83.3255 87.651 81.5286 87.3393 80.7198 87.2421C80.799 86.753 80.9772 86.2955 81.2384 85.9105L88.3743 87.9603Z" fill="black"/>
<path d="M89.2409 87.0102C88.9486 88.0076 88.4999 89.1772 88.4999 89.1772C88.4999 89.1772 86.1823 89.5562 84.5522 88.3418C82.9221 87.1274 80.2917 86.9753 80.2917 86.9753C80.7177 86.6586 81.0059 85.696 81.1849 84.8532C81.2849 84.3767 81.3632 83.8938 81.4196 83.4069C81.4196 83.4069 89.1256 85.3045 89.4467 85.6088C89.5661 85.7285 89.4384 86.3319 89.2409 87.0102Z" fill="#E6E6F0"/>
<path d="M102.973 55.0145L93.6269 61.8495L92.6987 62.5278V59.1888L93.3429 58.8147L101.22 54.2539C101.22 54.2539 101.596 45.98 102.599 47.2717C103.601 48.5634 102.973 55.0145 102.973 55.0145Z" fill="#FDC2CC"/>
<path opacity="0.1" d="M93.6269 61.8495L92.6987 62.5277V59.1888L93.3429 58.8147C93.3855 59.8325 93.4804 60.846 93.6269 61.8495Z" fill="black"/>
<path d="M86.4334 63.0714L93.1371 58.3659C93.1371 58.3659 93.2626 62.9217 94.0139 63.6025C94.0139 63.6025 91.2579 64.6 90.1917 66.7145L86.4334 63.0714Z" fill="#B45181"/>
<path opacity="0.1" d="M86.4334 63.0714L93.1371 58.3659C93.1371 58.3659 93.2626 62.9217 94.0139 63.6025C94.0139 63.6025 91.2579 64.6 90.1917 66.7145L86.4334 63.0714Z" fill="black"/>
<path d="M102.914 67.0836C102.914 67.0836 99.7255 68.7668 97.6137 69.3852C97.1385 69.5589 96.6415 69.6281 96.1462 69.5897C94.7054 69.2855 96.5229 67.0961 96.5229 67.0961L97.2803 66.9539L101.347 66.1859C101.347 66.1859 101.786 58.5953 102.537 59.2037C103.288 59.8122 102.914 67.0836 102.914 67.0836Z" fill="#FDC2CC"/>
<path d="M89.4405 60.2511C89.4405 60.2511 86.7463 62.6799 87.7486 65.7171C88.751 68.7543 82.5475 63.8943 82.5475 63.8943C82.5475 63.8943 84.5522 60.2511 84.9906 57.518C85.429 54.785 89.4405 60.2511 89.4405 60.2511Z" fill="#FDC2CC"/>
<path opacity="0.1" d="M89.2408 87.0102C88.0756 86.4785 86.8576 86.1347 85.6184 85.9878C83.8071 85.7384 82.1482 85.317 81.187 84.8532C81.287 84.3767 81.3653 83.8938 81.4216 83.4069C81.4216 83.4069 89.1276 85.3045 89.4487 85.6088C89.566 85.7285 89.4384 86.3319 89.2408 87.0102Z" fill="black"/>
<path opacity="0.1" d="M97.6117 69.3852C97.1365 69.5589 96.6395 69.6281 96.1442 69.5897C94.7034 69.2855 96.5208 67.0961 96.5208 67.0961L97.2782 66.9539C97.5952 67.5449 97.9184 68.4676 97.6117 69.3852Z" fill="black"/>
<path d="M85.0544 61.6176C85.0544 61.6176 82.6113 61.5427 81.7345 62.7571C80.8577 63.9715 81.045 67.2457 81.045 67.2457C81.045 67.2457 80.8618 73.8014 82.2346 77.4696C82.2799 77.588 82.2851 77.7231 82.249 77.8461C82.2346 77.891 82.2346 77.8636 82.2346 77.8636C82.2346 77.8636 81.3578 82.6463 80.481 83.4817C79.6042 84.3171 82.3602 85.3045 85.6266 85.7584C88.893 86.2122 90.2 87.3518 90.2 87.3518C90.2 87.3518 90.7639 86.6037 90.8174 84.923C90.8709 83.2423 89.9468 71.031 89.9468 71.031C89.9468 71.031 93.3923 72.0933 95.4608 70.8041C95.4608 70.8041 96.4014 71.4125 97.2782 69.7418C98.155 68.0711 96.6608 66.2507 96.6608 66.2507C96.6608 66.2507 95.2817 67.9215 91.4596 65.7196C87.6375 63.5177 86.242 61.5428 85.0544 61.6176Z" fill="#B45181"/>
<path d="M66.3204 105.8H65.5691V107.091L66.3204 109.141C66.3204 109.141 67.3227 109.368 67.3865 109.368C67.4504 109.368 68.2633 109.141 68.2633 109.141L68.5145 108.61C68.5145 108.61 65.7564 107.316 66.3204 105.8Z" fill="#E6E6F0"/>
<path d="M89.8789 107.014L88.751 110.051L93.5137 112.794L97.2741 112.946C97.2741 112.946 97.587 111.884 96.3335 111.353L95.3311 111.126C95.3311 111.126 94.0159 108.241 93.8904 106.887C93.8904 106.887 92.6369 107.191 92.4496 108.328C92.4476 108.303 90.6939 109.366 89.8789 107.014Z" fill="#B45181"/>
<path d="M65.7564 105.495L65.3736 105.875L63.6899 107.545L67.5738 113.779C67.5738 113.779 69.7658 114.919 70.7703 113.779C70.7703 113.779 71.3877 113.031 70.019 112.413C70.019 112.413 68.9528 112.64 68.9528 111.351C68.9528 110.061 69.2039 108.695 69.5703 108.391C69.5703 108.391 68.6297 108.012 68.3807 108.316C68.189 108.572 68.0206 108.852 67.8784 109.151C67.8784 109.151 65.6309 108.076 65.7564 105.495Z" fill="#B45181"/>
<path opacity="0.1" d="M84.8671 57.6702C84.8035 58.0553 84.7196 58.4351 84.616 58.8073C84.9415 59.7558 85.5593 60.5133 86.3383 60.9188C87.1173 61.3243 87.9961 61.346 88.788 60.9792C88.9533 60.7727 89.13 60.5803 89.317 60.4032C89.317 60.4032 85.3055 54.9371 84.8671 57.6702Z" fill="black"/>
<path opacity="0.1" d="M84.5213 67.8092C84.5213 67.8092 86.4643 70.9213 89.2841 70.9986Z" fill="black"/>
<g opacity="0.1">
<path d="M96.1339 70.8571C96.0943 70.8436 96.0557 70.8258 96.0186 70.8041C95.9582 70.8428 95.8965 70.879 95.8334 70.9126C95.9351 70.9102 96.0361 70.8915 96.1339 70.8571Z" fill="black"/>
<path d="M96.8007 66.5631C96.7326 66.4568 96.6597 66.355 96.5826 66.2582C96.5826 66.2582 96.1709 66.7581 95.1541 66.8531C95.7143 66.9206 96.2795 66.8211 96.8007 66.5631Z" fill="black"/>
<path d="M90.5046 71.031L90.517 71.1935C91.3435 71.3794 92.1834 71.4632 93.0239 71.4434C92.1751 71.4059 91.3313 71.2678 90.5046 71.031Z" fill="black"/>
<path d="M86.1823 85.7634C82.9241 85.307 80.1682 84.3221 81.0367 83.4867C81.9053 82.6513 82.7904 77.8685 82.7904 77.8685C82.7904 77.8685 82.7903 77.896 82.8048 77.8511C82.8408 77.7281 82.8356 77.593 82.7904 77.4746C81.4175 73.7965 81.6007 67.2507 81.6007 67.2507C81.6007 67.2507 81.4134 63.9865 82.2902 62.7621C82.9427 61.857 84.4637 61.6699 85.1985 61.6325C85.13 61.6261 85.0612 61.6261 84.9927 61.6325C84.9927 61.6325 82.5495 61.5577 81.6727 62.7721C80.7959 63.9865 80.9832 67.2606 80.9832 67.2606C80.9832 67.2606 80.8 73.8164 82.1729 77.4845C82.2182 77.6029 82.2233 77.7381 82.1873 77.8611C82.1729 77.9059 82.1729 77.8785 82.1729 77.8785C82.1729 77.8785 81.3023 82.6463 80.4172 83.4817C79.5322 84.3171 82.2964 85.3045 85.5628 85.7584C88.8292 86.2122 90.1362 87.3518 90.1362 87.3518C90.2018 87.2565 90.2597 87.1538 90.3091 87.0451C89.6731 86.6736 88.364 86.0626 86.1823 85.7634Z" fill="black"/>
</g>
<path d="M87.7486 61.0864C89.5481 61.0864 91.0068 59.3191 91.0068 57.139C91.0068 54.9589 89.5481 53.1916 87.7486 53.1916C85.9492 53.1916 84.4904 54.9589 84.4904 57.139C84.4904 59.3191 85.9492 61.0864 87.7486 61.0864Z" fill="#FDC2CC"/>
<path opacity="0.1" d="M92.3858 55.3735C92.1162 56.1914 91.3114 56.5006 90.6055 56.7126C89.5969 57.0118 88.5102 57.3061 87.5449 56.8423C87.4198 56.7572 87.2755 56.7231 87.1332 56.745C87.0185 56.8007 86.9228 56.9018 86.8615 57.0318C85.7974 58.8671 85.9703 61.3133 85.6945 63.5327C85.6081 64.2234 85.4619 64.9366 85.077 65.4528C84.3278 66.4502 82.9138 66.4128 82.2243 67.4726C81.7695 68.1708 81.7653 69.1408 81.7695 70.0311C81.7695 70.9803 81.7626 71.9304 81.7489 72.8813C81.7365 73.5047 81.7118 74.1505 81.4792 74.7041C81.0841 75.6417 80.2031 76.0881 79.3901 76.4497C78.8838 76.6791 78.361 76.911 77.8177 76.8487C77.2743 76.7863 76.7309 76.3499 76.6609 75.6916C76.5642 74.7989 77.3237 74.1755 77.8465 73.5321C78.6821 72.5072 79.0258 71.0161 79.0567 69.5747C79.0861 68.9926 79.016 68.4094 78.8509 67.8616C78.6595 67.2956 78.3178 66.8193 78.112 66.2607C77.478 64.5401 78.2602 62.5502 79.1967 61.044C80.1332 59.5379 81.2837 58.0691 81.4834 56.2014C81.5008 55.7972 81.5483 55.3958 81.6254 55.002C81.7695 54.4584 82.1111 52.9572 82.4878 52.6131C83.0908 52.0627 83.7988 51.7059 84.546 51.5757C85.1244 51.4735 85.7151 51.5109 86.2893 51.3762C86.9603 51.2191 87.584 50.8326 88.255 50.688C89.706 50.3763 91.2806 52.4186 91.9166 54.0295C92.0915 54.5232 92.5505 54.8723 92.3858 55.3735Z" fill="black"/>
<path d="M92.3858 55.2214C92.1162 56.0393 91.3114 56.3485 90.6055 56.5605C89.5969 56.8597 88.5102 57.154 87.5449 56.6902C87.4198 56.6051 87.2755 56.571 87.1332 56.5929C87.0185 56.6486 86.9228 56.7497 86.8615 56.8797C85.7974 58.715 85.9703 61.1612 85.6945 63.3806C85.6081 64.0713 85.4619 64.7845 85.077 65.3007C84.3278 66.2981 82.9138 66.2607 82.2243 67.3205C81.7695 68.0187 81.7653 68.9887 81.7695 69.879C81.7695 70.8282 81.7626 71.7783 81.7489 72.7292C81.7365 73.3526 81.7118 73.9984 81.4792 74.552C81.0841 75.4896 80.2031 75.936 79.3901 76.2976C78.8838 76.527 78.361 76.7589 77.8177 76.6966C77.2743 76.6342 76.7309 76.1978 76.6609 75.5395C76.5642 74.6468 77.3237 74.0234 77.8465 73.38C78.6821 72.3551 79.0258 70.864 79.0567 69.4226C79.0861 68.8405 79.016 68.2573 78.8509 67.7095C78.6595 67.1435 78.3178 66.6672 78.112 66.1086C77.478 64.388 78.2602 62.3981 79.1967 60.8919C80.1332 59.3858 81.2837 57.917 81.4834 56.0493C81.5008 55.6451 81.5483 55.2437 81.6254 54.8499C81.7695 54.3063 82.1111 52.8051 82.4878 52.461C83.0908 51.9106 83.7988 51.5538 84.546 51.4236C85.1244 51.3214 85.7151 51.3588 86.2893 51.2241C86.9603 51.067 87.584 50.6805 88.255 50.5359C89.706 50.2242 91.2806 52.2665 91.9166 53.8774C92.0915 54.3711 92.5505 54.7202 92.3858 55.2214Z" fill="#F569BC"/>
<path d="M102.914 47.6333H157.08V113.253H102.914V47.6333Z" fill="#F7DF1E"/>
<path d="M117.159 102.471L121.304 99.431C122.105 101.149 122.831 102.603 124.577 102.603C126.25 102.603 127.304 101.81 127.304 98.7278V77.7588H132.394V98.8125C132.394 105.199 129.306 108.106 124.795 108.106C120.724 108.106 118.361 105.55 117.161 102.468M135.158 101.807L139.301 98.8998C140.392 101.059 141.81 102.64 144.319 102.64C146.429 102.64 147.773 101.364 147.773 99.6005C147.773 97.4859 146.392 96.7378 144.068 95.5035L142.796 94.8427C139.124 92.95 136.687 90.5711 136.687 85.5489C136.687 80.9232 139.596 77.3997 144.14 77.3997C147.376 77.3997 149.697 78.7663 151.375 82.3321L147.413 85.4168C146.54 83.5216 145.595 82.7735 144.14 82.7735C142.65 82.7735 141.703 83.9181 141.703 85.4168C141.703 87.267 142.648 88.0151 144.83 89.1572L146.102 89.818C150.424 92.0623 152.865 94.3539 152.865 99.5083C152.865 105.059 149.265 108.099 144.426 108.099C139.692 108.099 136.646 105.356 135.164 101.8" fill="black"/>
<path d="M180.84 149.67C180.84 149.67 178.727 149.85 177.422 147.107C177.167 146.554 176.865 146.035 176.522 145.558C176.101 144.721 175.882 143.758 175.89 142.778C175.962 140.745 174.213 129.614 174.213 129.614C174.213 129.614 174.431 125.375 172.682 122.724C171.529 120.978 169.872 115.991 168.874 112.769C168.941 112.842 169.021 112.893 169.108 112.919L169.067 112.642H169.108L168.592 109.203C167.84 108.156 167.206 106.992 166.707 105.742L166.824 105.712L168.372 105.318C168.372 105.318 170.887 100.987 171.047 98.8574H171.253H171.543C173.871 98.842 176.198 98.9894 178.513 99.2988C178.513 99.2863 178.496 99.2315 178.475 99.1442C178.378 98.7157 178.302 98.2801 178.249 97.84H178.393L179.834 97.7253C179.834 97.7253 184.792 91.0125 182.969 89.7756C181.145 88.5388 179.249 95.3414 179.249 95.3414L178.632 95.4761L178.465 95.5135C178.482 95.4835 178.498 95.4561 178.517 95.4287C178.535 95.4013 170.424 94.9898 169.174 92.6009C169.174 92.6009 165.601 89.1547 165.455 86.8656C165.429 86.3907 165.295 85.9337 165.068 85.5448C164.842 85.156 164.531 84.8502 164.171 84.6612C163.729 84.4059 163.24 84.295 162.753 84.3395L161.079 84.4792L161.197 84.7285H161.149C161.044 84.4371 160.956 84.1371 160.886 83.8308H160.921C160.908 83.7685 160.898 83.7061 160.888 83.6438C161.401 83.4973 161.884 83.2275 162.309 82.8506C162.734 82.4736 163.093 81.9971 163.363 81.4493C163.634 80.9014 163.811 80.2934 163.884 79.6612C163.957 79.029 163.924 78.3855 163.788 77.7688C163.952 77.7943 164.118 77.7884 164.28 77.7513C164.897 77.5992 165.332 76.8412 165.348 76.0831C165.348 76.0332 165.348 75.9834 165.348 75.936C165.348 75.936 165.348 75.916 165.348 75.9061C165.342 75.5251 165.266 75.1507 165.125 74.8099C164.984 74.4691 164.783 74.1706 164.535 73.9361C164.202 73.5995 163.802 73.3601 163.506 72.986C163.146 72.5397 162.948 71.9412 162.668 71.415C162.199 70.5447 161.504 69.8891 160.692 69.5523C160.089 69.3029 159.348 69.278 158.885 69.8017C158.646 70.0735 158.509 70.4675 158.241 70.6969C157.856 71.031 157.333 70.9313 156.862 70.9986C156.435 71.0781 156.031 71.2838 155.685 71.5973C155.34 71.9109 155.063 72.3227 154.88 72.7965C154.649 73.3898 154.537 74.041 154.555 74.6967C154.55 75.1465 154.594 75.5951 154.686 76.0307C154.777 76.4646 154.911 76.8836 155.01 77.3175C155.215 78.2152 155.263 79.1603 155.499 80.0455C155.658 80.7025 155.976 81.2869 156.411 81.7237L156.341 82.0878C156.296 82.0878 155.16 82.3945 154.376 84.4717C153.758 86.11 151.657 87.8007 150.733 88.4839C150.56 88.6117 150.411 88.7798 150.293 88.9785C150.175 89.1772 150.09 89.4024 150.045 89.641C149.956 90.1229 149.917 90.6162 149.928 91.1097C149.911 92.1745 150.095 93.6482 150.8 95.516C152.404 99.7551 153.571 101.61 153.571 101.61C153.571 101.61 153.659 102.91 153.666 104.279C153.666 105.298 153.604 106.313 153.425 106.822C153.272 107.251 153.219 108.346 153.231 109.597C153.231 111.996 153.425 115.126 153.425 115.126C153.425 115.126 153.983 115.256 154.845 115.408L155.382 126.858C155.45 128.245 155.082 129.611 154.353 130.684C153.976 131.248 153.541 131.75 153.058 132.18C151.527 133.504 148.246 147.463 148.246 147.463C148.246 147.463 148.407 147.463 148.67 147.501L147.662 150.909C147.662 150.909 151.692 154.65 154.143 153.628C154.409 153.523 154.687 153.475 154.966 153.488C155.45 153.488 156.485 153.024 155.909 152.413C154.796 151.171 153.747 149.849 152.766 148.453C152.845 148.5 152.921 148.554 152.993 148.615V148.588L153.027 148.615C153.027 148.615 153.027 148.478 153.054 148.254L153.019 148.239C153.093 147.321 153.328 144.997 153.793 144.728C154.376 144.374 158.679 134.038 158.679 134.038L162.981 120.609C162.981 120.609 166.408 127.766 169.325 129V131.993C169.325 131.993 170.928 140.828 171.512 141.798C172.097 142.768 171.512 146.655 171.512 146.655C171.628 146.815 171.76 146.956 171.906 147.074L171.438 150.276C171.438 150.276 174.793 150.099 180.48 152.219C180.476 152.231 182.664 151.084 180.84 149.67ZM167.425 103.468L166.715 103.683L166.575 103.725C166.56 103.618 166.55 103.555 166.55 103.555C166.387 103.645 166.212 103.696 166.033 103.708C165.782 102.742 165.636 101.74 165.601 100.728C165.362 99.5164 165.217 98.2809 165.167 97.0371C165.167 96.3937 165.255 95.8327 165.455 95.516L165.692 95.5384L165.856 95.7279L165.869 95.7404L165.953 95.8327L166.042 95.9274L166.056 95.9424L166.151 96.0446L166.167 96.0621L166.264 96.1618L166.373 96.2715L166.398 96.2965L166.513 96.4087L166.626 96.5184L166.653 96.5433L166.779 96.658L166.805 96.6805L166.925 96.7877L166.945 96.8052L167.081 96.9224L167.114 96.9498L167.258 97.0695H167.27L167.41 97.1817L167.443 97.2091L167.594 97.3263L167.627 97.3513L167.767 97.456L167.793 97.476L167.954 97.5907L167.993 97.6181L168.16 97.7303H168.172L168.335 97.835L168.374 97.86L168.547 97.9647L168.582 97.9847L168.742 98.0744L168.773 98.0919L168.954 98.1866L168.997 98.2091L169.185 98.3013C168.022 99.8524 167.425 103.468 167.425 103.468Z" fill="url(#paint0_linear_2_199)"/>
<path d="M149.44 145.401L148.088 149.972C148.088 149.972 151.793 153.413 154.201 152.7C154.564 152.59 154.933 152.518 155.306 152.483C155.804 152.438 156.662 151.997 156.129 151.438C154.421 149.628 152.142 146.264 152.142 146.264L149.44 145.401Z" fill="#4F4D59"/>
<path d="M171.934 144.97L171.294 149.368C171.294 149.368 174.569 149.196 180.122 151.266C180.122 151.266 182.259 150.144 180.478 148.772C180.478 148.772 178.42 148.944 177.134 146.279C175.847 143.613 175.075 143.95 175.075 143.95L171.934 144.97Z" fill="#4F4D59"/>
<path d="M154.987 113.061L155.604 126.447C155.672 127.873 155.282 129.276 154.516 130.362C154.169 130.861 153.775 131.307 153.34 131.691C151.846 132.985 148.641 146.61 148.641 146.61C148.641 146.61 152.272 146.86 153.268 147.733C153.268 147.733 153.474 144.284 154.05 143.937C154.627 143.591 158.819 133.501 158.819 133.501L163.02 120.392C163.02 120.392 166.365 127.375 169.213 128.586V131.519C169.213 131.519 170.78 140.144 171.35 141.092C171.92 142.04 171.35 145.83 171.35 145.83C171.35 145.83 172.996 148.324 176.759 145.658C176.759 145.658 175.549 144.02 175.621 142.035C175.693 140.05 173.974 129.185 173.974 129.185C173.974 129.185 174.18 125.046 172.48 122.452C170.78 119.859 167.954 109.952 167.954 109.952L165.994 104.845L154.987 113.061Z" fill="#C48C96"/>
<g opacity="0.1">
<path d="M149.333 146.608C149.333 146.608 152.536 132.983 154.032 131.689C154.491 131.281 154.906 130.805 155.267 130.272C155.997 129.201 156.365 127.834 156.296 126.447L155.668 113.059L166.165 105.219L166.023 104.847L155.028 113.061L155.656 126.449C155.725 127.836 155.357 129.203 154.627 130.275C154.266 130.808 153.851 131.283 153.392 131.691C151.9 132.983 148.693 146.608 148.693 146.608C148.693 146.608 152.324 146.857 153.32 147.73C153.32 147.73 153.32 147.595 153.347 147.378C151.945 146.795 149.333 146.608 149.333 146.608Z" fill="black"/>
<path d="M172.041 145.832C172.041 145.832 172.612 142.037 172.041 141.095C171.471 140.152 169.905 131.521 169.905 131.521V128.584C167.058 127.377 163.712 120.39 163.712 120.39L163.465 121.173C164.43 123.028 167.005 127.631 169.267 128.589V131.521C169.267 131.521 170.833 140.147 171.403 141.095C171.974 142.042 171.403 145.832 171.403 145.832C171.403 145.832 172.198 147.044 173.952 146.88C172.64 146.748 172.041 145.832 172.041 145.832Z" fill="black"/>
</g>
<path d="M179.48 98.0545L178.082 98.1667L177.346 98.2265V96.0695L178.313 95.8576L178.912 95.7254C178.912 95.7254 180.764 89.0849 182.543 90.2918C184.321 91.4987 179.48 98.0545 179.48 98.0545Z" fill="#714B4F"/>
<path d="M157.058 80.2774C157.058 80.2774 156.131 84.5889 155.847 87.2596C155.563 89.9302 162.467 87.7782 162.467 87.7782C162.467 87.7782 159.832 83.8981 161.328 81.8284L157.058 80.2774Z" fill="#714B4F"/>
<path d="M164.531 98.2315L164.673 99.8698L162.467 99.6978L160.26 97.3687L158.054 89.8629L156.634 87.1872L155.565 85.5489L155.993 83.554C155.993 83.554 156.189 83.761 156.518 84.0652C157.603 85.0627 160.145 87.1598 162.003 86.5813C162.089 86.555 162.174 86.5226 162.257 86.484L165.033 92.2618L164.531 98.2315Z" fill="#E6E6F0"/>
<path opacity="0.1" d="M156.559 83.0478C156.559 83.0478 155.421 83.2972 154.637 85.3769C154.036 86.9678 152.003 88.6186 151.095 89.2844C150.922 89.4125 150.771 89.5813 150.653 89.7809C150.535 89.9804 150.45 90.2067 150.405 90.4464C150.222 91.4289 150.152 93.2617 151.148 95.8975C152.715 100.037 153.853 101.847 153.853 101.847C153.853 101.847 154.137 105.987 153.711 107.194C153.285 108.401 153.711 115.041 153.711 115.041C153.711 115.041 161.184 116.767 163.677 115.041C166.169 113.315 165.813 106.675 165.813 106.675C165.813 106.675 168.162 112.712 169.016 112.884L168.518 109.52C168.518 109.52 165.741 105.897 165.599 101.241C165.599 101.241 164.745 97.0146 165.457 95.895C165.457 95.895 177.488 97.1019 178.2 96.067C178.2 96.067 170.298 95.6356 169.088 93.3066C169.088 93.3066 165.599 89.9427 165.457 87.7009C165.436 87.2801 165.328 86.8726 165.141 86.5169C164.954 86.1613 164.695 85.8693 164.389 85.6686C163.905 85.3349 163.349 85.1846 162.794 85.2372L161.186 85.3719C161.186 85.3719 163.963 91.3217 163.821 92.1047C163.679 92.8877 163.963 99.1766 163.963 99.1766C163.963 99.1766 160.75 90.8105 159.336 89.8629C157.922 88.9153 156.273 85.0153 156.273 85.0153L156.557 83.0453" fill="black"/>
<path opacity="0.1" d="M164.531 98.2315L164.673 99.8698L162.467 99.6978L160.26 97.3687L158.054 89.8629L156.634 87.1872L155.565 85.5489L155.993 83.554C155.993 83.554 156.189 83.761 156.518 84.0652L156.419 84.746C156.419 84.746 158.066 88.641 159.48 89.5911C160.894 90.5412 164.107 98.9048 164.107 98.9048C164.107 98.9048 163.823 92.6084 163.965 91.8329C164.062 91.3067 162.814 88.3991 162.003 86.5813C162.089 86.555 162.174 86.5226 162.257 86.484L165.033 92.2618L164.531 98.2315Z" fill="black"/>
<path opacity="0.1" d="M178.082 98.1667L177.346 98.2265V96.0695L178.313 95.8576C177.975 96.3987 177.988 97.3563 178.082 98.1667Z" fill="black"/>
<path d="M156.559 82.791C156.559 82.791 155.421 83.0403 154.637 85.12C154.036 86.711 152.003 88.3617 151.095 89.0275C150.922 89.1556 150.771 89.3245 150.653 89.524C150.535 89.7236 150.45 89.9499 150.405 90.1896C150.222 91.1721 150.152 93.0049 151.148 95.6406C152.715 99.7801 153.853 101.59 153.853 101.59C153.853 101.59 154.137 105.73 153.711 106.937C153.285 108.144 153.711 114.784 153.711 114.784C153.711 114.784 161.184 116.51 163.677 114.784C166.169 113.059 165.813 106.418 165.813 106.418C165.813 106.418 168.16 112.445 169.016 112.63L168.518 109.266C168.518 109.266 165.741 105.643 165.599 100.987C165.599 100.987 164.745 96.7603 165.457 95.6406C165.457 95.6406 168.234 99.2639 171.366 99.1766C173.649 99.16 175.931 99.304 178.2 99.608C178.2 99.608 177.488 96.8476 178.2 95.8127C178.2 95.8127 170.298 95.3813 169.088 93.0523C169.088 93.0523 165.599 89.6884 165.457 87.4466C165.436 87.0257 165.328 86.6182 165.141 86.2626C164.954 85.907 164.695 85.615 164.389 85.4143C163.905 85.0806 163.349 84.9303 162.794 84.9829L161.186 85.1175C161.186 85.1175 163.963 91.0673 163.821 91.8503C163.679 92.6333 163.963 98.9223 163.963 98.9223C163.963 98.9223 160.75 90.5512 159.336 89.6036C157.922 88.656 156.273 84.7659 156.273 84.7659L156.557 82.796" fill="#C48C96"/>
<path opacity="0.1" d="M154.987 91.8453C154.987 91.8453 156.695 98.8275 157.691 99.6928C158.688 100.558 164.739 104.954 166.519 103.919C166.519 103.919 166.947 106.508 166.313 107.111C166.313 107.111 159.676 106.797 159.622 106.767C159.622 106.767 155.279 106.076 154.567 103.491C153.855 100.905 153.001 96.5084 153.001 96.5084L154.987 91.8453Z" fill="black"/>
<path d="M164.105 99.7377C164.242 99.7377 164.354 99.5445 164.354 99.3063C164.354 99.068 164.242 98.8749 164.105 98.8749C163.967 98.8749 163.856 99.068 163.856 99.3063C163.856 99.5445 163.967 99.7377 164.105 99.7377Z" fill="#BA7855"/>
<path d="M164.815 102.755C164.953 102.755 165.064 102.562 165.064 102.324C165.064 102.085 164.953 101.892 164.815 101.892C164.677 101.892 164.566 102.085 164.566 102.324C164.566 102.562 164.677 102.755 164.815 102.755Z" fill="#BA7855"/>
<g opacity="0.1">
<path d="M154.211 114.689C154.211 114.689 153.783 108.049 154.211 106.842C154.639 105.635 154.353 101.496 154.353 101.496C154.353 101.496 153.215 99.6853 151.649 95.5459C150.65 92.9101 150.722 91.0773 150.905 90.0948C150.951 89.8552 151.035 89.6289 151.153 89.4293C151.272 89.2297 151.422 89.0609 151.595 88.9328C152.503 88.2595 154.534 86.6162 155.137 85.0253C155.58 83.8583 156.133 83.2673 156.533 82.973L156.559 82.7835C156.559 82.7835 155.421 83.0329 154.637 85.1125C154.036 86.7035 152.003 88.3543 151.095 89.0201C150.922 89.1481 150.771 89.317 150.653 89.5165C150.535 89.7161 150.45 89.9424 150.405 90.1821C150.222 91.1646 150.152 92.9974 151.148 95.6332C152.715 99.7726 153.853 101.583 153.853 101.583C153.853 101.583 154.137 105.722 153.711 106.929C153.285 108.136 153.711 114.777 153.711 114.777C153.711 114.777 159.05 116.009 162.207 115.348C159.019 115.809 154.211 114.689 154.211 114.689Z" fill="black"/>
<path d="M163.819 91.8453C163.722 92.3765 163.819 95.501 163.899 97.4161C164.243 98.2664 164.459 98.8325 164.459 98.8325C164.459 98.8325 164.175 92.5361 164.317 91.7606C164.453 91.0125 161.952 85.6113 161.703 85.0776L161.184 85.12C161.184 85.12 163.963 91.0698 163.819 91.8453Z" fill="black"/>
<path d="M171.864 99.0893C168.732 99.1766 165.955 95.5534 165.955 95.5534C165.872 95.6939 165.811 95.852 165.776 96.0197C166.6 96.9473 168.864 99.2439 171.366 99.1741C173.649 99.1575 175.931 99.3015 178.2 99.6055C178.2 99.6055 178.185 99.5482 178.163 99.4509C176.07 99.1889 173.968 99.0681 171.864 99.0893Z" fill="black"/>
<path d="M166.307 106.333C166.307 106.333 166.336 106.872 166.32 107.68C167.061 109.46 168.409 112.505 169.012 112.627L168.907 111.919C167.872 110.343 166.307 106.333 166.307 106.333Z" fill="black"/>
</g>
<path d="M168.304 105.463L166.791 105.85L165.597 106.154L166.237 103.997L166.684 103.862L167.378 103.653C167.378 103.653 168.374 97.6156 170.368 98.047C172.363 98.4784 168.304 105.463 168.304 105.463Z" fill="#714B4F"/>
<path opacity="0.1" d="M166.793 105.857L165.599 106.161L166.239 104.004L166.686 103.87C166.785 104.525 166.821 105.192 166.793 105.857Z" fill="black"/>
<path d="M154.987 91.6733C154.987 91.6733 156.695 98.6554 157.691 99.5207C158.688 100.386 164.739 104.782 166.519 103.747C166.519 103.747 166.947 106.336 166.313 106.939C166.313 106.939 159.676 106.625 159.622 106.595C159.622 106.595 155.279 105.904 154.567 103.319C153.855 100.733 153.001 96.3364 153.001 96.3364L154.987 91.6733Z" fill="#C48C96"/>
<path opacity="0.1" d="M157.128 80.4619C157.128 80.4619 156.983 81.1377 156.79 82.1202C157.184 83.0248 157.813 83.747 158.58 84.1752C159.347 84.6033 160.208 84.7137 161.032 84.4891C160.861 83.6039 160.898 82.7087 161.398 82.0155L157.128 80.4619Z" fill="black"/>
<path d="M160.118 84.4293C162.242 84.4293 163.963 82.3438 163.963 79.7712C163.963 77.1986 162.242 75.1131 160.118 75.1131C157.995 75.1131 156.273 77.1986 156.273 79.7712C156.273 82.3438 157.995 84.4293 160.118 84.4293Z" fill="#714B4F"/>
<path opacity="0.1" d="M163.457 78.4895C163.735 78.5837 164.027 78.6058 164.313 78.5543C164.609 78.4572 164.871 78.2456 165.059 77.9517C165.247 77.6579 165.351 77.2977 165.354 76.926C165.349 76.5542 165.275 76.1886 165.138 75.8559C165.001 75.5233 164.804 75.232 164.562 75.0034C164.237 74.6742 163.848 74.4423 163.549 74.0757C163.197 73.6394 163.004 73.0558 162.726 72.5422C162.268 71.6927 161.589 71.0529 160.797 70.7243C160.209 70.4749 159.486 70.455 159.033 70.9737C158.801 71.2405 158.665 71.622 158.406 71.8489C158.029 72.1731 157.519 72.0783 157.06 72.1432C156.644 72.2198 156.25 72.419 155.912 72.7234C155.575 73.0278 155.305 73.428 155.125 73.8887C154.774 74.8283 154.707 75.8876 154.936 76.8811C155.024 77.305 155.156 77.7139 155.25 78.1279C155.456 79.0056 155.497 79.9258 155.728 80.7911C155.958 81.6564 156.434 82.5042 157.154 82.7635C157.097 81.7923 157.256 80.8204 157.613 79.9482C157.672 79.7575 157.788 79.6008 157.938 79.5094C158.067 79.4695 158.201 79.4695 158.33 79.5094C159.232 79.6712 160.153 79.4453 160.933 78.871C161.207 78.6715 161.633 77.9833 161.923 77.9159C162.298 77.8386 163.066 78.3847 163.457 78.4895Z" fill="black"/>
<path d="M163.457 78.3174C163.735 78.4116 164.027 78.4337 164.313 78.3822C164.609 78.2851 164.871 78.0736 165.059 77.7797C165.247 77.4858 165.351 77.1257 165.354 76.7539C165.349 76.3821 165.275 76.0165 165.138 75.6839C165.001 75.3512 164.804 75.0599 164.562 74.8313C164.237 74.5022 163.848 74.2702 163.549 73.9037C163.197 73.4673 163.004 72.8838 162.726 72.3701C162.268 71.5207 161.589 70.8809 160.797 70.5522C160.209 70.3029 159.486 70.2829 159.033 70.8016C158.801 71.0684 158.665 71.45 158.406 71.6769C158.029 72.001 157.519 71.9063 157.06 71.9711C156.644 72.0477 156.25 72.247 155.912 72.5514C155.575 72.8557 155.305 73.2559 155.125 73.7167C154.774 74.6562 154.707 75.7156 154.936 76.709C155.024 77.1329 155.156 77.5419 155.25 77.9558C155.456 78.8336 155.497 79.7537 155.728 80.619C155.958 81.4843 156.434 82.3321 157.154 82.5915C157.099 81.6206 157.259 80.6496 157.617 79.7787C157.676 79.588 157.792 79.4312 157.943 79.3398C158.071 79.2999 158.205 79.2999 158.334 79.3398C159.236 79.5016 160.157 79.2758 160.937 78.7014C161.211 78.5019 161.637 77.8137 161.927 77.7464C162.298 77.6666 163.066 78.2127 163.457 78.3174Z" fill="#503F43"/>
<path d="M75.4816 94.3689C75.0802 92.945 74.5018 91.1272 74.0408 90.7132C74.013 90.6863 73.9826 90.6637 73.9502 90.6459H73.8926V88.8879L72.81 89.0974C72.6362 88.4619 72.5048 87.8107 72.4168 87.1498C72.5212 87.2763 72.654 87.3624 72.7987 87.3975C72.9434 87.4326 73.0934 87.4149 73.2298 87.3468C73.2113 87.3119 73.1969 87.2745 73.1804 87.2371L73.2298 87.2122C73.0594 86.8479 72.9694 86.4365 72.9685 86.0177C72.9774 85.6356 73.0279 85.2567 73.1187 84.8906C73.3122 84.0802 73.6394 83.3221 73.8226 82.5092C73.9397 81.9843 73.9951 81.442 73.9873 80.8983C73.9928 79.9772 73.8194 79.0674 73.4809 78.2426C73.397 78.0051 73.2654 77.7968 73.0981 77.6366C72.9458 77.5344 72.7892 77.442 72.6288 77.3598C72.3605 77.1408 72.1292 76.8614 71.9476 76.5369C71.1787 75.4028 70.1494 74.5706 68.9899 74.1456C68.688 74.0097 68.3608 73.9787 68.0452 74.0558C67.3186 74.3051 67.0531 75.3849 66.4644 75.9559C65.9437 76.4547 65.2295 76.512 64.5791 76.6816C63.9114 76.8192 63.2968 77.2094 62.8234 77.7962C62.5156 78.2225 62.3479 78.771 62.3521 79.3373C62.3344 79.6015 62.3729 79.8669 62.4641 80.1079C62.5553 80.3489 62.696 80.5575 62.8728 80.7138C63.074 80.8741 63.302 80.9784 63.5404 81.0194C63.7788 81.0603 64.0218 81.0369 64.2518 80.9507C64.0721 81.7028 64.0226 82.4918 64.1064 83.2682C64.1903 84.0446 64.4056 84.7916 64.739 85.4624C65.0724 86.1332 65.5165 86.7133 66.0437 87.1663C66.5708 87.6193 67.1695 87.9355 67.8023 88.0949L67.9299 88.3692C68.3192 89.2488 68.6145 90.1847 68.8088 91.1546C67.8126 91.8403 66.7238 92.4812 66.0672 92.5411C66.0411 92.852 65.9936 93.1598 65.9252 93.4612C65.7718 94.218 65.4767 94.9219 65.0628 95.5184C64.1695 96.7353 60.1498 105.937 60.1498 105.937C60.1498 105.937 60.0222 106.303 59.8163 106.934C57.3197 107.306 53.2465 107.842 52.1083 107.565L47.6419 102.423C47.6419 102.423 46.2011 103.757 46.3246 105.378L45.5199 104.451C45.5199 104.451 41.2758 108.373 47.9774 110.934L58.1739 112.368C57.2024 115.919 56.2968 120.051 56.5767 122.3H56.6611C56.8561 122.3 57.0508 122.281 57.2436 122.245L57.225 122.644L56.2433 143.947C56.2433 143.947 56.0189 147.87 59.0342 149.63C59.0342 149.63 62.7205 162.754 61.2674 164.243C61.2674 164.243 61.4403 164.353 61.7305 164.507L58.6987 167.749C58.6987 167.749 56.4655 168.425 55.2368 168.29C55.0208 168.254 54.8016 168.316 54.6209 168.464C54.4402 168.611 54.3107 168.835 54.2571 169.09C54.2571 169.118 54.2571 169.145 54.2447 169.175V169.21C54.2447 169.238 54.2447 169.268 54.2447 169.297C54.2447 169.327 54.2447 169.32 54.2447 169.33C54.2447 169.34 54.2447 169.38 54.2447 169.405V169.437C54.2447 169.467 54.2447 169.494 54.2591 169.524V169.557C54.266 169.588 54.2742 169.619 54.2838 169.649V169.679C54.2941 169.709 54.3065 169.739 54.3188 169.769V169.789C54.3332 169.819 54.3476 169.849 54.3641 169.878L54.3785 169.903C54.3963 169.935 54.4162 169.967 54.4382 169.998L54.4546 170.023C54.4773 170.056 54.502 170.085 54.5287 170.118H54.5411L54.6234 170.203L54.6419 170.22L54.7428 170.307L54.7675 170.327L54.8848 170.41H54.9033L55.0289 170.484H55.0474L55.1936 170.557L55.2244 170.572L55.387 170.637H55.4138L55.5887 170.691H55.6031L55.809 170.739H55.8481L56.0539 170.776H56.093L56.3297 170.804C56.7887 170.846 57.4082 170.861 58.1245 170.858C58.1245 170.858 58.1245 170.881 58.1245 170.891C58.1245 170.901 58.1245 170.941 58.1245 170.966V170.998C58.1245 171.028 58.1245 171.055 58.1389 171.085V171.118C58.1457 171.149 58.154 171.18 58.1636 171.21V171.24C58.1739 171.27 58.1862 171.3 58.1986 171.33V171.35C58.213 171.38 58.2274 171.41 58.2439 171.439L58.2583 171.464C58.2761 171.496 58.296 171.528 58.3179 171.559L58.3344 171.584C58.3571 171.617 58.3818 171.646 58.4085 171.679H58.4188L58.5011 171.764L58.5197 171.781L58.6205 171.868L58.6452 171.888L58.7605 171.971H58.779L58.9045 172.045H58.9231L59.0692 172.118L59.1001 172.133L59.2627 172.198H59.2894L59.4644 172.252H59.4788L59.6846 172.3H59.7237L59.9295 172.337H59.9687L60.2053 172.365C63.1095 172.636 72.3777 171.823 72.3777 171.823V171.791V171.751C72.4704 171.228 72.9149 168.183 71.3342 165.931C71.3816 165.871 71.4268 165.809 71.4701 165.744C71.4701 165.744 70.2351 163.173 70.9123 162.363C71.5894 161.552 67.6417 147.605 67.6417 147.605C67.6417 147.605 65.5197 143.546 66.7485 138.945C67.9772 134.344 66.6373 129.34 66.6373 129.34C66.6373 129.34 69.5703 128.287 69.6238 123.916C69.6238 123.784 69.6238 123.647 69.6238 123.509C69.6852 123.52 69.7471 123.525 69.8091 123.524C69.8502 123.528 69.8914 123.528 69.9326 123.524C69.9326 123.524 69.3748 121.088 70.0437 119.33C70.7126 117.572 72.1657 119.195 73.5056 112.024C74.4751 106.835 75.3272 100.867 75.7265 97.9622C75.8905 96.7583 75.8064 95.5239 75.4816 94.3689ZM49.9965 109.58L48.9777 108.408C49.3152 108.578 49.6898 108.742 50.1077 108.907L53.9463 109.453C52.2338 109.64 50.6346 109.745 49.9965 109.587V109.58Z" fill="url(#paint1_linear_2_199)"/>
<path d="M59.7175 108.897C59.7175 108.897 51.818 110.226 50.1715 109.827L45.7833 104.775C45.7833 104.775 41.6133 108.63 48.1976 111.156L60.4853 112.884L59.7175 108.897Z" fill="#FDC2CC"/>
<path opacity="0.05" d="M59.7175 108.897C59.7175 108.897 51.818 110.226 50.1715 109.827L45.7833 104.775C45.7833 104.775 41.6133 108.63 48.1976 111.156L60.4853 112.884L59.7175 108.897Z" fill="black"/>
<path d="M62.5723 162.864L58.7317 166.983C58.7317 166.983 56.5376 167.649 55.3315 167.515C54.1253 167.38 53.5758 169.774 56.4285 170.041C59.2812 170.307 68.3868 169.509 68.3868 169.509C68.3868 169.509 69.2636 165.255 66.6312 162.864H62.5723Z" fill="#47465A"/>
<path opacity="0.05" d="M62.5723 162.864L58.7317 166.983C58.7317 166.983 56.5376 167.649 55.3315 167.515C54.1253 167.38 53.5758 169.774 56.4285 170.041C59.2812 170.307 68.3868 169.509 68.3868 169.509C68.3868 169.509 69.2636 165.255 66.6312 162.864H62.5723Z" fill="black"/>
<path opacity="0.3" d="M68.5227 167.672C68.5162 168.156 68.47 168.639 68.3848 169.113C68.3848 169.113 59.2792 169.911 56.4264 169.644C55.0536 169.517 54.4711 168.896 54.3682 168.302C54.2427 168.986 54.7408 169.886 56.4264 170.048C59.2792 170.315 68.3848 169.517 68.3848 169.517C68.492 168.911 68.5383 168.291 68.5227 167.672Z" fill="white"/>
<path d="M67.0675 87.5089C67.0675 87.5089 69.4818 91.6284 68.6029 94.4213C67.7241 97.2141 73.2113 91.4962 73.2113 91.4962C73.2113 91.4962 71.4557 87.7583 72.3345 83.7685L67.0675 87.5089Z" fill="#FDC2CC"/>
<path d="M66.4089 164.46L62.5723 168.579C62.5723 168.579 60.3783 169.245 59.1721 169.11C57.966 168.976 57.4165 171.37 60.2692 171.636C63.1219 171.903 72.2275 171.105 72.2275 171.105C72.2275 171.105 73.1043 166.851 70.4718 164.46H66.4089Z" fill="#47465A"/>
<path d="M67.5121 163.53C66.9399 164.385 66.1331 164.714 65.2892 164.764C63.3709 164.874 61.2592 163.53 61.2592 163.53C62.6855 162.068 59.0651 149.174 59.0651 149.174C56.1033 147.446 56.3215 143.591 56.3215 143.591L57.2806 122.669L57.5235 117.413L60.5964 115.153L63.0169 117.398L65.3139 119.532C65.4635 120.211 65.56 120.906 65.602 121.607C65.8696 126.492 62.6814 127.641 62.6814 127.641C62.6814 127.641 63.9987 132.559 62.7905 137.08C61.5823 141.601 63.6673 145.588 63.6673 145.588C63.6673 145.588 67.617 159.413 66.9605 160.211C66.3039 161.009 67.5121 163.53 67.5121 163.53Z" fill="#565171"/>
<path opacity="0.05" d="M67.5121 163.53C66.9399 164.385 66.1331 164.714 65.2892 164.764C63.3709 164.874 61.2592 163.53 61.2592 163.53C62.6855 162.068 59.0651 149.174 59.0651 149.174C56.1033 147.446 56.3215 143.591 56.3215 143.591L57.2806 122.669L57.5235 117.413L60.5964 115.153L63.0169 117.398L65.3139 119.532C65.4635 120.211 65.56 120.906 65.602 121.607C65.8696 126.492 62.6814 127.641 62.6814 127.641C62.6814 127.641 63.9987 132.559 62.7905 137.08C61.5823 141.601 63.6673 145.588 63.6673 145.588C63.6673 145.588 67.617 159.413 66.9605 160.211C66.3039 161.009 67.5121 163.53 67.5121 163.53Z" fill="black"/>
<path d="M71.3466 165.123C69.4818 167.913 65.0937 165.123 65.0937 165.123C65.182 165.024 65.248 164.9 65.2851 164.762C66.0899 162.111 62.5703 149.438 62.5703 149.438C59.6085 147.71 59.2771 143.591 59.2771 143.591L58.5012 122.29L58.4003 119.532L63.0169 117.398L64.435 116.742L69.1587 121.128C69.3615 122.037 69.4612 122.975 69.4551 123.916C69.3954 128.207 66.52 129.245 66.52 129.245C66.52 129.245 67.8373 134.162 66.6291 138.683C65.4209 143.204 67.5121 147.179 67.5121 147.179C67.5121 147.179 71.4618 161.004 70.8053 161.802C70.1487 162.6 71.3466 165.123 71.3466 165.123Z" fill="#565171"/>
<path opacity="0.1" d="M69.4551 123.916C68.5062 123.751 66.5859 122.367 65.6 121.617C65.2233 121.33 64.9825 121.138 64.9825 121.138C64.9825 121.138 63.9946 117.814 61.3621 120.34C60.5057 121.183 59.5386 121.845 58.5011 122.3C58.1048 122.47 57.6962 122.594 57.2806 122.672L57.5235 117.415L60.5964 115.156L63.0169 117.4L64.435 116.744L69.1587 121.128C69.3615 122.037 69.4612 122.975 69.4551 123.916Z" fill="black"/>
<path d="M75.393 98.4086C75.002 101.261 74.1581 107.136 73.2113 112.221C71.894 119.265 70.4677 117.669 69.8111 119.397C69.1545 121.126 69.702 123.517 69.702 123.517C68.605 123.649 64.9846 120.727 64.9846 120.727C64.9846 120.727 63.9966 117.403 61.3641 119.929C58.7317 122.455 56.6467 122.32 56.6467 122.32C56.0971 117.934 60.158 106.236 60.158 106.236C60.158 106.236 64.1078 97.1967 64.9846 96.0122C65.3914 95.4267 65.6816 94.7355 65.8326 93.9924C65.8999 93.6967 65.9467 93.3948 65.9725 93.0897C67.3989 92.9575 70.9123 90.0325 70.9123 90.0325L73.6559 89.5013V91.2294C73.6884 91.247 73.7188 91.2697 73.7465 91.2967C74.1972 91.7132 74.7756 93.4886 75.1605 94.8876C75.4756 96.0203 75.5555 97.2296 75.393 98.4086Z" fill="#E1A0A7"/>
<path d="M62.5723 110.892L61.1542 110.692L50.2847 109.164C43.6983 106.638 47.8704 102.782 47.8704 102.782L52.2585 107.834C53.5243 108.141 58.4909 107.426 60.7158 107.086C61.3827 106.982 61.8046 106.912 61.8046 106.912L62.5723 110.892Z" fill="#FDC2CC"/>
<path opacity="0.1" d="M73.2113 92.9475C73.2113 92.9475 70.3586 90.1572 66.0713 99.1941C61.784 108.231 60.8043 106.77 60.8043 106.77C60.8043 106.77 61.6811 110.76 61.2427 111.555C61.2427 111.555 64.2045 111.288 65.3016 111.555C66.3986 111.822 73.2011 101.453 73.2011 101.453C73.2011 101.453 76.7227 95.6057 73.2113 92.9475Z" fill="black"/>
<path opacity="0.1" d="M73.1023 92.4164C73.1023 92.4164 70.2495 89.626 65.9705 98.6629C61.6914 107.7 60.7035 106.239 60.7035 106.239C60.7035 106.239 64.1037 110.757 65.2007 111.024C66.2977 111.291 73.1002 100.922 73.1002 100.922C73.1002 100.922 76.6136 95.0746 73.1023 92.4164Z" fill="black"/>
<path opacity="0.1" d="M61.1521 110.7C61.1974 109.715 60.8908 107.984 60.7137 107.086C61.3806 106.982 61.8026 106.912 61.8026 106.912L62.5703 110.902L61.1521 110.7Z" fill="black"/>
<path d="M73.2113 92.6807C73.2113 92.6807 70.3586 89.8903 66.0713 98.9297C61.784 107.969 60.8043 106.505 60.8043 106.505C60.8043 106.505 61.6811 110.495 61.2427 111.291C61.2427 111.291 64.2045 111.024 65.3016 111.291C66.3986 111.557 73.2011 101.189 73.2011 101.189C73.2011 101.189 76.7227 95.3389 73.2113 92.6807Z" fill="#E1A0A7"/>
<path opacity="0.1" d="M72.4518 84.0403L67.1766 87.7583C67.3998 88.1506 67.6059 88.5567 67.794 88.9752C68.0975 89.0498 68.4064 89.0874 68.7161 89.0874C70.1219 89.0874 70.7744 87.2994 71.6244 86.095C71.5627 85.1375 72.209 85.1125 72.4518 84.0403Z" fill="black"/>
<path d="M68.6029 88.828C71.1481 88.828 73.2113 86.3283 73.2113 83.2448C73.2113 80.1613 71.1481 77.6616 68.6029 77.6616C66.0578 77.6616 63.9946 80.1613 63.9946 83.2448C63.9946 86.3283 66.0578 88.828 68.6029 88.828Z" fill="#FDC2CC"/>
<path opacity="0.1" d="M62.7781 78.7289C63.2429 78.1515 63.8467 77.7673 64.5029 77.6317C65.143 77.4646 65.8449 77.4147 66.3553 76.9185C66.9337 76.3574 67.193 75.2901 67.9073 75.0508C68.2175 74.9756 68.539 75.0066 68.8355 75.1405C69.9748 75.5577 70.9863 76.3753 71.7417 77.4895C71.9205 77.8092 72.1483 78.0844 72.4127 78.3C72.5702 78.3807 72.7241 78.4714 72.8738 78.5718C73.0376 78.7296 73.1664 78.9344 73.2484 79.1677C73.7626 80.4262 73.8811 81.8683 73.5818 83.2249C73.4027 84.0253 73.0817 84.7684 72.8902 85.5664C72.6988 86.3644 72.6515 87.2671 72.9993 87.9802C72.6618 88.1897 72.2357 87.9254 72.0237 87.5438C71.8117 87.1623 71.7479 86.6935 71.6368 86.2521C71.4182 85.3857 71.0065 84.6091 70.4471 84.0079C70.1013 83.6388 69.4839 83.3895 69.243 83.8657C69.1504 84.0503 69.1566 84.2872 69.0763 84.4792C68.9199 84.8557 68.4589 84.9305 68.1645 84.7285C67.8747 84.4861 67.6711 84.1201 67.5944 83.7037C67.1436 81.8509 66.3718 80.6864 64.7376 81.4768C64.1201 81.7711 63.41 81.9756 62.8234 81.4768C62.0722 80.8085 62.2224 79.4844 62.7781 78.7289Z" fill="black"/>
<path d="M62.7781 78.5942C63.2429 78.0168 63.8467 77.6327 64.5029 77.497C65.143 77.3299 65.8449 77.28 66.3553 76.7838C66.9337 76.2227 67.193 75.1555 67.9073 74.9161C68.2175 74.8409 68.539 74.872 68.8355 75.0059C69.9748 75.4231 70.9863 76.2406 71.7417 77.3549C71.9205 77.6746 72.1483 77.9497 72.4127 78.1653C72.5702 78.246 72.7241 78.3367 72.8738 78.4371C73.0376 78.5949 73.1664 78.7997 73.2484 79.0331C73.7626 80.2915 73.8811 81.7336 73.5818 83.0902C73.4027 83.8907 73.0817 84.6338 72.8902 85.4317C72.6988 86.2297 72.6515 87.1324 72.9993 87.8456C72.6618 88.055 72.2357 87.7907 72.0237 87.4092C71.8117 87.0276 71.7479 86.5588 71.6368 86.1175C71.4182 85.251 71.0065 84.4745 70.4471 83.8732C70.1013 83.5041 69.4839 83.2548 69.243 83.7311C69.1504 83.9156 69.1566 84.1525 69.0763 84.3445C68.9199 84.721 68.4589 84.7958 68.1645 84.5939C67.8747 84.3515 67.6711 83.9854 67.5944 83.569C67.1436 81.7162 66.3718 80.5517 64.7376 81.3422C64.1201 81.6364 63.41 81.8409 62.8234 81.3422C62.0722 80.6764 62.2224 79.3523 62.7781 78.5942Z" fill="#8F5A6A"/>
<path opacity="0.05" d="M73.7403 91.2868H71.5112C71.5112 91.2868 67.1231 93.945 67.014 93.8128C66.9399 93.723 66.2607 93.8777 65.8305 93.9849C65.8979 93.6892 65.9447 93.3873 65.9705 93.0822C67.3968 92.95 70.9102 90.025 70.9102 90.025L73.6538 89.4939V91.2219C73.6848 91.2391 73.7138 91.2609 73.7403 91.2868Z" fill="black"/>
<path opacity="0.3" d="M72.3613 169.265C72.3548 169.75 72.3086 170.233 72.2234 170.706C72.2234 170.706 63.1178 171.504 60.2651 171.238C58.8922 171.11 58.3097 170.489 58.2068 169.896C58.0813 170.579 58.5794 171.479 60.2651 171.641C63.1178 171.908 72.2234 171.11 72.2234 171.11C72.3307 170.504 72.377 169.885 72.3613 169.265Z" fill="white"/>
<g opacity="0.05">
<path d="M60.3206 119.796C58.8408 121.218 57.5317 121.791 56.6714 122.041C56.6714 122.14 56.6879 122.238 56.7002 122.332C56.7002 122.332 58.7852 122.465 61.4177 119.941C61.8256 119.518 62.3077 119.212 62.8276 119.048C62.2533 118.707 61.4341 118.729 60.3206 119.796Z" fill="black"/>
<path d="M75.2099 94.8751C74.8168 93.4762 74.2467 91.7032 73.7959 91.2843C73.7682 91.2572 73.7378 91.2346 73.7053 91.2169C73.7053 91.2169 72.7977 91.2544 72.8285 91.2843C73.2793 91.7007 73.7197 93.344 74.1129 94.7404C74.4314 95.8756 74.5135 97.0886 74.3516 98.2714C73.9606 101.124 73.1167 106.999 72.1699 112.084C70.8526 119.128 69.4263 117.532 68.7697 119.26C68.2304 120.677 68.5001 122.537 68.6174 123.163C68.9722 123.378 69.3611 123.498 69.7576 123.514C69.7576 123.514 69.2081 121.123 69.8667 119.395C70.5254 117.667 71.9517 119.263 73.2669 112.218C74.2199 107.121 75.0576 101.246 75.4487 98.4061C75.6105 97.2232 75.5285 96.0103 75.2099 94.8751Z" fill="black"/>
</g>
<path d="M87.9606 119.704C88.3379 119.332 88.6128 118.829 88.7489 118.263C88.8518 117.689 88.6501 117.004 88.1973 116.794C87.691 116.56 87.1497 116.984 86.7401 117.415C86.3305 117.846 85.8592 118.335 85.322 118.243C85.5981 117.94 85.8046 117.555 85.9215 117.126C86.0384 116.698 86.0616 116.239 85.9888 115.797C85.9656 115.613 85.9016 115.441 85.8036 115.298C85.5216 114.934 85.0132 115.091 84.6757 115.378C83.6054 116.29 83.307 118.051 83.3008 119.637C83.1938 119.066 83.2843 118.47 83.2802 117.891C83.2761 117.313 83.1444 116.644 82.7368 116.34C82.4841 116.176 82.2003 116.094 81.9135 116.103C81.4319 116.081 80.8968 116.141 80.5675 116.567C80.1558 117.096 80.2649 117.986 80.621 118.562C80.977 119.138 81.5163 119.51 82.0144 119.914C82.4136 120.201 82.7541 120.594 83.0106 121.063C83.0407 121.128 83.0656 121.197 83.0847 121.268H86.1C86.7756 120.851 87.4015 120.325 87.9606 119.704Z" fill="#6C63FF"/>
<path d="M93.4993 166.527C93.9789 165.986 94.4297 165.348 94.5696 164.572C94.7096 163.797 94.4358 162.864 93.8225 162.577C93.1371 162.258 92.4023 162.827 91.8466 163.417C91.2909 164.008 90.6528 164.664 89.9263 164.54C90.3005 164.128 90.5804 163.607 90.7387 163.026C90.8971 162.444 90.9284 161.823 90.8298 161.223C90.7979 160.975 90.7111 160.743 90.5787 160.55C90.1979 160.051 89.5064 160.268 89.0515 160.657C87.6107 161.904 87.1991 164.28 87.1888 166.43C87.0427 165.654 87.1662 164.846 87.162 164.051C87.1579 163.255 86.9789 162.375 86.4252 161.946C86.0804 161.722 85.6927 161.612 85.3014 161.627C84.6489 161.597 83.9224 161.677 83.4778 162.255C82.9241 162.974 83.0662 164.178 83.5498 164.969C84.0335 165.759 84.7642 166.255 85.4372 166.801C85.9776 167.192 86.4384 167.724 86.7854 168.36C86.8265 168.449 86.8603 168.542 86.8862 168.639H90.9759C91.8918 168.076 92.7406 167.366 93.4993 166.527Z" fill="#6C63FF"/>
</g>
<defs>
<linearGradient id="paint0_linear_2_199" x1="165.511" y1="153.802" x2="165.511" y2="69.3802" gradientUnits="userSpaceOnUse">
<stop stop-color="#808080" stop-opacity="0.25"/>
<stop offset="0.54" stop-color="#808080" stop-opacity="0.12"/>
<stop offset="1" stop-color="#808080" stop-opacity="0.1"/>
</linearGradient>
<linearGradient id="paint1_linear_2_199" x1="60.0057" y1="172.557" x2="60.0057" y2="74.0059" gradientUnits="userSpaceOnUse">
<stop stop-color="#808080" stop-opacity="0.25"/>
<stop offset="0.54" stop-color="#808080" stop-opacity="0.12"/>
<stop offset="1" stop-color="#808080" stop-opacity="0.1"/>
</linearGradient>
<clipPath id="clip0_2_199">
<rect width="212" height="182" fill="white"/>
</clipPath>
</defs>
</svg>
