<svg width="118" height="109" viewBox="0 0 118 109" fill="none" xmlns="http://www.w3.org/2000/svg">
<path d="M106.91 24.0237C106.91 24.0237 75.6701 10.2543 75.6701 9.30464C75.6701 8.35503 72.4931 2.1825 70.3752 2.1825C68.2572 2.1825 50.2547 -3.0404 40.1944 4.55654L39.1354 10.7291L0.48291 33.5199L11.0727 68.181C11.0727 68.181 17.956 74.8283 15.838 79.5764C13.7201 84.3245 17.4265 108.54 17.4265 108.54L100.556 106.166V73.8787C100.556 73.8787 103.203 66.2818 104.792 63.9077C106.38 61.5337 104.792 54.4115 104.792 54.4115L117.5 40.1672C117.5 40.1672 115.911 26.8726 106.91 24.0237Z" fill="#FFD700"/>
</svg>
