<svg width="128" height="100" viewBox="0 0 128 100" fill="none" xmlns="http://www.w3.org/2000/svg">
<path d="M18.8957 1.66192C18.8957 1.66192 3.54056 -3.56099 0.893126 6.41001C-1.7543 16.381 7.24696 61.0131 7.24696 61.0131C7.24696 61.0131 13.0713 94.7246 16.7777 95.6742C20.4841 96.6238 36.8982 97.0986 39.5457 92.8253C42.1931 88.552 31.6034 44.8696 31.6034 44.8696L93.0238 43.9199C93.0238 43.9199 89.3174 81.9047 87.1995 85.2283C85.0815 88.552 85.0815 99.9474 87.1995 99.9474C89.3174 99.9474 112.615 98.9978 114.203 96.149C115.792 93.3001 124.793 29.2008 124.793 29.2008C124.793 29.2008 132.206 6.88482 123.734 8.30925C115.262 9.73368 18.8957 1.66192 18.8957 1.66192Z" fill="#3F3D56"/>
</svg>
