<svg width="46" height="46" viewBox="0 0 46 46" fill="none" xmlns="http://www.w3.org/2000/svg">
<path d="M23.739 0.792647C21.7349 0.730215 19.7342 0.985923 17.8293 1.54797C16.3522 2.08042 14.9412 2.74987 13.6193 3.5454L4.73641 8.49883C3.98227 8.7915 3.34168 9.27789 2.89544 9.89665C2.44921 10.5154 2.21732 11.2388 2.22902 11.9756L1.11902 19.4301C0.838897 21.3113 0.580675 23.3231 1.51977 25.0239C2.30362 26.4436 3.79841 27.415 5.02754 28.5528C6.99449 30.3812 8.3184 32.688 8.83446 35.186C9.46993 38.2983 9.06308 42.0464 11.8097 44.0326C13.2969 45.108 15.3241 45.3115 17.2313 45.4115C22.4468 45.6845 27.6794 45.5039 32.856 44.8722C33.679 44.8169 34.4815 44.6153 35.2168 44.279C36.1505 43.7837 36.7384 42.9095 37.2878 42.0706C39.2715 39.0421 41.316 35.8204 41.2945 32.3083C41.2838 30.5707 40.788 28.7046 41.7184 27.1805C42.21 26.5327 42.7436 25.9112 43.3163 25.3194C44.4682 23.868 44.6925 22.0031 44.8802 20.2294C45.4798 14.5644 44.853 10.2533 40.197 6.26273C35.8507 2.5376 29.6665 0.826934 23.739 0.792647Z" fill="#2F2E41"/>
</svg>
