<svg width="673" height="387" viewBox="0 0 673 387" fill="none" xmlns="http://www.w3.org/2000/svg">
<path d="M158.828 319.486C176.806 319.486 191.379 304.901 191.379 286.909C191.379 268.917 176.806 254.332 158.828 254.332C140.851 254.332 126.277 268.917 126.277 286.909C126.277 304.901 140.851 319.486 158.828 319.486Z" fill="#6C63FF"/>
<path d="M164.121 314.718C182.098 314.718 196.672 300.133 196.672 282.141C196.672 264.15 182.098 249.565 164.121 249.565C146.144 249.565 131.57 264.15 131.57 282.141C131.57 300.133 146.144 314.718 164.121 314.718Z" fill="#2F2E41"/>
<path d="M593.077 246.096H190.336V247.196H593.077V246.096Z" fill="#3F3D56"/>
<path d="M398.916 10.2565H255.968V7.30785H191.149V10.2565H47.6118C46.342 10.2565 45.0847 10.5068 43.9115 10.9931C42.7384 11.4794 41.6724 12.1922 40.7745 13.0908C39.8767 13.9894 39.1644 15.0562 38.6785 16.2303C38.1925 17.4044 37.9424 18.6628 37.9424 19.9336V215.83C37.9424 218.397 38.9612 220.858 40.7745 222.673C42.5879 224.488 45.0473 225.507 47.6118 225.507H398.916C401.481 225.507 403.94 224.488 405.753 222.673C407.567 220.858 408.586 218.397 408.586 215.83V19.9336C408.586 18.6628 408.335 17.4044 407.85 16.2303C407.364 15.0562 406.651 13.9894 405.753 13.0908C404.856 12.1922 403.79 11.4794 402.617 10.9931C401.443 10.5068 400.186 10.2565 398.916 10.2565Z" fill="#2F2E41"/>
<path d="M395.622 27.3586H50.9061V221.969H395.622V27.3586Z" fill="#53537C"/>
<path d="M222.969 22.051C224.922 22.051 226.505 20.4669 226.505 18.5127C226.505 16.5585 224.922 14.9743 222.969 14.9743C221.017 14.9743 219.434 16.5585 219.434 18.5127C219.434 20.4669 221.017 22.051 222.969 22.051Z" fill="#6C63FF"/>
<path opacity="0.1" d="M297.039 221.969H50.9062V27.3588L297.039 221.969Z" fill="black"/>
<path d="M104.844 207.406C123.144 207.406 137.979 192.559 137.979 174.244C137.979 155.93 123.144 141.083 104.844 141.083C86.5438 141.083 71.7087 155.93 71.7087 174.244C71.7087 192.559 86.5438 207.406 104.844 207.406Z" fill="#3F3D56"/>
<path d="M335.601 132.313H303.401V139.047H335.601V132.313Z" fill="#3F3D56"/>
<path d="M374.53 79.8862H264.472V82.7721H374.53V79.8862Z" fill="#3F3D56"/>
<path d="M374.53 89.0249H264.472V91.9108H374.53V89.0249Z" fill="#3F3D56"/>
<path d="M374.53 98.1636H264.472V101.05H374.53V98.1636Z" fill="#3F3D56"/>
<path d="M374.53 107.302H264.472V110.188H374.53V107.302Z" fill="#3F3D56"/>
<path d="M374.53 116.441H264.472V119.327H374.53V116.441Z" fill="#3F3D56"/>
<path d="M374.53 31.3068H361.073V44.7744H374.53V31.3068Z" fill="#F2F2F2"/>
<path d="M380.778 51.0272H364.437V34.6737H380.778V51.0272ZM365.148 50.3162H380.067V35.3848H365.148V50.3162Z" fill="#3F3D56"/>
<path d="M418.264 218.43H384.622V216.005C384.622 215.941 384.61 215.879 384.586 215.821C384.562 215.762 384.526 215.709 384.482 215.665C384.437 215.62 384.384 215.584 384.326 215.56C384.267 215.536 384.205 215.524 384.142 215.524H372.607C372.544 215.524 372.482 215.536 372.424 215.56C372.365 215.584 372.312 215.62 372.268 215.665C372.223 215.709 372.188 215.762 372.163 215.821C372.139 215.879 372.127 215.941 372.127 216.005V218.43H364.918V216.005C364.918 215.941 364.905 215.879 364.881 215.821C364.857 215.762 364.822 215.709 364.777 215.665C364.732 215.62 364.679 215.584 364.621 215.56C364.563 215.536 364.5 215.524 364.437 215.524H352.903C352.84 215.524 352.777 215.536 352.719 215.56C352.661 215.584 352.608 215.62 352.563 215.665C352.518 215.709 352.483 215.762 352.459 215.821C352.435 215.879 352.422 215.941 352.422 216.005V218.43H345.213V216.005C345.213 215.941 345.201 215.879 345.177 215.821C345.153 215.762 345.117 215.709 345.072 215.665C345.028 215.62 344.975 215.584 344.917 215.56C344.858 215.536 344.796 215.524 344.733 215.524H333.198C333.135 215.524 333.073 215.536 333.014 215.56C332.956 215.584 332.903 215.62 332.858 215.665C332.814 215.709 332.778 215.762 332.754 215.821C332.73 215.879 332.718 215.941 332.718 216.005V218.43H325.509V216.005C325.509 215.941 325.496 215.879 325.472 215.821C325.448 215.762 325.412 215.709 325.368 215.665C325.323 215.62 325.27 215.584 325.212 215.56C325.154 215.536 325.091 215.524 325.028 215.524H313.494C313.43 215.524 313.368 215.536 313.31 215.56C313.251 215.584 313.198 215.62 313.154 215.665C313.109 215.709 313.074 215.762 313.05 215.821C313.025 215.879 313.013 215.941 313.013 216.005V218.43H305.804V216.005C305.804 215.941 305.792 215.879 305.767 215.821C305.743 215.762 305.708 215.709 305.663 215.665C305.619 215.62 305.566 215.584 305.507 215.56C305.449 215.536 305.386 215.524 305.323 215.524H293.789C293.726 215.524 293.663 215.536 293.605 215.56C293.547 215.584 293.494 215.62 293.449 215.665C293.405 215.709 293.369 215.762 293.345 215.821C293.321 215.879 293.308 215.941 293.308 216.005V218.43H286.099V216.005C286.099 215.941 286.087 215.879 286.063 215.821C286.039 215.762 286.003 215.709 285.959 215.665C285.914 215.62 285.861 215.584 285.803 215.56C285.744 215.536 285.682 215.524 285.619 215.524H274.084C274.021 215.524 273.959 215.536 273.9 215.56C273.842 215.584 273.789 215.62 273.745 215.665C273.7 215.709 273.665 215.762 273.64 215.821C273.616 215.879 273.604 215.941 273.604 216.005V218.43H266.395V216.005C266.395 215.941 266.382 215.879 266.358 215.821C266.334 215.762 266.299 215.709 266.254 215.665C266.209 215.62 266.156 215.584 266.098 215.56C266.04 215.536 265.977 215.524 265.914 215.524H175.561C175.498 215.524 175.436 215.536 175.377 215.56C175.319 215.584 175.266 215.62 175.221 215.665C175.177 215.709 175.141 215.762 175.117 215.821C175.093 215.879 175.081 215.941 175.081 216.005V218.43H167.872V216.005C167.872 215.941 167.859 215.879 167.835 215.821C167.811 215.762 167.776 215.709 167.731 215.665C167.686 215.62 167.633 215.584 167.575 215.56C167.517 215.536 167.454 215.524 167.391 215.524H155.857C155.794 215.524 155.731 215.536 155.673 215.56C155.614 215.584 155.561 215.62 155.517 215.665C155.472 215.709 155.437 215.762 155.413 215.821C155.389 215.879 155.376 215.941 155.376 216.005V218.43H148.167V216.005C148.167 215.941 148.155 215.879 148.13 215.821C148.106 215.762 148.071 215.709 148.026 215.665C147.982 215.62 147.929 215.584 147.87 215.56C147.812 215.536 147.75 215.524 147.686 215.524H136.152C136.089 215.524 136.026 215.536 135.968 215.56C135.91 215.584 135.857 215.62 135.812 215.665C135.768 215.709 135.732 215.762 135.708 215.821C135.684 215.879 135.671 215.941 135.671 216.005V218.43H128.462V216.005C128.462 215.941 128.45 215.879 128.426 215.821C128.402 215.762 128.366 215.709 128.322 215.665C128.277 215.62 128.224 215.584 128.166 215.56C128.107 215.536 128.045 215.524 127.982 215.524H116.447C116.384 215.524 116.322 215.536 116.264 215.56C116.205 215.584 116.152 215.62 116.108 215.665C116.063 215.709 116.028 215.762 116.003 215.821C115.979 215.879 115.967 215.941 115.967 216.005V218.43H108.758V216.005C108.758 215.941 108.745 215.879 108.721 215.821C108.697 215.762 108.662 215.709 108.617 215.665C108.572 215.62 108.52 215.584 108.461 215.56C108.403 215.536 108.34 215.524 108.277 215.524H96.7428C96.6797 215.524 96.6172 215.536 96.5589 215.56C96.5006 215.584 96.4476 215.62 96.403 215.665C96.3584 215.709 96.323 215.762 96.2988 215.821C96.2747 215.879 96.2622 215.941 96.2622 216.005V218.43H89.0532V216.005C89.0533 215.941 89.0408 215.879 89.0167 215.821C88.9925 215.762 88.9571 215.709 88.9125 215.665C88.8679 215.62 88.8149 215.584 88.7566 215.56C88.6983 215.536 88.6358 215.524 88.5726 215.524H77.0382C76.9751 215.524 76.9126 215.536 76.8543 215.56C76.796 215.584 76.743 215.62 76.6984 215.665C76.6538 215.709 76.6184 215.762 76.5942 215.821C76.5701 215.879 76.5576 215.941 76.5576 216.005V218.43H69.3486V216.005C69.3486 215.941 69.3362 215.879 69.3121 215.821C69.2879 215.762 69.2525 215.709 69.2079 215.665C69.1632 215.62 69.1103 215.584 69.052 215.56C68.9936 215.536 68.9311 215.524 68.868 215.524H57.3336C57.2705 215.524 57.208 215.536 57.1497 215.56C57.0914 215.584 57.0384 215.62 56.9938 215.665C56.9492 215.709 56.9138 215.762 56.8896 215.821C56.8654 215.879 56.853 215.941 56.853 216.005V218.43H34.7454C31.6863 218.43 28.7525 219.647 26.5894 221.812C24.4262 223.976 23.211 226.913 23.211 229.974V235.194C23.211 238.255 24.4262 241.192 26.5894 243.356C28.7525 245.521 31.6863 246.737 34.7454 246.737H418.264C421.324 246.737 424.257 245.521 426.421 243.356C428.584 241.192 429.799 238.255 429.799 235.194V229.974C429.799 226.913 428.584 223.976 426.421 221.812C424.257 219.647 421.324 218.43 418.264 218.43Z" fill="#2F2E41"/>
<path d="M112.864 194.957C104.605 194.957 96.5321 192.506 89.665 187.914C82.798 183.322 77.4458 176.795 74.2853 169.159C71.1248 161.522 70.2978 153.119 71.9091 145.013C73.5203 136.906 77.4973 129.46 83.3372 123.615C89.1771 117.771 96.6176 113.79 104.718 112.178C112.818 110.565 121.214 111.393 128.844 114.556C136.475 117.719 142.996 123.075 147.585 129.948C152.173 136.82 154.622 144.9 154.622 153.166C154.61 164.246 150.206 174.868 142.378 182.703C134.549 190.537 123.935 194.944 112.864 194.957ZM112.864 112.475C104.823 112.475 96.9619 114.861 90.2756 119.332C83.5893 123.803 78.3779 130.159 75.3005 137.594C72.2232 145.029 71.418 153.211 72.9868 161.104C74.5557 168.998 78.428 176.248 84.1143 181.939C89.8005 187.63 97.0452 191.505 104.932 193.075C112.819 194.645 120.994 193.839 128.424 190.76C135.853 187.68 142.203 182.464 146.671 175.773C151.139 169.081 153.523 161.214 153.523 153.166C153.511 142.378 149.223 132.035 141.601 124.406C133.979 116.778 123.644 112.487 112.864 112.475Z" fill="#4B4B70"/>
<path d="M485.387 17.8949H345.279V18.9947H485.387V17.8949Z" fill="#3F3D56"/>
<path d="M297.383 302.435H281.999V317.832H297.383V302.435Z" fill="#6C63FF"/>
<path d="M306.724 309.033H288.043V290.337H306.724V309.033ZM288.855 308.221H305.911V291.15H288.855V308.221Z" fill="#3F3D56"/>
<path d="M475.952 12.0974H460.568V27.4941H475.952V12.0974Z" fill="#6C63FF"/>
<path d="M485.293 18.696H466.612V0H485.293V18.696ZM467.424 17.8831H484.48V0.81287H467.424V17.8831Z" fill="#53537C"/>
<path d="M630.895 302.435H615.511V317.832H630.895V302.435Z" fill="#4B4B70"/>
<path d="M640.236 309.033H621.555V290.337H640.236V309.033ZM622.367 308.221H639.423V291.15H622.367V308.221Z" fill="#3F3D56"/>
<path d="M604.067 127.55H602.76V91.7184C602.76 88.995 602.224 86.2983 601.182 83.7822C600.141 81.2662 598.615 78.98 596.69 77.0543C594.766 75.1286 592.482 73.601 589.968 72.5589C587.454 71.5167 584.759 70.9803 582.038 70.9803H506.185C503.464 70.9803 500.77 71.5167 498.256 72.5589C495.742 73.601 493.457 75.1286 491.533 77.0543C489.609 78.98 488.083 81.2662 487.041 83.7822C486 86.2983 485.464 88.995 485.464 91.7184V288.291C485.464 291.014 486 293.711 487.041 296.227C488.083 298.743 489.609 301.029 491.533 302.955C493.457 304.881 495.742 306.408 498.256 307.45C500.77 308.493 503.464 309.029 506.185 309.029H582.038C584.759 309.029 587.454 308.493 589.968 307.45C592.482 306.408 594.766 304.881 596.69 302.955C598.615 301.029 600.141 298.743 601.182 296.227C602.224 293.711 602.76 291.014 602.76 288.291V153.055H604.067V127.55Z" fill="#2F2E41"/>
<path d="M598.347 92.9372V289.223C598.348 293.331 596.718 297.27 593.816 300.175C590.915 303.08 586.979 304.712 582.874 304.713H506.656C502.552 304.712 498.616 303.08 495.714 300.175C492.812 297.27 491.183 293.331 491.183 289.223V92.9372C491.184 88.8306 492.814 84.8923 495.716 81.9884C498.617 79.0846 502.552 77.453 506.656 77.4526H515.903C515.448 78.5697 515.274 79.7817 515.397 80.9818C515.521 82.1819 515.937 83.3333 516.609 84.3345C517.282 85.3357 518.19 86.156 519.254 86.7232C520.318 87.2904 521.505 87.587 522.71 87.5869H566.166C567.371 87.587 568.558 87.2904 569.622 86.7232C570.686 86.156 571.595 85.3357 572.267 84.3345C572.94 83.3333 573.356 82.1819 573.479 80.9818C573.602 79.7817 573.429 78.5697 572.974 77.4526H582.875C586.978 77.453 590.913 79.0846 593.815 81.9884C596.716 84.8923 598.346 88.8306 598.347 92.9372Z" fill="#53537C"/>
<path d="M556.118 206.875H533.413V213.609H556.118V206.875Z" fill="#3F3D56"/>
<path d="M583.567 154.448H505.963V157.334H583.567V154.448Z" fill="#3F3D56"/>
<path d="M583.567 163.587H505.963V166.473H583.567V163.587Z" fill="#3F3D56"/>
<path d="M583.567 172.725H505.963V175.611H583.567V172.725Z" fill="#3F3D56"/>
<path d="M583.567 181.864H505.963V184.75H583.567V181.864Z" fill="#3F3D56"/>
<path d="M583.567 191.003H505.963V193.889H583.567V191.003Z" fill="#3F3D56"/>
<path d="M547.476 116.123H534.019V129.591H547.476V116.123Z" fill="#F2F2F2"/>
<path d="M539.171 119.491V135.845H555.511V119.491H539.171ZM554.802 135.135H539.879V120.2H554.802V135.135Z" fill="#3F3D56"/>
<path opacity="0.1" d="M598.347 268.262V289.223C598.348 293.331 596.718 297.27 593.816 300.175C590.915 303.08 586.979 304.712 582.874 304.713H506.656C502.552 304.712 498.616 303.08 495.714 300.175C492.812 297.27 491.183 293.331 491.183 289.223V183.53L555.397 234.301L556.496 235.17L568.441 244.611L569.556 245.496L598.347 268.262Z" fill="black"/>
<path d="M538.172 298.352C551.483 298.352 562.275 287.552 562.275 274.23C562.275 260.907 551.483 250.108 538.172 250.108C524.86 250.108 514.069 260.907 514.069 274.23C514.069 287.552 524.86 298.352 538.172 298.352Z" fill="#2F2E41"/>
<path d="M199.127 359.921C189.673 359.921 180.431 357.116 172.57 351.859C164.709 346.602 158.582 339.131 154.964 330.389C151.346 321.647 150.399 312.029 152.244 302.749C154.088 293.469 158.641 284.944 165.326 278.254C172.011 271.563 180.529 267.007 189.801 265.161C199.074 263.315 208.685 264.263 217.42 267.883C226.154 271.504 233.62 277.636 238.873 285.503C244.125 293.37 246.929 302.62 246.929 312.082C246.914 324.765 241.873 336.925 232.912 345.894C223.951 354.862 211.8 359.907 199.127 359.921ZM199.127 265.342C189.89 265.342 180.861 268.083 173.18 273.219C165.5 278.355 159.514 285.654 155.979 294.195C152.445 302.736 151.52 312.133 153.322 321.2C155.124 330.267 159.572 338.595 166.103 345.132C172.635 351.668 180.956 356.12 190.016 357.923C199.075 359.727 208.465 358.801 216.999 355.264C225.533 351.726 232.827 345.735 237.959 338.049C243.091 330.363 245.83 321.326 245.83 312.082C245.816 299.69 240.891 287.809 232.135 279.047C223.38 270.285 211.509 265.356 199.127 265.342Z" fill="#3F3D56"/>
<path d="M545.276 292.836C539.299 292.836 533.457 291.062 528.487 287.739C523.518 284.416 519.644 279.692 517.357 274.166C515.07 268.64 514.471 262.559 515.637 256.692C516.803 250.825 519.682 245.436 523.908 241.207C528.134 236.977 533.519 234.097 539.381 232.93C545.243 231.763 551.319 232.362 556.841 234.651C562.362 236.94 567.082 240.816 570.403 245.79C573.723 250.763 575.495 256.611 575.495 262.592C575.486 270.611 572.3 278.298 566.634 283.968C560.969 289.637 553.288 292.827 545.276 292.836ZM545.276 233.448C539.517 233.448 533.886 235.158 529.098 238.36C524.309 241.562 520.576 246.114 518.372 251.439C516.168 256.765 515.592 262.625 516.715 268.278C517.839 273.931 520.612 279.124 524.685 283.2C528.757 287.276 533.946 290.051 539.595 291.176C545.244 292.3 551.099 291.723 556.42 289.518C561.741 287.312 566.289 283.576 569.489 278.784C572.689 273.991 574.397 268.356 574.397 262.592C574.388 254.865 571.317 247.458 565.858 241.994C560.399 236.53 552.997 233.457 545.276 233.448Z" fill="#605C9F"/>
<g clip-path="url(#clip0_2_232)">
<path d="M313.213 297.887L310.702 287.967C306.251 286.078 301.698 284.441 297.063 283.065L296.746 287.675L295.461 282.596C289.713 280.952 285.803 280.228 285.803 280.228C285.803 280.228 291.086 300.353 302.165 315.738L315.073 318.009L305.045 319.458C306.439 321.139 307.938 322.73 309.531 324.221C325.648 339.209 343.598 346.085 349.624 339.579C355.65 333.073 347.47 315.649 331.354 300.662C326.358 296.015 320.082 292.287 313.799 289.352L313.213 297.887Z" fill="#2F2E41"/>
<path d="M344.084 281.153L347.052 271.361C344.217 267.438 341.163 263.679 337.905 260.101L335.256 263.883L336.776 258.87C332.703 254.485 329.73 251.84 329.73 251.84C329.73 251.84 323.87 271.804 325.418 290.712L335.296 299.342L325.964 295.389C326.291 297.55 326.753 299.687 327.347 301.79C333.412 322.967 345.231 338.15 353.746 335.702C362.261 333.254 364.247 314.101 358.182 292.924C356.302 286.359 352.853 279.917 348.989 274.151L344.084 281.153Z" fill="#3F3D56"/>
<path d="M389.635 346.28C447.828 346.28 495.002 343.863 495.002 340.881C495.002 337.899 447.828 335.482 389.635 335.482C331.443 335.482 284.269 337.899 284.269 340.881C284.269 343.863 331.443 346.28 389.635 346.28Z" fill="#3F3D56"/>
<path d="M451.195 174.644H449.998V141.788C449.998 139.291 449.507 136.818 448.554 134.511C447.6 132.204 446.202 130.108 444.44 128.342C442.677 126.576 440.585 125.175 438.282 124.219C435.98 123.264 433.512 122.772 431.02 122.772H361.548C359.055 122.772 356.587 123.264 354.285 124.219C351.982 125.175 349.89 126.576 348.128 128.342C346.365 130.108 344.967 132.204 344.014 134.511C343.06 136.818 342.569 139.291 342.569 141.788V322.04C342.569 324.537 343.06 327.01 344.014 329.317C344.967 331.624 346.365 333.721 348.128 335.486C349.89 337.252 351.982 338.653 354.285 339.609C356.587 340.564 359.055 341.056 361.548 341.056H431.02C433.512 341.056 435.98 340.564 438.282 339.609C440.585 338.653 442.677 337.252 444.44 335.486C446.202 333.721 447.6 331.624 448.554 329.317C449.507 327.01 449.998 324.537 449.998 322.04V198.032H451.195V174.644Z" fill="#2F2E41"/>
<path d="M445.959 141.921V321.907C445.959 325.674 444.465 329.286 441.807 331.95C439.149 334.613 435.544 336.109 431.785 336.109H361.98C358.221 336.109 354.616 334.613 351.958 331.95C349.299 329.286 347.806 325.674 347.806 321.907V141.921C347.806 138.154 349.299 134.542 351.958 131.879C354.616 129.215 358.221 127.719 361.98 127.719H370.448C370.032 128.744 369.873 129.855 369.986 130.955C370.1 132.056 370.481 133.111 371.097 134.029C371.713 134.947 372.544 135.7 373.518 136.22C374.492 136.741 375.579 137.013 376.683 137.014H416.483C417.587 137.013 418.674 136.741 419.648 136.22C420.622 135.7 421.454 134.947 422.069 134.029C422.685 133.111 423.066 132.056 423.18 130.955C423.293 129.855 423.134 128.744 422.718 127.719H431.785C435.544 127.719 439.149 129.215 441.807 131.879C444.465 134.542 445.959 138.154 445.959 141.921Z" fill="#53537C"/>
<path d="M445.959 283.237V321.907C445.959 325.674 444.465 329.286 441.807 331.95C439.149 334.613 435.544 336.109 431.785 336.109H361.98C358.221 336.109 354.616 334.613 351.958 331.95C349.299 329.286 347.806 325.674 347.806 321.907V287.007C353.792 279.966 361.171 274.246 369.476 270.208C377.782 266.17 386.832 263.902 396.057 263.548C405.282 263.193 414.479 264.76 423.068 268.149C431.658 271.538 439.452 276.676 445.959 283.237Z" fill="#4B4B70"/>
<path d="M380.707 276.088H377.886L378.827 220.869H379.767L380.707 276.088Z" fill="#E6E6E6"/>
<path d="M383.058 186.104L387.612 179.052C386.262 175.314 384.702 171.656 382.94 168.094L379.995 170.477L382.327 166.866C380.105 162.483 378.357 159.722 378.357 159.722C378.357 159.722 369.223 174.143 366.172 189.412L372.016 198.461L365.546 193.225C365.316 195.004 365.197 196.795 365.191 198.589C365.191 216.672 371.086 231.332 378.357 231.332C385.627 231.332 391.522 216.672 391.522 198.589C391.522 192.983 390.256 187.118 388.51 181.693L383.058 186.104Z" fill="#E6E6E6"/>
<path d="M364.335 279.987H362.967L363.423 253.206H363.879L364.335 279.987Z" fill="#E6E6E6"/>
<path d="M365.475 236.346L367.684 232.926C367.029 231.113 366.272 229.338 365.418 227.611L363.99 228.767L365.121 227.016C364.043 224.89 363.195 223.551 363.195 223.551C363.195 223.551 358.765 230.545 357.286 237.95L360.12 242.339L356.982 239.799C356.87 240.662 356.813 241.531 356.81 242.401C356.81 251.171 359.669 258.281 363.195 258.281C366.721 258.281 369.58 251.171 369.58 242.401C369.58 239.682 368.966 236.837 368.119 234.206L365.475 236.346Z" fill="#E6E6E6"/>
<path d="M399.956 279.987H398.588L399.044 253.206H399.5L399.956 279.987Z" fill="#E6E6E6"/>
<path d="M401.096 236.346L403.305 232.926C402.65 231.113 401.894 229.338 401.039 227.611L399.611 228.767L400.742 227.016C399.664 224.89 398.816 223.551 398.816 223.551C398.816 223.551 394.387 230.545 392.907 237.95L395.741 242.339L392.603 239.799C392.492 240.662 392.434 241.531 392.431 242.401C392.431 251.171 395.29 258.281 398.816 258.281C402.342 258.281 405.201 251.171 405.201 242.401C405.201 239.682 404.587 236.837 403.74 234.206L401.096 236.346Z" fill="#E6E6E6"/>
<path d="M363.294 191.215C370.237 191.215 375.866 185.575 375.866 178.618C375.866 171.66 370.237 166.021 363.294 166.021C356.35 166.021 350.722 171.66 350.722 178.618C350.722 185.575 356.35 191.215 363.294 191.215Z" fill="#E6E6E6"/>
<path d="M408.755 193.008L431.702 193.579L434.791 166.162H408.755V193.008Z" fill="#2F2E41"/>
<path d="M403.037 171.528L396.707 147.211C396.707 147.211 398.456 135.537 402.686 135.73C406.916 135.922 401.588 147.142 401.588 147.142L408.755 168.148L403.037 171.528Z" fill="#FFB8B8"/>
<path d="M415.446 232.459L416.437 242.391C416.437 242.391 385.213 263.745 385.213 272.684C385.213 281.623 384.221 309.93 384.221 309.93L395.621 310.426L396.612 297.018C396.612 297.018 399.09 282.12 397.603 276.657L413.959 264.242C413.959 264.242 409.002 270.201 409.994 280.63C410.985 291.059 408.507 311.42 408.507 311.42L420.402 312.413C420.402 312.413 421.889 301.487 422.384 300.494C422.88 299.501 425.358 281.623 422.88 276.657L443.2 252.82C443.2 252.82 450.139 243.881 443.2 234.942L439.235 232.956L415.446 232.459Z" fill="#2F2E41"/>
<path d="M384.717 307.943L383.726 314.399L377.283 329.794C377.283 329.794 366.379 335.257 374.309 336.25C382.239 337.243 385.213 335.257 386.7 332.774C388.186 330.291 391.16 326.318 391.16 326.318L390.664 336.747H393.143L397.204 322.502C397.602 321.138 397.671 319.7 397.406 318.304C397.141 316.909 396.549 315.596 395.68 314.474C395.66 314.449 395.641 314.424 395.621 314.399C393.638 311.916 394.629 308.44 394.629 308.44L384.717 307.943Z" fill="#2F2E41"/>
<path d="M409.498 307.943L408.507 314.399L402.064 329.794C402.064 329.794 391.16 335.257 399.09 336.25C407.02 337.243 409.994 335.257 411.481 332.774C412.967 330.291 415.941 326.318 415.941 326.318L415.446 336.747H417.924L421.985 322.502C422.383 321.138 422.452 319.7 422.187 318.304C421.922 316.909 421.33 315.596 420.461 314.474C420.441 314.449 420.422 314.424 420.402 314.399C418.419 311.916 419.411 308.44 419.411 308.44L409.498 307.943Z" fill="#2F2E41"/>
<path d="M421.393 181.309C426.867 181.309 431.305 176.862 431.305 171.376C431.305 165.891 426.867 161.444 421.393 161.444C415.919 161.444 411.481 165.891 411.481 171.376C411.481 176.862 415.919 181.309 421.393 181.309Z" fill="#FFB8B8"/>
<path d="M420.897 179.819L425.358 190.247L434.279 183.295C434.279 183.295 428.827 175.846 428.827 174.853L420.897 179.819Z" fill="#FFB8B8"/>
<path d="M421.889 185.778L424.003 187.08C424.003 187.08 430.835 183.45 432.557 180.89C432.557 180.89 438.74 178.825 441.218 183.792C443.696 188.758 439.731 223.023 439.731 223.023C439.731 223.023 442.209 226.5 441.713 227.99C441.218 229.479 443.2 231.962 443.2 231.962V234.942C443.2 234.942 414.95 235.439 414.95 232.956V225.01L411.976 224.017C411.976 224.017 409.002 230.473 408.011 229.976C407.02 229.479 402.064 225.507 402.064 225.507C402.064 225.507 409.994 199.186 414.454 194.717L419.906 185.281L421.889 185.778Z" fill="#6C63FF"/>
<path d="M420.897 186.275C420.897 186.275 419.906 184.288 418.419 183.792C416.932 183.295 409.498 172.866 409.498 172.866L410.489 167.404L400.577 165.914C400.577 165.914 401.073 171.376 403.055 174.853C405.037 178.329 415.941 196.207 415.941 196.207L421.393 186.275L420.897 186.275Z" fill="#6C63FF"/>
<path d="M428.58 225.755L422.632 243.633C422.632 243.633 410.242 257.538 417.18 257.538C424.119 257.538 427.588 245.123 427.588 245.123L436.014 227.245L428.58 225.755Z" fill="#FFB8B8"/>
<path d="M409.513 171.522C417.452 168.333 425.279 167.653 432.902 171.522V165.095C432.902 164.545 432.794 164.001 432.584 163.493C432.374 162.985 432.066 162.524 431.678 162.135C431.29 161.747 430.83 161.438 430.323 161.228C429.816 161.018 429.273 160.909 428.724 160.909H412.813C412.38 160.909 411.95 160.995 411.55 161.161C411.15 161.327 410.786 161.571 410.479 161.878C410.173 162.185 409.93 162.549 409.764 162.951C409.598 163.352 409.513 163.782 409.513 164.216V171.522Z" fill="#2F2E41"/>
<path d="M434.775 185.281C434.775 185.281 439.297 181.443 441.744 185.845C444.192 190.247 442.705 209.119 442.209 211.602C441.713 214.085 438.244 229.479 438.244 229.479L426.349 226.996C426.349 226.996 425.358 220.044 428.332 220.54L434.775 185.281Z" fill="#6C63FF"/>
<path d="M439.708 181.014C437.47 179.783 436.429 177.019 436.355 174.463C436.281 171.906 436.9 169.376 436.948 166.818C436.973 166.295 436.929 165.771 436.816 165.259C436.63 164.624 436.341 164.025 435.96 163.485C433.05 159.017 427.992 155.875 422.665 155.825C421.895 155.815 421.131 155.956 420.415 156.239C419.864 156.461 419.684 156.433 419.578 157.111C418.316 156.694 416.948 156.738 415.715 157.234C414.493 157.732 413.354 158.412 412.336 159.251C411.73 159.701 411.159 160.197 410.627 160.733C407.812 163.655 407.163 168.159 407.979 172.138C408.244 173.432 406.972 174.681 405.919 175.475C404.866 176.27 403.651 177 403.134 178.214C402.637 179.383 402.91 180.719 402.809 181.986C402.697 183.183 402.253 184.325 401.527 185.282C400.802 186.24 399.823 186.975 398.703 187.405C398.931 187.68 399.229 187.887 399.566 188.006C399.902 188.124 400.264 188.15 400.614 188.079C401.344 187.925 402.027 187.599 402.606 187.129C404.785 185.511 406.344 183.193 407.023 180.562C407.332 181.971 407.212 183.425 407.201 184.867C407.228 186.478 406.932 188.077 406.331 189.57C405.719 191.071 404.598 192.307 403.167 193.061C404.548 193.739 406.07 193.248 407.24 192.248C408.41 191.249 409.101 189.798 409.584 188.335C410.369 185.951 410.687 183.438 410.522 180.933C411.806 183.1 412.276 185.655 411.845 188.138C411.396 190.67 410.077 192.965 408.116 194.624C411.534 194.595 414.896 193.747 417.92 192.15C418.701 191.796 419.389 191.264 419.931 190.599C420.904 189.246 420.674 187.401 420.401 185.756C420.185 184.455 421.807 182.575 420.878 181.641C420.602 181.368 420.234 181.209 419.846 181.197C417.016 180.924 414.396 179.5 412.886 177.087C411.828 175.396 411.127 173.465 411.127 171.659C411.128 170.237 411.435 168.832 412.028 167.54C412.62 166.248 413.484 165.099 414.561 164.172C415.637 163.245 416.9 162.563 418.264 162.17C419.628 161.778 421.061 161.685 422.464 161.898C423.867 162.112 425.208 162.626 426.394 163.407C427.58 164.187 428.585 165.215 429.338 166.42C430.092 167.625 430.577 168.978 430.76 170.388C430.943 171.799 430.82 173.232 430.4 174.59C430.065 175.683 429.825 176.803 429.682 177.937C429.514 179.253 429.247 180.555 428.882 181.831C428.179 184.283 426.989 186.785 424.786 188.064C425.526 188.47 426.383 188.488 427.222 188.581C429.986 188.886 432.893 188.819 435.396 187.602C437.898 186.386 439.886 183.795 439.708 181.014Z" fill="#2F2E41"/>
<path opacity="0.2" d="M431.058 198.441L428.471 219.777L428.58 199.435L431.058 198.441Z" fill="black"/>
<path opacity="0.2" d="M439.556 223.637L438.492 230.224L440.97 231.218L439.556 223.637Z" fill="black"/>
</g>
<g clip-path="url(#clip1_2_232)">
<path d="M74.1236 193.355C75.4669 193.829 76.9092 193.947 78.3115 193.699C79.7138 193.452 81.0289 192.846 82.13 191.941C84.9343 189.58 85.8136 185.693 86.5288 182.093L88.6448 171.443L84.2149 174.501C81.0289 176.701 77.7713 178.971 75.5656 182.158C73.3599 185.344 72.3976 189.693 74.1693 193.141" fill="#E6E6E6"/>
<path d="M74.8077 206.99C74.2501 202.917 73.6764 198.79 74.0685 194.673C74.4159 191.017 75.5284 187.446 77.7933 184.517C78.9955 182.965 80.4583 181.636 82.1161 180.589C82.5482 180.315 82.9461 181.002 82.5158 181.274C79.6473 183.092 77.4287 185.776 76.1797 188.94C74.8003 192.458 74.5788 196.293 74.8164 200.031C74.96 202.291 75.2652 204.536 75.5717 206.779C75.5959 206.88 75.5808 206.987 75.5294 207.078C75.4781 207.168 75.3943 207.236 75.295 207.267C75.1938 207.294 75.0858 207.281 74.9946 207.229C74.9035 207.177 74.8364 207.091 74.8079 206.99L74.8077 206.99Z" fill="#F2F2F2"/>
<path d="M78.821 200.454C79.3971 201.332 80.189 202.047 81.1204 202.529C82.0519 203.011 83.0915 203.245 84.1391 203.207C86.8319 203.079 89.076 201.195 91.0958 199.406L97.0715 194.115L93.1168 193.925C90.2727 193.789 87.3552 193.661 84.6463 194.541C81.9373 195.422 79.4391 197.537 78.9438 200.349" fill="#E6E6E6"/>
<path d="M73.2316 209.332C75.9159 204.569 79.0293 199.275 84.5929 197.583C86.1397 197.115 87.7617 196.947 89.3714 197.089C89.8788 197.133 89.7521 197.917 89.2457 197.873C86.5474 197.648 83.8543 198.363 81.6197 199.896C79.4694 201.364 77.7951 203.405 76.3782 205.568C75.5102 206.894 74.7327 208.276 73.9552 209.655C73.7068 210.096 72.9802 209.778 73.2316 209.332Z" fill="#F2F2F2"/>
<path d="M153.174 112.807C153.004 112.889 152.84 112.986 152.685 113.094L136.869 106.895L136.242 102.806L129.965 102.948L130.373 110.295C130.406 110.888 130.63 111.455 131.012 111.91C131.393 112.365 131.912 112.683 132.489 112.818L151.309 117.196C151.538 117.89 151.974 118.498 152.557 118.939C153.139 119.379 153.842 119.632 154.572 119.662C155.301 119.692 156.022 119.499 156.639 119.108C157.256 118.717 157.74 118.147 158.026 117.474C158.313 116.801 158.388 116.056 158.241 115.339C158.095 114.622 157.735 113.966 157.208 113.46C156.681 112.953 156.013 112.619 155.293 112.502C154.572 112.386 153.833 112.492 153.174 112.807Z" fill="#9F616A"/>
<path d="M129.428 205.183L133.626 205.183L135.623 188.946L129.427 188.946L129.428 205.183Z" fill="#9F616A"/>
<path d="M128.357 203.809L136.624 203.808H136.625C138.022 203.808 139.362 204.365 140.35 205.356C141.338 206.347 141.893 207.69 141.893 209.091V209.263L128.357 209.264L128.357 203.809Z" fill="#2F2E41"/>
<path d="M109.226 205.183L113.424 205.183L115.421 188.946L109.225 188.946L109.226 205.183Z" fill="#9F616A"/>
<path d="M108.155 203.809L116.422 203.808H116.423C117.82 203.808 119.16 204.365 120.148 205.356C121.136 206.347 121.691 207.69 121.691 209.091V209.263L108.155 209.264L108.155 203.809Z" fill="#2F2E41"/>
<path d="M111.66 81.3892C110.465 76.4392 109.452 70.8561 111.706 66.297C113.271 63.1337 119.058 62.0685 122.375 63.2081C125.693 64.3477 128.092 67.4395 129.146 70.8106C130.201 74.1817 130.079 77.8143 129.619 81.3187C123.518 81.2012 117.416 81.0837 111.66 81.3892Z" fill="#2F2E41"/>
<path d="M121.956 81.3879C125.886 81.3879 129.071 78.1935 129.071 74.2532C129.071 70.3128 125.886 67.1185 121.956 67.1185C118.027 67.1185 114.841 70.3128 114.841 74.2532C114.841 78.1935 118.027 81.3879 121.956 81.3879Z" fill="#9F616A"/>
<path d="M113.258 72.7835C113.236 71.5827 113.454 70.3896 113.9 69.275C114.347 68.1605 115.012 67.1473 115.856 66.2956C116.701 65.444 117.707 64.7712 118.816 64.3173C119.925 63.8635 121.114 63.6377 122.311 63.6536C123.509 63.6694 124.691 63.9265 125.787 64.4095C126.884 64.8925 127.873 65.5917 128.694 66.4654C129.516 67.339 130.154 68.3695 130.571 69.4954C130.988 70.6214 131.175 71.8198 131.121 73.0196C125.031 73.0326 118.941 73.0455 113.258 72.7835Z" fill="#2F2E41"/>
<path d="M116.052 107.71L113.076 112.683C113.076 112.683 104.927 128.009 105.412 140.713L107.215 156.537L105.236 160.42L106.561 167.252L104.1 172.146L108.548 195.773L108.737 200.897H115.929L115.55 195.678L118.578 172.66L123.688 148.084L126.337 169.299L125.391 174.613L126.621 179.073L128.324 192.831L128.513 199.474L135.043 200.233L137.503 175.657L138.922 163.931L131.315 111.939L116.052 107.71Z" fill="#2F2E41"/>
<path d="M115.108 83.6976L110.678 85.5843L108.19 95.9099L113.428 109.363L111.47 116.085C117.398 126.254 124.736 127.731 133.37 121.21C131.543 116.065 131.807 110.775 133.628 105.376C133.628 105.376 138.17 101.135 134.997 95.6209L131.97 87.383L128.223 85.5042L115.108 83.6976Z" fill="#6C63FF"/>
<path d="M131.097 89.1788L132.103 87.306C132.103 87.306 134.755 87.706 135.838 90.9076C136.921 94.1092 137.203 107.043 137.203 107.043L131.528 107.331L131.097 89.1788Z" fill="#6C63FF"/>
<path d="M108.867 133.076C109.348 132.836 109.771 132.493 110.106 132.071C110.441 131.649 110.679 131.158 110.805 130.634C110.93 130.11 110.939 129.564 110.832 129.036C110.724 128.507 110.502 128.009 110.182 127.576L112.933 100.608H106.988L104.802 126.941C104.113 127.529 103.662 128.35 103.535 129.249C103.409 130.148 103.616 131.063 104.117 131.819C104.618 132.575 105.378 133.121 106.254 133.353C107.129 133.584 108.059 133.486 108.867 133.076Z" fill="#9F616A"/>
<path d="M114.298 88.6343L112.215 85.6809C112.215 85.6809 108.552 83.1904 106.684 88.9224C104.816 94.6544 105.104 105.274 105.104 105.274L112.215 108.227L114.298 88.6343Z" fill="#6C63FF"/>
<path d="M238.489 44.6402H205.618V63.1818H238.489V44.6402Z" fill="#2F2E41"/>
<path d="M306.286 30.219H273.415V48.7606H306.286V30.219Z" fill="#2F2E41"/>
<path d="M296.013 78.2898H263.142V96.8314H296.013V78.2898Z" fill="#2F2E41"/>
<path d="M283.687 18.888H250.816V37.4296H283.687V18.888Z" fill="#3F3D56"/>
<path d="M284.714 53.0741H230.614V83.5904H284.714V53.0741Z" fill="#6C63FF"/>
<path d="M175.374 102.517H232.118V78.0666H233.005V103.406H175.374V102.517Z" fill="#3F3D56"/>
<path d="M232.562 87.0624C235.255 87.0624 237.438 84.873 237.438 82.1723C237.438 79.4716 235.255 77.2822 232.562 77.2822C229.869 77.2822 227.685 79.4716 227.685 82.1723C227.685 84.873 229.869 87.0624 232.562 87.0624Z" fill="#3F3D56"/>
<path d="M189.314 111.278H162.715V112.167H189.314V111.278Z" fill="#6C63FF"/>
<path d="M189.314 113.946H162.715V114.835H189.314V113.946Z" fill="#6C63FF"/>
<path d="M189.314 116.613H162.715V117.502H189.314V116.613Z" fill="#6C63FF"/>
<path d="M170.419 209.798H56.0546C55.9638 209.798 55.8767 209.762 55.8124 209.697C55.7482 209.633 55.7122 209.545 55.7122 209.454C55.7122 209.363 55.7482 209.276 55.8124 209.212C55.8767 209.147 55.9638 209.111 56.0546 209.111H170.419C170.509 209.111 170.597 209.147 170.661 209.212C170.725 209.276 170.761 209.363 170.761 209.454C170.761 209.545 170.725 209.633 170.661 209.697C170.597 209.762 170.509 209.798 170.419 209.798Z" fill="#CBCBCB"/>
<path d="M162.199 203.481C161.591 203.696 160.938 203.749 160.303 203.637C159.669 203.525 159.073 203.251 158.575 202.841C157.306 201.773 156.907 200.013 156.584 198.383L155.626 193.563L157.631 194.948C159.073 195.943 160.548 196.971 161.546 198.413C162.545 199.855 162.98 201.824 162.178 203.384" fill="#E6E6E6"/>
<path d="M162.027 209.317C162.289 207.839 162.38 206.335 162.297 204.835C162.204 203.499 161.734 202.217 160.941 201.14C160.504 200.575 159.972 200.091 159.368 199.71C159.211 199.611 159.066 199.861 159.223 199.96C160.267 200.621 161.074 201.598 161.528 202.749C161.986 204.042 162.156 205.419 162.024 206.785C161.971 207.607 161.861 208.424 161.749 209.24C161.74 209.277 161.745 209.316 161.764 209.349C161.783 209.382 161.813 209.407 161.849 209.418C161.886 209.428 161.926 209.423 161.959 209.404C161.992 209.385 162.016 209.354 162.027 209.317L162.027 209.317Z" fill="#F2F2F2"/>
</g>
<defs>
<clipPath id="clip0_2_232">
<rect width="210.733" height="223.508" fill="white" transform="translate(284.269 122.772)"/>
</clipPath>
<clipPath id="clip1_2_232">
<rect width="250.574" height="190.979" fill="white" transform="translate(55.7122 18.888)"/>
</clipPath>
</defs>
</svg>
