<svg width="589" height="343" viewBox="0 0 589 343" fill="none" xmlns="http://www.w3.org/2000/svg">
<path d="M129.353 304.465C146.5 304.465 160.401 290.566 160.401 273.42C160.401 256.274 146.5 242.375 129.353 242.375C112.206 242.375 98.306 256.274 98.306 273.42C98.306 290.566 112.206 304.465 129.353 304.465Z" fill="#6C63FF"/>
<path d="M134.402 299.922C151.549 299.922 165.449 286.023 165.449 268.877C165.449 251.731 151.549 237.832 134.402 237.832C117.255 237.832 103.354 251.731 103.354 268.877C103.354 286.023 117.255 299.922 134.402 299.922Z" fill="#2F2E41"/>
<path d="M543.545 234.526H159.406V235.574H543.545V234.526Z" fill="#3F3D56"/>
<path d="M358.352 9.77429H222.006V6.96428H160.182V9.77429H23.2738C22.0626 9.77429 20.8634 10.0128 19.7444 10.4763C18.6254 10.9397 17.6087 11.619 16.7523 12.4754C15.8959 13.3317 15.2166 14.3484 14.7531 15.4673C14.2896 16.5862 14.051 17.7854 14.051 18.9964V205.683C14.051 208.129 15.0227 210.475 16.7523 212.204C18.4819 213.934 20.8278 214.905 23.2738 214.905H358.352C360.798 214.905 363.144 213.934 364.874 212.204C366.603 210.475 367.575 208.129 367.575 205.683V18.9964C367.575 17.7854 367.336 16.5862 366.873 15.4673C366.409 14.3484 365.73 13.3317 364.874 12.4754C364.017 11.619 363 10.9397 361.881 10.4763C360.763 10.0128 359.563 9.77429 358.352 9.77429Z" fill="#2F2E41"/>
<path d="M355.21 26.0724H26.4159V211.533H355.21V26.0724Z" fill="#53537C"/>
<path d="M190.532 21.0143C192.394 21.0143 193.904 19.5046 193.904 17.6423C193.904 15.78 192.394 14.2703 190.532 14.2703C188.669 14.2703 187.16 15.78 187.16 17.6423C187.16 19.5046 188.669 21.0143 190.532 21.0143Z" fill="#6C63FF"/>
<path opacity="0.1" d="M261.181 211.533H26.416V26.0726L261.181 211.533Z" fill="black"/>
<path d="M77.8624 197.655C95.3172 197.655 109.467 183.506 109.467 166.053C109.467 148.599 95.3172 134.45 77.8624 134.45C60.4076 134.45 46.2577 148.599 46.2577 166.053C46.2577 183.506 60.4076 197.655 77.8624 197.655Z" fill="#3F3D56"/>
<path d="M297.961 126.093H267.249V132.51H297.961V126.093Z" fill="#3F3D56"/>
<path d="M335.092 76.1305H230.118V78.8807H335.092V76.1305Z" fill="#3F3D56"/>
<path d="M335.092 84.8395H230.118V87.5897H335.092V84.8395Z" fill="#3F3D56"/>
<path d="M335.092 93.5486H230.118V96.2988H335.092V93.5486Z" fill="#3F3D56"/>
<path d="M335.092 102.258H230.118V105.008H335.092V102.258Z" fill="#3F3D56"/>
<path d="M335.092 110.967H230.118V113.717H335.092V110.967Z" fill="#3F3D56"/>
<path d="M335.092 29.835H322.257V42.6694H335.092V29.835Z" fill="#F2F2F2"/>
<path d="M341.051 48.6282H325.466V33.0436H341.051V48.6282ZM326.143 47.9506H340.374V33.7212H326.143V47.9506Z" fill="#3F3D56"/>
<path d="M376.807 208.161H344.719V205.849C344.719 205.789 344.707 205.73 344.684 205.674C344.661 205.618 344.627 205.568 344.584 205.525C344.542 205.483 344.491 205.449 344.436 205.426C344.38 205.403 344.32 205.391 344.26 205.391H333.258C333.198 205.391 333.139 205.403 333.083 205.426C333.027 205.449 332.977 205.483 332.934 205.525C332.892 205.568 332.858 205.618 332.835 205.674C332.812 205.73 332.8 205.789 332.8 205.849V208.161H325.924V205.849C325.924 205.789 325.912 205.73 325.889 205.674C325.866 205.618 325.832 205.568 325.79 205.525C325.747 205.483 325.697 205.449 325.641 205.426C325.585 205.403 325.526 205.391 325.466 205.391H314.464C314.404 205.391 314.344 205.403 314.289 205.426C314.233 205.449 314.182 205.483 314.14 205.525C314.097 205.568 314.063 205.618 314.04 205.674C314.017 205.73 314.006 205.789 314.006 205.849V208.161H307.13V205.849C307.13 205.789 307.118 205.73 307.095 205.674C307.072 205.618 307.038 205.568 306.995 205.525C306.953 205.483 306.902 205.449 306.847 205.426C306.791 205.403 306.731 205.391 306.671 205.391H295.67C295.609 205.391 295.55 205.403 295.494 205.426C295.438 205.449 295.388 205.483 295.345 205.525C295.303 205.568 295.269 205.618 295.246 205.674C295.223 205.73 295.211 205.789 295.211 205.849V208.161H288.335V205.849C288.335 205.789 288.323 205.73 288.3 205.674C288.277 205.618 288.243 205.568 288.201 205.525C288.158 205.483 288.108 205.449 288.052 205.426C287.996 205.403 287.937 205.391 287.877 205.391H276.875C276.815 205.391 276.755 205.403 276.7 205.426C276.644 205.449 276.593 205.483 276.551 205.525C276.508 205.568 276.474 205.618 276.451 205.674C276.428 205.73 276.417 205.789 276.417 205.849V208.161H269.541V205.849C269.541 205.789 269.529 205.73 269.506 205.674C269.483 205.618 269.449 205.568 269.406 205.525C269.364 205.483 269.313 205.449 269.258 205.426C269.202 205.403 269.142 205.391 269.082 205.391H258.08C258.02 205.391 257.961 205.403 257.905 205.426C257.849 205.449 257.799 205.483 257.756 205.525C257.714 205.568 257.68 205.618 257.657 205.674C257.634 205.73 257.622 205.789 257.622 205.849V208.161H250.746V205.849C250.746 205.789 250.734 205.73 250.711 205.674C250.688 205.618 250.654 205.568 250.612 205.525C250.569 205.483 250.519 205.449 250.463 205.426C250.407 205.403 250.348 205.391 250.288 205.391H239.286C239.226 205.391 239.166 205.403 239.111 205.426C239.055 205.449 239.004 205.483 238.962 205.525C238.919 205.568 238.886 205.618 238.862 205.674C238.839 205.73 238.828 205.789 238.828 205.849V208.161H231.952V205.849C231.952 205.789 231.94 205.73 231.917 205.674C231.894 205.618 231.86 205.568 231.817 205.525C231.775 205.483 231.724 205.449 231.669 205.426C231.613 205.403 231.553 205.391 231.493 205.391H145.314C145.253 205.391 145.194 205.403 145.138 205.426C145.082 205.449 145.032 205.483 144.989 205.525C144.947 205.568 144.913 205.618 144.89 205.674C144.867 205.73 144.855 205.789 144.855 205.849V208.161H137.979V205.849C137.979 205.789 137.967 205.73 137.944 205.674C137.921 205.618 137.887 205.568 137.845 205.525C137.802 205.483 137.752 205.449 137.696 205.426C137.64 205.403 137.581 205.391 137.521 205.391H126.519C126.459 205.391 126.399 205.403 126.344 205.426C126.288 205.449 126.237 205.483 126.195 205.525C126.152 205.568 126.119 205.618 126.096 205.674C126.072 205.73 126.061 205.789 126.061 205.849V208.161H119.185V205.849C119.185 205.789 119.173 205.73 119.15 205.674C119.127 205.618 119.093 205.568 119.05 205.525C119.008 205.483 118.957 205.449 118.902 205.426C118.846 205.403 118.786 205.391 118.726 205.391H107.725C107.664 205.391 107.605 205.403 107.549 205.426C107.493 205.449 107.443 205.483 107.4 205.525C107.358 205.568 107.324 205.618 107.301 205.674C107.278 205.73 107.266 205.789 107.266 205.849V208.161H100.39V205.849C100.39 205.789 100.378 205.73 100.355 205.674C100.332 205.618 100.298 205.568 100.256 205.525C100.213 205.483 100.163 205.449 100.107 205.426C100.052 205.403 99.9919 205.391 99.9317 205.391H88.93C88.8698 205.391 88.8102 205.403 88.7546 205.426C88.699 205.449 88.6485 205.483 88.6059 205.525C88.5633 205.568 88.5296 205.618 88.5065 205.674C88.4835 205.73 88.4716 205.789 88.4716 205.849V208.161H81.5956V205.849C81.5956 205.789 81.5838 205.73 81.5607 205.674C81.5377 205.618 81.5039 205.568 81.4614 205.525C81.4188 205.483 81.3683 205.449 81.3126 205.426C81.257 205.403 81.1974 205.391 81.1372 205.391H70.1356C70.0754 205.391 70.0157 205.403 69.9601 205.426C69.9045 205.449 69.854 205.483 69.8114 205.525C69.7688 205.568 69.7351 205.618 69.712 205.674C69.689 205.73 69.6771 205.789 69.6771 205.849V208.161H62.8011V205.849C62.8011 205.789 62.7893 205.73 62.7662 205.674C62.7432 205.618 62.7094 205.568 62.6669 205.525C62.6243 205.483 62.5738 205.449 62.5181 205.426C62.4625 205.403 62.4029 205.391 62.3427 205.391H51.3411C51.2809 205.391 51.2212 205.403 51.1656 205.426C51.11 205.449 51.0595 205.483 51.0169 205.525C50.9743 205.568 50.9406 205.618 50.9175 205.674C50.8945 205.73 50.8827 205.789 50.8827 205.849V208.161H44.0066V205.849C44.0066 205.789 43.9948 205.73 43.9717 205.674C43.9487 205.618 43.9149 205.568 43.8724 205.525C43.8298 205.483 43.7793 205.449 43.7236 205.426C43.668 205.403 43.6084 205.391 43.5482 205.391H32.5466C32.4864 205.391 32.4268 205.403 32.3711 205.426C32.3155 205.449 32.265 205.483 32.2224 205.525C32.1799 205.568 32.1461 205.618 32.1231 205.674C32.1 205.73 32.0882 205.789 32.0882 205.849V208.161H11.0017C8.08384 208.161 5.28552 209.32 3.22231 211.383C1.1591 213.446 2.77981e-06 216.245 0 219.162V224.137C8.33943e-06 227.054 1.15911 229.852 3.22232 231.915C5.28553 233.978 8.08384 235.137 11.0017 235.137H376.807C379.724 235.137 382.523 233.978 384.586 231.915C386.649 229.852 387.808 227.054 387.808 224.137V219.162C387.808 216.245 386.649 213.446 384.586 211.383C382.523 209.32 379.724 208.161 376.807 208.161Z" fill="#2F2E41"/>
<path d="M85.5125 185.791C77.635 185.791 69.9345 183.455 63.3847 179.079C56.8348 174.703 51.7298 168.483 48.7153 161.206C45.7007 153.928 44.912 145.921 46.4488 138.195C47.9856 130.47 51.7789 123.373 57.3491 117.803C62.9193 112.234 70.0161 108.441 77.7422 106.904C85.4683 105.367 93.4766 106.156 100.754 109.17C108.032 112.185 114.253 117.289 118.629 123.839C123.005 130.388 125.341 138.088 125.341 145.965C125.329 156.524 121.129 166.647 113.663 174.113C106.196 181.579 96.0721 185.779 85.5125 185.791ZM85.5125 107.187C77.8423 107.187 70.3445 109.461 63.967 113.722C57.5895 117.983 52.6189 124.039 49.6836 131.125C46.7484 138.211 45.9804 146.008 47.4768 153.53C48.9732 161.052 52.6667 167.962 58.0903 173.385C63.5139 178.808 70.4239 182.502 77.9467 183.998C85.4694 185.494 93.267 184.726 100.353 181.791C107.44 178.856 113.496 173.886 117.758 167.509C122.019 161.132 124.293 153.634 124.293 145.965C124.282 135.684 120.192 125.827 112.922 118.557C105.652 111.288 95.7942 107.198 85.5125 107.187Z" fill="#4B4B70"/>
<path d="M440.829 17.0536H307.192V18.1017H440.829V17.0536Z" fill="#3F3D56"/>
<path d="M261.509 288.216H246.835V302.889H261.509V288.216Z" fill="#6C63FF"/>
<path d="M270.418 294.505H252.6V276.688H270.418V294.505ZM253.374 293.73H269.643V277.462H253.374V293.73Z" fill="#3F3D56"/>
<path d="M431.83 11.5287H417.156V26.2015H431.83V11.5287Z" fill="#6C63FF"/>
<path d="M440.739 17.817H422.921V0H440.739V17.817ZM423.695 17.0424H439.964V0.774654H423.695V17.0424Z" fill="#53537C"/>
<path d="M579.616 288.216H564.942V302.889H579.616V288.216Z" fill="#4B4B70"/>
<path d="M588.525 294.505H570.707V276.688H588.525V294.505ZM571.482 293.73H587.751V277.462H571.482V293.73Z" fill="#3F3D56"/>
<path d="M554.027 121.553H552.78V87.4064C552.78 84.811 552.269 82.2411 551.276 79.8433C550.283 77.4455 548.827 75.2669 546.991 73.4317C545.156 71.5965 542.977 70.1408 540.579 69.1476C538.181 68.1544 535.611 67.6432 533.016 67.6432H460.667C458.071 67.6432 455.501 68.1544 453.103 69.1476C450.705 70.1408 448.526 71.5965 446.691 73.4317C444.856 75.2669 443.4 77.4455 442.407 79.8433C441.413 82.2411 440.902 84.811 440.902 87.4064V274.737C440.902 277.333 441.413 279.902 442.407 282.3C443.4 284.698 444.856 286.877 446.691 288.712C448.526 290.547 450.705 292.003 453.103 292.996C455.501 293.989 458.071 294.5 460.667 294.5H533.016C535.611 294.5 538.181 293.989 540.579 292.996C542.977 292.003 545.156 290.547 546.991 288.712C548.827 286.877 550.283 284.698 551.276 282.3C552.269 279.902 552.78 277.333 552.78 274.737V145.859H554.027V121.553Z" fill="#2F2E41"/>
<path d="M548.571 88.5679V275.626C548.572 279.54 547.018 283.294 544.25 286.063C541.482 288.831 537.728 290.387 533.814 290.387H461.115C457.201 290.387 453.447 288.831 450.679 286.063C447.911 283.294 446.357 279.54 446.358 275.626V88.5679C446.358 84.6543 447.913 80.9012 450.681 78.1338C453.448 75.3665 457.202 73.8117 461.115 73.8113H469.935C469.501 74.8759 469.336 76.0309 469.453 77.1746C469.571 78.3183 469.968 79.4155 470.609 80.3696C471.251 81.3238 472.117 82.1055 473.132 82.646C474.147 83.1865 475.279 83.4692 476.429 83.4691H517.877C519.027 83.4692 520.159 83.1865 521.174 82.646C522.188 82.1055 523.055 81.3238 523.696 80.3697C524.338 79.4155 524.735 78.3183 524.852 77.1746C524.97 76.0309 524.804 74.8759 524.37 73.8113H533.814C537.728 73.8117 541.481 75.3665 544.249 78.1338C547.016 80.9012 548.571 84.6543 548.571 88.5679Z" fill="#53537C"/>
<path d="M508.293 197.149H486.636V203.566H508.293V197.149Z" fill="#3F3D56"/>
<path d="M534.474 147.187H460.455V149.937H534.474V147.187Z" fill="#3F3D56"/>
<path d="M534.474 155.896H460.455V158.646H534.474V155.896Z" fill="#3F3D56"/>
<path d="M534.474 164.605H460.455V167.355H534.474V164.605Z" fill="#3F3D56"/>
<path d="M534.474 173.314H460.455V176.064H534.474V173.314Z" fill="#3F3D56"/>
<path d="M534.474 182.023H460.455V184.773H534.474V182.023Z" fill="#3F3D56"/>
<path d="M500.05 110.664H487.215V123.498H500.05V110.664Z" fill="#F2F2F2"/>
<path d="M492.128 113.873V129.458H507.714V113.873H492.128ZM507.038 128.782H492.804V114.549H507.038V128.782Z" fill="#3F3D56"/>
<path opacity="0.1" d="M548.571 255.65V275.626C548.572 279.54 547.018 283.294 544.25 286.063C541.482 288.831 537.728 290.387 533.814 290.387H461.115C457.201 290.387 453.447 288.831 450.679 286.063C447.911 283.294 446.357 279.54 446.358 275.626V174.902L507.605 223.285L508.653 224.113L520.047 233.111L521.11 233.955L548.571 255.65Z" fill="black"/>
<path d="M491.176 284.325C503.873 284.325 514.165 274.033 514.165 261.337C514.165 248.641 503.873 238.349 491.176 238.349C478.479 238.349 468.186 248.641 468.186 261.337C468.186 274.033 478.479 284.325 491.176 284.325Z" fill="#2F2E41"/>
<path d="M167.791 343C158.773 343 149.958 340.326 142.46 335.317C134.962 330.307 129.119 323.187 125.668 314.856C122.217 306.526 121.314 297.359 123.073 288.515C124.832 279.671 129.175 271.548 135.551 265.172C141.927 258.796 150.052 254.454 158.896 252.695C167.74 250.936 176.908 251.839 185.239 255.289C193.57 258.74 200.691 264.583 205.7 272.081C210.71 279.578 213.384 288.392 213.384 297.409C213.371 309.497 208.563 321.085 200.015 329.632C191.468 338.179 179.879 342.986 167.791 343ZM167.791 252.867C158.98 252.867 150.368 255.479 143.043 260.374C135.717 265.268 130.008 272.225 126.636 280.364C123.264 288.503 122.382 297.459 124.101 306.099C125.82 314.74 130.062 322.676 136.292 328.906C142.522 335.135 150.459 339.377 159.1 341.096C167.741 342.815 176.698 341.933 184.838 338.561C192.977 335.19 199.934 329.481 204.829 322.156C209.724 314.831 212.336 306.219 212.336 297.409C212.323 285.6 207.625 274.278 199.274 265.928C190.923 257.577 179.601 252.88 167.791 252.867Z" fill="#3F3D56"/>
<path d="M497.952 279.068C492.251 279.068 486.678 277.378 481.938 274.211C477.198 271.044 473.504 266.543 471.322 261.276C469.141 256.01 468.57 250.215 469.682 244.624C470.794 239.033 473.539 233.898 477.571 229.867C481.602 225.836 486.737 223.091 492.329 221.979C497.92 220.867 503.715 221.438 508.982 223.619C514.249 225.8 518.751 229.495 521.918 234.234C525.085 238.974 526.775 244.546 526.775 250.247C526.767 257.888 523.727 265.214 518.324 270.617C512.92 276.02 505.594 279.06 497.952 279.068ZM497.952 222.473C492.458 222.473 487.088 224.102 482.521 227.154C477.953 230.206 474.393 234.543 472.291 239.618C470.188 244.693 469.638 250.278 470.71 255.665C471.782 261.053 474.427 266.001 478.312 269.886C482.196 273.77 487.145 276.415 492.533 277.487C497.921 278.558 503.506 278.008 508.581 275.906C513.656 273.804 517.994 270.244 521.046 265.677C524.098 261.11 525.727 255.74 525.727 250.247C525.719 242.883 522.79 235.824 517.583 230.617C512.376 225.41 505.316 222.481 497.952 222.473Z" fill="#605C9F"/>
<g clip-path="url(#clip0_4_335)">
<path d="M276.607 283.882L274.213 274.429C269.967 272.628 265.624 271.068 261.203 269.757L260.901 274.151L259.675 269.311C254.193 267.744 250.463 267.053 250.463 267.053C250.463 267.053 255.502 286.232 266.069 300.894L278.382 303.058L268.817 304.44C270.147 306.041 271.576 307.557 273.096 308.979C288.468 323.262 305.589 329.814 311.337 323.614C317.085 317.414 309.283 300.809 293.91 286.526C289.145 282.099 283.159 278.545 277.166 275.749L276.607 283.882Z" fill="#2F2E41"/>
<path d="M306.052 267.935L308.883 258.604C306.179 254.865 303.266 251.282 300.159 247.872L297.632 251.477L299.082 246.699C295.197 242.521 292.361 240 292.361 240C292.361 240 286.772 259.025 288.248 277.045L297.671 285.269L288.769 281.502C289.081 283.561 289.522 285.598 290.089 287.602C295.873 307.783 307.146 322.252 315.268 319.919C323.39 317.586 325.284 299.334 319.5 279.153C317.706 272.896 314.416 266.757 310.73 261.262L306.052 267.935Z" fill="#3F3D56"/>
<path d="M349.5 330C405.005 330 450 327.697 450 324.855C450 322.014 405.005 319.71 349.5 319.71C293.995 319.71 249 322.014 249 324.855C249 327.697 293.995 330 349.5 330Z" fill="#3F3D56"/>
<path d="M408.216 166.434H407.075V135.122C407.075 132.742 406.606 130.386 405.697 128.187C404.787 125.988 403.454 123.991 401.773 122.308C400.092 120.625 398.096 119.29 395.9 118.379C393.704 117.469 391.35 117 388.973 117H322.709C320.332 117 317.978 117.469 315.782 118.379C313.586 119.29 311.59 120.625 309.909 122.308C308.228 123.991 306.895 125.988 305.985 128.187C305.076 130.386 304.607 132.742 304.607 135.122V306.9C304.607 309.279 305.076 311.636 305.985 313.835C306.895 316.033 308.228 318.031 309.909 319.714C311.59 321.397 313.586 322.732 315.782 323.642C317.978 324.553 320.332 325.022 322.709 325.022H388.973C391.35 325.022 393.704 324.553 395.9 323.642C398.096 322.732 400.092 321.397 401.773 319.714C403.454 318.031 404.787 316.033 405.697 313.835C406.606 311.636 407.075 309.279 407.075 306.9V188.722H408.216V166.434Z" fill="#2F2E41"/>
<path d="M403.222 135.249V306.773C403.222 310.363 401.797 313.805 399.262 316.343C396.727 318.881 393.288 320.307 389.703 320.307H323.122C319.536 320.307 316.098 318.881 313.562 316.343C311.027 313.805 309.603 310.363 309.603 306.773V135.249C309.603 131.659 311.027 128.217 313.562 125.679C316.098 123.141 319.536 121.715 323.122 121.715H331.199C330.802 122.691 330.651 123.75 330.759 124.799C330.866 125.847 331.23 126.853 331.818 127.728C332.405 128.603 333.198 129.32 334.127 129.816C335.056 130.312 336.093 130.572 337.146 130.573H375.108C376.16 130.572 377.197 130.312 378.126 129.816C379.055 129.32 379.848 128.603 380.436 127.728C381.023 126.853 381.387 125.847 381.495 124.799C381.603 123.75 381.452 122.691 381.055 121.715H389.703C393.288 121.715 396.727 123.141 399.262 125.679C401.797 128.217 403.222 131.659 403.222 135.249Z" fill="#53537C"/>
<path d="M403.222 269.921V306.773C403.222 310.363 401.797 313.805 399.262 316.343C396.727 318.881 393.288 320.307 389.703 320.307H323.122C319.536 320.307 316.098 318.881 313.562 316.343C311.027 313.805 309.603 310.363 309.603 306.773V273.514C315.312 266.804 322.35 261.352 330.272 257.504C338.194 253.656 346.826 251.495 355.625 251.157C364.423 250.82 373.196 252.313 381.389 255.543C389.581 258.772 397.016 263.668 403.222 269.921Z" fill="#4B4B70"/>
<path d="M340.984 263.108H338.294L339.19 210.485H340.088L340.984 263.108Z" fill="#E6E6E6"/>
<path d="M343.227 177.355L347.57 170.634C346.282 167.072 344.794 163.585 343.114 160.191L340.305 162.462L342.529 159.021C340.41 154.844 338.742 152.213 338.742 152.213C338.742 152.213 330.031 165.956 327.12 180.507L332.694 189.131L326.524 184.141C326.304 185.836 326.191 187.543 326.185 189.253C326.185 206.486 331.807 220.456 338.742 220.456C345.677 220.456 351.299 206.486 351.299 189.253C351.299 183.91 350.092 178.321 348.426 173.151L343.227 177.355Z" fill="#E6E6E6"/>
<path d="M325.368 266.823H324.063L324.498 241.302H324.933L325.368 266.823Z" fill="#E6E6E6"/>
<path d="M326.456 225.234L328.562 221.975C327.938 220.247 327.216 218.556 326.401 216.91L325.039 218.011L326.117 216.343C325.09 214.317 324.281 213.041 324.281 213.041C324.281 213.041 320.056 219.706 318.644 226.763L321.348 230.945L318.355 228.526C318.248 229.348 318.193 230.176 318.191 231.005C318.191 239.362 320.917 246.138 324.281 246.138C327.644 246.138 330.371 239.362 330.371 231.005C330.371 228.414 329.785 225.703 328.978 223.195L326.456 225.234Z" fill="#E6E6E6"/>
<path d="M359.344 266.823H358.039L358.474 241.302H358.909L359.344 266.823Z" fill="#E6E6E6"/>
<path d="M360.432 225.234L362.538 221.975C361.913 220.247 361.192 218.556 360.377 216.91L359.015 218.011L360.093 216.343C359.065 214.317 358.257 213.041 358.257 213.041C358.257 213.041 354.032 219.706 352.62 226.763L355.323 230.945L352.331 228.526C352.224 229.348 352.169 230.176 352.167 231.005C352.167 239.362 354.893 246.138 358.257 246.138C361.62 246.138 364.347 239.362 364.347 231.005C364.347 228.414 363.761 225.703 362.953 223.195L360.432 225.234Z" fill="#E6E6E6"/>
<path d="M324.375 182.225C330.998 182.225 336.366 176.85 336.366 170.22C336.366 163.59 330.998 158.215 324.375 158.215C317.752 158.215 312.384 163.59 312.384 170.22C312.384 176.85 317.752 182.225 324.375 182.225Z" fill="#E6E6E6"/>
<path d="M367.736 183.934L389.624 184.478L392.57 158.35H367.736V183.934Z" fill="#2F2E41"/>
<path d="M362.282 163.464L356.245 140.29C356.245 140.29 357.913 129.165 361.948 129.349C365.982 129.532 360.9 140.224 360.9 140.224L367.736 160.243L362.282 163.464Z" fill="#FFB8B8"/>
<path d="M374.118 221.53L375.063 230.995C375.063 230.995 345.281 251.346 345.281 259.864C345.281 268.383 344.336 295.359 344.336 295.359L355.209 295.832L356.154 283.054C356.154 283.054 358.518 268.856 357.1 263.65L372.7 251.819C372.7 251.819 367.972 257.498 368.918 267.436C369.863 277.375 367.5 296.779 367.5 296.779L378.845 297.725C378.845 297.725 380.263 287.313 380.736 286.367C381.209 285.42 383.573 268.383 381.209 263.65L400.591 240.934C400.591 240.934 407.209 232.415 400.591 223.897L396.809 222.004L374.118 221.53Z" fill="#2F2E41"/>
<path d="M344.809 293.466L343.863 299.618L337.718 314.289C337.718 314.289 327.318 319.495 334.881 320.442C342.445 321.388 345.281 319.495 346.7 317.129C348.118 314.762 350.954 310.976 350.954 310.976L350.481 320.915H352.845L356.719 307.34C357.098 306.041 357.164 304.669 356.912 303.339C356.659 302.009 356.094 300.758 355.265 299.689C355.246 299.665 355.228 299.642 355.209 299.618C353.318 297.252 354.263 293.939 354.263 293.939L344.809 293.466Z" fill="#2F2E41"/>
<path d="M368.445 293.466L367.5 299.618L361.354 314.289C361.354 314.289 350.954 319.495 358.518 320.442C366.082 321.388 368.918 319.495 370.336 317.129C371.754 314.762 374.591 310.976 374.591 310.976L374.118 320.915H376.482L380.356 307.34C380.735 306.041 380.801 304.669 380.548 303.339C380.295 302.009 379.731 300.758 378.902 299.689C378.883 299.665 378.864 299.642 378.845 299.618C376.954 297.252 377.9 293.939 377.9 293.939L368.445 293.466Z" fill="#2F2E41"/>
<path d="M379.791 172.785C385.012 172.785 389.245 168.547 389.245 163.319C389.245 158.092 385.012 153.854 379.791 153.854C374.569 153.854 370.336 158.092 370.336 163.319C370.336 168.547 374.569 172.785 379.791 172.785Z" fill="#FFB8B8"/>
<path d="M379.318 171.365L383.573 181.303L392.082 174.678C392.082 174.678 386.882 167.579 386.882 166.632L379.318 171.365Z" fill="#FFB8B8"/>
<path d="M380.263 177.044L382.28 178.284C382.28 178.284 388.796 174.826 390.439 172.385C390.439 172.385 396.336 170.418 398.7 175.151C401.064 179.883 397.282 212.538 397.282 212.538C397.282 212.538 399.645 215.851 399.173 217.271C398.7 218.691 400.591 221.057 400.591 221.057V223.897C400.591 223.897 373.645 224.37 373.645 222.004V214.431L370.809 213.485C370.809 213.485 367.972 219.637 367.027 219.164C366.082 218.691 361.354 214.905 361.354 214.905C361.354 214.905 368.918 189.822 373.173 185.563L378.373 176.571L380.263 177.044Z" fill="#6C63FF"/>
<path d="M379.318 177.517C379.318 177.517 378.373 175.624 376.954 175.151C375.536 174.678 368.445 164.739 368.445 164.739L369.391 159.533L359.936 158.113C359.936 158.113 360.409 163.319 362.3 166.632C364.191 169.945 374.591 186.982 374.591 186.982L379.791 177.517L379.318 177.517Z" fill="#6C63FF"/>
<path d="M386.645 215.141L380.973 232.179C380.973 232.179 369.154 245.43 375.773 245.43C382.391 245.43 385.7 233.598 385.7 233.598L393.736 216.561L386.645 215.141Z" fill="#FFB8B8"/>
<path d="M368.459 163.458C376.032 160.419 383.497 159.771 390.768 163.458V157.333C390.768 156.809 390.665 156.291 390.464 155.807C390.264 155.323 389.971 154.883 389.601 154.513C389.231 154.142 388.792 153.848 388.308 153.648C387.825 153.448 387.307 153.344 386.783 153.344H371.607C371.194 153.344 370.784 153.426 370.402 153.584C370.021 153.743 369.674 153.975 369.381 154.267C369.089 154.56 368.857 154.907 368.699 155.29C368.541 155.672 368.459 156.082 368.459 156.496V163.458Z" fill="#2F2E41"/>
<path d="M392.554 176.571C392.554 176.571 396.868 172.913 399.202 177.108C401.536 181.303 400.118 199.287 399.645 201.653C399.173 204.02 395.864 218.691 395.864 218.691L384.518 216.324C384.518 216.324 383.573 209.699 386.409 210.172L392.554 176.571Z" fill="#6C63FF"/>
<path d="M397.26 172.504C395.126 171.331 394.132 168.697 394.062 166.26C393.991 163.824 394.581 161.413 394.627 158.975C394.651 158.477 394.609 157.977 394.501 157.49C394.324 156.885 394.048 156.313 393.685 155.798C390.91 151.541 386.085 148.546 381.004 148.499C380.269 148.49 379.54 148.624 378.858 148.894C378.332 149.105 378.161 149.079 378.06 149.725C376.856 149.327 375.551 149.369 374.375 149.842C373.21 150.316 372.123 150.964 371.152 151.764C370.574 152.193 370.03 152.665 369.522 153.176C366.837 155.961 366.218 160.254 366.996 164.046C367.249 165.278 366.036 166.469 365.032 167.226C364.027 167.983 362.868 168.678 362.375 169.836C361.901 170.95 362.161 172.223 362.066 173.43C361.958 174.571 361.535 175.659 360.843 176.572C360.15 177.484 359.217 178.185 358.148 178.595C358.366 178.856 358.651 179.054 358.972 179.167C359.293 179.28 359.638 179.304 359.972 179.237C360.668 179.09 361.319 178.78 361.871 178.331C363.95 176.789 365.437 174.58 366.085 172.073C366.379 173.416 366.265 174.801 366.254 176.176C366.28 177.711 365.998 179.235 365.424 180.658C364.841 182.088 363.772 183.266 362.406 183.985C363.723 184.63 365.175 184.162 366.291 183.21C367.407 182.257 368.066 180.875 368.527 179.481C369.276 177.209 369.58 174.813 369.422 172.426C370.647 174.491 371.095 176.927 370.684 179.293C370.255 181.706 368.997 183.893 367.127 185.474C370.387 185.447 373.594 184.638 376.478 183.117C377.223 182.779 377.88 182.272 378.396 181.638C379.324 180.349 379.105 178.591 378.845 177.023C378.639 175.784 380.186 173.992 379.3 173.102C379.037 172.841 378.685 172.69 378.315 172.678C375.616 172.418 373.117 171.061 371.677 168.761C370.667 167.15 369.999 165.31 369.999 163.588C370 162.233 370.293 160.894 370.858 159.663C371.423 158.432 372.247 157.337 373.274 156.454C374.301 155.571 375.506 154.92 376.807 154.546C378.108 154.172 379.474 154.084 380.812 154.287C382.151 154.49 383.429 154.981 384.561 155.724C385.692 156.468 386.65 157.447 387.369 158.596C388.088 159.744 388.55 161.034 388.725 162.378C388.9 163.722 388.783 165.087 388.382 166.382C388.062 167.423 387.833 168.491 387.697 169.572C387.537 170.826 387.282 172.067 386.934 173.282C386.264 175.619 385.128 178.004 383.027 179.222C383.733 179.609 384.55 179.627 385.35 179.715C387.987 180.006 390.76 179.942 393.146 178.782C395.533 177.623 397.43 175.154 397.26 172.504Z" fill="#2F2E41"/>
<path opacity="0.2" d="M389.009 189.112L386.542 209.444L386.645 190.059L389.009 189.112Z" fill="black"/>
<path opacity="0.2" d="M397.115 213.123L396.1 219.401L398.463 220.347L397.115 213.123Z" fill="black"/>
</g>
<g clip-path="url(#clip1_4_335)">
<path d="M48.5611 184.265C49.8423 184.716 51.218 184.829 52.5556 184.593C53.8931 184.357 55.1474 183.78 56.1977 182.917C58.8724 180.668 59.7112 176.963 60.3933 173.532L62.4116 163.382L58.1862 166.297C55.1474 168.394 52.0403 170.557 49.9365 173.594C47.8326 176.63 46.9148 180.775 48.6046 184.061" fill="#E6E6E6"/>
<path d="M49.2135 197.259C48.6817 193.377 48.1345 189.444 48.5085 185.521C48.8398 182.036 49.901 178.633 52.0612 175.842C53.2079 174.363 54.6032 173.096 56.1843 172.098C56.5966 171.838 56.976 172.492 56.5656 172.752C53.8297 174.484 51.7135 177.042 50.5222 180.057C49.2065 183.41 48.9952 187.065 49.2218 190.626C49.3588 192.78 49.6499 194.92 49.9423 197.057C49.9653 197.154 49.9509 197.256 49.9019 197.342C49.853 197.428 49.773 197.493 49.6784 197.523C49.5818 197.549 49.4788 197.536 49.3919 197.486C49.3049 197.437 49.2409 197.355 49.2138 197.258L49.2135 197.259Z" fill="#F2F2F2"/>
<path d="M53.0415 191.03C53.5909 191.867 54.3463 192.548 55.2347 193.007C56.1232 193.467 57.1147 193.689 58.114 193.654C60.6824 193.531 62.8228 191.736 64.7494 190.031L70.4491 184.989L66.677 184.808C63.9642 184.678 61.1815 184.556 58.5977 185.395C56.0139 186.234 53.631 188.25 53.1586 190.93" fill="#E6E6E6"/>
<path d="M47.7102 199.49C50.2706 194.951 53.2402 189.907 58.5468 188.294C60.0222 187.848 61.5692 187.688 63.1046 187.823C63.5885 187.865 63.4677 188.612 62.9847 188.57C60.411 188.356 57.8423 189.037 55.7109 190.498C53.66 191.897 52.063 193.842 50.7115 195.904C49.8836 197.167 49.142 198.484 48.4004 199.799C48.1635 200.219 47.4705 199.915 47.7102 199.49Z" fill="#F2F2F2"/>
<path d="M123.961 107.503C123.798 107.582 123.642 107.674 123.493 107.777L108.408 101.869L107.81 97.9726L101.823 98.1082L102.213 105.109C102.244 105.675 102.458 106.215 102.822 106.649C103.186 107.082 103.68 107.386 104.231 107.514L122.181 111.686C122.4 112.348 122.815 112.927 123.371 113.347C123.927 113.767 124.598 114.007 125.293 114.036C125.989 114.065 126.677 113.881 127.265 113.508C127.854 113.136 128.315 112.593 128.588 111.951C128.861 111.309 128.933 110.6 128.794 109.916C128.654 109.233 128.31 108.608 127.808 108.125C127.306 107.643 126.668 107.324 125.981 107.213C125.294 107.102 124.589 107.203 123.961 107.503Z" fill="#9F616A"/>
<path d="M101.311 195.537L105.315 195.537L107.22 180.063L101.31 180.063L101.311 195.537Z" fill="#9F616A"/>
<path d="M100.29 194.227L108.175 194.227H108.175C109.508 194.227 110.786 194.757 111.728 195.701C112.671 196.645 113.2 197.926 113.2 199.261V199.425L100.29 199.425L100.29 194.227Z" fill="#2F2E41"/>
<path d="M82.0421 195.537L86.0462 195.537L87.9508 180.063L82.0415 180.063L82.0421 195.537Z" fill="#9F616A"/>
<path d="M81.0207 194.227L88.9059 194.227H88.9063C90.239 194.227 91.5171 194.757 92.4594 195.701C93.4018 196.645 93.9313 197.926 93.9314 199.261V199.425L81.0209 199.425L81.0207 194.227Z" fill="#2F2E41"/>
<path d="M84.3637 77.5628C83.2234 72.8455 82.2574 67.5249 84.4079 63.1802C85.9 60.1656 91.42 59.1504 94.5843 60.2364C97.7486 61.3225 100.036 64.269 101.043 67.4815C102.049 70.6941 101.932 74.1559 101.493 77.4956C95.6737 77.3836 89.8542 77.2716 84.3637 77.5628Z" fill="#2F2E41"/>
<path d="M94.1844 77.5615C97.9323 77.5615 100.971 74.5174 100.971 70.7622C100.971 67.0071 97.9323 63.963 94.1844 63.963C90.4365 63.963 87.3982 67.0071 87.3982 70.7622C87.3982 74.5174 90.4365 77.5615 94.1844 77.5615Z" fill="#9F616A"/>
<path d="M85.8883 69.3616C85.8668 68.2173 86.075 67.0803 86.5007 66.0181C86.9263 64.956 87.5607 63.9904 88.3662 63.1788C89.1716 62.3672 90.1317 61.7261 91.1894 61.2935C92.247 60.861 93.3806 60.6459 94.5229 60.661C95.6651 60.676 96.7927 60.921 97.8386 61.3813C98.8845 61.8417 99.8274 62.5079 100.611 63.3406C101.395 64.1732 102.004 65.1552 102.401 66.2282C102.799 67.3012 102.977 68.4433 102.926 69.5867C97.117 69.599 91.3086 69.6114 85.8883 69.3616Z" fill="#2F2E41"/>
<path d="M88.5524 102.646L85.7143 107.385C85.7143 107.385 77.9417 121.991 78.404 134.098L80.1241 149.177L78.2364 152.878L79.4999 159.389L77.1534 164.053L81.3953 186.569L81.5758 191.452H88.4351L88.074 186.478L90.9622 164.543L95.8358 141.122L98.3629 161.34L97.4604 166.404L98.6337 170.654L100.258 183.766L100.439 190.095L106.666 190.819L109.013 167.398L110.367 156.224L103.111 106.677L88.5524 102.646Z" fill="#2F2E41"/>
<path d="M87.6523 79.7626L83.4269 81.5606L81.0539 91.4009L86.0505 104.222L84.1825 110.627C89.8368 120.318 96.8354 121.726 105.071 115.512C103.328 110.609 103.58 105.567 105.317 100.422C105.317 100.422 109.649 96.3803 106.623 91.1254L103.736 83.2748L100.162 81.4843L87.6523 79.7626Z" fill="#6C63FF"/>
<path d="M102.903 84.9862L103.863 83.2014C103.863 83.2014 106.392 83.5826 107.425 86.6337C108.458 89.6848 108.727 102.01 108.727 102.01L103.314 102.285L102.903 84.9862Z" fill="#6C63FF"/>
<path d="M81.6993 126.82C82.1585 126.591 82.5621 126.264 82.8815 125.862C83.2009 125.46 83.4284 124.992 83.548 124.492C83.6676 123.993 83.6764 123.473 83.5738 122.969C83.4711 122.466 83.2596 121.991 82.954 121.578L85.5775 95.8784H79.9078L77.8228 120.973C77.1649 121.533 76.7349 122.316 76.6144 123.173C76.4939 124.03 76.6913 124.901 77.1691 125.622C77.6469 126.342 78.372 126.862 79.207 127.083C80.0419 127.304 80.9287 127.21 81.6993 126.82Z" fill="#9F616A"/>
<path d="M86.88 84.4672L84.8931 81.6527C84.8931 81.6527 81.3989 79.2793 79.6175 84.7418C77.8361 90.2043 78.1102 100.324 78.1102 100.324L84.8931 103.139L86.88 84.4672Z" fill="#6C63FF"/>
<path d="M205.335 42.5415H173.982V60.2114H205.335V42.5415Z" fill="#2F2E41"/>
<path d="M270 28.7983H238.647V46.4681H270V28.7983Z" fill="#2F2E41"/>
<path d="M260.202 74.6091H228.849V92.2789H260.202V74.6091Z" fill="#2F2E41"/>
<path d="M248.445 18H217.092V35.6699H248.445V18Z" fill="#3F3D56"/>
<path d="M249.425 50.5788H197.823V79.6605H249.425V50.5788Z" fill="#6C63FF"/>
<path d="M145.135 97.6974H199.258V74.3964H200.104V98.5449H145.135V97.6974Z" fill="#3F3D56"/>
<path d="M199.681 82.9693C202.25 82.9693 204.333 80.8828 204.333 78.3091C204.333 75.7353 202.25 73.6489 199.681 73.6489C197.113 73.6489 195.03 75.7353 195.03 78.3091C195.03 80.8828 197.113 82.9693 199.681 82.9693Z" fill="#3F3D56"/>
<path d="M158.431 106.047H133.06V106.894H158.431V106.047Z" fill="#6C63FF"/>
<path d="M158.431 108.589H133.06V109.436H158.431V108.589Z" fill="#6C63FF"/>
<path d="M158.431 111.131H133.06V111.978H158.431V111.131Z" fill="#6C63FF"/>
<path d="M140.408 199.934H31.3266C31.24 199.934 31.1569 199.9 31.0957 199.838C31.0344 199.777 31 199.694 31 199.607C31 199.52 31.0344 199.437 31.0957 199.376C31.1569 199.314 31.24 199.28 31.3266 199.28H140.408C140.495 199.28 140.578 199.314 140.639 199.376C140.701 199.437 140.735 199.52 140.735 199.607C140.735 199.694 140.701 199.777 140.639 199.838C140.578 199.9 140.495 199.934 140.408 199.934Z" fill="#CBCBCB"/>
<path d="M132.568 193.915C131.988 194.119 131.366 194.17 130.76 194.064C130.155 193.957 129.587 193.695 129.112 193.305C127.901 192.287 127.521 190.61 127.213 189.057L126.299 184.463L128.212 185.782C129.587 186.731 130.993 187.71 131.946 189.085C132.898 190.459 133.314 192.335 132.549 193.822" fill="#E6E6E6"/>
<path d="M132.405 199.477C132.655 198.068 132.741 196.634 132.662 195.205C132.573 193.932 132.125 192.71 131.369 191.683C130.952 191.145 130.444 190.684 129.868 190.321C129.718 190.226 129.58 190.464 129.73 190.559C130.725 191.189 131.495 192.12 131.929 193.217C132.366 194.449 132.527 195.762 132.401 197.063C132.351 197.847 132.246 198.625 132.139 199.403C132.13 199.438 132.136 199.476 132.153 199.507C132.171 199.539 132.2 199.562 132.235 199.573C132.27 199.582 132.308 199.577 132.339 199.559C132.371 199.541 132.394 199.512 132.404 199.476L132.405 199.477Z" fill="#F2F2F2"/>
</g>
<defs>
<clipPath id="clip0_4_335">
<rect width="201" height="213" fill="white" transform="translate(249 117)"/>
</clipPath>
<clipPath id="clip1_4_335">
<rect width="239" height="182" fill="white" transform="translate(31 18)"/>
</clipPath>
</defs>
</svg>
