<!--?xml version="1.0" standalone="no"?-->
              <svg id="sw-js-blob-svg" viewBox="0 0 100 100" xmlns="http://www.w3.org/2000/svg" version="1.1">
                    <defs> 
                        <linearGradient id="sw-gradient" x1="0" x2="1" y1="1" y2="0">
                            <stop id="stop1" stop-color="rgba(82, 75, 173, 1)" offset="0%"></stop>
                            <stop id="stop2" stop-color="rgba(115, 105, 201, 1)" offset="100%"></stop>
                        </linearGradient>
                    </defs>
                <path fill="url(#sw-gradient)" d="M17.2,-22.1C19.7,-18.3,17.5,-10.5,19.3,-3C21.1,4.5,26.9,11.7,26.9,19.3C27,27,21.4,35.1,14.8,35.2C8.2,35.2,0.6,27.2,-7.7,23.3C-16.1,19.4,-25.2,19.6,-27.6,15.8C-30,11.9,-25.6,4.1,-24.4,-4.5C-23.1,-13.1,-25,-22.5,-21.4,-26.1C-17.9,-29.7,-8.9,-27.4,-0.8,-26.5C7.3,-25.5,14.6,-25.8,17.2,-22.1Z" width="100%" height="100%" transform="translate(50 50)" stroke-width="0" style="transition: all 0.3s ease 0s;" stroke="url(#sw-gradient)"></path>
              </svg>