<svg xmlns="http://www.w3.org/2000/svg" version="1.1" xmlns:xlink="http://www.w3.org/1999/xlink" xmlns:svgjs="http://svgjs.dev/svgjs" viewBox="0 0 800 800"><symbol id="SvgjsSymbol1009"><polygon points="0,12.5 25,0 50,12.5 25,25"></polygon></symbol><symbol id="SvgjsSymbol1010"><polygon points="0,12.5 25,25 25,50 0,37.5"></polygon></symbol><symbol id="SvgjsSymbol1011"><polygon points="25,25 50,12.5 50,37.5 25,50"></polygon></symbol><g shape-rendering="crispEdges"><g><use xlink:href="#SvgjsSymbol1020" x="0" y="656.25" fill="#9f97f6"></use><use xlink:href="#SvgjsSymbol1021" x="0" y="656.25" fill="#d2c8ff"></use></g><g><use xlink:href="#SvgjsSymbol1020" x="175" y="656.25" fill="#9f97f6"></use><use xlink:href="#SvgjsSymbol1021" x="175" y="656.25" fill="#d2c8ff"></use></g><g><use xlink:href="#SvgjsSymbol1020" x="350" y="656.25" fill="#9f97f6"></use><use xlink:href="#SvgjsSymbol1021" x="350" y="656.25" fill="#d2c8ff"></use></g><g><use xlink:href="#SvgjsSymbol1020" x="525" y="656.25" fill="#9f97f6"></use><use xlink:href="#SvgjsSymbol1021" x="525" y="656.25" fill="#d2c8ff"></use></g><g><use xlink:href="#SvgjsSymbol1020" x="700" y="656.25" fill="#9f97f6"></use><use xlink:href="#SvgjsSymbol1021" x="700" y="656.25" fill="#d2c8ff"></use></g><g><use xlink:href="#SvgjsSymbol1020" x="612.5" y="525" fill="#9f97f6"></use><use xlink:href="#SvgjsSymbol1021" x="612.5" y="525" fill="#d2c8ff"></use><use xlink:href="#SvgjsSymbol1022" x="612.5" y="525" fill="#6d69c3"></use></g><g><use xlink:href="#SvgjsSymbol1020" x="437.5" y="525" fill="#9f97f6"></use><use xlink:href="#SvgjsSymbol1021" x="437.5" y="525" fill="#d2c8ff"></use><use xlink:href="#SvgjsSymbol1022" x="437.5" y="525" fill="#6d69c3"></use></g><g><use xlink:href="#SvgjsSymbol1020" x="262.5" y="525" fill="#9f97f6"></use><use xlink:href="#SvgjsSymbol1021" x="262.5" y="525" fill="#d2c8ff"></use><use xlink:href="#SvgjsSymbol1022" x="262.5" y="525" fill="#6d69c3"></use></g><g><use xlink:href="#SvgjsSymbol1020" x="87.5" y="525" fill="#9f97f6"></use><use xlink:href="#SvgjsSymbol1021" x="87.5" y="525" fill="#d2c8ff"></use><use xlink:href="#SvgjsSymbol1022" x="87.5" y="525" fill="#6d69c3"></use></g><g><use xlink:href="#SvgjsSymbol1020" x="0" y="568.75" fill="#9f97f6"></use><use xlink:href="#SvgjsSymbol1021" x="0" y="568.75" fill="#d2c8ff"></use><use xlink:href="#SvgjsSymbol1022" x="0" y="568.75" fill="#6d69c3"></use></g><g><use xlink:href="#SvgjsSymbol1020" x="525" y="393.75" fill="#9f97f6"></use><use xlink:href="#SvgjsSymbol1021" x="525" y="393.75" fill="#d2c8ff"></use><use xlink:href="#SvgjsSymbol1022" x="525" y="393.75" fill="#6d69c3"></use></g><g><use xlink:href="#SvgjsSymbol1020" x="350" y="393.75" fill="#9f97f6"></use><use xlink:href="#SvgjsSymbol1021" x="350" y="393.75" fill="#d2c8ff"></use><use xlink:href="#SvgjsSymbol1022" x="350" y="393.75" fill="#6d69c3"></use></g><g><use xlink:href="#SvgjsSymbol1020" x="175" y="393.75" fill="#9f97f6"></use><use xlink:href="#SvgjsSymbol1021" x="175" y="393.75" fill="#d2c8ff"></use><use xlink:href="#SvgjsSymbol1022" x="175" y="393.75" fill="#6d69c3"></use></g><g><use xlink:href="#SvgjsSymbol1020" x="262.5" y="262.5" fill="#9f97f6"></use><use xlink:href="#SvgjsSymbol1021" x="262.5" y="262.5" fill="#d2c8ff"></use><use xlink:href="#SvgjsSymbol1022" x="262.5" y="262.5" fill="#6d69c3"></use></g><g><use xlink:href="#SvgjsSymbol1020" x="437.5" y="262.5" fill="#9f97f6"></use><use xlink:href="#SvgjsSymbol1021" x="437.5" y="262.5" fill="#d2c8ff"></use><use xlink:href="#SvgjsSymbol1022" x="437.5" y="262.5" fill="#6d69c3"></use></g><g><use xlink:href="#SvgjsSymbol1020" x="350" y="131.25" fill="#9f97f6"></use><use xlink:href="#SvgjsSymbol1021" x="350" y="131.25" fill="#d2c8ff"></use><use xlink:href="#SvgjsSymbol1022" x="350" y="131.25" fill="#6d69c3"></use></g><g><use xlink:href="#SvgjsSymbol1020" x="525" y="131.25" fill="#9f97f6"></use><use xlink:href="#SvgjsSymbol1021" x="525" y="131.25" fill="#d2c8ff"></use><use xlink:href="#SvgjsSymbol1022" x="525" y="131.25" fill="#6d69c3"></use></g><g><use xlink:href="#SvgjsSymbol1020" x="612.5" y="0" fill="#9f97f6"></use><use xlink:href="#SvgjsSymbol1021" x="612.5" y="0" fill="#d2c8ff"></use><use xlink:href="#SvgjsSymbol1022" x="612.5" y="0" fill="#6d69c3"></use></g><g><use xlink:href="#SvgjsSymbol1020" x="175" y="131.25" fill="#9f97f6"></use><use xlink:href="#SvgjsSymbol1021" x="175" y="131.25" fill="#d2c8ff"></use><use xlink:href="#SvgjsSymbol1022" x="175" y="131.25" fill="#6d69c3"></use></g><g><use xlink:href="#SvgjsSymbol1020" x="87.5" y="0" fill="#9f97f6"></use><use xlink:href="#SvgjsSymbol1021" x="87.5" y="0" fill="#d2c8ff"></use><use xlink:href="#SvgjsSymbol1022" x="87.5" y="0" fill="#6d69c3"></use></g><g><use xlink:href="#SvgjsSymbol1020" x="262.5" y="0" fill="#000029"></use><use xlink:href="#SvgjsSymbol1021" x="262.5" y="0" fill="#282c52"></use><use xlink:href="#SvgjsSymbol1022" x="262.5" y="0" fill="#000000"></use></g><g><use xlink:href="#SvgjsSymbol1020" x="437.5" y="0" fill="#000029"></use><use xlink:href="#SvgjsSymbol1021" x="437.5" y="0" fill="#282c52"></use><use xlink:href="#SvgjsSymbol1022" x="437.5" y="0" fill="#000000"></use></g><g><use xlink:href="#SvgjsSymbol1020" x="612.5" y="262.5" fill="#000029"></use><use xlink:href="#SvgjsSymbol1021" x="612.5" y="262.5" fill="#282c52"></use><use xlink:href="#SvgjsSymbol1022" x="612.5" y="262.5" fill="#000000"></use></g><g><use xlink:href="#SvgjsSymbol1020" x="87.5" y="262.5" fill="#000029"></use><use xlink:href="#SvgjsSymbol1021" x="87.5" y="262.5" fill="#282c52"></use><use xlink:href="#SvgjsSymbol1022" x="87.5" y="262.5" fill="#000000"></use></g><g><use xlink:href="#SvgjsSymbol1020" x="0" y="131.25" fill="#000029"></use><use xlink:href="#SvgjsSymbol1021" x="0" y="131.25" fill="#282c52"></use><use xlink:href="#SvgjsSymbol1022" x="0" y="131.25" fill="#000000"></use></g><g><use xlink:href="#SvgjsSymbol1020" x="0" y="350" fill="#000029"></use><use xlink:href="#SvgjsSymbol1021" x="0" y="350" fill="#282c52"></use><use xlink:href="#SvgjsSymbol1022" x="0" y="350" fill="#000000"></use></g><g><use xlink:href="#SvgjsSymbol1020" x="0" y="437.5" fill="#000029"></use><use xlink:href="#SvgjsSymbol1021" x="0" y="437.5" fill="#282c52"></use><use xlink:href="#SvgjsSymbol1022" x="0" y="437.5" fill="#000000"></use></g><g><use xlink:href="#SvgjsSymbol1020" x="700" y="393.75" fill="#000029"></use><use xlink:href="#SvgjsSymbol1021" x="700" y="393.75" fill="#282c52"></use><use xlink:href="#SvgjsSymbol1022" x="700" y="393.75" fill="#000000"></use></g><g><use xlink:href="#SvgjsSymbol1020" x="656.25" y="656.25" fill="#000029"></use><use xlink:href="#SvgjsSymbol1021" x="656.25" y="656.25" fill="#282c52"></use><use xlink:href="#SvgjsSymbol1022" x="656.25" y="656.25" fill="#000000"></use></g><g><use xlink:href="#SvgjsSymbol1020" x="0" y="700" fill="#000029"></use><use xlink:href="#SvgjsSymbol1021" x="0" y="700" fill="#282c52"></use><use xlink:href="#SvgjsSymbol1022" x="0" y="700" fill="#000000"></use></g><g><use xlink:href="#SvgjsSymbol1020" x="262.5" y="700" fill="#000029"></use><use xlink:href="#SvgjsSymbol1021" x="262.5" y="700" fill="#282c52"></use><use xlink:href="#SvgjsSymbol1022" x="262.5" y="700" fill="#000000"></use></g><g><use xlink:href="#SvgjsSymbol1020" x="350" y="437.5" fill="#000029"></use><use xlink:href="#SvgjsSymbol1021" x="350" y="437.5" fill="#282c52"></use><use xlink:href="#SvgjsSymbol1022" x="350" y="437.5" fill="#000000"></use></g><g><use xlink:href="#SvgjsSymbol1020" x="568.75" y="568.75" fill="#000029"></use><use xlink:href="#SvgjsSymbol1021" x="568.75" y="568.75" fill="#282c52"></use><use xlink:href="#SvgjsSymbol1022" x="568.75" y="568.75" fill="#000000"></use></g><g><use xlink:href="#SvgjsSymbol1020" x="175" y="612.5" fill="#000029"></use><use xlink:href="#SvgjsSymbol1021" x="175" y="612.5" fill="#282c52"></use><use xlink:href="#SvgjsSymbol1022" x="175" y="612.5" fill="#000000"></use></g><g><use xlink:href="#SvgjsSymbol1020" x="700" y="131.25" fill="#524bac"></use><use xlink:href="#SvgjsSymbol1021" x="700" y="131.25" fill="#8477de"></use><use xlink:href="#SvgjsSymbol1022" x="700" y="131.25" fill="#1a237c"></use></g><g><use xlink:href="#SvgjsSymbol1020" x="0" y="0" fill="#524bac"></use><use xlink:href="#SvgjsSymbol1021" x="0" y="0" fill="#8477de"></use><use xlink:href="#SvgjsSymbol1022" x="0" y="0" fill="#1a237c"></use></g><g><use xlink:href="#SvgjsSymbol1020" x="262.5" y="175" fill="#524bac"></use><use xlink:href="#SvgjsSymbol1021" x="262.5" y="175" fill="#8477de"></use><use xlink:href="#SvgjsSymbol1022" x="262.5" y="175" fill="#1a237c"></use></g><g><use xlink:href="#SvgjsSymbol1020" x="393.75" y="350" fill="#524bac"></use><use xlink:href="#SvgjsSymbol1021" x="393.75" y="350" fill="#8477de"></use><use xlink:href="#SvgjsSymbol1022" x="393.75" y="350" fill="#1a237c"></use></g><g><use xlink:href="#SvgjsSymbol1020" x="131.25" y="481.25" fill="#524bac"></use><use xlink:href="#SvgjsSymbol1021" x="131.25" y="481.25" fill="#8477de"></use><use xlink:href="#SvgjsSymbol1022" x="131.25" y="481.25" fill="#1a237c"></use></g><g><use xlink:href="#SvgjsSymbol1020" x="437.5" y="700" fill="#524bac"></use><use xlink:href="#SvgjsSymbol1021" x="437.5" y="700" fill="#8477de"></use><use xlink:href="#SvgjsSymbol1022" x="437.5" y="700" fill="#1a237c"></use></g><g><use xlink:href="#SvgjsSymbol1020" x="87.5" y="656.25" fill="#524bac"></use><use xlink:href="#SvgjsSymbol1021" x="87.5" y="656.25" fill="#8477de"></use><use xlink:href="#SvgjsSymbol1022" x="87.5" y="656.25" fill="#1a237c"></use></g><g><use xlink:href="#SvgjsSymbol1020" x="525" y="437.5" fill="#524bac"></use><use xlink:href="#SvgjsSymbol1021" x="525" y="437.5" fill="#8477de"></use><use xlink:href="#SvgjsSymbol1022" x="525" y="437.5" fill="#1a237c"></use></g><g><use xlink:href="#SvgjsSymbol1020" x="262.5" y="350" fill="#524bac"></use><use xlink:href="#SvgjsSymbol1021" x="262.5" y="350" fill="#8477de"></use><use xlink:href="#SvgjsSymbol1022" x="262.5" y="350" fill="#1a237c"></use></g><g><use xlink:href="#SvgjsSymbol1020" x="131.25" y="175" fill="#524bac"></use><use xlink:href="#SvgjsSymbol1021" x="131.25" y="175" fill="#8477de"></use><use xlink:href="#SvgjsSymbol1022" x="131.25" y="175" fill="#1a237c"></use></g><g><use xlink:href="#SvgjsSymbol1020" x="481.25" y="218.75" fill="#524bac"></use><use xlink:href="#SvgjsSymbol1021" x="481.25" y="218.75" fill="#8477de"></use><use xlink:href="#SvgjsSymbol1022" x="481.25" y="218.75" fill="#1a237c"></use></g><g><use xlink:href="#SvgjsSymbol1020" x="350" y="568.75" fill="#524bac"></use><use xlink:href="#SvgjsSymbol1021" x="350" y="568.75" fill="#8477de"></use><use xlink:href="#SvgjsSymbol1022" x="350" y="568.75" fill="#1a237c"></use></g><g><use xlink:href="#SvgjsSymbol1020" x="262.5" y="568.75" fill="#524bac"></use><use xlink:href="#SvgjsSymbol1021" x="262.5" y="568.75" fill="#8477de"></use><use xlink:href="#SvgjsSymbol1022" x="262.5" y="568.75" fill="#1a237c"></use></g><g><use xlink:href="#SvgjsSymbol1020" x="131.25" y="393.75" fill="#524bac"></use><use xlink:href="#SvgjsSymbol1021" x="131.25" y="393.75" fill="#8477de"></use><use xlink:href="#SvgjsSymbol1022" x="131.25" y="393.75" fill="#1a237c"></use></g><g><use xlink:href="#SvgjsSymbol1020" x="437.5" y="131.25" fill="#524bac"></use><use xlink:href="#SvgjsSymbol1021" x="437.5" y="131.25" fill="#8477de"></use><use xlink:href="#SvgjsSymbol1022" x="437.5" y="131.25" fill="#1a237c"></use></g><g><use xlink:href="#SvgjsSymbol1020" x="218.75" y="262.5" fill="#524bac"></use><use xlink:href="#SvgjsSymbol1021" x="218.75" y="262.5" fill="#8477de"></use><use xlink:href="#SvgjsSymbol1022" x="218.75" y="262.5" fill="#1a237c"></use></g><g><use xlink:href="#SvgjsSymbol1020" x="393.75" y="262.5" fill="#524bac"></use><use xlink:href="#SvgjsSymbol1021" x="393.75" y="262.5" fill="#8477de"></use><use xlink:href="#SvgjsSymbol1022" x="393.75" y="262.5" fill="#1a237c"></use></g><g><use xlink:href="#SvgjsSymbol1020" x="568.75" y="700" fill="#524bac"></use><use xlink:href="#SvgjsSymbol1021" x="568.75" y="700" fill="#8477de"></use><use xlink:href="#SvgjsSymbol1022" x="568.75" y="700" fill="#1a237c"></use></g><g><use xlink:href="#SvgjsSymbol1020" x="525" y="43.75" fill="#524bac"></use><use xlink:href="#SvgjsSymbol1021" x="525" y="43.75" fill="#8477de"></use><use xlink:href="#SvgjsSymbol1022" x="525" y="43.75" fill="#1a237c"></use></g></g><g></g><symbol id="SvgjsSymbol1012"><polygon points="0,18.75 37.5,0 75,18.75 37.5,37.5"></polygon></symbol><symbol id="SvgjsSymbol1013"><polygon points="0,18.75 37.5,37.5 37.5,75 0,56.25"></polygon></symbol><symbol><polygon points="37.5,37.5 75,18.75 75,56.25 37.5,75"></polygon></symbol><symbol id="SvgjsSymbol1014"><polygon points="0,25 50,0 100,25 50,50"></polygon></symbol><symbol id="SvgjsSymbol1015"><polygon points="0,25 50,50 50,100 0,75"></polygon></symbol><symbol><polygon points="50,50 100,25 100,75 50,100"></polygon></symbol><symbol id="SvgjsSymbol1016"><polygon points="0,31.25 62.5,0 125,31.25 62.5,62.5"></polygon></symbol><symbol id="SvgjsSymbol1017"><polygon points="0,31.25 62.5,62.5 62.5,125 0,93.75"></polygon></symbol><symbol><polygon points="62.5,62.5 125,31.25 125,93.75 62.5,125"></polygon></symbol><symbol id="SvgjsSymbol1018"><polygon points="0,37.5 75,0 150,37.5 75,75"></polygon></symbol><symbol id="SvgjsSymbol1019"><polygon points="0,37.5 75,75 75,150 0,112.5"></polygon></symbol><symbol><polygon points="75,75 150,37.5 150,112.5 75,150"></polygon></symbol><symbol id="SvgjsSymbol1020"><polygon points="0,43.75 87.5,0 175,43.75 87.5,87.5"></polygon></symbol><symbol id="SvgjsSymbol1021"><polygon points="0,43.75 87.5,87.5 87.5,175 0,131.25"></polygon></symbol><symbol id="SvgjsSymbol1022"><polygon points="87.5,87.5 175,43.75 175,131.25 87.5,175"></polygon></symbol></svg>