<svg xmlns="http://www.w3.org/2000/svg" version="1.1" xmlns:xlink="http://www.w3.org/1999/xlink" xmlns:svgjs="http://svgjs.dev/svgjs" viewBox="0 0 800 800"><g shape-rendering="crispEdges"><g><use xlink:href="#SvgjsSymbol1000" x="275" y="312.5" fill="#524bac"></use><use xlink:href="#SvgjsSymbol1001" x="275" y="312.5" fill="#8477de"></use><use xlink:href="#SvgjsSymbol1002" x="275" y="312.5" fill="#1a237c"></use></g><g><use xlink:href="#SvgjsSymbol1000" x="325" y="312.5" fill="#524bac"></use><use xlink:href="#SvgjsSymbol1001" x="325" y="312.5" fill="#8477de"></use><use xlink:href="#SvgjsSymbol1002" x="325" y="312.5" fill="#1a237c"></use></g><g><use xlink:href="#SvgjsSymbol1000" x="375" y="312.5" fill="#524bac"></use><use xlink:href="#SvgjsSymbol1001" x="375" y="312.5" fill="#8477de"></use><use xlink:href="#SvgjsSymbol1002" x="375" y="312.5" fill="#1a237c"></use></g><g><use xlink:href="#SvgjsSymbol1000" x="275" y="262.5" fill="#524bac"></use><use xlink:href="#SvgjsSymbol1001" x="275" y="262.5" fill="#8477de"></use><use xlink:href="#SvgjsSymbol1002" x="275" y="262.5" fill="#1a237c"></use></g><g><use xlink:href="#SvgjsSymbol1000" x="325" y="262.5" fill="#524bac"></use><use xlink:href="#SvgjsSymbol1001" x="325" y="262.5" fill="#8477de"></use><use xlink:href="#SvgjsSymbol1002" x="325" y="262.5" fill="#1a237c"></use></g><g><use xlink:href="#SvgjsSymbol1000" x="375" y="262.5" fill="#524bac"></use><use xlink:href="#SvgjsSymbol1001" x="375" y="262.5" fill="#8477de"></use><use xlink:href="#SvgjsSymbol1002" x="375" y="262.5" fill="#1a237c"></use></g><g><use xlink:href="#SvgjsSymbol1000" x="425" y="287.5" fill="#524bac"></use><use xlink:href="#SvgjsSymbol1001" x="425" y="287.5" fill="#8477de"></use><use xlink:href="#SvgjsSymbol1002" x="425" y="287.5" fill="#1a237c"></use></g><g><use xlink:href="#SvgjsSymbol1000" x="225" y="287.5" fill="#524bac"></use><use xlink:href="#SvgjsSymbol1001" x="225" y="287.5" fill="#8477de"></use><use xlink:href="#SvgjsSymbol1002" x="225" y="287.5" fill="#1a237c"></use></g><g><use xlink:href="#SvgjsSymbol1000" x="300" y="287.5" fill="#6d69c3"></use><use xlink:href="#SvgjsSymbol1001" x="300" y="287.5" fill="#9f97f6"></use><use xlink:href="#SvgjsSymbol1002" x="300" y="287.5" fill="#3b3e92"></use></g><g><use xlink:href="#SvgjsSymbol1000" x="350" y="287.5" fill="#6d69c3"></use><use xlink:href="#SvgjsSymbol1001" x="350" y="287.5" fill="#9f97f6"></use><use xlink:href="#SvgjsSymbol1002" x="350" y="287.5" fill="#3b3e92"></use></g><g><use xlink:href="#SvgjsSymbol1000" x="262.5" y="287.5" fill="#6d69c3"></use><use xlink:href="#SvgjsSymbol1001" x="262.5" y="287.5" fill="#9f97f6"></use><use xlink:href="#SvgjsSymbol1002" x="262.5" y="287.5" fill="#3b3e92"></use></g><g><use xlink:href="#SvgjsSymbol1000" x="425" y="250" fill="#6d69c3"></use><use xlink:href="#SvgjsSymbol1001" x="425" y="250" fill="#9f97f6"></use><use xlink:href="#SvgjsSymbol1002" x="425" y="250" fill="#3b3e92"></use></g><g><use xlink:href="#SvgjsSymbol1000" x="350" y="225" fill="#6d69c3"></use><use xlink:href="#SvgjsSymbol1001" x="350" y="225" fill="#9f97f6"></use><use xlink:href="#SvgjsSymbol1002" x="350" y="225" fill="#3b3e92"></use></g><g><use xlink:href="#SvgjsSymbol1000" x="300" y="225" fill="#6d69c3"></use><use xlink:href="#SvgjsSymbol1001" x="300" y="225" fill="#9f97f6"></use><use xlink:href="#SvgjsSymbol1002" x="300" y="225" fill="#3b3e92"></use></g><g><use xlink:href="#SvgjsSymbol1000" x="250" y="250" fill="#6d69c3"></use><use xlink:href="#SvgjsSymbol1001" x="250" y="250" fill="#9f97f6"></use><use xlink:href="#SvgjsSymbol1002" x="250" y="250" fill="#3b3e92"></use></g><g><use xlink:href="#SvgjsSymbol1000" x="325" y="187.5" fill="#0f0750"></use><use xlink:href="#SvgjsSymbol1001" x="325" y="187.5" fill="#422e7d"></use><use xlink:href="#SvgjsSymbol1002" x="325" y="187.5" fill="#000029"></use></g><g><use xlink:href="#SvgjsSymbol1000" x="400" y="225" fill="#0f0750"></use><use xlink:href="#SvgjsSymbol1001" x="400" y="225" fill="#422e7d"></use><use xlink:href="#SvgjsSymbol1002" x="400" y="225" fill="#000029"></use></g><g><use xlink:href="#SvgjsSymbol1000" x="400" y="287.5" fill="#0f0750"></use><use xlink:href="#SvgjsSymbol1001" x="400" y="287.5" fill="#422e7d"></use><use xlink:href="#SvgjsSymbol1002" x="400" y="287.5" fill="#000029"></use></g><g><use xlink:href="#SvgjsSymbol1000" x="312.5" y="150" fill="#0f0750"></use><use xlink:href="#SvgjsSymbol1001" x="312.5" y="150" fill="#422e7d"></use><use xlink:href="#SvgjsSymbol1002" x="312.5" y="150" fill="#000029"></use></g><g><use xlink:href="#SvgjsSymbol1000" x="350" y="150" fill="#0f0750"></use><use xlink:href="#SvgjsSymbol1001" x="350" y="150" fill="#422e7d"></use><use xlink:href="#SvgjsSymbol1002" x="350" y="150" fill="#000029"></use></g><g><use xlink:href="#SvgjsSymbol1000" x="362.5" y="200" fill="#0f0750"></use><use xlink:href="#SvgjsSymbol1001" x="362.5" y="200" fill="#422e7d"></use><use xlink:href="#SvgjsSymbol1002" x="362.5" y="200" fill="#000029"></use></g><g><use xlink:href="#SvgjsSymbol1000" x="362.5" y="175" fill="#0f0750"></use><use xlink:href="#SvgjsSymbol1001" x="362.5" y="175" fill="#422e7d"></use><use xlink:href="#SvgjsSymbol1002" x="362.5" y="175" fill="#000029"></use></g><g><use xlink:href="#SvgjsSymbol1000" x="412.5" y="200" fill="#0f0750"></use><use xlink:href="#SvgjsSymbol1001" x="412.5" y="200" fill="#422e7d"></use><use xlink:href="#SvgjsSymbol1002" x="412.5" y="200" fill="#000029"></use></g><g><use xlink:href="#SvgjsSymbol1000" x="450" y="225" fill="#0f0750"></use><use xlink:href="#SvgjsSymbol1001" x="450" y="225" fill="#422e7d"></use><use xlink:href="#SvgjsSymbol1002" x="450" y="225" fill="#000029"></use></g><g><use xlink:href="#SvgjsSymbol1000" x="462.5" y="275" fill="#0f0750"></use><use xlink:href="#SvgjsSymbol1001" x="462.5" y="275" fill="#422e7d"></use><use xlink:href="#SvgjsSymbol1002" x="462.5" y="275" fill="#000029"></use></g><g><use xlink:href="#SvgjsSymbol1000" x="475" y="262.5" fill="#0f0750"></use><use xlink:href="#SvgjsSymbol1001" x="475" y="262.5" fill="#422e7d"></use><use xlink:href="#SvgjsSymbol1002" x="475" y="262.5" fill="#000029"></use></g><g><use xlink:href="#SvgjsSymbol1000" x="412.5" y="325" fill="#0f0750"></use><use xlink:href="#SvgjsSymbol1001" x="412.5" y="325" fill="#422e7d"></use><use xlink:href="#SvgjsSymbol1002" x="412.5" y="325" fill="#000029"></use></g><g><use xlink:href="#SvgjsSymbol1000" x="337.5" y="350" fill="#0f0750"></use><use xlink:href="#SvgjsSymbol1001" x="337.5" y="350" fill="#422e7d"></use><use xlink:href="#SvgjsSymbol1002" x="337.5" y="350" fill="#000029"></use></g><g><use xlink:href="#SvgjsSymbol1000" x="300" y="350" fill="#0f0750"></use><use xlink:href="#SvgjsSymbol1001" x="300" y="350" fill="#422e7d"></use><use xlink:href="#SvgjsSymbol1002" x="300" y="350" fill="#000029"></use></g><g><use xlink:href="#SvgjsSymbol1000" x="225" y="325" fill="#0f0750"></use><use xlink:href="#SvgjsSymbol1001" x="225" y="325" fill="#422e7d"></use><use xlink:href="#SvgjsSymbol1002" x="225" y="325" fill="#000029"></use></g><g><use xlink:href="#SvgjsSymbol1000" x="200" y="312.5" fill="#0f0750"></use><use xlink:href="#SvgjsSymbol1001" x="200" y="312.5" fill="#422e7d"></use><use xlink:href="#SvgjsSymbol1002" x="200" y="312.5" fill="#000029"></use></g><g><use xlink:href="#SvgjsSymbol1000" x="250" y="350" fill="#0f0750"></use><use xlink:href="#SvgjsSymbol1001" x="250" y="350" fill="#422e7d"></use><use xlink:href="#SvgjsSymbol1002" x="250" y="350" fill="#000029"></use></g><g><use xlink:href="#SvgjsSymbol1000" x="250" y="300" fill="#0f0750"></use><use xlink:href="#SvgjsSymbol1001" x="250" y="300" fill="#422e7d"></use><use xlink:href="#SvgjsSymbol1002" x="250" y="300" fill="#000029"></use></g><g><use xlink:href="#SvgjsSymbol1000" x="362.5" y="337.5" fill="#0f0750"></use><use xlink:href="#SvgjsSymbol1001" x="362.5" y="337.5" fill="#422e7d"></use><use xlink:href="#SvgjsSymbol1002" x="362.5" y="337.5" fill="#000029"></use></g><g><use xlink:href="#SvgjsSymbol1000" x="312.5" y="262.5" fill="#0f0750"></use><use xlink:href="#SvgjsSymbol1001" x="312.5" y="262.5" fill="#422e7d"></use><use xlink:href="#SvgjsSymbol1002" x="312.5" y="262.5" fill="#000029"></use></g><g><use xlink:href="#SvgjsSymbol1000" x="400" y="175" fill="#9f97f6"></use><use xlink:href="#SvgjsSymbol1001" x="400" y="175" fill="#d2c8ff"></use><use xlink:href="#SvgjsSymbol1002" x="400" y="175" fill="#6d69c3"></use></g><g><use xlink:href="#SvgjsSymbol1000" x="437.5" y="312.5" fill="#9f97f6"></use><use xlink:href="#SvgjsSymbol1001" x="437.5" y="312.5" fill="#d2c8ff"></use><use xlink:href="#SvgjsSymbol1002" x="437.5" y="312.5" fill="#6d69c3"></use></g><g><use xlink:href="#SvgjsSymbol1000" x="487.5" y="237.5" fill="#9f97f6"></use><use xlink:href="#SvgjsSymbol1001" x="487.5" y="237.5" fill="#d2c8ff"></use><use xlink:href="#SvgjsSymbol1002" x="487.5" y="237.5" fill="#6d69c3"></use></g></g><symbol id="SvgjsSymbol1000"><polygon points="0,12.5 25,0 50,12.5 25,25"></polygon></symbol><symbol id="SvgjsSymbol1001"><polygon points="0,12.5 25,25 25,50 0,37.5"></polygon></symbol><symbol id="SvgjsSymbol1002"><polygon points="25,25 50,12.5 50,37.5 25,50"></polygon></symbol><g></g></svg>