<svg width="650" height="470" viewBox="0 0 650 470" fill="none" xmlns="http://www.w3.org/2000/svg">
<rect width="650" height="470" fill="white"/>
<g clip-path="url(#clip0_2_500)">
<path d="M311.826 32H174.089C152.667 32 135.301 49.3724 135.301 70.8023V385.659C135.301 407.089 152.667 424.461 174.089 424.461H311.826C333.248 424.461 350.614 407.089 350.614 385.659V70.8023C350.614 49.3724 333.248 32 311.826 32Z" fill="#3F3D56"/>
<path d="M346.982 70.805V385.659C346.971 394.983 343.263 403.923 336.673 410.516C330.082 417.109 321.146 420.818 311.825 420.829H174.09C164.769 420.818 155.833 417.109 149.243 410.516C142.652 403.923 138.944 394.983 138.933 385.659V70.805C138.944 61.4807 142.652 52.5415 149.243 45.9483C155.833 39.3551 164.769 35.6462 174.09 35.6354H192.101V41.8593C192.101 44.677 193.22 47.3792 195.212 49.3716C197.204 51.364 199.905 52.4834 202.722 52.4835H283.193C286.01 52.4834 288.711 51.364 290.703 49.3716C292.695 47.3792 293.814 44.677 293.814 41.8593V35.6354H311.825C321.146 35.6462 330.082 39.3551 336.673 45.9483C343.263 52.5415 346.971 61.4808 346.982 70.805Z" fill="white"/>
<path d="M134.31 111.615C133.609 111.615 132.938 111.336 132.443 110.84C131.947 110.345 131.669 109.673 131.668 108.973V103.687C131.668 102.986 131.946 102.314 132.442 101.818C132.937 101.323 133.609 101.044 134.31 101.044C135.011 101.044 135.682 101.323 136.178 101.818C136.673 102.314 136.952 102.986 136.952 103.687V108.973C136.951 109.673 136.672 110.345 136.177 110.84C135.682 111.336 135.01 111.615 134.31 111.615Z" fill="#3F3D56"/>
<path d="M134.31 138.719C133.609 138.718 132.938 138.439 132.443 137.944C131.947 137.448 131.669 136.777 131.668 136.076V121.526C131.668 120.825 131.946 120.153 132.442 119.657C132.937 119.162 133.609 118.883 134.31 118.883C135.011 118.883 135.682 119.162 136.178 119.657C136.673 120.153 136.952 120.825 136.952 121.526V136.076C136.951 136.777 136.672 137.448 136.177 137.944C135.682 138.439 135.01 138.718 134.31 138.719Z" fill="#3F3D56"/>
<path d="M134.31 160.508C133.609 160.507 132.938 160.228 132.443 159.733C131.947 159.237 131.669 158.566 131.668 157.865V143.315C131.668 142.614 131.946 141.942 132.442 141.446C132.937 140.951 133.609 140.672 134.31 140.672C135.011 140.672 135.682 140.951 136.178 141.446C136.673 141.942 136.952 142.614 136.952 143.315V157.865C136.951 158.566 136.672 159.237 136.177 159.733C135.682 160.228 135.01 160.507 134.31 160.508Z" fill="#3F3D56"/>
<path d="M350.944 148.615C350.244 148.614 349.572 148.336 349.077 147.84C348.582 147.345 348.303 146.673 348.302 145.972V110.47C348.302 109.769 348.581 109.097 349.076 108.601C349.572 108.106 350.244 107.827 350.944 107.827C351.645 107.827 352.317 108.106 352.812 108.601C353.308 109.097 353.586 109.769 353.586 110.47V145.972C353.585 146.673 353.307 147.345 352.811 147.84C352.316 148.336 351.645 148.614 350.944 148.615Z" fill="#3F3D56"/>
<path d="M248.632 44.1212H228.158C227.72 44.1212 227.3 43.9472 226.99 43.6374C226.681 43.3277 226.507 42.9075 226.507 42.4695C226.507 42.0314 226.681 41.6113 226.99 41.3015C227.3 40.9917 227.72 40.8177 228.158 40.8177H248.632C249.07 40.8177 249.49 40.9917 249.8 41.3015C250.11 41.6113 250.284 42.0314 250.284 42.4695C250.284 42.9075 250.11 43.3277 249.8 43.6374C249.49 43.9472 249.07 44.1212 248.632 44.1212Z" fill="white"/>
<path d="M259.2 43.7909C259.929 43.7909 260.521 43.1993 260.521 42.4695C260.521 41.7397 259.929 41.1481 259.2 41.1481C258.47 41.1481 257.879 41.7397 257.879 42.4695C257.879 43.1993 258.47 43.7909 259.2 43.7909Z" fill="white"/>
<path d="M417.914 407.955C418.396 407.972 418.873 407.841 419.278 407.579C419.683 407.317 419.998 406.936 420.18 406.489C420.362 406.042 420.402 405.55 420.295 405.079C420.188 404.608 419.939 404.182 419.581 403.857C419.52 403.622 419.475 403.453 419.414 403.218C419.864 402.041 420.655 401.025 421.686 400.301C422.717 399.577 423.941 399.177 425.2 399.154C426.459 399.13 427.697 399.483 428.755 400.167C429.813 400.851 430.642 401.836 431.136 402.995C433.988 409.5 437.663 416.228 435.936 423.439C447.556 398.182 443.225 366.944 425.493 345.608C420.623 342.984 416.651 338.278 415.577 332.781C417.982 333.57 420.953 331.591 419.126 329.082C418.336 328.123 417.537 327.173 416.747 326.215C425.762 316.425 436.759 331.572 426.859 344.764C430.178 348.846 433.061 353.263 435.461 357.945C434.869 352.955 435.471 347.896 437.215 343.184C438.986 338.791 442.35 335.073 445.307 331.262C448.902 326.618 456.411 328.673 456.957 334.518C453.609 335.654 453.219 340.511 457.067 341.138C456.164 352.029 449.153 362.096 439.411 366.962C443.122 377.072 444.636 387.858 443.853 398.6C445.461 386.039 458.892 382.867 468.253 377.791C468.848 377.402 469.544 377.193 470.255 377.192C470.967 377.191 471.663 377.397 472.259 377.785C472.856 378.173 473.326 378.727 473.614 379.378C473.901 380.029 473.993 380.749 473.878 381.452C472.584 381.992 471.348 382.66 470.186 383.445C469.642 383.819 469.226 384.352 468.997 384.971C468.767 385.59 468.735 386.265 468.903 386.903C469.072 387.541 469.434 388.112 469.94 388.536C470.446 388.96 471.07 389.218 471.728 389.273C467.097 401.06 454.911 409.061 442.318 409.137C441.158 414.409 439.453 419.546 437.232 424.466L418.541 424.644C418.472 424.437 418.41 424.223 418.348 424.016C420.079 424.108 421.815 423.988 423.516 423.658C418.888 418.281 415.322 415.548 417.914 407.955Z" fill="#F2F2F2"/>
<path d="M56.1379 407.955C55.6556 407.972 55.1795 407.841 54.7742 407.579C54.3689 407.317 54.054 406.936 53.8721 406.489C53.6901 406.042 53.65 405.55 53.7571 405.079C53.8642 404.608 54.1134 404.182 54.4709 403.857C54.5325 403.622 54.5767 403.453 54.6383 403.218C54.1881 402.041 53.3968 401.025 52.3659 400.301C51.335 399.577 50.1114 399.177 48.852 399.154C47.5926 399.13 46.3547 399.483 45.2971 400.167C44.2395 400.851 43.4104 401.836 42.9159 402.995C40.0642 409.5 36.3895 416.228 38.1165 423.439C26.4962 398.182 30.8271 366.944 48.5587 345.608C53.4288 342.984 57.4007 338.278 58.4754 332.781C56.0699 333.57 53.0991 331.591 54.9259 329.082C55.7165 328.123 56.5146 327.173 57.3052 326.215C48.2896 316.425 37.2926 331.572 47.1931 344.764C43.8744 348.846 40.9914 353.263 38.5911 357.945C39.1826 352.955 38.5815 347.896 36.8371 343.184C35.0656 338.791 31.7021 335.073 28.7453 331.262C25.1504 326.618 17.6408 328.673 17.0955 334.518C20.4432 335.654 20.8333 340.511 16.9855 341.138C17.8881 352.029 24.8991 362.096 34.6411 366.962C30.9301 377.072 29.416 387.858 30.1995 398.6C28.5913 386.039 15.1597 382.867 5.79885 377.791C5.20371 377.402 4.508 377.193 3.79661 377.192C3.08522 377.191 2.38889 377.397 1.79256 377.785C1.19624 378.173 0.725702 378.727 0.438346 379.378C0.15099 380.029 0.0592369 380.749 0.174283 381.452C1.46779 381.992 2.70443 382.66 3.86597 383.445C4.41019 383.819 4.82557 384.352 5.05519 384.971C5.28481 385.59 5.31742 386.265 5.14855 386.903C4.97968 387.541 4.6176 388.112 4.11194 388.536C3.60628 388.96 2.98179 389.218 2.32408 389.273C6.95471 401.06 19.1407 409.061 31.7339 409.137C32.894 414.409 34.5986 419.546 36.8204 424.466L55.5107 424.644C55.5797 424.437 55.642 424.223 55.7043 424.016C53.9732 424.108 52.2374 423.988 50.5355 423.658C55.1642 418.281 58.7303 415.549 56.1385 407.955L56.1379 407.955Z" fill="#F2F2F2"/>
<path d="M184.232 51.2088H166.399C165.524 51.2088 164.684 50.8608 164.064 50.2413C163.445 49.6217 163.097 48.7814 163.097 47.9053C163.097 47.0291 163.445 46.1889 164.064 45.5693C164.684 44.9498 165.524 44.6017 166.399 44.6017H184.232C185.108 44.6017 185.948 44.9498 186.567 45.5693C187.187 46.1889 187.534 47.0291 187.534 47.9053C187.534 48.7814 187.187 49.6217 186.567 50.2413C185.948 50.8608 185.108 51.2088 184.232 51.2088Z" fill="#E6E6E6"/>
<path d="M301.135 50.8784C302.777 50.8784 304.108 49.5473 304.108 47.9053C304.108 46.2632 302.777 44.9321 301.135 44.9321C299.494 44.9321 298.163 46.2632 298.163 47.9053C298.163 49.5473 299.494 50.8784 301.135 50.8784Z" fill="#E6E6E6"/>
<path d="M310.382 50.8784C312.023 50.8784 313.354 49.5473 313.354 47.9053C313.354 46.2632 312.023 44.9321 310.382 44.9321C308.741 44.9321 307.41 46.2632 307.41 47.9053C307.41 49.5473 308.741 50.8784 310.382 50.8784Z" fill="#E6E6E6"/>
<path d="M319.629 50.8784C321.27 50.8784 322.601 49.5473 322.601 47.9053C322.601 46.2632 321.27 44.9321 319.629 44.9321C317.987 44.9321 316.656 46.2632 316.656 47.9053C316.656 49.5473 317.987 50.8784 319.629 50.8784Z" fill="#E6E6E6"/>
<path d="M299.057 97.3818H186.976C184.804 97.3848 182.723 98.2489 181.188 99.7847C179.653 101.321 178.789 103.403 178.786 105.575V178.457C178.789 180.629 179.653 182.711 181.188 184.247C182.723 185.783 184.804 186.647 186.976 186.65H299.057C301.229 186.648 303.311 185.785 304.846 184.249C306.382 182.712 307.245 180.63 307.247 178.457V105.575C307.245 103.402 306.382 101.32 304.846 99.7835C303.311 98.2475 301.229 97.3837 299.057 97.3818Z" fill="#F2F2F2"/>
<path d="M263.968 128.496C253.84 146.411 242.662 163.712 230.495 180.308H212.918C224.431 166.278 235.952 152.248 247.482 138.217C250.789 134.177 254.379 129.945 259.34 128.303L263.968 128.496Z" fill="#3F3D56"/>
<path d="M240.61 125.623C238.777 127.534 237.02 129.522 235.366 131.587C231.725 135.973 228.136 140.397 224.533 144.809C222.29 147.554 220.046 150.298 217.828 153.043C217.124 152.59 216.455 152.084 215.828 151.529C212.286 148.454 210.089 144.112 209.707 139.435C209.326 134.758 210.791 130.118 213.789 126.509C216.787 122.9 221.078 120.608 225.744 120.126C230.41 119.644 235.079 121.01 238.751 123.93C239.413 124.446 240.034 125.012 240.61 125.623Z" fill="#9CA8EC"/>
<path d="M307.247 123.539V126.202L306.058 125.766L289.329 119.648C283.88 117.659 278.444 115.386 272.817 113.952C267.921 112.551 262.722 112.618 257.864 114.144C253.533 115.747 249.571 118.207 246.213 121.379C244.727 122.753 243.287 124.16 241.894 125.62C241.438 126.103 240.982 126.585 240.533 127.067C239.186 128.534 237.885 130.034 236.65 131.587C233.01 135.974 229.417 140.401 225.818 144.807C223.572 147.556 221.327 150.298 219.107 153.04C211.697 162.111 204.331 171.201 197.008 180.307C196.022 180.296 195.04 180.172 194.082 179.937C201.552 170.654 209.057 161.396 216.598 152.161C216.769 151.95 216.941 151.738 217.113 151.527C217.998 150.423 218.903 149.314 219.801 148.21C223.559 143.605 227.319 139.004 231.082 134.408C233.816 131.065 236.531 127.708 239.476 124.537C239.655 124.332 239.84 124.134 240.031 123.929C240.315 123.625 240.599 123.328 240.89 123.017C247.29 116.404 255.275 110.556 264.838 110.398C270.466 110.312 275.901 112.096 281.132 113.979C286.766 116.02 292.38 118.095 298.007 120.156L307.247 123.539Z" fill="#3F3D56"/>
<path d="M309.883 347.567H176.033C173.861 347.564 171.78 346.7 170.245 345.164C168.709 343.629 167.846 341.546 167.843 339.374V321.329C167.846 319.157 168.709 317.074 170.245 315.539C171.78 314.003 173.861 313.139 176.033 313.136H309.883C312.054 313.139 314.135 314.003 315.671 315.539C317.206 317.074 318.069 319.157 318.072 321.329V339.374C318.069 341.546 317.206 343.629 315.671 345.164C314.135 346.7 312.054 347.564 309.883 347.567Z" fill="#F2F2F2"/>
<path d="M309.883 255.067H176.033C173.861 255.065 171.78 254.201 170.245 252.665C168.709 251.129 167.846 249.047 167.843 246.875V228.829C167.846 226.657 168.709 224.575 170.245 223.039C171.78 221.503 173.861 220.64 176.033 220.637H309.883C312.054 220.64 314.135 221.503 315.671 223.039C317.206 224.575 318.069 226.657 318.072 228.829V246.875C318.069 249.047 317.206 251.129 315.671 252.665C314.135 254.201 312.054 255.065 309.883 255.067Z" fill="#F2F2F2"/>
<path d="M309.883 301.317H176.033C173.861 301.314 171.78 300.451 170.245 298.915C168.709 297.379 167.846 295.297 167.843 293.125V275.079C167.846 272.907 168.709 270.825 170.245 269.289C171.78 267.753 173.861 266.889 176.033 266.887H309.883C312.054 266.889 314.135 267.753 315.671 269.289C317.206 270.825 318.069 272.907 318.072 275.079V293.125C318.069 295.297 317.206 297.379 315.671 298.915C314.135 300.451 312.054 301.314 309.883 301.317Z" fill="#F2F2F2"/>
<path d="M259.219 327.263H219.781C219.314 327.263 218.865 327.077 218.534 326.746C218.203 326.415 218.017 325.966 218.017 325.498C218.017 325.03 218.203 324.581 218.534 324.25C218.865 323.919 219.314 323.733 219.781 323.733H259.219C259.687 323.733 260.136 323.919 260.467 324.25C260.798 324.581 260.983 325.03 260.983 325.498C260.983 325.966 260.798 326.415 260.467 326.746C260.136 327.077 259.687 327.263 259.219 327.263Z" fill="white"/>
<path d="M297.15 336.97H219.34C218.872 336.97 218.424 336.784 218.093 336.453C217.762 336.122 217.576 335.673 217.576 335.205C217.576 334.737 217.762 334.288 218.093 333.957C218.424 333.626 218.872 333.44 219.34 333.44H297.15C297.618 333.44 298.067 333.626 298.398 333.957C298.728 334.288 298.914 334.737 298.914 335.205C298.914 335.673 298.728 336.122 298.398 336.453C298.067 336.784 297.618 336.97 297.15 336.97Z" fill="white"/>
<path d="M198.829 342.184C205.362 342.184 210.658 336.887 210.658 330.351C210.658 323.816 205.362 318.519 198.829 318.519C192.297 318.519 187.001 323.816 187.001 330.351C187.001 336.887 192.297 342.184 198.829 342.184Z" fill="white"/>
<path d="M196.194 346.335C194.987 345.771 193.607 345.7 192.349 346.138C191.09 346.575 190.052 347.487 189.455 348.679C189.338 348.923 189.241 349.176 189.165 349.436L171.353 350.501L168.713 359.733L192.956 355.635C194.059 355.866 195.206 355.724 196.22 355.234C197.235 354.743 198.058 353.93 198.561 352.922C198.842 352.346 199.007 351.72 199.047 351.08C199.086 350.44 198.999 349.798 198.79 349.192C198.581 348.585 198.256 348.026 197.831 347.546C197.406 347.065 196.891 346.673 196.315 346.392C196.275 346.373 196.234 346.353 196.194 346.335Z" fill="#FFB6B6"/>
<path d="M156.877 300.799C155.703 300.319 154.439 300.097 153.172 300.148C151.905 300.2 150.664 300.524 149.533 301.098C148.402 301.673 147.408 302.484 146.619 303.477C145.83 304.47 145.263 305.621 144.958 306.853L140.061 326.636L140.983 361.247C140.983 361.247 166.544 366.153 170.835 362.999C175.126 359.845 174.723 357.498 175.126 359.845C175.529 362.193 177.371 363.178 177.397 362.244C177.422 361.31 177.631 361.47 178.7 361.189C179.769 360.907 184.489 359.167 184.489 359.167L184.7 349.299C184.7 349.299 176.898 346.34 175.005 347.223C173.112 348.106 175.408 349.571 173.112 348.106C170.816 346.641 170.565 342.017 170.172 346.184C169.78 350.352 168.631 351.127 166.909 349.274C165.188 347.421 157.213 348.605 157.213 348.605L162.288 310.132C162.543 308.197 162.151 306.232 161.172 304.543C160.193 302.855 158.682 301.538 156.877 300.799Z" fill="#F3DF1D"/>
<path d="M329.018 403.436L329.287 396.148L301.315 391.643L300.918 402.399L329.018 403.436Z" fill="#FFB6B6"/>
<path d="M323.94 405.63L323.675 393.961L328.662 394.145L336.712 383.358C337.11 382.825 337.667 382.434 338.303 382.24C338.939 382.047 339.62 382.062 340.247 382.283C340.874 382.504 341.413 382.92 341.787 383.469C342.161 384.019 342.349 384.674 342.325 385.338L341.814 399.2L336.793 401.407L341.691 402.522L341.498 407.748L323.94 405.63Z" fill="#2F2E41"/>
<path d="M171.589 420.148L260.186 409.842C260.186 409.842 298.446 412.053 307.422 406.211L316.888 405.016L317.401 391.106C317.401 391.106 311.613 391.149 308.285 389.597C304.957 388.046 307.27 386.148 304.097 388.014C300.924 389.881 301.259 390.105 298.805 389.247C296.352 388.39 183.851 383.789 183.851 383.789L171.589 420.148Z" fill="#2F2E41"/>
<path d="M288.337 414.112L293.489 408.952L276.046 386.618L268.442 394.234L288.337 414.112Z" fill="#FFB6B6"/>
<path d="M283.123 412.266L290.862 403.532L294.392 407.059L307.628 404.628C308.282 404.508 308.957 404.6 309.554 404.891C310.152 405.182 310.641 405.656 310.95 406.245C311.259 406.833 311.372 407.505 311.273 408.163C311.173 408.82 310.866 409.428 310.396 409.899L300.597 419.713L295.416 417.915L298.249 422.065L294.554 425.765L283.123 412.266Z" fill="#2F2E41"/>
<path d="M136.634 371.609L137.515 392.091C138.552 416.202 165.096 430.796 185.679 418.206C186.058 417.974 186.439 417.734 186.821 417.485C186.821 417.485 194.624 415.389 194.387 412.069C194.15 408.75 196.056 407.134 197.743 408.039C199.43 408.944 221.518 377.587 221.518 377.587C221.518 377.587 267.408 400.486 277.532 405.877L288.214 402.965C288.214 402.965 292.234 404.865 290.786 402.118C289.338 399.371 289.078 400.686 288.633 397.693C288.188 394.7 287.05 390.989 286.36 391.145C285.67 391.301 229.588 352.035 229.588 352.035C229.588 352.035 220.452 342.785 209.118 348.892C208.882 349.789 209.084 349.82 209.084 349.82L171.646 380.338L166.356 370.288L136.634 371.609Z" fill="#2F2E41"/>
<path d="M161.798 296.352L145.746 288.827L140.94 297.192C140.94 297.192 128.033 315.617 127.846 328.909C127.659 342.201 129.949 346.154 129.949 346.154C129.949 346.154 124.384 350.316 127.167 352.86C129.949 355.404 136.109 356.501 131.378 357.604C126.647 358.707 127.846 369.873 133.13 371.855C138.413 373.837 166.79 373.82 166.79 373.82C166.535 372.954 166.516 372.036 166.736 371.16C166.955 370.285 167.405 369.484 168.038 368.842C170.238 366.636 172.219 368.219 170.238 364.784C168.257 361.35 164.954 363.332 167.596 358.707C170.238 354.082 170.237 352.7 170.237 352.7C170.237 352.7 175.623 342.447 167.511 331.323C167.016 330.645 167.432 330.619 167.432 330.619L160.881 308.66L161.798 296.352Z" fill="#9CA8EC"/>
<path d="M135.929 264.709C136.065 268.101 133.928 272.906 132.876 275.804C131.751 278.902 136.627 283.014 139.748 283.915C139.91 282.842 140.445 281.86 141.259 281.142C141.034 282.165 141.015 283.222 141.202 284.253L167.586 290.261C172.333 284.763 177.105 276.858 176.064 267.324C176.314 265.513 176.023 263.67 175.228 262.024C174.434 260.378 173.171 259.004 171.599 258.074L158.26 250.191C152.587 248.899 145.442 248.119 141.344 251.631C139.513 253.26 138.075 255.284 137.137 257.549C136.199 259.813 135.786 262.262 135.929 264.709Z" fill="#2F2E41"/>
<path d="M159.513 287.356C167.903 287.356 174.704 280.553 174.704 272.16C174.704 263.767 167.903 256.964 159.513 256.964C151.123 256.964 144.322 263.767 144.322 272.16C144.322 280.553 151.123 287.356 159.513 287.356Z" fill="#FFB6B6"/>
<path d="M141.717 264.042L140.984 267.263L153.799 270.181C153.811 269.53 153.956 268.888 154.228 268.295C154.499 267.703 154.889 267.173 155.375 266.739C155.099 268.002 155.13 269.313 155.467 270.561C162.379 274.441 168.608 275.815 174.194 274.826C174.951 274.998 175.745 274.863 176.402 274.449C177.059 274.036 177.525 273.378 177.697 272.621C179.944 262.745 174.056 252.652 164.232 250.2C161.844 249.603 159.361 249.489 156.929 249.864C154.496 250.239 152.163 251.097 150.066 252.386C147.969 253.675 146.15 255.37 144.716 257.371C143.283 259.373 142.263 261.641 141.717 264.042Z" fill="#2F2E41"/>
<path d="M149.209 242.79C150.899 242.423 152.688 242.511 154.215 241.366L153.213 243.667C155.991 242.906 158.953 243.202 161.526 244.498C162.291 244.841 162.943 245.393 163.407 246.091C163.657 246.513 163.809 246.985 163.852 247.474C163.895 247.962 163.827 248.453 163.655 248.912C163.491 249.306 163.246 249.661 162.937 249.954C162.628 250.248 162.261 250.474 161.86 250.618C161.148 250.832 160.403 250.91 159.663 250.848C156.544 250.775 153.426 250.702 150.307 250.63C149.118 250.703 147.93 250.473 146.856 249.959C146.285 249.606 145.829 249.094 145.545 248.485C145.26 247.877 145.16 247.199 145.255 246.534C145.553 244.443 147.52 243.156 149.209 242.79Z" fill="#2F2E41"/>
<path d="M231.613 361.889C231.577 361.846 231.535 361.807 231.489 361.775C231.375 361.643 231.237 361.535 231.082 361.456L229.97 360.861L222.59 352.665C222.163 352.442 221.666 352.395 221.205 352.532L221.186 352.538L218.024 353.516L215.306 354.36L211.508 355.538L185.64 363.551L168.636 368.817C168.176 368.963 167.792 369.283 167.566 369.709C167.34 370.135 167.29 370.633 167.428 371.095C167.508 371.35 167.64 371.585 167.816 371.785L168.357 372.388L169.492 373.653L172.121 379.104L172.851 379.918C173.083 380.177 173.385 380.365 173.72 380.459C174.055 380.553 174.41 380.55 174.744 380.45L230.761 364.867C231.052 364.773 231.316 364.608 231.528 364.388C231.741 364.168 231.896 363.899 231.98 363.605C232.064 363.311 232.075 363 232.011 362.701C231.947 362.402 231.81 362.123 231.613 361.889Z" fill="#CCCCCC"/>
<path d="M228.287 280.817L227.202 280.992C226.905 281.042 226.639 281.207 226.463 281.451L225.985 282.12L221.674 292.904C221.498 293.15 221.428 293.457 221.478 293.755L221.983 296.828L220.074 351.67C220.122 351.954 220.275 352.209 220.501 352.387L228.871 363.587L229.067 363.742L229.488 364.072C229.704 364.24 229.973 364.325 230.246 364.313L230.957 364.279C231.118 364.272 231.276 364.23 231.421 364.156C231.565 364.083 231.691 363.979 231.793 363.853C231.895 363.728 231.969 363.583 232.01 363.426C232.051 363.27 232.058 363.107 232.03 362.948L229.602 281.755C229.553 281.457 229.387 281.19 229.142 281.014C228.896 280.838 228.591 280.767 228.293 280.816L228.287 280.817Z" fill="#CCCCCC"/>
<path d="M226.471 285.078L222.652 296.715L221.174 343.199L227.119 348.484L226.471 285.078Z" fill="#9CA8EC"/>
<path d="M196.939 355.983C195.732 355.419 194.352 355.348 193.094 355.786C191.835 356.223 190.797 357.135 190.2 358.327C190.083 358.571 189.986 358.824 189.91 359.084L172.098 360.149L169.458 369.381L193.701 365.283C194.804 365.514 195.952 365.372 196.966 364.882C197.98 364.391 198.803 363.578 199.307 362.57C199.874 361.406 199.957 360.064 199.535 358.84C199.114 357.615 198.224 356.608 197.06 356.04C197.02 356.02 196.98 356.001 196.939 355.983Z" fill="#FFB6B6"/>
<path d="M157.622 310.447C156.448 309.967 155.185 309.745 153.917 309.796C152.65 309.848 151.409 310.172 150.278 310.746C149.148 311.321 148.154 312.132 147.364 313.125C146.575 314.118 146.009 315.269 145.704 316.501L140.807 336.284L141.728 370.895C141.728 370.895 167.289 375.801 171.58 372.647C175.872 369.493 175.469 367.146 175.872 369.493C176.274 371.841 178.116 372.826 178.142 371.892C178.167 370.958 178.376 371.118 179.445 370.837C180.514 370.555 185.234 368.815 185.234 368.815L185.445 358.947C185.445 358.947 177.643 355.988 175.75 356.871C173.857 357.754 176.153 359.219 173.857 357.754C171.561 356.289 171.31 351.665 170.918 355.832C170.525 360 169.376 360.775 167.655 358.922C165.933 357.069 157.959 358.253 157.959 358.253L163.033 319.78C163.289 317.845 162.896 315.88 161.917 314.191C160.938 312.503 159.428 311.186 157.622 310.447Z" fill="#F3DF1D"/>
<path d="M3.47871e-06 425.214C-0.000304347 425.317 0.01982 425.419 0.0592116 425.515C0.0986033 425.611 0.156491 425.697 0.22954 425.77C0.302588 425.843 0.389355 425.901 0.484855 425.941C0.580356 425.98 0.682702 426 0.786005 426H473.214C473.423 426 473.622 425.917 473.77 425.77C473.917 425.622 474 425.422 474 425.214C474 425.005 473.917 424.805 473.77 424.658C473.622 424.51 473.423 424.427 473.214 424.427H0.785965C0.682666 424.427 0.580329 424.447 0.484835 424.487C0.389341 424.526 0.302573 424.584 0.22953 424.657C0.156486 424.73 0.098602 424.817 0.0592116 424.913C0.0198212 425.008 -0.000300815 425.11 3.47871e-06 425.214Z" fill="#CCCCCC"/>
<path d="M416.879 255.067H283.029C280.858 255.065 278.776 254.201 277.241 252.665C275.706 251.129 274.842 249.047 274.84 246.875V228.829C274.842 226.657 275.706 224.575 277.241 223.039C278.776 221.503 280.858 220.64 283.029 220.637H416.879C419.05 220.64 421.132 221.503 422.667 223.039C424.202 224.575 425.066 226.657 425.068 228.829V246.875C425.066 249.047 424.202 251.129 422.667 252.665C421.132 254.201 419.05 255.065 416.879 255.067Z" fill="#E6E6E6"/>
<path d="M366.215 234.764H326.778C326.31 234.764 325.861 234.578 325.53 234.247C325.199 233.916 325.013 233.467 325.013 232.999C325.013 232.531 325.199 232.082 325.53 231.751C325.861 231.42 326.31 231.234 326.778 231.234H366.215C366.683 231.234 367.132 231.42 367.463 231.751C367.794 232.082 367.98 232.531 367.98 232.999C367.98 233.467 367.794 233.916 367.463 234.247C367.132 234.578 366.683 234.764 366.215 234.764Z" fill="white"/>
<path d="M404.146 244.471H326.337C325.869 244.471 325.42 244.285 325.089 243.954C324.758 243.623 324.572 243.174 324.572 242.706C324.572 242.238 324.758 241.789 325.089 241.458C325.42 241.127 325.869 240.941 326.337 240.941H404.146C404.614 240.941 405.063 241.127 405.394 241.458C405.725 241.789 405.911 242.238 405.911 242.706C405.911 243.174 405.725 243.623 405.394 243.954C405.063 244.285 404.614 244.471 404.146 244.471Z" fill="white"/>
<path d="M305.826 249.685C312.359 249.685 317.654 244.387 317.654 237.852C317.654 231.317 312.359 226.019 305.826 226.019C299.293 226.019 293.997 231.317 293.997 237.852C293.997 244.387 299.293 249.685 305.826 249.685Z" fill="white"/>
<path d="M373.948 301.317H240.098C237.927 301.314 235.845 300.451 234.31 298.915C232.775 297.379 231.911 295.297 231.909 293.125V275.079C231.911 272.907 232.775 270.825 234.31 269.289C235.845 267.753 237.927 266.889 240.098 266.887H373.948C376.119 266.889 378.201 267.753 379.736 269.289C381.271 270.825 382.135 272.907 382.138 275.079V293.125C382.135 295.297 381.271 297.379 379.736 298.915C378.201 300.451 376.119 301.314 373.948 301.317Z" fill="#E6E6E6"/>
<path d="M323.285 281.013H283.847C283.379 281.013 282.93 280.827 282.6 280.496C282.269 280.165 282.083 279.717 282.083 279.248C282.083 278.78 282.269 278.332 282.6 278.001C282.93 277.67 283.379 277.484 283.847 277.484H323.285C323.753 277.484 324.202 277.67 324.532 278.001C324.863 278.332 325.049 278.78 325.049 279.248C325.049 279.717 324.863 280.165 324.532 280.496C324.202 280.827 323.753 281.013 323.285 281.013Z" fill="white"/>
<path d="M361.216 290.72H283.406C282.938 290.72 282.489 290.534 282.158 290.203C281.828 289.872 281.642 289.423 281.642 288.955C281.642 288.487 281.828 288.038 282.158 287.707C282.489 287.376 282.938 287.19 283.406 287.19H361.216C361.684 287.19 362.132 287.376 362.463 287.707C362.794 288.038 362.98 288.487 362.98 288.955C362.98 289.423 362.794 289.872 362.463 290.203C362.132 290.534 361.684 290.72 361.216 290.72Z" fill="white"/>
<path d="M262.895 295.935C269.428 295.935 274.724 290.637 274.724 284.102C274.724 277.567 269.428 272.269 262.895 272.269C256.362 272.269 251.066 277.567 251.066 284.102C251.066 290.637 256.362 295.935 262.895 295.935Z" fill="white"/>
</g>
<g clip-path="url(#clip1_2_500)">
<path d="M620.855 129.179L620.068 205.213C620.044 207.275 619.198 209.243 617.716 210.686C616.234 212.129 614.237 212.928 612.162 212.909L553.488 212.302L554.04 211.622L620.156 130.043L620.855 129.179Z" fill="#F2F2F2"/>
<path d="M475.537 100.89L408.162 100.192C407.61 100.186 407.078 100.399 406.684 100.783C406.29 101.167 406.065 101.691 406.059 102.24C406.053 102.788 406.267 103.317 406.654 103.709C407.04 104.101 407.567 104.325 408.119 104.33L475.494 105.028C476.046 105.033 476.578 104.821 476.972 104.437C477.367 104.053 477.591 103.529 477.597 102.98C477.603 102.432 477.389 101.903 477.002 101.511C476.616 101.119 476.089 100.895 475.537 100.89Z" fill="#E6E6E6"/>
<path d="M429.172 88.807L408.282 88.5908C407.73 88.585 407.198 88.7976 406.804 89.1815C406.41 89.5655 406.185 90.0895 406.179 90.6383C406.174 91.187 406.387 91.7156 406.774 92.1076C407.16 92.4997 407.687 92.7231 408.239 92.7289L429.129 92.9451C429.681 92.9508 430.213 92.7383 430.607 92.3544C431.002 91.9704 431.226 91.4464 431.232 90.8976C431.238 90.3489 431.024 89.8203 430.638 89.4283C430.251 89.0362 429.724 88.8127 429.172 88.807Z" fill="#E6E6E6"/>
<path d="M614.036 31.919L390.699 29.6068C388.624 29.5878 386.627 30.3875 385.145 31.8303C383.663 33.2732 382.817 35.2416 382.793 37.3036L381.081 202.738C381.062 204.8 381.866 206.786 383.318 208.259C384.77 209.732 386.75 210.573 388.825 210.597L612.162 212.909C614.237 212.928 616.234 212.129 617.716 210.686C619.198 209.243 620.044 207.275 620.068 205.213L621.78 39.7778C621.799 37.7157 620.995 35.7303 619.543 34.2571C618.091 32.7838 616.111 31.943 614.036 31.919ZM619.378 205.205C619.368 206.137 619.174 207.057 618.807 207.914C618.439 208.771 617.906 209.547 617.236 210.199C616.567 210.85 615.775 211.365 614.906 211.712C614.036 212.06 613.106 212.233 612.169 212.224L388.832 209.912C386.94 209.892 385.132 209.126 383.808 207.782C382.484 206.438 381.751 204.626 381.77 202.745L383.004 83.5817C383.15 69.4289 388.947 55.9143 399.119 46.011C409.291 36.1077 423.004 30.6269 437.242 30.7743L614.029 32.6046C614.966 32.6143 615.892 32.8073 616.754 33.1727C617.616 33.5381 618.397 34.0686 619.053 34.7341C619.709 35.3995 620.226 36.1868 620.576 37.051C620.925 37.9151 621.1 38.8393 621.091 39.7707L619.378 205.205Z" fill="#E6E6E6"/>
<path d="M599.787 61.689L404.345 59.6656C404.254 59.6646 404.167 59.6276 404.103 59.5627C404.039 59.4977 404.003 59.4101 404.004 59.3192C404.005 59.2283 404.042 59.1415 404.108 59.0779C404.173 59.0143 404.261 58.9791 404.352 58.98L599.794 61.0034C599.886 61.0044 599.973 61.0414 600.037 61.1063C600.101 61.1713 600.137 61.2589 600.136 61.3498C600.135 61.4407 600.098 61.5275 600.032 61.5911C599.967 61.6547 599.879 61.6899 599.787 61.689Z" fill="#E6E6E6"/>
<path d="M414.23 49.4763C415.841 49.493 417.16 48.1797 417.177 46.5431C417.194 44.9064 415.902 43.5662 414.292 43.5495C412.681 43.5328 411.362 44.846 411.345 46.4827C411.328 48.1193 412.62 49.4596 414.23 49.4763Z" fill="#E6E6E6"/>
<path d="M424.305 49.5806C425.916 49.5973 427.235 48.284 427.252 46.6474C427.269 45.0107 425.977 43.6705 424.366 43.6538C422.756 43.6371 421.436 44.9504 421.419 46.587C421.402 48.2236 422.694 49.5639 424.305 49.5806Z" fill="#E6E6E6"/>
<path d="M434.38 49.6849C435.99 49.7016 437.31 48.3883 437.327 46.7517C437.344 45.115 436.052 43.7748 434.441 43.7581C432.83 43.7414 431.511 45.0547 431.494 46.6913C431.477 48.3279 432.769 49.6682 434.38 49.6849Z" fill="#E6E6E6"/>
<path d="M445.874 49.1826C445.828 49.1822 445.782 49.1726 445.74 49.1545C445.698 49.1363 445.66 49.11 445.628 49.0769L443.681 47.0571C443.619 46.9924 443.584 46.906 443.585 46.8164C443.586 46.7268 443.622 46.6411 443.686 46.5777L445.675 44.5988C445.707 44.5664 445.745 44.5407 445.787 44.523C445.828 44.5054 445.874 44.4961 445.919 44.4959C445.965 44.4956 446.01 44.5044 446.052 44.5216C446.094 44.5388 446.132 44.5641 446.165 44.5961C446.197 44.6281 446.223 44.6662 446.24 44.7081C446.257 44.7499 446.266 44.7948 446.266 44.8401C446.266 44.8854 446.257 44.9302 446.239 44.972C446.221 45.0137 446.195 45.0515 446.163 45.0833L444.413 46.825L446.126 48.6027C446.173 48.6514 446.205 48.7128 446.217 48.7792C446.229 48.8456 446.221 48.9141 446.194 48.976C446.167 49.0379 446.122 49.0906 446.065 49.1273C446.008 49.1641 445.942 49.1833 445.874 49.1826Z" fill="#E6E6E6"/>
<path d="M449.18 49.2168C449.112 49.2161 449.046 49.1955 448.99 49.1576C448.934 49.1197 448.89 49.0661 448.865 49.0037C448.839 48.9412 448.832 48.8726 448.846 48.8065C448.859 48.7403 448.892 48.6796 448.94 48.6318L450.69 46.8899L448.976 45.1124C448.914 45.0466 448.881 44.959 448.883 44.8687C448.885 44.7784 448.923 44.6926 448.989 44.6301C449.055 44.5676 449.142 44.5334 449.233 44.5349C449.324 44.5364 449.411 44.5735 449.474 44.6381L451.421 46.6578C451.484 46.7225 451.518 46.8089 451.517 46.8985C451.516 46.9881 451.48 47.0738 451.416 47.1372L449.428 49.1163C449.396 49.1486 449.357 49.1742 449.314 49.1915C449.272 49.2087 449.226 49.2174 449.18 49.2168Z" fill="#E6E6E6"/>
<path d="M582.523 45.6343L578.864 45.5964C578.765 45.5954 578.667 45.6138 578.575 45.6505C578.482 45.6873 578.399 45.7417 578.328 45.8107C578.257 45.8797 578.2 45.9619 578.162 46.0526C578.123 46.1433 578.102 46.2407 578.101 46.3393L578.063 49.9797C578.062 50.0783 578.081 50.1761 578.118 50.2676C578.155 50.3591 578.21 50.4424 578.279 50.5129C578.349 50.5833 578.431 50.6395 578.522 50.6781C578.614 50.7168 578.712 50.7372 578.811 50.7382L582.47 50.7761C582.671 50.7784 582.864 50.7014 583.008 50.5622C583.151 50.4229 583.234 50.2327 583.236 50.0332L583.274 46.3929C583.275 46.1934 583.197 46.0015 583.056 45.8593C582.916 45.7171 582.724 45.6362 582.523 45.6343Z" fill="#E6E6E6"/>
<path d="M573.557 45.5415L569.898 45.5036C569.799 45.5026 569.7 45.5209 569.608 45.5577C569.516 45.5945 569.432 45.6489 569.361 45.7179C569.291 45.7869 569.234 45.8691 569.195 45.9598C569.156 46.0505 569.136 46.1479 569.135 46.2465L569.097 49.8869C569.096 49.9855 569.115 50.0833 569.152 50.1748C569.189 50.2662 569.243 50.3496 569.313 50.42C569.382 50.4905 569.465 50.5466 569.556 50.5853C569.647 50.624 569.745 50.6444 569.845 50.6454L573.504 50.6833C573.704 50.6855 573.898 50.6086 574.041 50.4693C574.185 50.3301 574.267 50.1399 574.27 49.9404L574.308 46.3C574.309 46.1006 574.231 45.9087 574.09 45.7665C573.949 45.6243 573.757 45.5434 573.557 45.5415Z" fill="#E6E6E6"/>
<path d="M590.97 45.8932L587.311 45.8553C587.212 45.8542 587.114 45.8726 587.022 45.9094C586.93 45.9461 586.846 46.0006 586.775 46.0696C586.704 46.1386 586.648 46.2208 586.609 46.3115C586.57 46.4022 586.549 46.4996 586.548 46.5982L586.511 50.2385C586.51 50.3371 586.528 50.435 586.565 50.5264C586.602 50.6179 586.657 50.7013 586.726 50.7717C586.796 50.8422 586.878 50.8983 586.97 50.937C587.061 50.9756 587.159 50.9961 587.258 50.9971L590.917 51.0349C591.118 51.0372 591.311 50.9603 591.455 50.821C591.599 50.6818 591.681 50.4916 591.684 50.2921L591.721 46.6517C591.723 46.4522 591.644 46.2604 591.504 46.1182C591.363 45.976 591.171 45.8951 590.97 45.8932Z" fill="#E6E6E6"/>
<path d="M516.838 46.5107L487.591 46.2079C487.347 46.2054 487.111 46.2994 486.937 46.4692C486.763 46.6391 486.663 46.8709 486.661 47.1136C486.658 47.3563 486.753 47.5901 486.924 47.7636C487.095 47.937 487.328 48.0358 487.572 48.0384L516.819 48.3412C517.064 48.3437 517.299 48.2497 517.473 48.0798C517.648 47.91 517.747 47.6782 517.75 47.4355C517.752 47.1927 517.658 46.9589 517.487 46.7855C517.316 46.6121 517.083 46.5132 516.838 46.5107Z" fill="#E6E6E6"/>
<path d="M437.149 170.798L419.664 170.067C417.239 169.966 414.511 169.941 412.768 171.169C410.79 172.563 411.061 175.072 412.675 176.714C414.289 178.356 416.882 179.312 419.43 180.093C432.963 184.244 447.978 185.214 462.575 184.457C477.173 183.701 491.486 181.283 505.73 178.874C507.081 178.645 508.613 178.312 509.172 177.385C509.713 176.488 509.029 175.393 507.954 174.799C506.878 174.204 505.51 173.994 504.19 173.806C480.272 170.43 456.071 169.493 431.963 171.01" fill="#9CA8EC"/>
<path d="M468.712 157.752L468.754 153.639C465.751 153.65 455.005 153.466 452.201 153.467C451.844 167.842 450.594 165.012 462.443 165.191C462.988 165.199 463.507 165.42 463.888 165.808C464.269 166.195 464.48 166.716 464.475 167.258L464.474 167.319C464.468 167.862 464.246 168.379 463.857 168.759C463.467 169.138 462.941 169.348 462.396 169.343L452.038 169.235L451.995 173.349L468.549 173.52C468.572 173.507 468.573 169.548 468.591 169.407C469.414 157.497 467.985 161.769 457.927 161.187C457.477 161.159 457.055 160.961 456.748 160.632C456.441 160.304 456.273 159.871 456.278 159.423L456.279 159.372C456.284 158.908 456.473 158.465 456.807 158.141C457.14 157.816 457.589 157.637 458.056 157.642L468.712 157.752Z" fill="#3F3D56"/>
<path d="M489.058 157.963L489.101 153.849C486.098 153.86 475.352 153.676 472.548 153.678C472.187 168.177 470.919 165.173 483.102 165.407C483.565 165.417 484.006 165.607 484.328 165.938C484.651 166.269 484.829 166.713 484.824 167.173C484.822 167.389 484.82 167.61 484.818 167.827C484.815 168.056 484.767 168.283 484.677 168.494C484.586 168.706 484.455 168.897 484.29 169.057C484.125 169.218 483.929 169.345 483.715 169.43C483.501 169.516 483.272 169.559 483.041 169.556L472.385 169.446L472.342 173.559L488.895 173.731C488.919 173.717 488.92 169.759 488.938 169.617C489.761 157.708 488.332 161.979 478.274 161.397C477.824 161.37 477.402 161.171 477.095 160.843C476.788 160.515 476.62 160.082 476.625 159.634L476.625 159.582C476.63 159.119 476.82 158.676 477.153 158.352C477.487 158.027 477.936 157.848 478.402 157.852L489.058 157.963Z" fill="#3F3D56"/>
<path d="M447.331 157.531L447.373 153.417L430.82 153.246C430.77 156.915 430.69 166.626 430.642 170.385C427.341 175.812 445.813 172.222 447.168 173.3C447.167 173.299 447.21 169.185 447.21 169.185C434.616 168.99 434.275 171.33 434.798 159.996C434.829 159.3 435.131 158.644 435.64 158.165C436.149 157.686 436.825 157.422 437.526 157.429C441.167 157.467 447.331 157.531 447.331 157.531Z" fill="#3F3D56"/>
<path d="M480.42 122.108L462.935 121.468C460.509 121.38 457.782 121.355 456.041 122.375C454.065 123.534 454.34 125.626 455.957 126.997C457.573 128.369 460.169 129.17 462.717 129.826C476.258 133.309 491.274 134.144 505.87 133.538C520.465 132.933 534.775 130.942 549.014 128.958C550.364 128.77 551.895 128.495 552.453 127.723C552.993 126.976 552.306 126.062 551.23 125.565C550.154 125.068 548.785 124.89 547.465 124.731C523.502 121.874 499.337 121.053 475.234 122.276" fill="#9CA8EC"/>
<path d="M477.546 104.021C477.198 110.368 479.526 112.391 471.432 111.499C470.924 107.704 473.754 102.476 467.374 103.745C468.621 106.506 463.577 127.306 471.305 123.667C471.802 117.407 468.984 114.63 477.425 115.676C478.063 119.555 474.84 125.221 481.478 123.944C480.231 121.182 485.275 100.383 477.546 104.021Z" fill="#3F3D56"/>
<path d="M519.963 104.46C520.528 104.814 514.693 110.824 514.563 111.32C514.394 110.894 508.946 104.898 509.617 104.353C501.99 100.508 506.551 121.529 505.272 124.192C505.273 124.191 509.412 124.234 509.412 124.234L509.546 111.209C515.282 119.067 514.216 117.744 519.896 110.933L519.757 124.341C527.384 128.187 522.824 107.164 524.103 104.502C524.101 104.503 519.963 104.46 519.963 104.46Z" fill="#3F3D56"/>
<path d="M501.686 104.27L485.132 104.099C484.1 109.855 487.336 107.955 491.298 108.277L491.134 124.045L495.272 124.088L495.436 108.32C499.385 108.094 502.611 110.022 501.686 104.27Z" fill="#3F3D56"/>
<path d="M531.525 120.349C530.623 115.126 530.679 109.784 531.688 104.581L527.55 104.538C527.547 107.145 527.407 117.661 527.359 122.47C527.354 122.989 527.556 123.489 527.921 123.86C528.286 124.231 528.785 124.443 529.307 124.448C533.476 124.497 541.436 124.549 543.897 124.591L543.94 120.478L531.525 120.349Z" fill="#3F3D56"/>
<path d="M425.802 119.94L408.982 119.766C408.159 119.758 407.366 120.074 406.778 120.647C406.19 121.22 405.855 122.001 405.846 122.819C405.838 123.637 406.157 124.425 406.733 125.01C407.309 125.595 408.095 125.928 408.918 125.936L425.738 126.11C426.561 126.119 427.354 125.802 427.942 125.23C428.53 124.657 428.865 123.876 428.874 123.057C428.882 122.239 428.563 121.451 427.987 120.867C427.411 120.282 426.625 119.949 425.802 119.94Z" fill="#E6E6E6"/>
<path d="M577.397 208.973L573.982 208.937L572.494 195.83L577.533 195.882L577.397 208.973Z" fill="#FFB6B6"/>
<path d="M577.48 212.515L566.981 212.406L566.982 212.274C566.993 211.196 567.434 210.168 568.209 209.414C568.983 208.66 570.027 208.243 571.111 208.254L573.044 206.827L576.607 208.311L577.524 208.321L577.48 212.515Z" fill="#2F2E41"/>
<path d="M589.467 209.098L586.053 209.062L584.564 195.955L589.603 196.007L589.467 209.098Z" fill="#FFB6B6"/>
<path d="M589.551 212.64L579.051 212.531L579.052 212.399C579.063 211.321 579.505 210.293 580.279 209.539C581.053 208.785 582.097 208.368 583.181 208.379L585.114 206.952L588.678 208.436L589.594 208.445L589.551 212.64Z" fill="#2F2E41"/>
<path d="M569.634 137.556C569.634 137.556 566.245 147.551 566.837 148.877C567.43 150.204 568.475 149.186 567.43 150.204C566.385 151.221 565.493 150.119 566.444 151.875C567.395 153.631 568.714 168.023 569.352 168.725C569.99 169.428 570.878 169.456 570.082 170.124C569.286 170.792 568.266 169.41 569.286 170.792C570.307 172.174 572.725 203.833 572.725 203.833L578.088 203.888C578.088 203.888 579.439 202.372 578.693 201.368C577.947 200.364 578.774 199.989 578.714 199.323C578.655 198.658 578.921 197.226 578.975 196.573C579.028 195.919 580.096 180.342 578.012 171.316L582.16 154.214L583.93 174.955C583.93 174.955 581.538 192.311 583.693 197.921C583.693 197.921 581.894 199.379 582.676 200.243C583.458 201.107 584.155 200.429 583.458 201.107C582.761 201.785 584.461 204.203 584.461 204.203L590.327 203.921L593.981 171.482C593.981 171.482 594.576 168.101 594.022 167.515C593.469 166.929 593.448 168.985 593.469 166.929L593.497 164.186C593.497 164.186 596.172 147.346 596.14 146.352C596.107 145.358 592.043 138.117 592.043 138.117L569.634 137.556Z" fill="#2F2E41"/>
<path d="M587.393 97.1726L578.839 96.4987L576.236 100.487L570.041 102.916L569.836 122.693C570.458 124.614 570.769 126.622 570.757 128.64C570.693 132.58 569.626 137.211 569.968 138.231C573.314 148.208 592.384 138.463 592.384 138.463L592.149 127.833L592.866 103.823L589.022 100.71L587.393 97.1726Z" fill="#E6E6E6"/>
<path d="M569.242 141.845L568.717 135.586L565.078 135.385L565.87 141.983C565.646 142.305 565.516 142.682 565.496 143.072C565.476 143.463 565.566 143.852 565.755 144.194C565.945 144.537 566.227 144.82 566.57 145.012C566.913 145.205 567.303 145.298 567.696 145.282C568.089 145.266 568.47 145.141 568.796 144.921C569.121 144.702 569.379 144.397 569.54 144.04C569.7 143.683 569.757 143.288 569.705 142.9C569.652 142.513 569.492 142.147 569.242 141.845Z" fill="#FFB6B6"/>
<path d="M571.442 102.403L571.341 102.419C570.401 102.568 569.511 102.942 568.749 103.509C567.987 104.076 567.375 104.819 566.967 105.675C565.901 107.905 562.363 122.602 563.824 124.839C564.958 126.574 564.681 126.235 564.127 127.53C563.572 128.824 562.715 127.428 563.408 129.498C564.101 131.568 564.889 131.282 564.218 132.072C563.546 132.862 562.868 132.699 563.499 134.041C564.13 135.382 564.02 135.832 564.137 136.336C564.254 136.84 564.111 140.375 564.111 140.375C564.111 140.375 568.003 140.122 569.929 141.061C569.929 141.061 568.886 137.479 569.502 136.913C570.119 136.348 570.852 136.286 570.338 135.449C569.823 134.611 568.638 134.564 569.933 134.162C571.228 133.76 570.889 126.302 570.889 126.302C573.072 120.791 572.326 111.682 571.442 102.403Z" fill="#E6E6E6"/>
<path d="M594.478 142.553L594.815 136.281L598.446 135.973L597.852 142.591C598.086 142.906 598.227 143.279 598.259 143.669C598.291 144.059 598.213 144.45 598.033 144.798C597.854 145.146 597.58 145.438 597.244 145.64C596.907 145.842 596.52 145.947 596.126 145.942C595.733 145.938 595.348 145.824 595.016 145.614C594.684 145.405 594.417 145.107 594.246 144.755C594.075 144.403 594.006 144.01 594.047 143.621C594.087 143.232 594.237 142.862 594.478 142.553Z" fill="#FFB6B6"/>
<path d="M591.092 103.193L591.194 103.206C592.138 103.327 593.039 103.674 593.818 104.219C594.597 104.763 595.23 105.488 595.664 106.331C596.796 108.529 600.297 123.372 599.381 125.395C598.527 127.281 598.567 126.815 599.16 128.093C599.753 129.37 600.568 127.949 599.938 130.039C599.307 132.129 598.511 131.866 599.206 132.636C599.9 133.406 600.574 133.223 599.983 134.583C599.393 135.942 599.516 136.388 599.415 136.895C599.313 137.403 599.562 140.932 599.562 140.932C599.562 140.932 595.664 140.793 593.768 141.789C593.768 141.789 594.702 138.178 594.069 137.631C593.436 137.084 592.701 137.044 593.19 136.191C593.679 135.339 594.862 135.257 593.556 134.893C592.25 134.529 592.364 127.065 592.364 127.065L591.092 103.193Z" fill="#E6E6E6"/>
<path d="M583.342 95.288C587.03 95.3262 590.05 92.3856 590.088 88.7201C590.126 85.0545 587.167 82.0521 583.48 82.0139C579.792 81.9757 576.772 84.9163 576.734 88.5818C576.696 92.2474 579.654 95.2498 583.342 95.288Z" fill="#FFB6B6"/>
<path d="M587.999 94.3803C588.935 93.6675 589.039 92.2915 589.841 91.4317C591.181 89.9941 591.82 88.4392 591.143 86.7124C590.545 85.1851 590.695 83.3168 589.383 82.3241C590.035 82.0972 590.193 81.6135 589.62 81.5987C589.233 81.5886 587.785 82.3077 588.488 81.4005C589.191 80.4933 587.875 80.8406 587.965 80.4672C588.056 80.0938 588.615 79.8923 588.857 80.1915C588.652 79.979 588.401 79.8159 588.123 79.7145C587.845 79.6132 587.547 79.5763 587.252 79.6067C586.958 79.6372 586.674 79.734 586.423 79.89C586.172 80.046 585.96 80.257 585.803 80.5068C585.034 79.3353 584.213 78.5262 583.011 79.2521C581.829 79.9651 581.835 80.8616 580.575 80.6331C579.983 80.5257 579.916 81.6394 579.506 82.0776C579.316 82.3109 579.07 82.4932 578.792 82.608C578.513 82.7228 578.209 82.7664 577.909 82.7349C577.319 82.6177 576.874 81.8802 577.211 81.3841L575.784 84.5314L575.229 83.8404C574.33 84.4096 574.608 85.9219 575.501 86.5005C576.393 87.0791 577.563 86.9695 578.6 86.7279C579.849 86.437 581.137 86.3443 582.415 86.4531C584.366 86.7478 585.703 89.0839 584.961 90.9014C585.719 90.1764 587.101 90.7989 587.48 91.7747C587.859 92.7506 587.563 93.8425 587.264 94.8454" fill="#2F2E41"/>
</g>
<g clip-path="url(#clip2_2_500)">
<path d="M506.796 327.425C506.8 327.222 506.763 327.021 506.685 326.834C506.608 326.646 506.493 326.477 506.348 326.336C506.202 326.195 506.029 326.086 505.839 326.015C505.65 325.944 505.448 325.913 505.245 325.924C505.043 325.935 504.845 325.987 504.664 326.078C504.483 326.168 504.323 326.295 504.193 326.451C504.063 326.606 503.967 326.787 503.91 326.981C503.853 327.176 503.837 327.38 503.862 327.581L499.56 333.071C499.375 333.43 499.3 333.836 499.344 334.237C499.388 334.639 499.55 335.019 499.809 335.329L500.136 335.72L501.663 335.435L503.408 333.933L503.227 332.203L505.402 328.878L505.4 328.876C505.773 328.857 506.125 328.696 506.385 328.427C506.644 328.157 506.791 327.799 506.796 327.425Z" fill="#FFB9B9"/>
<path d="M477.188 354.156L476.531 351.581L486.146 347.816L487.117 351.617L477.188 354.156Z" fill="#FFB8B8"/>
<path d="M474.861 355.451L472.74 347.147L472.845 347.12C473.702 346.901 474.61 347.031 475.371 347.482C476.132 347.934 476.682 348.669 476.901 349.526L476.901 349.526L478.197 354.598L474.861 355.451Z" fill="#2F2E41"/>
<path d="M490.37 353.914L488.242 352.324L493.362 343.352L496.503 345.7L490.37 353.914Z" fill="#FFB8B8"/>
<path d="M489.372 356.385L482.509 351.255L482.574 351.168C483.103 350.459 483.892 349.99 484.767 349.863C485.642 349.736 486.532 349.962 487.24 350.492L487.241 350.492L491.432 353.625L489.372 356.385Z" fill="#2F2E41"/>
<path d="M508.795 341.521L503.456 336.197C502.99 335.732 502.372 335.451 501.715 335.406C501.059 335.361 500.408 335.555 499.883 335.951L489.53 347.168L490.425 348.602L500.257 342.123L506.747 350.843L513.082 347.774L508.795 341.521Z" fill="#2F2E41"/>
<path d="M506.446 342.609L502.49 342.253L499.631 341.521C499.472 341.266 499.239 341.066 498.963 340.947C498.688 340.828 498.382 340.796 498.088 340.856C497.794 340.915 497.525 341.063 497.317 341.28C497.109 341.497 496.973 341.772 496.925 342.069C496.878 342.365 496.923 342.669 497.053 342.94C497.183 343.211 497.393 343.435 497.654 343.583C497.915 343.731 498.215 343.796 498.514 343.768C498.813 343.741 499.097 343.623 499.327 343.43L499.326 343.432L501.043 344.165L508.423 346.8L509.346 346.1L506.446 342.609Z" fill="#FFB9B9"/>
<path d="M515.85 353.702L513.598 355.096L510.958 355.062L498.731 350.334L480.717 353.355L480.259 349.488L496.8 342.485L511.157 347.444L515.85 353.702Z" fill="#2F2E41"/>
<path d="M511.393 328.955C513.58 328.983 515.375 327.231 515.403 325.043C515.431 322.855 513.681 321.058 511.494 321.031C509.307 321.003 507.511 322.754 507.484 324.942C507.456 327.13 509.206 328.927 511.393 328.955Z" fill="#FFB9B9"/>
<path d="M521.487 340.942C521.457 343.333 521.05 345.705 520.282 347.969L519.973 348.878L518.469 355.361L516.941 355.748L515.842 354.312L513.629 352.658L512.038 349.996L510.675 347.656L510.249 346.925L508.824 339.286L503.078 335.961L501.152 335.632L501.573 334.519L503.329 332.205L505.057 332.024L505.57 331.624L505.974 331.832L508.202 332.724L515.5 329.748L516.559 329.935L520.176 333.03C521.078 335.569 521.522 338.248 521.487 340.942Z" fill="#CCCCCC"/>
<path opacity="0.1" d="M520.391 340.043L516.5 342.534L510.675 347.655L510.249 346.925L509.109 340.814L509.413 340.818L512.635 335.067L520.391 340.043Z" fill="black"/>
<path d="M512.643 334.457L509.421 340.208L507.568 342.216L505.938 342.602L510.243 347.433L516.508 341.924L520.399 339.434L512.643 334.457Z" fill="#CCCCCC"/>
<path d="M508.401 322.007L507.97 322.167C507.905 322.122 507.85 322.065 507.808 321.999C507.765 321.932 507.736 321.858 507.722 321.781C507.709 321.703 507.71 321.624 507.727 321.547C507.744 321.47 507.775 321.397 507.82 321.333C507.823 321.329 507.825 321.326 507.828 321.323L507.035 321.275C507.553 320.604 508.207 320.05 508.955 319.65C509.702 319.25 510.526 319.014 511.372 318.956C512.218 318.899 513.066 319.022 513.861 319.317C514.656 319.612 515.379 320.073 515.982 320.669C516.02 320.545 516.41 320.792 516.568 321.039C516.624 320.838 516.981 321.821 517.102 322.514C517.166 322.285 517.393 322.659 517.185 323.013C517.315 322.996 517.369 323.327 517.266 323.51C517.408 323.445 517.379 323.839 517.223 324.1C517.425 324.085 517.153 328.231 514.136 327.89C513.938 326.92 513.997 326.981 513.765 325.735C513.651 325.611 513.526 325.498 513.402 325.385L512.728 324.774C511.944 324.064 511.234 323.191 510.182 322.916C509.459 322.727 509 322.68 509.406 321.867C509.047 322.012 508.711 322.229 508.348 322.363C508.355 322.249 508.407 322.122 508.401 322.007Z" fill="#2F2E41"/>
<path d="M513.408 326.186C513.801 326.191 514.123 325.877 514.128 325.484C514.133 325.091 513.819 324.769 513.427 324.764C513.034 324.759 512.712 325.073 512.707 325.466C512.702 325.859 513.016 326.181 513.408 326.186Z" fill="#FFB9B9"/>
<path d="M480.487 308.256L480.229 311.512L483.483 311.771L483.741 308.515L480.487 308.256Z" fill="#E6E6E6"/>
<path d="M478.364 309.96L482.315 310.274L482.001 314.227L478.05 313.913L478.364 309.96ZM482.13 310.432L478.522 310.145L478.235 313.755L481.843 314.042L482.13 310.432Z" fill="#CCCCCC"/>
<path d="M499.016 298.828L495.816 299.474L496.461 302.675L499.661 302.03L499.016 298.828Z" fill="#E6E6E6"/>
<path d="M496.796 297.253L497.579 301.141L493.693 301.925L492.91 298.037L496.796 297.253ZM497.376 301.006L496.661 297.456L493.113 298.172L493.828 301.722L497.376 301.006Z" fill="#CCCCCC"/>
<path d="M495.467 314.12L493.056 316.322L495.257 318.734L497.668 316.532L495.467 314.12Z" fill="#E6E6E6"/>
<path d="M497.874 313.816L494.946 316.49L492.274 313.561L495.201 310.887L497.874 313.816ZM494.957 316.247L497.63 313.805L495.19 311.131L492.517 313.572L494.957 316.247Z" fill="#CCCCCC"/>
<path d="M618.965 292.034L522.39 290.801C522.041 290.796 521.694 290.861 521.37 290.99C521.046 291.12 520.75 291.312 520.5 291.556C520.25 291.8 520.051 292.09 519.913 292.411C519.775 292.732 519.702 293.077 519.698 293.426L519.01 347.266C519.006 347.615 519.07 347.962 519.199 348.286C519.329 348.611 519.521 348.907 519.765 349.157C520.008 349.407 520.299 349.606 520.62 349.744C520.94 349.882 521.285 349.955 521.634 349.96L618.209 351.193C618.914 351.202 619.594 350.93 620.099 350.438C620.604 349.945 620.893 349.273 620.902 348.567L621.589 294.728C621.598 294.022 621.327 293.342 620.835 292.837C620.342 292.332 619.67 292.043 618.965 292.034Z" fill="#3F3D56"/>
<path d="M617.999 296.723L523.235 295.513L522.552 348.999L617.316 350.209L617.999 296.723Z" fill="white"/>
<path d="M570.555 294.658C571.092 294.665 571.532 294.235 571.539 293.698C571.546 293.161 571.117 292.72 570.58 292.713C570.043 292.706 569.602 293.136 569.595 293.673C569.589 294.21 570.018 294.651 570.555 294.658Z" fill="white"/>
<path d="M590.215 349.863L522.552 348.999L523.235 295.513L590.215 349.863Z" fill="#F2F2F2"/>
<path d="M537.431 345.186C542.462 345.25 546.592 341.222 546.657 336.188C546.721 331.154 542.695 327.022 537.664 326.958C532.633 326.893 528.503 330.922 528.438 335.955C528.374 340.989 532.4 345.121 537.431 345.186Z" fill="#9CA8EC"/>
<path d="M539.488 342.948C537.247 342.919 535.065 342.226 533.217 340.957C531.37 339.687 529.94 337.898 529.109 335.815C528.278 333.733 528.083 331.451 528.548 329.257C529.013 327.063 530.118 325.057 531.723 323.492C533.328 321.927 535.361 320.873 537.564 320.463C539.768 320.054 542.043 320.308 544.102 321.192C546.162 322.077 547.913 323.552 549.134 325.433C550.355 327.313 550.992 329.513 550.963 331.755C550.944 333.244 550.632 334.715 550.045 336.083C549.458 337.451 548.608 338.69 547.542 339.729C546.477 340.769 545.217 341.588 543.835 342.14C542.453 342.692 540.976 342.967 539.488 342.948ZM539.775 320.422C537.564 320.394 535.393 321.022 533.539 322.228C531.684 323.434 530.228 325.163 529.356 327.197C528.483 329.231 528.233 331.478 528.637 333.653C529.041 335.829 530.08 337.837 531.624 339.421C533.168 341.006 535.147 342.097 537.311 342.557C539.474 343.016 541.726 342.823 543.78 342.002C545.834 341.182 547.599 339.77 548.851 337.946C550.103 336.121 550.787 333.966 550.815 331.753C550.834 330.284 550.563 328.826 550.019 327.461C549.474 326.096 548.666 324.852 547.641 323.8C546.616 322.748 545.393 321.908 544.044 321.328C542.694 320.749 541.244 320.441 539.775 320.422Z" fill="#3F3D56"/>
<path d="M595.707 324.23L586.855 324.117L586.831 325.968L595.683 326.081L595.707 324.23Z" fill="#3F3D56"/>
<path d="M604.21 314.311L578.608 313.984L578.598 314.777L604.2 315.104L604.21 314.311Z" fill="#3F3D56"/>
<path d="M604.17 317.427L578.568 317.1L578.558 317.893L604.16 318.22L604.17 317.427Z" fill="#3F3D56"/>
<path d="M604.13 320.543L578.528 320.216L578.518 321.009L604.12 321.336L604.13 320.543Z" fill="#3F3D56"/>
<path d="M611.254 299.838L607.554 299.791L607.507 303.492L611.207 303.539L611.254 299.838Z" fill="#6C63FF"/>
<path d="M612.902 305.28L608.41 305.223L608.467 300.728L612.96 300.785L612.902 305.28ZM608.608 305.03L612.709 305.082L612.762 300.978L608.66 300.926L608.608 305.03Z" fill="#CCCCCC"/>
<path d="M623.553 349.316L614.305 349.198L614.313 348.531C614.314 348.514 614.31 348.496 614.304 348.48C614.298 348.464 614.288 348.449 614.276 348.437C614.264 348.425 614.249 348.415 614.233 348.408C614.217 348.401 614.2 348.397 614.183 348.397L611.012 348.357C610.995 348.356 610.978 348.36 610.961 348.366C610.945 348.373 610.931 348.382 610.918 348.394C610.906 348.406 610.896 348.421 610.889 348.437C610.882 348.453 610.878 348.47 610.878 348.487L610.87 349.154L608.888 349.129L608.896 348.462C608.897 348.444 608.894 348.427 608.887 348.411C608.881 348.395 608.871 348.38 608.859 348.368C608.847 348.355 608.832 348.346 608.816 348.339C608.801 348.332 608.783 348.328 608.766 348.328L605.595 348.287C605.578 348.287 605.561 348.29 605.545 348.297C605.528 348.303 605.514 348.313 605.501 348.325C605.489 348.337 605.479 348.352 605.472 348.368C605.465 348.383 605.462 348.401 605.461 348.418L605.453 349.085L603.471 349.059L603.48 348.393C603.48 348.375 603.477 348.358 603.47 348.342C603.464 348.326 603.454 348.311 603.442 348.299C603.43 348.286 603.416 348.276 603.4 348.27C603.384 348.263 603.367 348.259 603.349 348.259L600.178 348.218C600.161 348.218 600.144 348.221 600.128 348.228C600.112 348.234 600.097 348.244 600.084 348.256C600.072 348.268 600.062 348.282 600.055 348.298C600.048 348.314 600.045 348.331 600.044 348.349L600.036 349.016L598.054 348.99L598.063 348.324C598.063 348.306 598.06 348.289 598.053 348.273C598.047 348.257 598.037 348.242 598.025 348.23C598.013 348.217 597.999 348.207 597.983 348.2C597.967 348.193 597.95 348.19 597.932 348.19L594.761 348.149C594.744 348.149 594.727 348.152 594.711 348.159C594.695 348.165 594.68 348.175 594.668 348.187C594.655 348.199 594.645 348.213 594.638 348.229C594.631 348.245 594.628 348.262 594.628 348.28L594.619 348.946L592.637 348.921L592.646 348.254C592.646 348.237 592.643 348.22 592.636 348.204C592.63 348.188 592.62 348.173 592.608 348.16C592.596 348.148 592.582 348.138 592.566 348.131C592.55 348.124 592.533 348.121 592.515 348.12L589.345 348.08C589.327 348.08 589.31 348.083 589.294 348.089C589.278 348.096 589.263 348.105 589.251 348.117C589.238 348.13 589.228 348.144 589.221 348.16C589.215 348.176 589.211 348.193 589.211 348.21L589.202 348.877L587.22 348.852L587.229 348.185C587.229 348.168 587.226 348.151 587.22 348.134C587.213 348.118 587.204 348.104 587.191 348.091C587.179 348.079 587.165 348.069 587.149 348.062C587.133 348.055 587.116 348.052 587.099 348.051L583.928 348.011C583.91 348.011 583.893 348.014 583.877 348.02C583.861 348.027 583.846 348.036 583.834 348.048C583.821 348.06 583.811 348.075 583.805 348.091C583.798 348.107 583.794 348.124 583.794 348.141L583.785 348.808L581.804 348.783L581.812 348.116C581.812 348.099 581.809 348.081 581.803 348.065C581.796 348.049 581.787 348.034 581.775 348.022C581.762 348.01 581.748 348 581.732 347.993C581.716 347.986 581.699 347.982 581.682 347.982L556.843 347.665C556.826 347.665 556.809 347.668 556.793 347.674C556.776 347.681 556.762 347.69 556.749 347.702C556.737 347.715 556.727 347.729 556.72 347.745C556.713 347.761 556.71 347.778 556.709 347.795L556.701 348.462L554.719 348.437L554.728 347.77C554.728 347.753 554.725 347.736 554.718 347.719C554.712 347.703 554.702 347.689 554.69 347.676C554.678 347.664 554.664 347.654 554.648 347.647C554.632 347.64 554.615 347.636 554.597 347.636L551.426 347.596C551.409 347.596 551.392 347.599 551.376 347.605C551.359 347.612 551.345 347.621 551.332 347.633C551.32 347.645 551.31 347.66 551.303 347.676C551.296 347.692 551.293 347.709 551.293 347.726L551.284 348.393L549.302 348.368L549.311 347.701C549.311 347.684 549.308 347.666 549.301 347.65C549.295 347.634 549.285 347.619 549.273 347.607C549.261 347.595 549.247 347.585 549.231 347.578C549.215 347.571 549.198 347.567 549.18 347.567L546.009 347.527C545.992 347.526 545.975 347.53 545.959 347.536C545.943 347.542 545.928 347.552 545.915 347.564C545.903 347.576 545.893 347.591 545.886 347.607C545.879 347.623 545.876 347.64 545.876 347.657L545.867 348.324L543.885 348.299L543.894 347.632C543.894 347.614 543.891 347.597 543.884 347.581C543.878 347.565 543.868 347.55 543.856 347.538C543.844 347.525 543.83 347.515 543.814 347.509C543.798 347.502 543.781 347.498 543.763 347.498L540.593 347.457C540.575 347.457 540.558 347.46 540.542 347.467C540.526 347.473 540.511 347.483 540.499 347.495C540.486 347.507 540.476 347.522 540.469 347.537C540.463 347.553 540.459 347.571 540.459 347.588L540.45 348.255L538.468 348.229L538.477 347.563C538.477 347.545 538.474 347.528 538.468 347.512C538.461 347.496 538.452 347.481 538.439 347.469C538.427 347.456 538.413 347.446 538.397 347.439C538.381 347.433 538.364 347.429 538.346 347.429L535.176 347.388C535.158 347.388 535.141 347.391 535.125 347.398C535.109 347.404 535.094 347.414 535.082 347.426C535.069 347.438 535.059 347.452 535.053 347.468C535.046 347.484 535.042 347.501 535.042 347.519L535.033 348.185L533.052 348.16L533.06 347.493C533.06 347.476 533.057 347.459 533.051 347.443C533.044 347.427 533.035 347.412 533.023 347.399C533.01 347.387 532.996 347.377 532.98 347.37C532.964 347.363 532.947 347.36 532.93 347.36L529.759 347.319C529.724 347.319 529.69 347.332 529.665 347.357C529.64 347.381 529.625 347.415 529.625 347.45L529.616 348.116L527.635 348.091L527.643 347.424C527.643 347.407 527.64 347.39 527.634 347.374C527.627 347.357 527.618 347.343 527.606 347.33C527.594 347.318 527.579 347.308 527.563 347.301C527.547 347.294 527.53 347.291 527.513 347.29L524.342 347.25C524.307 347.249 524.273 347.263 524.248 347.287C524.223 347.312 524.208 347.345 524.208 347.38L524.2 348.047L518.122 347.97C517.281 347.959 516.47 348.283 515.868 348.87C515.266 349.458 514.921 350.26 514.911 351.102L514.892 352.536C514.882 353.378 515.205 354.189 515.792 354.791C516.379 355.394 517.182 355.739 518.023 355.749L623.454 357.096C624.295 357.106 625.106 356.782 625.708 356.195C626.31 355.608 626.654 354.805 626.665 353.964L626.684 352.529C626.689 352.112 626.612 351.699 626.458 351.312C626.303 350.925 626.074 350.572 625.783 350.274C625.493 349.975 625.146 349.737 624.764 349.573C624.381 349.408 623.97 349.321 623.553 349.316Z" fill="#3F3D56"/>
</g>
<defs>
<clipPath id="clip0_2_500">
<rect width="474" height="394" fill="white" transform="translate(0 32)"/>
</clipPath>
<clipPath id="clip1_2_500">
<rect width="239" height="181" fill="white" transform="translate(382.874 29.5258) rotate(0.593159)"/>
</clipPath>
<clipPath id="clip2_2_500">
<rect width="154" height="66" fill="white" transform="translate(473.467 290.176) rotate(0.731603)"/>
</clipPath>
</defs>
</svg>
