<svg xmlns="http://www.w3.org/2000/svg" version="1.1" xmlns:xlink="http://www.w3.org/1999/xlink" xmlns:svgjs="http://svgjs.dev/svgjs" viewBox="0 0 800 800"><defs><linearGradient x1="50%" y1="0%" x2="50%" y2="100%" id="ffflurry-grad" gradientTransform="rotate(270)"><stop stop-color="#524bac" stop-opacity="1" offset="0%"></stop><stop stop-color="#6d69c4" stop-opacity="1" offset="45%"></stop><stop stop-color="hsl(237, 17%, 81%)" stop-opacity="1" offset="100%"></stop></linearGradient></defs><rect width="100%" height="100%" fill="#524bac"></rect><g fill="url(#ffflurry-grad)"><rect width="433" height="2" x="481.5" y="137" rx="1" transform="rotate(40, 698, 138)" opacity="0.88"></rect><rect width="110" height="2" x="58" y="217" rx="1" transform="rotate(40, 113, 218)" opacity="0.32"></rect><rect width="139" height="2" x="235.5" y="67" rx="1" transform="rotate(40, 305, 68)" opacity="0.86"></rect><rect width="107" height="2" x="498.5" y="680" rx="1" transform="rotate(40, 552, 681)" opacity="0.42"></rect><rect width="270" height="2" x="515" y="354" rx="1" transform="rotate(40, 650, 355)" opacity="0.80"></rect><rect width="243" height="2" x="266.5" y="88" rx="1" transform="rotate(40, 388, 89)" opacity="0.11"></rect><rect width="276" height="2" x="-111" y="750" rx="1" transform="rotate(40, 27, 751)" opacity="0.16"></rect><rect width="130" height="2" x="-45" y="152" rx="1" transform="rotate(40, 20, 153)" opacity="0.50"></rect><rect width="170" height="2" x="585" y="228" rx="1" transform="rotate(40, 670, 229)" opacity="0.84"></rect><rect width="307" height="2" x="443.5" y="283" rx="1" transform="rotate(40, 597, 284)" opacity="0.23"></rect><rect width="102" height="2" x="117" y="47" rx="1" transform="rotate(40, 168, 48)" opacity="0.29"></rect><rect width="224" height="2" x="437" y="105" rx="1" transform="rotate(40, 549, 106)" opacity="0.60"></rect><rect width="136" height="2" x="313" y="680" rx="1" transform="rotate(40, 381, 681)" opacity="0.96"></rect><rect width="201" height="2" x="-66.5" y="464" rx="1" transform="rotate(40, 34, 465)" opacity="0.42"></rect><rect width="247" height="2" x="134.5" y="163" rx="1" transform="rotate(40, 258, 164)" opacity="0.23"></rect><rect width="257" height="2" x="163.5" y="424" rx="1" transform="rotate(40, 292, 425)" opacity="0.65"></rect><rect width="98" height="2" x="163" y="721" rx="1" transform="rotate(40, 212, 722)" opacity="0.74"></rect><rect width="427" height="2" x="254.5" y="119" rx="1" transform="rotate(40, 468, 120)" opacity="0.63"></rect><rect width="287" height="2" x="195.5" y="717" rx="1" transform="rotate(40, 339, 718)" opacity="0.21"></rect><rect width="234" height="2" x="523" y="156" rx="1" transform="rotate(40, 640, 157)" opacity="0.98"></rect><rect width="85" height="2" x="201.5" y="775" rx="1" transform="rotate(40, 244, 776)" opacity="0.21"></rect><rect width="271" height="2" x="12.5" y="713" rx="1" transform="rotate(40, 148, 714)" opacity="0.80"></rect><rect width="259" height="2" x="205.5" y="648" rx="1" transform="rotate(40, 335, 649)" opacity="0.71"></rect><rect width="162" height="2" x="549" y="22" rx="1" transform="rotate(40, 630, 23)" opacity="0.70"></rect><rect width="56" height="2" x="545" y="42" rx="1" transform="rotate(40, 573, 43)" opacity="0.39"></rect><rect width="173" height="2" x="470.5" y="567" rx="1" transform="rotate(40, 557, 568)" opacity="0.20"></rect><rect width="124" height="2" x="392" y="473" rx="1" transform="rotate(40, 454, 474)" opacity="0.36"></rect><rect width="287" height="2" x="281.5" y="329" rx="1" transform="rotate(40, 425, 330)" opacity="0.11"></rect><rect width="104" height="2" x="230" y="20" rx="1" transform="rotate(40, 282, 21)" opacity="0.31"></rect><rect width="283" height="2" x="-115.5" y="366" rx="1" transform="rotate(40, 26, 367)" opacity="0.37"></rect><rect width="239" height="2" x="650.5" y="181" rx="1" transform="rotate(40, 770, 182)" opacity="0.32"></rect><rect width="196" height="2" x="526" y="225" rx="1" transform="rotate(40, 624, 226)" opacity="0.26"></rect><rect width="228" height="2" x="176" y="118" rx="1" transform="rotate(40, 290, 119)" opacity="0.13"></rect><rect width="337" height="2" x="393.5" y="356" rx="1" transform="rotate(40, 562, 357)" opacity="0.79"></rect><rect width="61" height="2" x="137.5" y="774" rx="1" transform="rotate(40, 168, 775)" opacity="0.46"></rect><rect width="272" height="2" x="439" y="427" rx="1" transform="rotate(40, 575, 428)" opacity="0.66"></rect><rect width="118" height="2" x="44" y="351" rx="1" transform="rotate(40, 103, 352)" opacity="0.83"></rect><rect width="172" height="2" x="-44" y="545" rx="1" transform="rotate(40, 42, 546)" opacity="0.12"></rect><rect width="87" height="2" x="443.5" y="552" rx="1" transform="rotate(40, 487, 553)" opacity="0.56"></rect><rect width="340" height="2" x="-2" y="358" rx="1" transform="rotate(40, 168, 359)" opacity="0.92"></rect><rect width="328" height="2" x="154" y="512" rx="1" transform="rotate(40, 318, 513)" opacity="0.47"></rect><rect width="409" height="2" x="521.5" y="752" rx="1" transform="rotate(40, 726, 753)" opacity="0.29"></rect><rect width="416" height="2" x="486" y="426" rx="1" transform="rotate(40, 694, 427)" opacity="0.69"></rect><rect width="279" height="2" x="-96.5" y="279" rx="1" transform="rotate(40, 43, 280)" opacity="0.59"></rect><rect width="273" height="2" x="627.5" y="641" rx="1" transform="rotate(40, 764, 642)" opacity="0.80"></rect><rect width="199" height="2" x="359.5" y="618" rx="1" transform="rotate(40, 459, 619)" opacity="0.83"></rect><rect width="165" height="2" x="368.5" y="756" rx="1" transform="rotate(40, 451, 757)" opacity="0.35"></rect><rect width="77" height="2" x="696.5" y="31" rx="1" transform="rotate(40, 735, 32)" opacity="0.29"></rect><rect width="413" height="2" x="537.5" y="273" rx="1" transform="rotate(40, 744, 274)" opacity="0.41"></rect><rect width="77" height="2" x="77.5" y="86" rx="1" transform="rotate(40, 116, 87)" opacity="0.28"></rect><rect width="225" height="2" x="255.5" y="601" rx="1" transform="rotate(40, 368, 602)" opacity="0.08"></rect><rect width="361" height="2" x="426.5" y="604" rx="1" transform="rotate(40, 607, 605)" opacity="0.99"></rect><rect width="274" height="2" x="64" y="575" rx="1" transform="rotate(40, 201, 576)" opacity="0.39"></rect><rect width="325" height="2" x="60.5" y="102" rx="1" transform="rotate(40, 223, 103)" opacity="0.22"></rect><rect width="239" height="2" x="265.5" y="767" rx="1" transform="rotate(40, 385, 768)" opacity="0.39"></rect><rect width="244" height="2" x="609" y="550" rx="1" transform="rotate(40, 731, 551)" opacity="0.12"></rect><rect width="177" height="2" x="333.5" y="260" rx="1" transform="rotate(40, 422, 261)" opacity="0.45"></rect><rect width="80" height="2" x="348" y="429" rx="1" transform="rotate(40, 388, 430)" opacity="0.34"></rect><rect width="227" height="2" x="463.5" y="766" rx="1" transform="rotate(40, 577, 767)" opacity="0.72"></rect><rect width="330" height="2" x="586" y="354" rx="1" transform="rotate(40, 751, 355)" opacity="0.94"></rect><rect width="157" height="2" x="59.5" y="466" rx="1" transform="rotate(40, 138, 467)" opacity="0.86"></rect><rect width="312" height="2" x="-79" y="119" rx="1" transform="rotate(40, 77, 120)" opacity="0.73"></rect><rect width="239" height="2" x="551.5" y="490" rx="1" transform="rotate(40, 671, 491)" opacity="0.99"></rect><rect width="213" height="2" x="488.5" y="137" rx="1" transform="rotate(40, 595, 138)" opacity="0.52"></rect><rect width="237" height="2" x="88.5" y="198" rx="1" transform="rotate(40, 207, 199)" opacity="0.48"></rect><rect width="134" height="2" x="256" y="231" rx="1" transform="rotate(40, 323, 232)" opacity="0.60"></rect><rect width="36" height="2" x="25" y="34" rx="1" transform="rotate(40, 43, 35)" opacity="0.77"></rect><rect width="260" height="2" x="62" y="645" rx="1" transform="rotate(40, 192, 646)" opacity="0.47"></rect><rect width="73" height="2" x="238.5" y="724" rx="1" transform="rotate(40, 275, 725)" opacity="0.53"></rect><rect width="70" height="2" x="102" y="283" rx="1" transform="rotate(40, 137, 284)" opacity="0.59"></rect><rect width="199" height="2" x="667.5" y="468" rx="1" transform="rotate(40, 767, 469)" opacity="0.91"></rect><rect width="216" height="2" x="427" y="491" rx="1" transform="rotate(40, 535, 492)" opacity="0.38"></rect><rect width="91" height="2" x="222.5" y="671" rx="1" transform="rotate(40, 268, 672)" opacity="0.97"></rect><rect width="301" height="2" x="81.5" y="380" rx="1" transform="rotate(40, 232, 381)" opacity="0.38"></rect><rect width="150" height="2" x="110" y="430" rx="1" transform="rotate(40, 185, 431)" opacity="0.58"></rect><rect width="357" height="2" x="477.5" y="77" rx="1" transform="rotate(40, 656, 78)" opacity="0.15"></rect><rect width="161" height="2" x="346.5" y="664" rx="1" transform="rotate(40, 427, 665)" opacity="1.00"></rect><rect width="421" height="2" x="-94.5" y="535" rx="1" transform="rotate(40, 116, 536)" opacity="0.60"></rect><rect width="155" height="2" x="-40.5" y="638" rx="1" transform="rotate(40, 37, 639)" opacity="0.31"></rect><rect width="65" height="2" x="256.5" y="632" rx="1" transform="rotate(40, 289, 633)" opacity="0.67"></rect><rect width="242" height="2" x="2" y="21" rx="1" transform="rotate(40, 123, 22)" opacity="0.83"></rect><rect width="322" height="2" x="-84" y="411" rx="1" transform="rotate(40, 77, 412)" opacity="0.27"></rect><rect width="101" height="2" x="459.5" y="36" rx="1" transform="rotate(40, 510, 37)" opacity="0.45"></rect><rect width="333" height="2" x="455.5" y="696" rx="1" transform="rotate(40, 622, 697)" opacity="0.48"></rect><rect width="94" height="2" x="469" y="212" rx="1" transform="rotate(40, 516, 213)" opacity="0.43"></rect><rect width="381" height="2" x="491.5" y="648" rx="1" transform="rotate(40, 682, 649)" opacity="0.98"></rect><rect width="43" height="2" x="2.5" y="98" rx="1" transform="rotate(40, 24, 99)" opacity="0.85"></rect><rect width="231" height="2" x="-17.5" y="778" rx="1" transform="rotate(40, 98, 779)" opacity="0.83"></rect><rect width="374" height="2" x="457" y="555" rx="1" transform="rotate(40, 644, 556)" opacity="0.61"></rect><rect width="129" height="2" x="653.5" y="207" rx="1" transform="rotate(40, 718, 208)" opacity="0.88"></rect><rect width="317" height="2" x="189.5" y="346" rx="1" transform="rotate(40, 348, 347)" opacity="0.99"></rect><rect width="293" height="2" x="215.5" y="25" rx="1" transform="rotate(40, 362, 26)" opacity="0.25"></rect><rect width="212" height="2" x="470" y="201" rx="1" transform="rotate(40, 576, 202)" opacity="0.09"></rect><rect width="413" height="2" x="13.5" y="275" rx="1" transform="rotate(40, 220, 276)" opacity="0.78"></rect><rect width="265" height="2" x="310.5" y="37" rx="1" transform="rotate(40, 443, 38)" opacity="0.73"></rect><rect width="270" height="2" x="7" y="158" rx="1" transform="rotate(40, 142, 159)" opacity="0.10"></rect><rect width="309" height="2" x="197.5" y="153" rx="1" transform="rotate(40, 352, 154)" opacity="0.56"></rect><rect width="101" height="2" x="-7.5" y="196" rx="1" transform="rotate(40, 43, 197)" opacity="0.62"></rect><rect width="343" height="2" x="52.5" y="36" rx="1" transform="rotate(40, 224, 37)" opacity="0.51"></rect><rect width="175" height="2" x="521.5" y="487" rx="1" transform="rotate(40, 609, 488)" opacity="0.30"></rect><rect width="248" height="2" x="-43" y="724" rx="1" transform="rotate(40, 81, 725)" opacity="0.08"></rect><rect width="72" height="2" x="458" y="711" rx="1" transform="rotate(40, 494, 712)" opacity="0.87"></rect><rect width="338" height="2" x="323" y="354" rx="1" transform="rotate(40, 492, 355)" opacity="0.53"></rect><rect width="260" height="2" x="44" y="106" rx="1" transform="rotate(40, 174, 107)" opacity="0.34"></rect><rect width="301" height="2" x="164.5" y="773" rx="1" transform="rotate(40, 315, 774)" opacity="0.45"></rect><rect width="192" height="2" x="188" y="582" rx="1" transform="rotate(40, 284, 583)" opacity="0.16"></rect><rect width="77" height="2" x="72.5" y="642" rx="1" transform="rotate(40, 111, 643)" opacity="0.47"></rect><rect width="275" height="2" x="385.5" y="623" rx="1" transform="rotate(40, 523, 624)" opacity="0.21"></rect><rect width="101" height="2" x="714.5" y="95" rx="1" transform="rotate(40, 765, 96)" opacity="0.79"></rect><rect width="47" height="2" x="408.5" y="191" rx="1" transform="rotate(40, 432, 192)" opacity="0.97"></rect><rect width="43" height="2" x="380.5" y="548" rx="1" transform="rotate(40, 402, 549)" opacity="0.74"></rect><rect width="160" height="2" x="207" y="308" rx="1" transform="rotate(40, 287, 309)" opacity="0.78"></rect><rect width="203" height="2" x="121.5" y="501" rx="1" transform="rotate(40, 223, 502)" opacity="0.46"></rect></g></svg>