<svg width="460" height="313" viewBox="0 0 460 313" fill="none" xmlns="http://www.w3.org/2000/svg">
<g clip-path="url(#clip0_1_2)">
<path d="M412.669 305.574C402.352 313.012 388.983 313.385 376.059 312.471C374.255 312.344 372.463 312.194 370.688 312.033C370.677 312.03 370.663 312.031 370.652 312.028C370.567 312.02 370.481 312.012 370.399 312.007C370.033 311.973 369.666 311.939 369.304 311.904L369.389 312.068L369.658 312.576C369.562 312.406 369.465 312.24 369.368 312.069C369.34 312.018 369.308 311.968 369.28 311.917C365.932 306.086 362.611 300.042 361.764 293.385C360.889 286.474 363.349 278.65 369.427 275.254C370.224 274.809 371.068 274.456 371.943 274.199C372.306 274.088 372.675 273.999 373.047 273.919C375.327 273.413 377.699 273.523 379.922 274.239C382.145 274.954 384.137 276.249 385.693 277.99C387.25 279.732 388.315 281.856 388.779 284.146C389.243 286.436 389.089 288.808 388.333 291.019C393.486 285.732 392.525 277.155 390.747 269.986C388.967 262.818 386.811 254.842 390.433 248.403C392.446 244.819 395.987 242.596 399.96 241.7C400.082 241.674 400.204 241.648 400.326 241.625C405.06 240.665 409.982 241.528 414.108 244.042C421.705 248.833 425.608 257.917 426.874 266.816C428.915 281.135 424.399 297.117 412.669 305.574Z" fill="#F2F2F2"/>
<path d="M409.338 282.619C409.039 285.777 408.281 288.875 407.088 291.815C405.988 294.416 404.506 296.839 402.691 299.001C398.917 303.422 394.138 306.87 388.755 309.057C384.684 310.726 380.418 311.873 376.059 312.471C374.255 312.344 372.463 312.194 370.688 312.033C370.677 312.03 370.663 312.031 370.652 312.028C370.567 312.02 370.481 312.012 370.399 312.007C370.033 311.973 369.666 311.939 369.303 311.904L369.389 312.068L369.658 312.576C369.562 312.406 369.465 312.239 369.368 312.069C369.34 312.018 369.308 311.968 369.28 311.917C372.548 308.658 374.987 304.664 376.395 300.267C377.802 295.871 378.136 291.201 377.369 286.649C376.566 282.129 374.707 277.863 371.943 274.199C372.306 274.088 372.675 273.999 373.047 273.919C374.098 275.356 375.019 276.883 375.8 278.483C378.605 284.186 379.499 290.642 378.352 296.894C377.285 302.552 374.628 307.788 370.691 311.987C371.036 311.962 371.384 311.934 371.725 311.903C378.176 311.356 384.613 309.968 390.465 307.126C395.466 304.755 399.808 301.189 403.108 296.744C406.652 291.853 408.213 285.97 408.482 279.991C408.688 273.549 408.013 267.11 406.476 260.851C404.986 254.469 402.72 248.294 399.731 242.463C399.664 242.33 399.651 242.178 399.693 242.036C399.736 241.894 399.831 241.774 399.96 241.7C400.067 241.628 400.199 241.601 400.326 241.625C400.388 241.641 400.446 241.672 400.495 241.714C400.543 241.755 400.582 241.808 400.608 241.867C400.977 242.587 401.339 243.308 401.687 244.037C404.587 250.108 406.722 256.516 408.043 263.114C409.325 269.479 410.009 276.137 409.338 282.619Z" fill="white"/>
<path d="M19.1918 99.4859C18.8846 99.4856 18.5802 99.4281 18.2941 99.3163C17.8314 99.1384 17.4338 98.8239 17.154 98.4144C16.8742 98.005 16.7254 97.5201 16.7275 97.0241V71.3323C16.7266 70.4627 16.3809 69.6289 15.7665 69.014C15.152 68.3991 14.3189 68.0532 13.4499 68.0521H8.19272C6.02061 68.0497 3.93817 67.1851 2.40226 65.6481C0.866348 64.111 0.00240387 62.0271 -3.05176e-05 59.8533V8.19879C0.00240532 6.02508 0.866349 3.94111 2.40226 2.40406C3.93817 0.867019 6.02061 0.00243618 8.19272 0H193.63C195.802 0.00243907 197.885 0.86702 199.421 2.40406C200.956 3.9411 201.82 6.02508 201.823 8.19879V59.8533C201.82 62.0271 200.956 64.111 199.421 65.6481C197.885 67.1851 195.802 68.0497 193.63 68.0521H50.4988C50.0445 68.0527 49.5952 68.1475 49.1793 68.3305C48.7634 68.5136 48.39 68.781 48.0826 69.1158L20.9968 98.686C20.7681 98.9377 20.4894 99.1388 20.1786 99.2765C19.8678 99.4143 19.5317 99.4856 19.1918 99.4859ZM8.19272 1.0925C6.31005 1.09462 4.50511 1.84401 3.17386 3.17623C1.84261 4.50846 1.09379 6.31473 1.09166 8.19879V59.8533C1.09379 61.7374 1.84262 63.5437 3.17386 64.8759C4.5051 66.2081 6.31006 66.9575 8.19272 66.9596H13.4499C14.6084 66.9609 15.719 67.4221 16.5381 68.2418C17.3572 69.0616 17.818 70.173 17.8192 71.3323V97.0241C17.8192 97.2995 17.9024 97.5685 18.0578 97.7958C18.2132 98.0231 18.4335 98.1981 18.69 98.298C18.9465 98.3978 19.2272 98.4178 19.4952 98.3553C19.7632 98.2928 20.0061 98.1507 20.1921 97.9477L47.2779 68.3775C47.6877 67.9312 48.1855 67.5748 48.7399 67.3307C49.2942 67.0867 49.8932 66.9603 50.4988 66.9596H193.63C195.513 66.9575 197.318 66.2081 198.649 64.8759C199.98 63.5437 200.729 61.7374 200.731 59.8533V8.19879C200.729 6.31473 199.98 4.50846 198.649 3.17623C197.318 1.84401 195.513 1.09462 193.63 1.0925H8.19272Z" fill="#788AB8"/>
<path d="M20.0959 23.2647C24.0552 23.2647 27.2649 20.0527 27.2649 16.0905C27.2649 12.1282 24.0552 8.91621 20.0959 8.91621C16.1366 8.91621 12.9269 12.1282 12.9269 16.0905C12.9269 20.0527 16.1366 23.2647 20.0959 23.2647Z" fill="#CCCCCC"/>
<path d="M185.266 55.788H16.5566C16.0541 55.7886 15.5564 55.6901 15.092 55.4981C14.6276 55.3061 14.2056 55.0243 13.85 54.669C13.4945 54.3136 13.2125 53.8916 13.02 53.4271C12.8276 52.9626 12.7285 52.4646 12.7285 51.9618C12.7285 51.4589 12.8276 50.961 13.02 50.4965C13.2125 50.0319 13.4945 49.6099 13.85 49.2546C14.2056 48.8992 14.6276 48.6175 15.092 48.4254C15.5564 48.2334 16.0541 48.1349 16.5566 48.1355H185.266C185.769 48.1349 186.266 48.2334 186.731 48.4254C187.195 48.6175 187.617 48.8992 187.973 49.2546C188.328 49.6099 188.61 50.0319 188.803 50.4965C188.995 50.961 189.094 51.4589 189.094 51.9618C189.094 52.4646 188.995 52.9626 188.803 53.4271C188.61 53.8916 188.328 54.3136 187.973 54.669C187.617 55.0243 187.195 55.3061 186.731 55.4981C186.266 55.6901 185.769 55.7886 185.266 55.788Z" fill="#EFB625"/>
<path d="M130.304 39.5264H16.5566C16.0541 39.527 15.5564 39.4285 15.092 39.2364C14.6276 39.0444 14.2056 38.7627 13.85 38.4073C13.4945 38.052 13.2125 37.6299 13.02 37.1654C12.8276 36.7009 12.7285 36.203 12.7285 35.7001C12.7285 35.1973 12.8276 34.6993 13.02 34.2348C13.2125 33.7703 13.4945 33.3483 13.85 32.9929C14.2056 32.6376 14.6276 32.3558 15.092 32.1638C15.5564 31.9718 16.0541 31.8732 16.5566 31.8739H130.304C130.807 31.8732 131.304 31.9718 131.769 32.1638C132.233 32.3558 132.655 32.6376 133.011 32.9929C133.366 33.3483 133.648 33.7703 133.841 34.2348C134.033 34.6993 134.132 35.1973 134.132 35.7001C134.132 36.203 134.033 36.7009 133.841 37.1654C133.648 37.6299 133.366 38.052 133.011 38.4073C132.655 38.7627 132.233 39.0444 131.769 39.2364C131.304 39.4285 130.807 39.527 130.304 39.5264Z" fill="#4B598C"/>
<path d="M19.1918 281.712C18.8847 281.712 18.5803 281.654 18.2941 281.542C17.8315 281.365 17.4338 281.05 17.154 280.641C16.8742 280.231 16.7255 279.746 16.7276 279.25V253.558C16.7266 252.689 16.381 251.855 15.7665 251.24C15.1521 250.625 14.319 250.279 13.45 250.278H8.19275C6.02065 250.276 3.93821 249.411 2.4023 247.874C0.866388 246.337 0.00244017 244.253 0 242.08V190.425C0.00243583 188.251 0.86638 186.167 2.40229 184.63C3.9382 183.093 6.02065 182.229 8.19275 182.226H193.63C195.802 182.229 197.885 183.093 199.421 184.63C200.956 186.167 201.82 188.251 201.823 190.425V242.08C201.82 244.253 200.956 246.337 199.421 247.874C197.885 249.411 195.802 250.276 193.63 250.278H50.4989C50.0445 250.279 49.5952 250.374 49.1793 250.557C48.7635 250.74 48.3901 251.007 48.0827 251.342L20.9968 280.912C20.7681 281.164 20.4895 281.365 20.1786 281.503C19.8678 281.64 19.5317 281.712 19.1918 281.712ZM8.19275 183.319C6.31008 183.321 4.50514 184.07 3.17389 185.402C1.84264 186.735 1.09381 188.541 1.09169 190.425V242.08C1.09382 243.964 1.84265 245.77 3.17389 247.102C4.50513 248.434 6.31008 249.184 8.19275 249.186H13.45C14.6084 249.187 15.719 249.648 16.5381 250.468C17.3572 251.288 17.818 252.399 17.8193 253.559V279.25C17.8193 279.526 17.9024 279.795 18.0578 280.022C18.2132 280.249 18.4336 280.424 18.6901 280.524C18.9465 280.624 19.2272 280.644 19.4952 280.582C19.7632 280.519 20.0062 280.377 20.1921 280.174L47.278 250.604C47.6877 250.157 48.1855 249.801 48.7399 249.557C49.2943 249.313 49.8932 249.187 50.4989 249.186H193.63C195.513 249.184 197.318 248.434 198.649 247.102C199.98 245.77 200.729 243.964 200.731 242.08V190.425C200.729 188.541 199.98 186.735 198.649 185.402C197.318 184.07 195.513 183.321 193.63 183.319L8.19275 183.319Z" fill="#F5F5F5"/>
<path d="M293.033 187.012C292.693 187.012 292.357 186.94 292.046 186.803C291.736 186.665 291.457 186.464 291.228 186.212L264.142 156.642C263.835 156.307 263.461 156.04 263.046 155.857C262.63 155.674 262.181 155.579 261.726 155.578H118.595C116.423 155.576 114.34 154.711 112.804 153.174C111.269 151.637 110.405 149.553 110.402 147.379V95.7249C110.405 93.5512 111.269 91.4672 112.804 89.9301C114.34 88.3931 116.423 87.5285 118.595 87.5261H304.032C306.204 87.5285 308.287 88.3931 309.823 89.9301C311.359 91.4672 312.223 93.5512 312.225 95.7249V147.379C312.223 149.553 311.359 151.637 309.823 153.174C308.287 154.711 306.204 155.576 304.032 155.578H298.775C297.906 155.579 297.073 155.925 296.458 156.54C295.844 157.155 295.498 157.989 295.497 158.858V184.55C295.5 185.046 295.351 185.531 295.071 185.94C294.791 186.35 294.393 186.664 293.931 186.842C293.645 186.954 293.34 187.012 293.033 187.012ZM118.595 88.6186C116.712 88.6207 114.907 89.3701 113.576 90.7023C112.245 92.0345 111.496 93.8408 111.494 95.7248V147.379C111.496 149.263 112.245 151.07 113.576 152.402C114.907 153.734 116.712 154.484 118.595 154.486H261.726C262.332 154.486 262.931 154.613 263.485 154.857C264.039 155.101 264.537 155.457 264.947 155.904L292.033 185.474C292.219 185.677 292.462 185.819 292.73 185.881C292.998 185.944 293.278 185.924 293.535 185.824C293.791 185.724 294.012 185.549 294.167 185.322C294.323 185.095 294.406 184.826 294.406 184.55V158.858C294.407 157.699 294.868 156.588 295.687 155.768C296.506 154.948 297.617 154.487 298.775 154.486H304.032C305.915 154.484 307.72 153.734 309.051 152.402C310.382 151.07 311.131 149.263 311.133 147.379V95.7249C311.131 93.8408 310.382 92.0345 309.051 90.7023C307.72 89.3701 305.915 88.6207 304.032 88.6186L118.595 88.6186Z" fill="#F5F5F5"/>
<path d="M20.0959 205.491C24.0552 205.491 27.2649 202.279 27.2649 198.317C27.2649 194.354 24.0552 191.142 20.0959 191.142C16.1366 191.142 12.9269 194.354 12.9269 198.317C12.9269 202.279 16.1366 205.491 20.0959 205.491Z" fill="#CCCCCC"/>
<path d="M185.266 238.014H16.5566C16.0541 238.015 15.5564 237.916 15.092 237.724C14.6276 237.532 14.2056 237.251 13.85 236.895C13.4945 236.54 13.2125 236.118 13.02 235.653C12.8276 235.189 12.7285 234.691 12.7285 234.188C12.7285 233.685 12.8276 233.187 13.02 232.723C13.2125 232.258 13.4945 231.836 13.85 231.481C14.2056 231.125 14.6276 230.844 15.092 230.652C15.5564 230.46 16.0541 230.361 16.5566 230.362H185.266C186.28 230.362 187.253 230.765 187.97 231.482C188.687 232.2 189.09 233.173 189.09 234.188C189.09 235.203 188.687 236.176 187.97 236.894C187.253 237.611 186.28 238.014 185.266 238.014Z" fill="#EFB625"/>
<path d="M130.304 221.753H16.5566C16.0541 221.753 15.5564 221.655 15.092 221.463C14.6276 221.271 14.2056 220.989 13.85 220.634C13.4945 220.278 13.2125 219.856 13.02 219.392C12.8276 218.927 12.7285 218.429 12.7285 217.926C12.7285 217.423 12.8276 216.926 13.02 216.461C13.2125 215.996 13.4945 215.574 13.85 215.219C14.2056 214.864 14.6276 214.582 15.092 214.39C15.5564 214.198 16.0541 214.099 16.5566 214.1H130.304C130.807 214.099 131.304 214.198 131.769 214.39C132.233 214.582 132.655 214.864 133.011 215.219C133.366 215.574 133.648 215.996 133.841 216.461C134.033 216.926 134.132 217.423 134.132 217.926C134.132 218.429 134.033 218.927 133.841 219.392C133.648 219.856 133.366 220.278 133.011 220.634C132.655 220.989 132.233 221.271 131.769 221.463C131.304 221.655 130.807 221.753 130.304 221.753Z" fill="#4B598C"/>
<path d="M130.498 110.312C134.457 110.312 137.667 107.1 137.667 103.138C137.667 99.1759 134.457 95.9639 130.498 95.9639C126.539 95.9639 123.329 99.1759 123.329 103.138C123.329 107.1 126.539 110.312 130.498 110.312Z" fill="#3F3D56"/>
<path d="M295.668 142.836H126.959C125.945 142.836 124.972 142.433 124.255 141.715C123.538 140.997 123.135 140.024 123.135 139.009C123.135 137.995 123.538 137.021 124.255 136.304C124.972 135.586 125.945 135.183 126.959 135.183H295.668C296.682 135.183 297.655 135.586 298.372 136.304C299.089 137.021 299.492 137.995 299.492 139.009C299.492 140.024 299.089 140.997 298.372 141.715C297.655 142.433 296.682 142.836 295.668 142.836Z" fill="#6C63FF"/>
<path d="M240.706 126.574H126.959C126.456 126.575 125.959 126.476 125.494 126.284C125.03 126.092 124.608 125.81 124.252 125.455C123.897 125.1 123.615 124.678 123.422 124.213C123.23 123.749 123.131 123.251 123.131 122.748C123.131 122.245 123.23 121.747 123.422 121.282C123.615 120.818 123.897 120.396 124.252 120.041C124.608 119.685 125.03 119.403 125.494 119.211C125.959 119.019 126.456 118.921 126.959 118.922H240.706C241.209 118.921 241.707 119.019 242.171 119.211C242.635 119.403 243.057 119.685 243.413 120.041C243.768 120.396 244.05 120.818 244.243 121.282C244.435 121.747 244.534 122.245 244.534 122.748C244.534 123.251 244.435 123.749 244.243 124.213C244.05 124.678 243.768 125.1 243.413 125.455C243.057 125.81 242.635 126.092 242.171 126.284C241.707 126.476 241.209 126.575 240.706 126.574Z" fill="#4B598C"/>
<path d="M295.595 196.845C295.759 196.059 296.093 195.318 296.574 194.675C297.054 194.033 297.67 193.503 298.378 193.124C299.085 192.745 299.867 192.526 300.668 192.482C301.469 192.438 302.271 192.57 303.015 192.87L315.82 178.145L318.54 187.917L305.963 200.402C305.378 201.62 304.366 202.581 303.119 203.103C301.873 203.624 300.479 203.67 299.201 203.232C297.923 202.794 296.85 201.901 296.185 200.724C295.521 199.547 295.311 198.167 295.595 196.845Z" fill="#FFB8B8"/>
<path d="M365.875 127.746C373.279 127.746 379.281 121.74 379.281 114.33C379.281 106.92 373.279 100.914 365.875 100.914C358.47 100.914 352.468 106.92 352.468 114.33C352.468 121.74 358.47 127.746 365.875 127.746Z" fill="#FFB8B8"/>
<path d="M350.125 299.001L343.433 299.001L340.249 273.17L350.126 273.17L350.125 299.001Z" fill="#FFB8B8"/>
<path d="M351.832 305.493L330.254 305.492V305.219C330.254 304.115 330.471 303.022 330.893 302.003C331.315 300.983 331.934 300.056 332.714 299.276C333.494 298.495 334.42 297.876 335.439 297.454C336.458 297.032 337.55 296.814 338.653 296.814L351.832 296.815L351.832 305.493Z" fill="#2F2E41"/>
<path d="M370.321 306.103L363.629 306.102L362.703 280.888L370.323 280.272L370.321 306.103Z" fill="#FFB8B8"/>
<path d="M372.028 312.594L350.45 312.593V312.32C350.45 311.217 350.667 310.124 351.09 309.104C351.512 308.084 352.13 307.158 352.91 306.377C353.69 305.597 354.616 304.978 355.635 304.555C356.654 304.133 357.746 303.916 358.849 303.916L372.028 303.916L372.028 312.594Z" fill="#2F2E41"/>
<path d="M368.418 301.389L363.207 300.775C362.616 300.704 362.07 300.421 361.672 299.979C361.273 299.536 361.048 298.964 361.038 298.369L360.061 230.449C360.058 230.257 359.988 230.072 359.863 229.926C359.737 229.78 359.565 229.684 359.375 229.652C359.186 229.621 358.991 229.658 358.826 229.756C358.66 229.853 358.535 230.006 358.471 230.188L351.241 250.617L351.758 288.91C351.766 289.542 351.531 290.153 351.102 290.616C350.672 291.079 350.08 291.359 349.449 291.397L342.646 291.686C342.024 291.721 341.411 291.52 340.931 291.122C340.451 290.725 340.138 290.16 340.056 289.542L336.503 246.224L336.501 246.197L341.892 200.957L382.385 203.889L371.144 299.236C371.073 299.833 370.786 300.384 370.337 300.783C369.887 301.183 369.307 301.405 368.706 301.406C368.61 301.406 368.514 301.4 368.418 301.389Z" fill="#2F2E41"/>
<path d="M342.065 204.967C341.702 204.773 341.393 204.49 341.168 204.145C340.944 203.799 340.81 203.402 340.78 202.991C340.78 202.991 344.421 180.33 345.755 179.905L342.836 155.672C342.486 152.716 342.73 149.72 343.553 146.86C344.376 144 345.762 141.333 347.629 139.016C349.427 136.769 351.661 134.909 354.197 133.549C356.733 132.19 359.518 131.358 362.384 131.105C362.792 131.069 363.198 131.041 363.601 131.021C367.056 130.836 370.504 131.488 373.653 132.923C376.802 134.357 379.558 136.531 381.687 139.26C383.896 142.012 385.408 145.257 386.094 148.72C386.78 152.182 386.62 155.759 385.628 159.147L383.991 164.849V204.701C383.989 205.09 383.896 205.473 383.72 205.82C383.543 206.166 383.288 206.467 382.974 206.697C377.876 210.442 372.114 211.766 366.514 211.766C355.919 211.766 345.905 207.024 342.065 204.967Z" fill="#55619F"/>
<path d="M310.63 197.675L303.588 192.404C303.311 192.198 303.082 191.935 302.913 191.634C302.745 191.332 302.643 190.999 302.612 190.655C302.581 190.311 302.623 189.964 302.735 189.638C302.847 189.311 303.026 189.012 303.262 188.76L345.217 143.708C346.564 142.275 348.38 141.372 350.335 141.164C352.29 140.956 354.255 141.456 355.873 142.575C356.858 143.262 357.681 144.159 358.281 145.201C358.881 146.243 359.244 147.405 359.344 148.603C359.444 149.801 359.28 151.007 358.861 152.134C358.443 153.262 357.781 154.283 356.924 155.125L313.822 197.46C313.443 197.836 312.952 198.077 312.423 198.147C311.895 198.217 311.358 198.112 310.895 197.848C310.803 197.795 310.715 197.738 310.63 197.675Z" fill="#55619F"/>
<path d="M364.532 191.71C364.839 190.968 365.306 190.303 365.898 189.761C366.491 189.22 367.195 188.815 367.961 188.575C368.726 188.335 369.536 188.266 370.331 188.373C371.126 188.48 371.888 188.76 372.564 189.193L387.895 177.124L388.74 187.233L374.052 197.144C373.249 198.231 372.076 198.986 370.754 199.265C369.432 199.544 368.054 199.328 366.88 198.659C365.707 197.989 364.819 196.911 364.386 195.631C363.954 194.35 364.005 192.955 364.532 191.71Z" fill="#FFB8B8"/>
<path d="M378.254 196.421C377.848 196.295 377.482 196.065 377.193 195.753C376.903 195.442 376.7 195.06 376.604 194.646L375.055 188.137C374.941 187.675 374.966 187.19 375.126 186.742C375.287 186.294 375.575 185.903 375.956 185.618L386.375 174.341L371.049 150.69C369.889 149.261 369.235 147.487 369.189 145.646C369.144 143.805 369.709 142.001 370.797 140.516C371.664 139.333 372.828 138.399 374.172 137.811C375.515 137.223 376.99 137.001 378.447 137.167C379.904 137.333 381.291 137.881 382.468 138.757C383.645 139.632 384.57 140.803 385.149 142.152L399.398 169.907C400.815 172.664 401.168 175.847 400.391 178.848C399.614 181.85 397.76 184.46 395.184 186.182L380.622 195.916C380.177 196.316 379.599 196.537 379.001 196.537C378.747 196.537 378.495 196.498 378.254 196.421Z" fill="#55619F"/>
<path d="M375.809 126.324C375.493 126.514 375.137 126.628 374.77 126.658C374.403 126.689 374.034 126.634 373.691 126.499C373.348 126.363 373.041 126.151 372.794 125.877C372.547 125.604 372.365 125.278 372.264 124.923L372.256 124.89C371.983 123.773 372.198 122.605 372.269 121.458C372.339 120.311 372.221 119.052 371.436 118.213C369.973 116.649 367.389 117.496 365.283 117.11C364.05 116.841 362.956 116.132 362.207 115.115C361.459 114.097 361.106 112.842 361.215 111.583C361.244 111.345 361.29 111.106 361.341 110.867C361.469 110.262 361.456 109.636 361.302 109.037C361.147 108.438 360.856 107.884 360.452 107.416C360.047 106.949 359.54 106.582 358.969 106.344C358.399 106.106 357.781 106.003 357.165 106.044C355.04 106.177 352.748 106.834 350.981 105.268C350.333 104.649 349.881 103.854 349.682 102.981C349.482 102.107 349.545 101.194 349.86 100.356C350.849 97.4495 353.68 95.9155 356.484 95.0656C359.953 94.0425 363.606 93.8058 367.177 94.3726C370.749 94.9395 374.149 96.2956 377.131 98.3426C378.912 99.5846 380.578 101.148 381.345 103.18C382.112 105.213 381.761 107.783 380.063 109.137C381.392 110.53 382.332 112.249 382.788 114.12C383.245 115.991 383.202 117.95 382.664 119.8C381.836 122.52 377.83 125.145 375.809 126.324Z" fill="#2F2E41"/>
<path d="M460 312.454C460 312.599 459.942 312.737 459.84 312.84C459.737 312.942 459.599 313 459.454 313H251.487C251.342 313 251.204 312.942 251.101 312.84C250.999 312.738 250.941 312.599 250.941 312.454C250.941 312.309 250.999 312.17 251.101 312.068C251.204 311.965 251.342 311.908 251.487 311.908H459.454C459.599 311.908 459.737 311.966 459.84 312.068C459.942 312.17 460 312.309 460 312.454Z" fill="#3F3D56"/>
</g>
<defs>
<clipPath id="clip0_1_2">
<rect width="460" height="313" fill="white"/>
</clipPath>
</defs>
</svg>
