<svg width="534" height="434" viewBox="0 0 534 434" fill="none" xmlns="http://www.w3.org/2000/svg">
<g clip-path="url(#clip0_4_212)">
<path d="M273.895 377.759H197.642V401.696H273.895V377.759Z" fill="#34316A"/>
<path d="M197.642 408.646V427.179C197.642 427.998 197.967 428.784 198.545 429.363C199.123 429.942 199.906 430.268 200.723 430.268H270.814C271.632 430.268 272.415 429.942 272.993 429.363C273.571 428.784 273.895 427.998 273.895 427.179V408.646H197.642Z" fill="#1A1A2C"/>
<path d="M235.384 393.975C236.66 393.975 237.694 392.937 237.694 391.658C237.694 390.379 236.66 389.341 235.384 389.341C234.108 389.341 233.073 390.379 233.073 391.658C233.073 392.937 234.108 393.975 235.384 393.975Z" fill="white"/>
<path d="M235.508 424.208C236.784 424.208 237.818 423.171 237.818 421.892C237.818 420.612 236.784 419.575 235.508 419.575C234.231 419.575 233.197 420.612 233.197 421.892C233.197 423.171 234.231 424.208 235.508 424.208Z" fill="white"/>
<path d="M420.481 432.779H430.494V367.915H420.481V432.779Z" fill="#3F3D56"/>
<path d="M391.983 432.426C391.983 433.511 407.156 432.846 425.873 432.846C444.59 432.846 459.763 433.511 459.763 432.426C459.763 431.341 444.59 422.74 425.873 422.74C407.156 422.74 391.983 431.341 391.983 432.426Z" fill="#3F3D56"/>
<path d="M401.022 424.824L391.58 424.823L387.087 400.269L401.023 400.27L401.022 424.824Z" fill="#FFB8B8"/>
<path d="M403.43 434L372.983 433.999V433.613C372.983 432.053 373.289 430.508 373.885 429.066C374.48 427.625 375.353 426.315 376.454 425.211C377.554 424.108 378.861 423.233 380.299 422.636C381.736 422.039 383.277 421.732 384.834 421.732H384.835L403.431 421.732L403.43 434Z" fill="#2F2E41"/>
<path d="M405.643 424.824L396.201 424.823L391.708 400.269L405.645 400.27L405.643 424.824Z" fill="#FFB8B8"/>
<path d="M408.052 434L377.604 433.999V433.613C377.604 432.053 377.911 430.508 378.506 429.066C379.102 427.625 379.975 426.315 381.075 425.211C382.176 424.108 383.482 423.233 384.92 422.636C386.358 422.039 387.899 421.732 389.455 421.732H389.456L408.052 421.732L408.052 434Z" fill="#2F2E41"/>
<path d="M100.783 392.675C100.519 389.609 99.4216 386.675 97.6095 384.192C95.7974 381.709 93.3405 379.772 90.5063 378.592V370.561H77.0697V378.845C74.3749 380.083 72.0558 382.015 70.3488 384.445C68.6417 386.874 67.6077 389.714 67.3523 392.675L64.1928 429.495H103.943L100.783 392.675Z" fill="#1A1A2C"/>
</g>
<path d="M480.626 296.368H167.912C166.585 296.368 165.311 296.897 164.372 297.838C163.433 298.78 162.906 300.056 162.906 301.388C162.906 302.719 163.433 303.995 164.372 304.937C165.311 305.878 166.585 306.407 167.912 306.407H176.77V426.482C176.77 427.814 177.298 429.09 178.237 430.032C179.175 430.973 180.449 431.502 181.777 431.502C183.104 431.502 184.378 430.973 185.317 430.032C186.256 429.09 186.783 427.814 186.783 426.482L186.859 306.407H460.985V426.482C460.985 427.814 461.513 429.09 462.452 430.032C463.391 430.973 464.664 431.502 465.992 431.502C467.32 431.502 468.593 430.973 469.532 430.032C470.471 429.09 470.998 427.814 470.998 426.482V309.053L472.455 306.407H480.626C481.954 306.407 483.228 305.878 484.166 304.937C485.105 303.995 485.633 302.719 485.633 301.388C485.633 300.056 485.105 298.78 484.166 297.838C483.228 296.897 481.954 296.368 480.626 296.368Z" fill="#34316A"/>
<path d="M341.284 298.995H246.559C244.725 298.993 242.967 298.262 241.67 296.961C240.373 295.661 239.643 293.898 239.641 292.059V239.775C239.643 237.936 240.373 236.173 241.67 234.873C242.967 233.573 244.725 232.842 246.559 232.839H341.284C343.118 232.842 344.876 233.573 346.173 234.873C347.47 236.173 348.2 237.936 348.202 239.775V292.059C348.2 293.898 347.47 295.661 346.173 296.961C344.876 298.262 343.118 298.993 341.284 298.995Z" fill="#5A568B"/>
<path d="M341.283 238.177H246.56C246.137 238.178 245.732 238.347 245.433 238.647C245.135 238.946 244.966 239.352 244.965 239.776V292.061C244.966 292.484 245.135 292.891 245.433 293.19C245.732 293.49 246.137 293.658 246.56 293.659H341.283C341.706 293.658 342.111 293.49 342.409 293.19C342.708 292.891 342.876 292.484 342.877 292.061V239.776C342.876 239.352 342.708 238.946 342.409 238.647C342.111 238.347 341.706 238.178 341.283 238.177Z" fill="white"/>
<path d="M302 275.195C302 275.195 290.661 272.575 284.424 277.378C278.187 282.18 292.362 293.096 292.362 293.096L302 275.195Z" fill="#2F2E41"/>
<path d="M294.477 270.245C300.384 270.245 305.173 265.444 305.173 259.522C305.173 253.599 300.384 248.798 294.477 248.798C288.569 248.798 283.78 253.599 283.78 259.522C283.78 265.444 288.569 270.245 294.477 270.245Z" fill="#A0616A"/>
<path d="M286.206 244.469C286.919 243.255 287.953 242.262 289.193 241.601C290.434 240.939 291.833 240.634 293.235 240.719C294.702 240.903 296.134 241.305 297.483 241.911L304.476 244.646C306.285 245.353 308.267 246.22 309.052 248.001C309.781 249.654 309.237 251.563 308.686 253.284L306.07 261.464C305.781 259.612 305.283 257.8 304.588 256.06C303.881 254.309 302.604 252.849 300.964 251.918C299.148 250.984 297.007 251.003 294.968 251.102C292.081 251.241 288.941 251.609 286.889 253.651C285.8 254.811 285.062 256.257 284.76 257.821C284.463 259.376 284.313 260.956 284.313 262.54C283.129 260.499 282.132 258.355 281.333 256.134C280.676 254.481 280.302 252.728 280.226 250.949C280.157 249.156 280.751 247.4 281.893 246.017C282.473 245.342 283.229 244.842 284.077 244.575C284.925 244.307 285.831 244.282 286.692 244.503L286.206 244.469Z" fill="#2F2E41"/>
<path d="M320.017 284.493C319.916 284.131 319.711 283.807 319.428 283.561C319.144 283.315 318.794 283.159 318.422 283.111C318.398 283.094 318.372 283.079 318.345 283.065L302.377 274.093C301.921 273.837 301.385 273.767 300.878 273.898C300.372 274.028 299.936 274.35 299.66 274.795L295.293 281.883L288.715 275.289L288.61 275.184C288.273 274.846 287.827 274.637 287.351 274.596C286.876 274.554 286.401 274.681 286.01 274.956L272.886 284.169C272.863 284.169 272.84 284.177 272.817 284.177C272.189 284.282 271.615 284.598 271.191 285.074C270.767 285.55 270.517 286.157 270.483 286.795L270.144 293.659H322.551L320.017 284.493Z" fill="#5450A0"/>
<path d="M349.266 292.593H339.155C339.155 292.31 339.043 292.039 338.843 291.839C338.644 291.638 338.373 291.526 338.091 291.526H334.898C334.615 291.526 334.345 291.638 334.145 291.839C333.945 292.039 333.833 292.31 333.833 292.593H330.64C330.64 292.31 330.528 292.039 330.329 291.839C330.129 291.638 329.858 291.526 329.576 291.526H326.383C326.101 291.526 325.83 291.638 325.631 291.839C325.431 292.039 325.319 292.31 325.319 292.593H322.126C322.126 292.31 322.014 292.039 321.814 291.839C321.614 291.638 321.344 291.526 321.061 291.526H317.869C317.586 291.526 317.316 291.638 317.116 291.839C316.916 292.039 316.804 292.31 316.804 292.593H313.611C313.611 292.31 313.499 292.039 313.3 291.839C313.1 291.638 312.829 291.526 312.547 291.526H309.354C309.072 291.526 308.801 291.638 308.601 291.839C308.402 292.039 308.29 292.31 308.29 292.593H305.097C305.097 292.31 304.985 292.039 304.785 291.839C304.585 291.638 304.315 291.526 304.032 291.526H300.839C300.557 291.526 300.286 291.638 300.087 291.839C299.887 292.039 299.775 292.31 299.775 292.593H296.582C296.582 292.31 296.47 292.039 296.27 291.839C296.071 291.638 295.8 291.526 295.518 291.526H292.325C292.043 291.526 291.772 291.638 291.572 291.839C291.373 292.039 291.261 292.31 291.261 292.593H288.068C288.068 292.31 287.955 292.039 287.756 291.839C287.556 291.638 287.286 291.526 287.003 291.526H283.81C283.528 291.526 283.257 291.638 283.058 291.839C282.858 292.039 282.746 292.31 282.746 292.593H279.553C279.553 292.31 279.441 292.039 279.241 291.839C279.042 291.638 278.771 291.526 278.489 291.526H275.296C275.013 291.526 274.743 291.638 274.543 291.839C274.344 292.039 274.231 292.31 274.231 292.593H271.038C271.038 292.31 270.926 292.039 270.727 291.839C270.527 291.638 270.256 291.526 269.974 291.526H266.781C266.499 291.526 266.228 291.638 266.029 291.839C265.829 292.039 265.717 292.31 265.717 292.593H262.524C262.524 292.31 262.412 292.039 262.212 291.839C262.013 291.638 261.742 291.526 261.46 291.526H258.267C257.984 291.526 257.714 291.638 257.514 291.839C257.314 292.039 257.202 292.31 257.202 292.593H254.009C254.009 292.31 253.897 292.039 253.698 291.839C253.498 291.638 253.227 291.526 252.945 291.526H249.752C249.47 291.526 249.199 291.638 249 291.839C248.8 292.039 248.688 292.31 248.688 292.593H238.577C237.731 292.594 236.92 292.932 236.322 293.532C235.724 294.133 235.389 294.946 235.389 295.794C235.389 296.642 235.724 297.456 236.322 298.056C236.92 298.656 237.731 298.994 238.577 298.995H349.266C350.113 298.995 350.925 298.658 351.524 298.058C352.123 297.457 352.459 296.643 352.459 295.794C352.459 294.945 352.123 294.131 351.524 293.531C350.925 292.93 350.113 292.593 349.266 292.593Z" fill="#232334"/>
<path d="M222.117 274.003V295.259H169C167.577 295.308 166.159 295.07 164.829 294.558C163.5 294.047 162.287 293.272 161.263 292.28C160.239 291.288 159.424 290.1 158.868 288.786C158.311 287.472 158.024 286.059 158.024 284.631C158.024 283.203 158.311 281.79 158.868 280.476C159.424 279.162 160.239 277.974 161.263 276.982C162.287 275.99 163.5 275.215 164.829 274.704C166.159 274.192 167.577 273.954 169 274.003H222.117Z" fill="#F2F2F2"/>
<path d="M223.422 295.095C223.422 295.312 223.336 295.52 223.183 295.673C223.03 295.826 222.823 295.912 222.607 295.912H168.054C165.091 295.912 162.25 294.733 160.155 292.632C158.06 290.532 156.883 287.683 156.883 284.713C156.883 281.742 158.06 278.894 160.155 276.793C162.25 274.693 165.091 273.513 168.054 273.513H222.607C222.823 273.513 223.03 273.599 223.183 273.752C223.336 273.906 223.422 274.114 223.422 274.33C223.422 274.547 223.336 274.755 223.183 274.908C223.03 275.062 222.823 275.148 222.607 275.148H168.054C165.525 275.15 163.101 276.159 161.314 277.952C159.526 279.746 158.522 282.177 158.522 284.713C158.522 287.248 159.526 289.679 161.314 291.473C163.101 293.266 165.525 294.275 168.054 294.277H222.607C222.823 294.278 223.03 294.364 223.183 294.517C223.336 294.67 223.422 294.878 223.422 295.095Z" fill="#6C63FF"/>
<path d="M222.117 278.908H165.037C165.016 278.909 164.994 278.904 164.974 278.896C164.954 278.888 164.936 278.876 164.921 278.861C164.906 278.846 164.894 278.828 164.885 278.808C164.877 278.788 164.873 278.766 164.873 278.745C164.873 278.723 164.877 278.702 164.885 278.682C164.894 278.662 164.906 278.644 164.921 278.629C164.936 278.614 164.954 278.602 164.974 278.593C164.994 278.585 165.016 278.581 165.037 278.581H222.117C222.16 278.582 222.201 278.599 222.232 278.63C222.262 278.66 222.279 278.702 222.279 278.745C222.279 278.788 222.262 278.829 222.232 278.86C222.201 278.891 222.16 278.908 222.117 278.908Z" fill="#CCCCCC"/>
<path d="M222.117 282.832H165.037C165.016 282.833 164.994 282.828 164.974 282.82C164.954 282.812 164.936 282.8 164.921 282.785C164.906 282.77 164.894 282.752 164.885 282.732C164.877 282.712 164.873 282.69 164.873 282.669C164.873 282.647 164.877 282.626 164.885 282.606C164.894 282.586 164.906 282.568 164.921 282.553C164.936 282.538 164.954 282.526 164.974 282.518C164.994 282.509 165.016 282.505 165.037 282.505H222.117C222.16 282.506 222.201 282.523 222.232 282.554C222.262 282.584 222.279 282.626 222.279 282.669C222.279 282.712 222.262 282.754 222.232 282.784C222.201 282.815 222.16 282.832 222.117 282.832Z" fill="#CCCCCC"/>
<path d="M222.117 286.756H165.037C165.016 286.757 164.994 286.752 164.974 286.744C164.954 286.736 164.936 286.724 164.921 286.709C164.906 286.694 164.894 286.676 164.885 286.656C164.877 286.636 164.873 286.615 164.873 286.593C164.873 286.571 164.877 286.55 164.885 286.53C164.894 286.51 164.906 286.492 164.921 286.477C164.936 286.462 164.954 286.45 164.974 286.442C164.994 286.433 165.016 286.429 165.037 286.429H222.117C222.16 286.43 222.201 286.447 222.232 286.478C222.262 286.508 222.279 286.55 222.279 286.593C222.279 286.636 222.262 286.678 222.232 286.708C222.201 286.739 222.16 286.756 222.117 286.756Z" fill="#CCCCCC"/>
<path d="M222.117 290.68H165.037C165.016 290.681 164.994 290.676 164.974 290.668C164.954 290.66 164.936 290.648 164.921 290.633C164.906 290.618 164.894 290.6 164.885 290.58C164.877 290.56 164.873 290.538 164.873 290.517C164.873 290.495 164.877 290.474 164.885 290.454C164.894 290.434 164.906 290.416 164.921 290.401C164.936 290.386 164.954 290.374 164.974 290.366C164.994 290.357 165.016 290.353 165.037 290.353H222.117C222.16 290.354 222.201 290.371 222.232 290.402C222.262 290.432 222.279 290.474 222.279 290.517C222.279 290.56 222.262 290.601 222.232 290.632C222.201 290.663 222.16 290.68 222.117 290.68Z" fill="#CCCCCC"/>
<path d="M212.104 251.61V272.865H158.987C157.564 272.915 156.146 272.676 154.816 272.165C153.487 271.653 152.274 270.878 151.25 269.886C150.226 268.895 149.411 267.706 148.855 266.392C148.298 265.078 148.011 263.665 148.011 262.237C148.011 260.81 148.298 259.397 148.855 258.083C149.411 256.769 150.226 255.58 151.25 254.588C152.274 253.597 153.487 252.822 154.816 252.31C156.146 251.798 157.564 251.56 158.987 251.61H212.104Z" fill="#F2F2F2"/>
<path d="M213.409 272.701C213.409 272.918 213.323 273.126 213.17 273.279C213.017 273.433 212.81 273.519 212.594 273.519H158.041C156.574 273.519 155.122 273.229 153.766 272.666C152.411 272.104 151.179 271.279 150.142 270.239C149.105 269.199 148.282 267.964 147.72 266.605C147.159 265.246 146.87 263.79 146.87 262.319C146.87 260.848 147.159 259.392 147.72 258.033C148.282 256.674 149.105 255.44 150.142 254.4C151.179 253.36 152.411 252.535 153.766 251.972C155.122 251.409 156.574 251.119 158.041 251.119H212.594C212.81 251.119 213.017 251.206 213.17 251.359C213.323 251.512 213.409 251.72 213.409 251.937C213.409 252.154 213.323 252.362 213.17 252.515C213.017 252.668 212.81 252.754 212.594 252.754H158.041C155.512 252.757 153.088 253.765 151.301 255.559C149.513 257.352 148.509 259.784 148.509 262.319C148.509 264.854 149.513 267.286 151.301 269.079C153.088 270.873 155.512 271.882 158.041 271.884H212.594C212.81 271.884 213.017 271.97 213.17 272.124C213.323 272.277 213.409 272.485 213.409 272.701Z" fill="#3F3D56"/>
<path d="M212.104 256.515H155.024C155.003 256.515 154.981 256.511 154.961 256.503C154.942 256.495 154.923 256.483 154.908 256.467C154.893 256.452 154.881 256.434 154.872 256.414C154.864 256.394 154.86 256.373 154.86 256.351C154.86 256.33 154.864 256.308 154.872 256.289C154.881 256.269 154.893 256.251 154.908 256.235C154.923 256.22 154.942 256.208 154.961 256.2C154.981 256.192 155.003 256.188 155.024 256.188H212.104C212.147 256.188 212.189 256.206 212.219 256.236C212.249 256.267 212.266 256.308 212.266 256.351C212.266 256.395 212.249 256.436 212.219 256.467C212.189 256.497 212.147 256.515 212.104 256.515Z" fill="#CCCCCC"/>
<path d="M212.104 260.439H155.024C155.003 260.439 154.981 260.435 154.961 260.427C154.942 260.419 154.923 260.407 154.908 260.391C154.893 260.376 154.881 260.358 154.872 260.338C154.864 260.318 154.86 260.297 154.86 260.275C154.86 260.254 154.864 260.232 154.872 260.213C154.881 260.193 154.893 260.175 154.908 260.159C154.923 260.144 154.942 260.132 154.961 260.124C154.981 260.116 155.003 260.112 155.024 260.112H212.104C212.147 260.112 212.189 260.13 212.219 260.16C212.249 260.191 212.266 260.232 212.266 260.275C212.266 260.319 212.249 260.36 212.219 260.391C212.189 260.421 212.147 260.439 212.104 260.439Z" fill="#CCCCCC"/>
<path d="M212.104 264.363H155.024C155.003 264.363 154.981 264.359 154.961 264.351C154.942 264.343 154.923 264.331 154.908 264.315C154.893 264.3 154.881 264.282 154.872 264.262C154.864 264.242 154.86 264.221 154.86 264.199C154.86 264.178 154.864 264.156 154.872 264.137C154.881 264.117 154.893 264.099 154.908 264.083C154.923 264.068 154.942 264.056 154.961 264.048C154.981 264.04 155.003 264.036 155.024 264.036H212.104C212.147 264.036 212.189 264.054 212.219 264.084C212.249 264.115 212.266 264.156 212.266 264.199C212.266 264.243 212.249 264.284 212.219 264.315C212.189 264.345 212.147 264.363 212.104 264.363Z" fill="#CCCCCC"/>
<path d="M212.104 268.287H155.024C155.003 268.287 154.981 268.283 154.961 268.275C154.942 268.267 154.923 268.255 154.908 268.239C154.893 268.224 154.881 268.206 154.872 268.186C154.864 268.166 154.86 268.145 154.86 268.123C154.86 268.102 154.864 268.08 154.872 268.061C154.881 268.041 154.893 268.023 154.908 268.007C154.923 267.992 154.942 267.98 154.961 267.972C154.981 267.964 155.003 267.96 155.024 267.96H212.104C212.147 267.96 212.189 267.978 212.219 268.008C212.249 268.039 212.266 268.08 212.266 268.123C212.266 268.167 212.249 268.208 212.219 268.239C212.189 268.269 212.147 268.287 212.104 268.287Z" fill="#CCCCCC"/>
<path d="M273.895 370.809V352.276C273.895 351.457 273.571 350.671 272.993 350.092C272.415 349.513 271.632 349.188 270.814 349.188H200.723C199.906 349.188 199.123 349.513 198.545 350.092C197.967 350.671 197.642 351.457 197.642 352.276V370.809H273.895Z" fill="#1A1A2C"/>
<path d="M235.384 363.087C236.66 363.087 237.694 362.05 237.694 360.77C237.694 359.491 236.66 358.454 235.384 358.454C234.108 358.454 233.073 359.491 233.073 360.77C233.073 362.05 234.108 363.087 235.384 363.087Z" fill="white"/>
<path d="M265.25 328.057V349.312H212.133C210.71 349.362 209.292 349.123 207.962 348.612C206.633 348.1 205.42 347.325 204.396 346.333C203.371 345.342 202.557 344.153 202.001 342.839C201.444 341.525 201.157 340.112 201.157 338.684C201.157 337.257 201.444 335.844 202.001 334.53C202.557 333.215 203.371 332.027 204.396 331.035C205.42 330.044 206.633 329.269 207.962 328.757C209.292 328.245 210.71 328.007 212.133 328.057H265.25Z" fill="#F2F2F2"/>
<path d="M266.555 349.148C266.555 349.365 266.469 349.573 266.316 349.726C266.163 349.88 265.956 349.966 265.739 349.966H211.187C209.719 349.967 208.266 349.678 206.909 349.116C205.553 348.554 204.32 347.729 203.282 346.689C202.244 345.649 201.42 344.414 200.858 343.054C200.296 341.695 200.007 340.238 200.007 338.766C200.007 337.294 200.296 335.837 200.858 334.478C201.42 333.118 202.244 331.883 203.282 330.843C204.32 329.803 205.553 328.978 206.909 328.416C208.266 327.854 209.719 327.565 211.187 327.566H265.739C265.956 327.566 266.163 327.652 266.316 327.806C266.469 327.959 266.555 328.167 266.555 328.384C266.555 328.6 266.469 328.808 266.316 328.962C266.163 329.115 265.956 329.201 265.739 329.201H211.187C208.658 329.203 206.234 330.212 204.447 332.006C202.659 333.799 201.655 336.231 201.655 338.766C201.655 341.301 202.659 343.733 204.447 345.526C206.234 347.32 208.658 348.328 211.187 348.331H265.739C265.956 348.331 266.163 348.417 266.316 348.57C266.469 348.724 266.555 348.931 266.555 349.148Z" fill="#3F3D56"/>
<path d="M265.25 332.962H208.17C208.149 332.962 208.127 332.958 208.107 332.95C208.087 332.941 208.069 332.929 208.054 332.914C208.039 332.899 208.027 332.881 208.018 332.861C208.01 332.841 208.006 332.82 208.006 332.798C208.006 332.777 208.01 332.755 208.018 332.735C208.027 332.715 208.039 332.697 208.054 332.682C208.069 332.667 208.087 332.655 208.107 332.647C208.127 332.639 208.149 332.635 208.17 332.635H265.25C265.293 332.635 265.334 332.652 265.365 332.683C265.395 332.714 265.412 332.755 265.412 332.798C265.412 332.841 265.395 332.883 265.365 332.913C265.334 332.944 265.293 332.961 265.25 332.962Z" fill="#CCCCCC"/>
<path d="M265.25 336.886H208.17C208.149 336.886 208.127 336.882 208.107 336.874C208.087 336.865 208.069 336.853 208.054 336.838C208.039 336.823 208.027 336.805 208.018 336.785C208.01 336.765 208.006 336.744 208.006 336.722C208.006 336.701 208.01 336.679 208.018 336.659C208.027 336.639 208.039 336.621 208.054 336.606C208.069 336.591 208.087 336.579 208.107 336.571C208.127 336.563 208.149 336.559 208.17 336.559H265.25C265.293 336.559 265.334 336.576 265.365 336.607C265.395 336.638 265.412 336.679 265.412 336.722C265.412 336.765 265.395 336.807 265.365 336.837C265.334 336.868 265.293 336.885 265.25 336.886Z" fill="#CCCCCC"/>
<path d="M265.25 340.81H208.17C208.149 340.81 208.127 340.806 208.107 340.798C208.087 340.79 208.069 340.777 208.054 340.762C208.039 340.747 208.027 340.729 208.018 340.709C208.01 340.689 208.006 340.668 208.006 340.646C208.006 340.625 208.01 340.603 208.018 340.583C208.027 340.564 208.039 340.545 208.054 340.53C208.069 340.515 208.087 340.503 208.107 340.495C208.127 340.487 208.149 340.483 208.17 340.483H265.25C265.293 340.483 265.334 340.5 265.365 340.531C265.395 340.562 265.412 340.603 265.412 340.646C265.412 340.689 265.395 340.731 265.365 340.762C265.334 340.792 265.293 340.809 265.25 340.81Z" fill="#CCCCCC"/>
<path d="M265.25 344.734H208.17C208.149 344.734 208.127 344.73 208.107 344.722C208.087 344.713 208.069 344.701 208.054 344.686C208.039 344.671 208.027 344.653 208.018 344.633C208.01 344.613 208.006 344.592 208.006 344.57C208.006 344.549 208.01 344.527 208.018 344.507C208.027 344.488 208.039 344.469 208.054 344.454C208.069 344.439 208.087 344.427 208.107 344.419C208.127 344.411 208.149 344.407 208.17 344.407H265.25C265.293 344.407 265.334 344.424 265.365 344.455C265.395 344.486 265.412 344.527 265.412 344.57C265.412 344.613 265.395 344.655 265.365 344.685C265.334 344.716 265.293 344.733 265.25 344.734Z" fill="#CCCCCC"/>
<path d="M193.643 189.327V53.808C193.645 52.2681 194.255 50.7919 195.342 49.7031C196.428 48.6142 197.9 48.0018 199.436 48H306.289C307.825 48.0018 309.298 48.6142 310.384 49.7031C311.47 50.7919 312.081 52.2682 312.082 53.808V189.327C312.081 190.867 311.47 192.343 310.384 193.432C309.298 194.521 307.825 195.134 306.289 195.135H199.436C197.9 195.134 196.428 194.521 195.342 193.432C194.255 192.343 193.645 190.867 193.643 189.327ZM199.436 49.2907C198.241 49.292 197.096 49.7684 196.251 50.6152C195.407 51.4621 194.932 52.6103 194.93 53.808V189.327C194.932 190.525 195.407 191.673 196.251 192.52C197.096 193.367 198.241 193.843 199.436 193.845H306.289C307.484 193.843 308.629 193.367 309.474 192.52C310.318 191.673 310.794 190.525 310.795 189.327V53.808C310.794 52.6103 310.318 51.4621 309.474 50.6152C308.629 49.7684 307.484 49.292 306.289 49.2907H199.436Z" fill="#E6E6E6"/>
<path d="M441 88.7304V60.904C441.001 60.1341 441.306 59.3959 441.849 58.8515C442.392 58.3071 443.129 58.0009 443.897 58H467.417C468.185 58.0009 468.921 58.3071 469.464 58.8515C470.007 59.3959 470.313 60.1341 470.314 60.904V88.7304C470.313 89.5003 470.007 90.2385 469.464 90.7829C468.921 91.3273 468.185 91.6335 467.417 91.6344H443.897C443.129 91.6335 442.392 91.3273 441.849 90.7829C441.306 90.2385 441.001 89.5003 441 88.7304Z" fill="#353555"/>
<path d="M379 118.73V90.904C379.001 90.1341 379.306 89.3959 379.849 88.8515C380.392 88.3071 381.129 88.0009 381.897 88H405.417C406.185 88.0009 406.921 88.3071 407.464 88.8515C408.008 89.3959 408.313 90.1341 408.314 90.904V118.73C408.313 119.5 408.008 120.238 407.464 120.783C406.921 121.327 406.185 121.634 405.417 121.634H381.897C381.129 121.634 380.392 121.327 379.849 120.783C379.306 120.238 379.001 119.5 379 118.73Z" fill="#222233"/>
<path d="M445 163.73V135.904C445.001 135.134 445.306 134.396 445.849 133.851C446.392 133.307 447.129 133.001 447.897 133H471.417C472.185 133.001 472.921 133.307 473.464 133.851C474.007 134.396 474.313 135.134 474.314 135.904V163.73C474.313 164.5 474.007 165.238 473.464 165.783C472.921 166.327 472.185 166.634 471.417 166.634H447.897C447.129 166.634 446.392 166.327 445.849 165.783C445.306 165.238 445.001 164.5 445 163.73Z" fill="#5450A0"/>
<path d="M390.4 289.729H366.2C365.97 289.729 365.743 289.782 365.537 289.883L359.429 292.949C359.228 293.035 359.057 293.178 358.936 293.36C358.816 293.543 358.752 293.757 358.752 293.976C358.752 294.195 358.816 294.409 358.936 294.592C359.057 294.774 359.228 294.917 359.429 295.003L365.537 298.069C365.743 298.17 365.97 298.223 366.2 298.223H390.4C390.734 298.242 391.062 298.129 391.312 297.908C391.563 297.687 391.717 297.376 391.741 297.041V290.91C391.717 290.576 391.563 290.265 391.312 290.044C391.062 289.823 390.734 289.71 390.4 289.729Z" fill="#3F3D56"/>
<path d="M391.741 290.91V297.041C391.717 297.376 391.563 297.687 391.312 297.908C391.062 298.129 390.734 298.242 390.4 298.223H385.579V289.729H390.4C390.734 289.709 391.062 289.823 391.312 290.044C391.563 290.265 391.717 290.576 391.741 290.91Z" fill="#6C63FF"/>
<path d="M390.218 243.861C391.314 243.386 392.498 243.15 393.692 243.166C394.886 243.182 396.063 243.451 397.145 243.956C398.228 244.46 399.193 245.187 399.975 246.091C400.758 246.995 401.341 248.054 401.687 249.2C401.795 249.563 401.877 249.933 401.934 250.308L435.776 267.133L443.608 261.929L453.353 273.176L441.395 282.914C439.957 284.075 438.183 284.741 436.338 284.813C434.492 284.884 432.673 284.357 431.15 283.31L396.813 259.505C396.558 259.613 396.297 259.709 396.032 259.79C394.889 260.137 393.686 260.237 392.501 260.085C391.317 259.933 390.178 259.532 389.159 258.908C388.14 258.284 387.265 257.451 386.589 256.464C385.914 255.477 385.454 254.357 385.24 253.18C385.177 252.838 385.135 252.493 385.115 252.145C385.02 250.407 385.458 248.682 386.37 247.2C387.283 245.719 388.625 244.554 390.218 243.861Z" fill="#FFB8B8"/>
<path d="M460.706 347.449H423.727C423.727 348.515 385.616 349.379 385.616 349.379C385.018 349.831 384.473 350.349 383.991 350.924C382.543 352.655 381.752 354.843 381.757 357.101V358.646C381.758 361.205 382.773 363.66 384.578 365.47C386.383 367.28 388.832 368.297 391.385 368.298H460.706C463.258 368.296 465.706 367.278 467.511 365.469C469.316 363.659 470.331 361.205 470.334 358.646V357.101C470.33 354.542 469.314 352.089 467.51 350.28C465.705 348.471 463.258 347.453 460.706 347.449Z" fill="#3F3D56"/>
<path d="M386.899 409.597L368.073 367.276C366.502 363.708 366.328 359.679 367.587 355.989C368.845 352.299 371.444 349.22 374.866 347.365L415.698 325.414L434.331 323.825L451.519 322.258L451.643 322.469C451.801 322.737 455.497 329.137 452.999 336.153C451.104 341.476 446.175 345.633 438.35 348.51C420.084 355.224 398.984 360.963 390.76 363.118C390.396 363.211 390.057 363.381 389.763 363.615C389.47 363.849 389.229 364.143 389.057 364.477C388.884 364.807 388.782 365.17 388.756 365.542C388.73 365.914 388.781 366.287 388.906 366.638L406.395 406.031C406.578 406.531 406.643 407.066 406.587 407.595C406.531 408.124 406.354 408.633 406.071 409.083C405.787 409.533 405.405 409.912 404.952 410.19C404.5 410.468 403.989 410.638 403.461 410.687L390.393 411.641C390.282 411.652 390.171 411.657 390.061 411.657C389.392 411.657 388.737 411.462 388.176 411.097C387.615 410.731 387.171 410.21 386.899 409.597Z" fill="#2F2E41"/>
<path d="M392.29 411.914L373.465 369.592C371.893 366.025 371.72 361.995 372.978 358.306C374.237 354.616 376.836 351.537 380.257 349.682L421.09 327.73L439.723 326.141L456.91 324.575L457.034 324.785C457.193 325.054 460.888 331.453 458.39 338.47C456.495 343.792 451.567 347.95 443.741 350.827C425.476 357.541 404.376 363.28 396.152 365.435C395.788 365.528 395.448 365.697 395.155 365.931C394.861 366.166 394.621 366.46 394.448 366.794C394.276 367.124 394.173 367.487 394.147 367.858C394.121 368.23 394.172 368.604 394.297 368.955L411.787 408.348C411.969 408.848 412.035 409.383 411.979 409.912C411.923 410.441 411.746 410.95 411.462 411.4C411.179 411.85 410.796 412.228 410.344 412.506C409.891 412.784 409.381 412.955 408.852 413.004L395.784 413.958C395.673 413.968 395.563 413.974 395.453 413.974C394.784 413.973 394.129 413.779 393.568 413.413C393.006 413.048 392.563 412.527 392.29 411.914Z" fill="#2F2E41"/>
<path d="M382.907 282.626C374.997 272.076 368.743 260.376 364.364 247.93C364.11 247.185 364.128 246.375 364.415 245.642C364.701 244.91 365.238 244.303 365.929 243.93L392.999 229.389C393.436 229.152 393.923 229.018 394.42 228.998C394.917 228.977 395.412 229.071 395.868 229.272C396.332 229.474 396.744 229.78 397.073 230.166C397.401 230.552 397.638 231.008 397.764 231.499C400.915 243.492 406.837 254.574 415.052 263.847C415.39 264.224 415.638 264.674 415.777 265.162C415.915 265.65 415.941 266.163 415.852 266.662C415.766 267.154 415.57 267.619 415.277 268.023C414.985 268.427 414.605 268.759 414.166 268.993L387.096 283.535C386.403 283.905 385.602 284.017 384.835 283.85C384.068 283.684 383.385 283.25 382.907 282.626Z" fill="#CCCCCC"/>
<path d="M384.754 281.234C384.9 281.416 385.105 281.542 385.333 281.589C385.561 281.636 385.798 281.602 386.004 281.493L413.074 266.951C413.205 266.882 413.319 266.784 413.406 266.664C413.494 266.544 413.552 266.405 413.577 266.258C413.605 266.103 413.597 265.944 413.554 265.793C413.51 265.642 413.432 265.503 413.326 265.387C404.869 255.841 398.772 244.433 395.529 232.086C395.491 231.934 395.419 231.792 395.318 231.672C395.216 231.552 395.089 231.458 394.945 231.395C394.809 231.335 394.661 231.306 394.513 231.312C394.365 231.318 394.22 231.359 394.09 231.431L367.02 245.972C366.815 246.083 366.655 246.263 366.568 246.48C366.481 246.696 366.472 246.937 366.543 247.159C370.844 259.382 376.985 270.874 384.754 281.234Z" fill="white"/>
<path d="M472.838 278.747L451.638 286.823L446.462 272.409C445.774 270.495 445.784 268.399 446.489 266.492C447.194 264.584 448.549 262.988 450.314 261.985C452.1 260.97 454.189 260.629 456.204 261.024C458.218 261.418 460.026 262.522 461.3 264.135L472.838 278.747Z" fill="#6C63FF"/>
<path d="M418.914 335.858C418.468 335.541 418.094 335.133 417.817 334.661C417.541 334.188 417.368 333.662 417.309 333.117C414.594 307.705 416.485 287.818 423.091 272.319C424.254 269.646 426.007 267.272 428.217 265.376C430.427 263.479 433.037 262.11 435.851 261.37L452.988 260.503L453.077 260.546C456.944 262.444 460.098 265.542 462.071 269.38C464.043 273.217 464.73 277.59 464.029 281.849C458.517 296.415 453.902 311.581 457.422 323.815C457.569 324.326 457.612 324.862 457.548 325.391C457.484 325.919 457.314 326.429 457.049 326.891C456.792 327.336 456.446 327.724 456.033 328.031C455.62 328.338 455.149 328.556 454.649 328.674L422.008 336.458C421.479 336.584 420.93 336.596 420.396 336.492C419.863 336.389 419.358 336.173 418.914 335.858Z" fill="#5450A0"/>
<path d="M447.269 254.085C457.717 254.085 466.187 245.594 466.187 235.12C466.187 224.645 457.717 216.154 447.269 216.154C436.821 216.154 428.351 224.645 428.351 235.12C428.351 245.594 436.821 254.085 447.269 254.085Z" fill="#FFB8B8"/>
<path d="M394.776 250.141L380.032 256.666C379.471 256.913 378.836 256.927 378.264 256.706C377.693 256.484 377.233 256.044 376.985 255.482L376.62 254.654C376.374 254.092 376.359 253.454 376.581 252.882C376.802 252.309 377.241 251.848 377.801 251.599L392.545 245.074C393.105 244.827 393.741 244.813 394.312 245.035C394.884 245.256 395.344 245.697 395.592 246.258L395.956 247.086C396.203 247.648 396.217 248.286 395.996 248.858C395.775 249.431 395.336 249.892 394.776 250.141Z" fill="#CCCCCC"/>
<path d="M400.167 260.18L385.424 266.704C384.863 266.952 384.227 266.966 383.656 266.744C383.085 266.522 382.625 266.082 382.377 265.52L382.012 264.692C381.765 264.13 381.751 263.493 381.972 262.92C382.194 262.347 382.633 261.886 383.193 261.638L397.936 255.113C398.497 254.865 399.133 254.851 399.704 255.073C400.275 255.295 400.735 255.735 400.983 256.297L401.348 257.125C401.595 257.687 401.609 258.324 401.388 258.897C401.166 259.47 400.727 259.931 400.167 260.18Z" fill="#CCCCCC"/>
<path d="M411.537 299.389L378.668 273.393C378.406 273.485 378.14 273.564 377.87 273.629C376.71 273.901 375.506 273.925 374.335 273.7C373.165 273.475 372.056 273.006 371.078 272.323C370.094 271.639 369.267 270.753 368.653 269.723C368.038 268.693 367.65 267.543 367.515 266.351C367.294 264.445 367.723 262.52 368.731 260.889C369.739 259.257 371.267 258.015 373.067 257.364C374.191 256.96 375.387 256.798 376.578 256.89C377.768 256.982 378.926 257.324 379.975 257.896C381.024 258.467 381.941 259.254 382.665 260.206C383.39 261.157 383.905 262.251 384.179 263.416C384.264 263.785 384.323 264.16 384.355 264.537L417.076 283.462L425.218 278.762L434.239 290.601L421.596 299.635C420.116 300.684 418.338 301.226 416.526 301.182C414.714 301.138 412.964 300.509 411.537 299.389Z" fill="#FFB8B8"/>
<path d="M438.249 294.288L419.495 281.503L428.309 268.988C429.479 267.326 431.198 266.132 433.161 265.618C435.124 265.104 437.206 265.302 439.037 266.177C440.89 267.062 442.366 268.583 443.199 270.464C444.031 272.345 444.166 274.462 443.577 276.434L438.249 294.288Z" fill="#6C63FF"/>
<path d="M440.333 232.295C435.471 235.631 429.087 239.061 424.121 235.508C420.86 233.175 419.832 228.855 421.155 225.064C423.533 218.247 430.066 215.245 436.313 212.945C444.435 209.954 453.278 207.575 461.662 209.717C470.047 211.858 477.457 219.997 475.943 228.537C474.726 235.405 468.264 241.12 469.181 248.035C470.104 254.994 477.911 258.657 484.803 259.9C491.694 261.144 499.406 261.544 504.359 266.507C510.678 272.838 509.1 284.154 503.155 290.838C497.209 297.522 488.238 300.552 479.544 302.612C468.026 305.341 455.567 306.775 444.628 302.246C433.688 297.717 425.175 285.525 428.344 274.092C429.683 269.263 432.836 265.182 435.884 261.209C438.931 257.236 442.017 253.081 443.18 248.206C444.148 244.144 443.431 239.427 440.744 236.38C440.256 235.847 439.948 235.172 439.866 234.452C439.783 233.733 439.931 233.005 440.286 232.375L440.333 232.295Z" fill="#2F2E41"/>
<path d="M85.0108 324.443C80.1361 326.161 74.9022 326.591 69.8135 325.692C64.7247 324.794 59.9526 322.596 55.9568 319.312C45.7805 310.749 42.59 296.642 39.9939 283.579C37.4344 270.7 34.8748 257.821 32.3153 244.942L48.3913 256.039C59.9522 264.02 71.7735 272.256 79.7782 283.816C87.783 295.375 91.277 311.155 84.8455 323.663" fill="#1A1A2C"/>
<path d="M83.6366 371.221C85.2637 359.339 86.9368 347.304 85.7955 335.295C84.7819 324.629 81.5362 314.212 74.9285 305.67C71.421 301.145 67.1532 297.268 62.3168 294.213C61.0556 293.415 59.8949 295.419 61.1506 296.213C69.5189 301.516 75.9915 309.345 79.6352 318.573C83.6596 328.835 84.3058 340.022 83.6124 350.923C83.193 357.515 82.3041 364.064 81.4084 370.605C81.3378 370.901 81.3819 371.213 81.5317 371.477C81.6815 371.742 81.9258 371.939 82.2154 372.03C82.5108 372.11 82.8257 372.07 83.0918 371.918C83.3578 371.767 83.5536 371.516 83.6366 371.221Z" fill="#232334"/>
<path d="M67.9647 350.196C65.874 353.381 63.0002 355.973 59.6202 357.722C56.2402 359.471 52.4679 360.318 48.6667 360.181C38.8978 359.716 30.7536 352.881 23.4223 346.391L1.73773 327.197L16.0893 326.508C26.4101 326.013 36.9972 325.551 46.8274 328.742C56.6576 331.933 65.7235 339.612 67.521 349.813" fill="#1A1A2C"/>
<path d="M88.2349 378.052C80.4034 364.159 71.3196 348.719 55.0882 343.784C50.5751 342.417 45.8429 341.927 41.1462 342.341C39.666 342.469 40.0356 344.756 41.5132 344.629C49.3857 343.973 57.2431 346.057 63.7624 350.53C70.0359 354.811 74.9205 360.763 79.0547 367.074C81.5871 370.94 83.8554 374.97 86.1242 378.995C86.8492 380.281 88.9685 379.353 88.2349 378.052Z" fill="#232334"/>
<g clip-path="url(#clip1_4_212)">
<path d="M240.738 121.257C240.772 150.088 229.649 177.81 209.707 198.595C208.504 199.857 207.27 201.087 206.002 202.288C204.072 204.128 202.076 205.896 200.016 207.594C180.742 223.503 156.681 232.443 131.713 232.972C130.882 232.991 130.047 233 129.208 233C109.297 233 84.2521 222.344 61.5243 207.594C59.644 206.373 57.7803 205.125 55.9335 203.848C55.0702 203.257 54.2111 202.657 53.3562 202.049C44.5904 195.847 36.2699 189.037 28.4561 181.668C23.3401 176.858 18.5427 171.718 14.0943 166.282C-3.36898 144.701 -7.22076 125.254 17.6762 121.257C20.6239 120.785 23.4847 120.281 26.2587 119.744C30.2769 118.97 34.1224 118.135 37.7952 117.237C42.7426 116.033 47.3907 114.727 51.7395 113.319C53.2024 112.847 54.6318 112.366 56.0276 111.875C76.6647 104.613 90.4771 95.143 99.879 84.8678C101.474 83.1286 102.944 81.3683 104.29 79.5872C106.348 76.876 108.219 74.0261 109.887 71.0576C112.189 66.9331 114.123 62.6127 115.666 58.1469L115.751 57.9015C123.231 36.282 120.955 16.2287 129.208 9.51697C164.487 -19.176 208.407 21.6855 229.022 69.8719C230.061 72.2999 231.039 74.7426 231.954 77.2C232.365 78.2977 232.762 79.3974 233.144 80.4993C234.148 83.3707 235.06 86.2496 235.878 89.1358C236.192 90.2366 236.491 91.3363 236.776 92.435C237.08 93.6207 237.372 94.8033 237.642 95.9858C239.648 104.644 240.738 113.183 240.738 121.257Z" fill="#3F3F6B"/>
<path d="M131.713 232.972C130.882 232.991 130.047 233 129.208 233C109.297 233 84.2521 222.344 61.5243 207.594C59.644 206.373 57.7803 205.125 55.9334 203.848L57.5533 193.972L106.591 187.449L131.202 206.304L131.713 232.972Z" fill="#2F2E41"/>
<path d="M134.074 56.6278H127.086C126.87 56.6279 126.662 56.7141 126.509 56.8674C126.356 57.0207 126.27 57.2287 126.27 57.4455V64.4497C126.27 64.5569 126.291 64.663 126.333 64.762C126.374 64.861 126.434 64.9509 126.51 65.0266C126.585 65.1022 126.675 65.1622 126.774 65.203C126.873 65.2437 126.979 65.2646 127.086 65.2643H134.074C134.29 65.2644 134.497 65.1787 134.65 65.026C134.803 64.8733 134.89 64.666 134.89 64.4497V57.4455C134.89 57.2288 134.804 57.0212 134.651 56.868C134.498 56.7148 134.29 56.6284 134.074 56.6278Z" fill="white"/>
<path d="M134.074 68.5635H127.086C126.87 68.5636 126.662 68.6498 126.509 68.8032C126.356 68.9565 126.27 69.1644 126.27 69.3813V76.3855C126.27 76.4927 126.291 76.5988 126.333 76.6978C126.374 76.7968 126.434 76.8867 126.51 76.9623C126.585 77.038 126.675 77.0979 126.774 77.1387C126.873 77.1795 126.979 77.2003 127.086 77.2H134.074C134.29 77.2001 134.497 77.1144 134.65 76.9617C134.803 76.8091 134.89 76.6018 134.89 76.3855V69.3813C134.89 69.1646 134.804 68.9569 134.651 68.8037C134.498 68.6505 134.29 68.5642 134.074 68.5635Z" fill="#E6E6E6"/>
<path d="M134.074 80.4993H127.086C126.87 80.4994 126.662 80.5856 126.509 80.7389C126.356 80.8923 126.27 81.1002 126.27 81.317V88.3181C126.27 88.4255 126.291 88.5319 126.332 88.6312C126.373 88.7305 126.433 88.8208 126.509 88.8968C126.585 88.9727 126.675 89.0329 126.774 89.074C126.873 89.115 126.979 89.136 127.086 89.1358H134.074C134.291 89.1357 134.498 89.0495 134.651 88.8962C134.804 88.7429 134.89 88.5349 134.89 88.3181V81.317C134.89 81.1003 134.804 80.8927 134.651 80.7395C134.498 80.5863 134.29 80.4999 134.074 80.4993Z" fill="#E6E6E6"/>
<path d="M134.878 93.1081C134.843 92.9197 134.744 92.7495 134.597 92.6266C134.45 92.5037 134.265 92.436 134.074 92.435H127.086C126.87 92.4351 126.662 92.5213 126.509 92.6746C126.356 92.828 126.27 93.0359 126.27 93.2528V100.254C126.27 100.361 126.291 100.468 126.332 100.567C126.373 100.666 126.433 100.757 126.509 100.832C126.585 100.908 126.675 100.969 126.774 101.01C126.873 101.051 126.979 101.072 127.086 101.072H134.074C134.291 101.071 134.498 100.985 134.651 100.832C134.804 100.679 134.89 100.471 134.89 100.254V93.2528C134.891 93.2042 134.887 93.1558 134.878 93.1081Z" fill="#E6E6E6"/>
<path d="M134.391 104.434C134.291 104.392 134.183 104.371 134.074 104.371H127.086C126.979 104.371 126.873 104.392 126.774 104.433C126.675 104.474 126.585 104.534 126.509 104.61C126.433 104.686 126.373 104.776 126.332 104.875C126.291 104.975 126.27 105.081 126.27 105.189V112.19C126.27 112.297 126.29 112.404 126.331 112.503C126.372 112.602 126.432 112.693 126.508 112.769C126.584 112.845 126.674 112.905 126.773 112.946C126.873 112.987 126.979 113.008 127.086 113.007H134.074C134.291 113.007 134.498 112.921 134.651 112.768C134.804 112.614 134.89 112.406 134.89 112.19V105.189C134.89 105.028 134.843 104.87 134.754 104.736C134.665 104.602 134.539 104.497 134.391 104.434Z" fill="#E6E6E6"/>
<path d="M148.753 56.6278H141.765C141.549 56.6279 141.341 56.7141 141.188 56.8674C141.035 57.0207 140.949 57.2287 140.949 57.4455V64.4497C140.949 64.5569 140.97 64.663 141.011 64.762C141.053 64.861 141.113 64.9509 141.188 65.0266C141.264 65.1022 141.354 65.1622 141.453 65.203C141.552 65.2437 141.658 65.2646 141.765 65.2643H148.753C148.969 65.2644 149.176 65.1787 149.329 65.026C149.482 64.8733 149.568 64.666 149.569 64.4497V57.4455C149.569 57.2288 149.482 57.0212 149.329 56.868C149.177 56.7148 148.969 56.6284 148.753 56.6278Z" fill="#E6E6E6"/>
<path d="M148.753 68.5635H141.765C141.549 68.5636 141.341 68.6498 141.188 68.8032C141.035 68.9565 140.949 69.1644 140.949 69.3813V76.3855C140.949 76.4927 140.97 76.5988 141.011 76.6978C141.053 76.7968 141.113 76.8867 141.188 76.9623C141.264 77.038 141.354 77.0979 141.453 77.1387C141.552 77.1795 141.658 77.2003 141.765 77.2H148.753C148.969 77.2001 149.176 77.1144 149.329 76.9617C149.482 76.8091 149.568 76.6018 149.569 76.3855V69.3813C149.569 69.1646 149.482 68.9569 149.329 68.8037C149.177 68.6505 148.969 68.5642 148.753 68.5635Z" fill="#6C63FF"/>
<path d="M148.753 80.4993H141.765C141.549 80.4994 141.341 80.5856 141.188 80.7389C141.035 80.8923 140.949 81.1002 140.949 81.317V88.3181C140.949 88.4255 140.97 88.5319 141.011 88.6312C141.052 88.7305 141.112 88.8208 141.188 88.8968C141.263 88.9727 141.353 89.0329 141.453 89.074C141.552 89.115 141.658 89.136 141.765 89.1358H148.753C148.969 89.1357 149.177 89.0495 149.33 88.8962C149.483 88.7429 149.569 88.5349 149.569 88.3181V81.317C149.569 81.1003 149.482 80.8927 149.329 80.7395C149.177 80.5863 148.969 80.4999 148.753 80.4993Z" fill="#6C63FF"/>
<path d="M148.753 92.435H141.765C141.594 92.4351 141.427 92.4893 141.289 92.5898C141.15 92.6903 141.047 92.832 140.993 92.9948C140.964 93.0777 140.949 93.1649 140.949 93.2528V100.254C140.949 100.361 140.97 100.468 141.011 100.567C141.052 100.666 141.112 100.757 141.188 100.832C141.263 100.908 141.353 100.969 141.453 101.01C141.552 101.051 141.658 101.072 141.765 101.072H148.753C148.969 101.071 149.177 100.985 149.33 100.832C149.483 100.679 149.569 100.471 149.569 100.254V93.2528C149.569 93.0361 149.482 92.8284 149.329 92.6752C149.177 92.522 148.969 92.4356 148.753 92.435Z" fill="#6C63FF"/>
<path d="M148.753 104.371H141.765C141.658 104.371 141.552 104.392 141.453 104.433C141.353 104.474 141.263 104.534 141.188 104.61C141.112 104.686 141.052 104.776 141.011 104.875C140.97 104.975 140.949 105.081 140.949 105.189V112.19C140.949 112.297 140.97 112.403 141.011 112.503C141.052 112.602 141.112 112.692 141.188 112.768C141.263 112.844 141.353 112.904 141.453 112.946C141.552 112.987 141.658 113.008 141.765 113.007H148.753C148.969 113.007 149.177 112.921 149.33 112.768C149.483 112.614 149.569 112.406 149.569 112.19V105.189C149.569 104.972 149.483 104.764 149.33 104.61C149.177 104.457 148.969 104.371 148.753 104.371Z" fill="#E6E6E6"/>
<path d="M163.432 56.6278H156.444C156.228 56.6279 156.02 56.7141 155.867 56.8674C155.714 57.0207 155.628 57.2287 155.628 57.4455V64.4497C155.628 64.5569 155.649 64.663 155.69 64.762C155.731 64.861 155.792 64.9509 155.867 65.0266C155.943 65.1022 156.033 65.1622 156.132 65.203C156.231 65.2437 156.337 65.2646 156.444 65.2643H163.432C163.648 65.2644 163.855 65.1787 164.008 65.026C164.161 64.8733 164.247 64.666 164.248 64.4497V57.4455C164.247 57.2288 164.161 57.0212 164.008 56.868C163.855 56.7148 163.648 56.6284 163.432 56.6278Z" fill="#6C63FF"/>
<path d="M163.432 68.5635H156.444C156.228 68.5636 156.02 68.6498 155.867 68.8032C155.714 68.9565 155.628 69.1644 155.628 69.3813V76.3855C155.628 76.4927 155.649 76.5988 155.69 76.6978C155.731 76.7968 155.792 76.8867 155.867 76.9623C155.943 77.038 156.033 77.0979 156.132 77.1387C156.231 77.1795 156.337 77.2003 156.444 77.2H163.432C163.648 77.2001 163.855 77.1144 164.008 76.9617C164.161 76.8091 164.247 76.6018 164.248 76.3855V69.3813C164.247 69.1646 164.161 68.9569 164.008 68.8037C163.855 68.6505 163.648 68.5642 163.432 68.5635Z" fill="#6C63FF"/>
<path d="M163.432 80.4993H156.444C156.228 80.4994 156.02 80.5856 155.867 80.7389C155.714 80.8923 155.628 81.1002 155.628 81.317V88.3181C155.628 88.4255 155.649 88.5319 155.69 88.6312C155.731 88.7305 155.791 88.8208 155.866 88.8968C155.942 88.9727 156.032 89.0329 156.131 89.074C156.231 89.115 156.337 89.136 156.444 89.1358H163.432C163.648 89.1357 163.856 89.0495 164.009 88.8962C164.162 88.7429 164.248 88.5349 164.248 88.3181V81.317C164.247 81.1003 164.161 80.8927 164.008 80.7395C163.855 80.5863 163.648 80.4999 163.432 80.4993Z" fill="#E6E6E6"/>
<path d="M163.432 92.435H156.444C156.228 92.4351 156.02 92.5213 155.867 92.6746C155.714 92.828 155.628 93.0359 155.628 93.2528V100.254C155.628 100.361 155.649 100.468 155.69 100.567C155.73 100.666 155.791 100.757 155.866 100.832C155.942 100.908 156.032 100.969 156.131 101.01C156.231 101.051 156.337 101.072 156.444 101.072H163.432C163.648 101.071 163.856 100.985 164.009 100.832C164.162 100.679 164.248 100.471 164.248 100.254V93.2528C164.247 93.0361 164.161 92.8284 164.008 92.6752C163.855 92.522 163.648 92.4356 163.432 92.435Z" fill="#6C63FF"/>
<path d="M163.432 104.371H156.444C156.337 104.371 156.231 104.392 156.131 104.433C156.032 104.474 155.942 104.534 155.866 104.61C155.791 104.686 155.731 104.776 155.69 104.875C155.649 104.975 155.628 105.081 155.628 105.189V112.19C155.628 112.297 155.649 112.403 155.69 112.503C155.73 112.602 155.791 112.692 155.866 112.768C155.942 112.844 156.032 112.904 156.131 112.946C156.231 112.987 156.337 113.008 156.444 113.007H163.432C163.648 113.007 163.856 112.921 164.009 112.768C164.162 112.614 164.248 112.406 164.248 112.19V105.189C164.248 104.972 164.162 104.764 164.009 104.61C163.856 104.457 163.648 104.371 163.432 104.371Z" fill="#6C63FF"/>
<path d="M178.111 56.6278H171.123C170.906 56.6279 170.699 56.7141 170.546 56.8674C170.393 57.0207 170.307 57.2287 170.307 57.4455V64.4497C170.307 64.5569 170.328 64.663 170.369 64.762C170.41 64.861 170.47 64.9509 170.546 65.0266C170.622 65.1022 170.712 65.1622 170.811 65.203C170.91 65.2438 171.016 65.2646 171.123 65.2643H178.111C178.327 65.2644 178.534 65.1787 178.687 65.026C178.84 64.8733 178.926 64.666 178.927 64.4497V57.4455C178.926 57.2288 178.84 57.0212 178.687 56.868C178.534 56.7148 178.327 56.6284 178.111 56.6278Z" fill="#6C63FF"/>
<path d="M178.111 68.5635H171.123C170.906 68.5636 170.699 68.6498 170.546 68.8032C170.393 68.9565 170.307 69.1644 170.307 69.3813V76.3855C170.307 76.4927 170.328 76.5988 170.369 76.6978C170.41 76.7968 170.47 76.8867 170.546 76.9623C170.622 77.038 170.712 77.0979 170.811 77.1387C170.91 77.1795 171.016 77.2003 171.123 77.2H178.111C178.327 77.2001 178.534 77.1144 178.687 76.9617C178.84 76.8091 178.926 76.6018 178.927 76.3855V69.3813C178.926 69.1646 178.84 68.9569 178.687 68.8037C178.534 68.6505 178.327 68.5642 178.111 68.5635Z" fill="white"/>
<path d="M178.111 80.4993H171.123C170.906 80.4994 170.699 80.5856 170.546 80.7389C170.393 80.8922 170.307 81.1002 170.307 81.317V88.3181C170.306 88.4255 170.327 88.532 170.368 88.6313C170.409 88.7306 170.469 88.8208 170.545 88.8968C170.621 88.9727 170.711 89.0329 170.81 89.074C170.909 89.115 171.016 89.136 171.123 89.1358H178.111C178.327 89.1357 178.535 89.0495 178.688 88.8962C178.841 88.7429 178.927 88.5349 178.927 88.3181V81.317C178.926 81.1003 178.84 80.8927 178.687 80.7395C178.534 80.5863 178.327 80.4999 178.111 80.4993Z" fill="white"/>
<path d="M178.111 92.435H171.123C170.906 92.4351 170.699 92.5213 170.546 92.6746C170.393 92.828 170.307 93.0359 170.307 93.2528V100.254C170.306 100.361 170.327 100.468 170.368 100.567C170.409 100.666 170.469 100.757 170.545 100.833C170.621 100.908 170.711 100.969 170.81 101.01C170.909 101.051 171.016 101.072 171.123 101.072H178.111C178.327 101.071 178.535 100.985 178.688 100.832C178.841 100.679 178.927 100.471 178.927 100.254V93.2528C178.926 93.0361 178.84 92.8284 178.687 92.6752C178.534 92.522 178.327 92.4356 178.111 92.435Z" fill="#E6E6E6"/>
<path d="M178.111 104.371H171.123C171.016 104.371 170.909 104.392 170.81 104.433C170.711 104.474 170.621 104.534 170.545 104.61C170.469 104.686 170.409 104.776 170.368 104.875C170.327 104.975 170.306 105.081 170.307 105.189V112.19C170.306 112.297 170.327 112.403 170.368 112.503C170.409 112.602 170.469 112.692 170.545 112.768C170.621 112.844 170.711 112.904 170.81 112.946C170.909 112.987 171.016 113.008 171.123 113.007H178.111C178.327 113.007 178.535 112.921 178.688 112.768C178.841 112.614 178.927 112.406 178.927 112.19V105.189C178.927 104.972 178.841 104.764 178.688 104.61C178.535 104.457 178.327 104.371 178.111 104.371Z" fill="#6C63FF"/>
<path d="M192.79 56.6278H185.799C185.583 56.6286 185.376 56.715 185.223 56.8683C185.071 57.0216 184.985 57.2291 184.986 57.4455V64.4497C184.986 64.6657 185.071 64.8729 185.224 65.0256C185.376 65.1784 185.583 65.2642 185.799 65.2643H192.79C193.006 65.2644 193.213 65.1787 193.366 65.026C193.519 64.8733 193.605 64.666 193.606 64.4497V57.4455C193.605 57.2288 193.519 57.0212 193.366 56.868C193.213 56.7148 193.006 56.6284 192.79 56.6278Z" fill="white"/>
<path d="M192.79 68.5635H185.799C185.583 68.5643 185.376 68.6508 185.223 68.8041C185.071 68.9573 184.985 69.1649 184.986 69.3813V76.3855C184.986 76.6015 185.071 76.8087 185.224 76.9614C185.376 77.1142 185.583 77.2 185.799 77.2H192.79C193.006 77.2001 193.213 77.1144 193.366 76.9617C193.519 76.8091 193.605 76.6018 193.606 76.3855V69.3813C193.605 69.1646 193.519 68.9569 193.366 68.8037C193.213 68.6505 193.006 68.5642 192.79 68.5635Z" fill="white"/>
<path d="M192.79 80.4993H185.799C185.583 80.5 185.376 80.5865 185.223 80.7398C185.071 80.8931 184.985 81.1007 184.986 81.317V88.3181C184.985 88.4253 185.006 88.5315 185.047 88.6306C185.087 88.7298 185.147 88.8199 185.223 88.8958C185.298 88.9718 185.388 89.0321 185.487 89.0732C185.586 89.1144 185.692 89.1357 185.799 89.1358H192.79C193.006 89.1357 193.214 89.0495 193.367 88.8962C193.52 88.7429 193.606 88.5349 193.606 88.3181V81.317C193.605 81.1003 193.519 80.8927 193.366 80.7395C193.213 80.5863 193.006 80.4999 192.79 80.4993Z" fill="white"/>
<path d="M192.79 92.435H185.799C185.583 92.4358 185.376 92.5223 185.223 92.6756C185.071 92.8288 184.985 93.0364 184.986 93.2528V100.254C184.985 100.361 185.006 100.467 185.047 100.566C185.087 100.666 185.147 100.756 185.223 100.832C185.298 100.908 185.388 100.968 185.487 101.009C185.586 101.05 185.692 101.071 185.799 101.072H192.79C193.006 101.071 193.214 100.985 193.367 100.832C193.52 100.679 193.606 100.471 193.606 100.254V93.2528C193.605 93.0361 193.519 92.8284 193.366 92.6752C193.213 92.522 193.006 92.4356 192.79 92.435Z" fill="#6C63FF"/>
<path d="M192.79 104.371H185.799C185.692 104.371 185.586 104.392 185.487 104.433C185.388 104.474 185.298 104.535 185.223 104.611C185.147 104.687 185.087 104.777 185.047 104.876C185.006 104.975 184.985 105.081 184.986 105.189V112.19C184.985 112.297 185.006 112.403 185.047 112.502C185.087 112.601 185.147 112.691 185.223 112.767C185.298 112.843 185.388 112.904 185.487 112.945C185.586 112.986 185.692 113.007 185.799 113.007H192.79C193.006 113.007 193.214 112.921 193.367 112.768C193.52 112.614 193.606 112.406 193.606 112.19V105.189C193.606 104.972 193.52 104.764 193.367 104.61C193.214 104.457 193.006 104.371 192.79 104.371Z" fill="#E6E6E6"/>
<path d="M207.468 56.6278H200.477C200.261 56.6286 200.055 56.715 199.902 56.8683C199.75 57.0216 199.664 57.2291 199.664 57.4455V64.4497C199.664 64.6657 199.75 64.8729 199.903 65.0256C200.055 65.1784 200.262 65.2642 200.477 65.2643H207.468C207.684 65.2644 207.892 65.1787 208.045 65.026C208.198 64.8733 208.284 64.666 208.285 64.4497V57.4455C208.284 57.2288 208.198 57.0212 208.045 56.868C207.892 56.7148 207.685 56.6284 207.468 56.6278Z" fill="white"/>
<path d="M207.468 68.5635H200.477C200.261 68.5643 200.055 68.6508 199.902 68.8041C199.75 68.9573 199.664 69.1649 199.664 69.3813V76.3855C199.664 76.6015 199.75 76.8087 199.903 76.9614C200.055 77.1142 200.262 77.2 200.477 77.2H207.468C207.684 77.2001 207.892 77.1144 208.045 76.9617C208.198 76.809 208.284 76.6018 208.285 76.3855V69.3813C208.284 69.1646 208.198 68.957 208.045 68.8037C207.892 68.6505 207.685 68.5642 207.468 68.5635Z" fill="white"/>
<path d="M207.468 80.4993H200.477C200.261 80.5 200.055 80.5865 199.902 80.7398C199.75 80.8931 199.664 81.1007 199.664 81.317V88.3181C199.664 88.4253 199.685 88.5315 199.726 88.6306C199.766 88.7298 199.826 88.8199 199.902 88.8958C199.977 88.9718 200.067 89.0321 200.166 89.0732C200.264 89.1144 200.37 89.1357 200.477 89.1358H207.468C207.685 89.1357 207.892 89.0495 208.045 88.8962C208.198 88.7428 208.285 88.5349 208.285 88.3181V81.317C208.284 81.1003 208.198 80.8927 208.045 80.7395C207.892 80.5863 207.685 80.4999 207.468 80.4993Z" fill="#6C63FF"/>
<path d="M207.468 92.435H200.477C200.261 92.4358 200.055 92.5223 199.902 92.6756C199.75 92.8288 199.664 93.0364 199.664 93.2528V100.254C199.664 100.361 199.685 100.467 199.726 100.566C199.766 100.666 199.826 100.756 199.902 100.832C199.977 100.908 200.067 100.968 200.166 101.009C200.264 101.05 200.37 101.071 200.477 101.072H207.468C207.685 101.071 207.892 100.985 208.045 100.832C208.198 100.679 208.285 100.471 208.285 100.254V93.2528C208.284 93.0361 208.198 92.8284 208.045 92.6752C207.892 92.522 207.685 92.4356 207.468 92.435Z" fill="#E6E6E6"/>
<path d="M207.468 104.371H200.477C200.37 104.371 200.264 104.392 200.166 104.433C200.067 104.474 199.977 104.535 199.902 104.611C199.826 104.687 199.766 104.777 199.726 104.876C199.685 104.975 199.664 105.081 199.664 105.189V112.19C199.664 112.297 199.685 112.403 199.726 112.502C199.766 112.601 199.826 112.691 199.902 112.767C199.977 112.843 200.067 112.904 200.166 112.945C200.264 112.986 200.37 113.007 200.477 113.007H207.468C207.685 113.007 207.892 112.921 208.045 112.768C208.198 112.614 208.285 112.406 208.285 112.19V105.189C208.285 104.972 208.198 104.764 208.045 104.61C207.892 104.457 207.685 104.371 207.468 104.371Z" fill="white"/>
<path d="M222.147 56.6278H215.156C214.94 56.6286 214.733 56.715 214.581 56.8683C214.429 57.0216 214.343 57.2291 214.343 57.4455V64.4497C214.343 64.6657 214.429 64.8729 214.581 65.0256C214.734 65.1784 214.941 65.2642 215.156 65.2643H222.147C222.363 65.2644 222.57 65.1787 222.723 65.026C222.876 64.8733 222.963 64.666 222.963 64.4497V57.4455C222.963 57.2288 222.877 57.0212 222.724 56.868C222.571 56.7148 222.364 56.6284 222.147 56.6278Z" fill="#6C63FF"/>
<path d="M222.147 68.5635H215.156C214.94 68.5643 214.733 68.6508 214.581 68.8041C214.429 68.9573 214.343 69.1649 214.343 69.3813V76.3855C214.343 76.6015 214.429 76.8087 214.581 76.9614C214.734 77.1142 214.941 77.2 215.156 77.2H222.147C222.363 77.2001 222.57 77.1144 222.723 76.9617C222.876 76.809 222.963 76.6018 222.963 76.3855V69.3813C222.963 69.1646 222.877 68.957 222.724 68.8037C222.571 68.6505 222.364 68.5642 222.147 68.5635Z" fill="#6C63FF"/>
<path d="M222.147 80.4993H215.156C214.94 80.5 214.733 80.5865 214.581 80.7398C214.429 80.8931 214.343 81.1007 214.343 81.317V88.3181C214.343 88.4253 214.364 88.5315 214.404 88.6306C214.445 88.7298 214.505 88.8199 214.58 88.8958C214.656 88.9718 214.746 89.0321 214.845 89.0732C214.943 89.1144 215.049 89.1357 215.156 89.1358H222.147C222.364 89.1357 222.571 89.0495 222.724 88.8962C222.877 88.7428 222.963 88.5349 222.963 88.3181V81.317C222.963 81.1003 222.877 80.8927 222.724 80.7395C222.571 80.5863 222.364 80.4999 222.147 80.4993Z" fill="#E6E6E6"/>
<path d="M222.147 92.435H215.156C214.94 92.4358 214.733 92.5223 214.581 92.6756C214.429 92.8288 214.343 93.0364 214.343 93.2528V100.254C214.343 100.361 214.364 100.467 214.404 100.566C214.445 100.666 214.505 100.756 214.58 100.832C214.656 100.908 214.746 100.968 214.845 101.009C214.943 101.05 215.049 101.071 215.156 101.072H222.147C222.364 101.071 222.571 100.985 222.724 100.832C222.877 100.679 222.963 100.471 222.963 100.254V93.2528C222.963 93.0361 222.877 92.8284 222.724 92.6752C222.571 92.522 222.364 92.4356 222.147 92.435Z" fill="white"/>
<path d="M222.147 104.371H215.156C215.049 104.371 214.943 104.392 214.845 104.433C214.746 104.474 214.656 104.535 214.58 104.611C214.505 104.687 214.445 104.777 214.404 104.876C214.364 104.975 214.343 105.081 214.343 105.189V112.19C214.343 112.297 214.364 112.403 214.404 112.502C214.445 112.601 214.505 112.691 214.58 112.767C214.656 112.843 214.746 112.904 214.845 112.945C214.943 112.986 215.049 113.007 215.156 113.007H222.147C222.364 113.007 222.571 112.921 222.724 112.768C222.877 112.614 222.963 112.406 222.963 112.19V105.189C222.963 104.972 222.877 104.764 222.724 104.61C222.571 104.457 222.364 104.371 222.147 104.371Z" fill="#6C63FF"/>
<path d="M236.826 56.6278H229.835C229.619 56.6286 229.412 56.715 229.26 56.8683C229.108 57.0216 229.022 57.2291 229.022 57.4455V64.4497C229.022 64.6657 229.108 64.8729 229.26 65.0256C229.413 65.1784 229.62 65.2642 229.835 65.2643H236.826C237.042 65.2644 237.249 65.1787 237.402 65.026C237.555 64.8733 237.642 64.666 237.642 64.4497V57.4455C237.642 57.2288 237.555 57.0212 237.403 56.868C237.25 56.7148 237.042 56.6284 236.826 56.6278Z" fill="#6C63FF"/>
<path d="M236.826 68.5635H229.835C229.619 68.5643 229.412 68.6508 229.26 68.8041C229.108 68.9573 229.022 69.1649 229.022 69.3813V76.3855C229.022 76.6015 229.108 76.8087 229.26 76.9614C229.413 77.1142 229.62 77.2 229.835 77.2H236.826C237.042 77.2001 237.249 77.1144 237.402 76.9617C237.555 76.809 237.642 76.6018 237.642 76.3855V69.3813C237.642 69.1646 237.555 68.957 237.403 68.8037C237.25 68.6505 237.042 68.5642 236.826 68.5635Z" fill="#6C63FF"/>
<path d="M236.826 80.4993H229.835C229.619 80.5 229.412 80.5865 229.26 80.7398C229.108 80.8931 229.022 81.1007 229.022 81.317V88.3181C229.022 88.4253 229.043 88.5315 229.083 88.6306C229.124 88.7298 229.184 88.8199 229.259 88.8958C229.335 88.9718 229.425 89.0321 229.523 89.0732C229.622 89.1144 229.728 89.1357 229.835 89.1358H236.826C237.043 89.1357 237.25 89.0495 237.403 88.8962C237.556 88.7428 237.642 88.5349 237.642 88.3181V81.317C237.642 81.1003 237.555 80.8927 237.403 80.7395C237.25 80.5863 237.042 80.4999 236.826 80.4993Z" fill="#E6E6E6"/>
<path d="M236.826 92.435H229.835C229.619 92.4358 229.412 92.5223 229.26 92.6756C229.108 92.8288 229.022 93.0364 229.022 93.2528V100.254C229.022 100.361 229.043 100.467 229.083 100.566C229.124 100.666 229.184 100.756 229.259 100.832C229.335 100.908 229.425 100.968 229.523 101.009C229.622 101.05 229.728 101.071 229.835 101.072H236.826C237.043 101.071 237.25 100.985 237.403 100.832C237.556 100.679 237.642 100.471 237.642 100.254V93.2528C237.642 93.0361 237.555 92.8285 237.403 92.6752C237.25 92.522 237.042 92.4356 236.826 92.435Z" fill="#6C63FF"/>
<path d="M236.826 104.371H229.835C229.728 104.371 229.622 104.392 229.523 104.433C229.425 104.474 229.335 104.535 229.259 104.611C229.184 104.687 229.124 104.777 229.083 104.876C229.043 104.975 229.022 105.081 229.022 105.189V112.19C229.022 112.297 229.043 112.403 229.083 112.502C229.124 112.601 229.184 112.691 229.259 112.767C229.335 112.843 229.425 112.904 229.523 112.945C229.622 112.986 229.728 113.007 229.835 113.007H236.826C237.043 113.007 237.25 112.921 237.403 112.768C237.556 112.614 237.642 112.406 237.642 112.19V105.189C237.642 104.972 237.556 104.764 237.403 104.61C237.25 104.457 237.043 104.371 236.826 104.371Z" fill="#6C63FF"/>
<path d="M251.505 56.6278H244.514C244.298 56.6286 244.091 56.715 243.939 56.8683C243.786 57.0216 243.701 57.2291 243.701 57.4455V64.4497C243.701 64.6657 243.787 64.8729 243.939 65.0256C244.092 65.1784 244.298 65.2642 244.514 65.2643H251.505C251.721 65.2644 251.928 65.1787 252.081 65.026C252.234 64.8733 252.32 64.666 252.321 64.4497V57.4455C252.32 57.2288 252.234 57.0212 252.081 56.868C251.928 56.7148 251.721 56.6284 251.505 56.6278Z" fill="#E6E6E6"/>
<path d="M251.505 68.5635H244.514C244.298 68.5643 244.091 68.6508 243.939 68.8041C243.786 68.9573 243.701 69.1649 243.701 69.3813V76.3855C243.701 76.6015 243.787 76.8087 243.939 76.9614C244.092 77.1142 244.298 77.2 244.514 77.2H251.505C251.721 77.2001 251.928 77.1144 252.081 76.9617C252.234 76.809 252.32 76.6018 252.321 76.3855V69.3813C252.32 69.1646 252.234 68.957 252.081 68.8037C251.928 68.6505 251.721 68.5642 251.505 68.5635Z" fill="#6C63FF"/>
<path d="M251.505 80.4993H244.514C244.298 80.5 244.091 80.5865 243.939 80.7398C243.786 80.8931 243.701 81.1007 243.701 81.317V88.3181C243.701 88.4253 243.721 88.5315 243.762 88.6306C243.803 88.7298 243.863 88.8199 243.938 88.8958C244.014 88.9718 244.103 89.0321 244.202 89.0732C244.301 89.1144 244.407 89.1357 244.514 89.1358H251.505C251.721 89.1357 251.929 89.0495 252.082 88.8962C252.235 88.7428 252.321 88.5349 252.321 88.3181V81.317C252.321 81.1003 252.234 80.8927 252.081 80.7395C251.928 80.5863 251.721 80.4999 251.505 80.4993Z" fill="#6C63FF"/>
<path d="M251.505 92.435H244.514C244.298 92.4358 244.091 92.5223 243.939 92.6756C243.786 92.8288 243.701 93.0364 243.701 93.2528V100.254C243.701 100.361 243.721 100.467 243.762 100.566C243.803 100.666 243.863 100.756 243.938 100.832C244.014 100.908 244.103 100.968 244.202 101.009C244.301 101.05 244.407 101.071 244.514 101.072H251.505C251.721 101.071 251.929 100.985 252.082 100.832C252.235 100.679 252.321 100.471 252.321 100.254V93.2528C252.32 93.0361 252.234 92.8285 252.081 92.6752C251.928 92.522 251.721 92.4356 251.505 92.435Z" fill="#6C63FF"/>
<path d="M251.505 104.371H244.514C244.407 104.371 244.301 104.392 244.202 104.433C244.103 104.474 244.014 104.535 243.938 104.611C243.863 104.687 243.803 104.777 243.762 104.876C243.721 104.975 243.701 105.081 243.701 105.189V112.19C243.701 112.297 243.721 112.403 243.762 112.502C243.803 112.601 243.863 112.691 243.938 112.767C244.014 112.843 244.103 112.904 244.202 112.945C244.301 112.986 244.407 113.007 244.514 113.007H251.505C251.721 113.007 251.929 112.921 252.082 112.768C252.235 112.614 252.321 112.406 252.321 112.19V105.189C252.321 104.972 252.235 104.764 252.082 104.61C251.929 104.457 251.721 104.371 251.505 104.371Z" fill="#E6E6E6"/>
<path d="M266.184 56.6278H259.193C258.977 56.6286 258.77 56.715 258.618 56.8683C258.465 57.0216 258.38 57.2291 258.38 57.4455V64.4497C258.38 64.6657 258.465 64.8729 258.618 65.0256C258.77 65.1784 258.977 65.2642 259.193 65.2643H266.184C266.4 65.2644 266.607 65.1787 266.76 65.026C266.913 64.8733 266.999 64.666 267 64.4497V57.4455C266.999 57.2288 266.913 57.0212 266.76 56.868C266.607 56.7148 266.4 56.6284 266.184 56.6278Z" fill="#E6E6E6"/>
<path d="M266.184 68.5635H259.193C258.977 68.5643 258.77 68.6508 258.618 68.8041C258.465 68.9573 258.38 69.1649 258.38 69.3813V76.3855C258.38 76.6015 258.465 76.8087 258.618 76.9614C258.77 77.1142 258.977 77.2 259.193 77.2H266.184C266.4 77.2001 266.607 77.1144 266.76 76.9617C266.913 76.809 266.999 76.6018 267 76.3855V69.3813C266.999 69.1646 266.913 68.957 266.76 68.8037C266.607 68.6505 266.4 68.5642 266.184 68.5635Z" fill="#E6E6E6"/>
<path d="M266.184 80.4993H259.193C258.977 80.5 258.77 80.5865 258.618 80.7398C258.465 80.8931 258.38 81.1007 258.38 81.317V88.3181C258.379 88.4253 258.4 88.5315 258.441 88.6306C258.482 88.7298 258.542 88.8199 258.617 88.8958C258.693 88.9718 258.782 89.0321 258.881 89.0732C258.98 89.1144 259.086 89.1357 259.193 89.1358H266.184C266.4 89.1357 266.608 89.0495 266.761 88.8962C266.914 88.7428 267 88.5349 267 88.3181V81.317C266.999 81.1003 266.913 80.8927 266.76 80.7395C266.607 80.5863 266.4 80.4999 266.184 80.4993Z" fill="#6C63FF"/>
<path d="M266.184 92.435H259.193C258.977 92.4358 258.77 92.5223 258.618 92.6756C258.465 92.8288 258.38 93.0364 258.38 93.2528V100.254C258.379 100.361 258.4 100.467 258.441 100.566C258.482 100.666 258.542 100.756 258.617 100.832C258.693 100.908 258.782 100.968 258.881 101.009C258.98 101.05 259.086 101.071 259.193 101.072H266.184C266.4 101.071 266.608 100.985 266.761 100.832C266.914 100.679 267 100.471 267 100.254V93.2528C266.999 93.0361 266.913 92.8285 266.76 92.6752C266.607 92.522 266.4 92.4356 266.184 92.435Z" fill="#E6E6E6"/>
<path d="M266.184 104.371H259.193C259.086 104.371 258.98 104.392 258.881 104.433C258.782 104.474 258.693 104.535 258.617 104.611C258.542 104.687 258.482 104.777 258.441 104.876C258.4 104.975 258.379 105.081 258.38 105.189V112.19C258.379 112.297 258.4 112.403 258.441 112.502C258.482 112.601 258.542 112.691 258.617 112.767C258.693 112.843 258.782 112.904 258.881 112.945C258.98 112.986 259.086 113.007 259.193 113.007H266.184C266.4 113.007 266.608 112.921 266.761 112.768C266.914 112.614 267 112.406 267 112.19V105.189C267 104.972 266.914 104.764 266.761 104.61C266.608 104.457 266.4 104.371 266.184 104.371Z" fill="#E6E6E6"/>
<path d="M105.507 207.594H105.312L105.479 207.572L105.507 207.594Z" fill="#2F2E41"/>
<path d="M88.7808 77.0727C100.626 77.0727 110.228 67.4522 110.228 55.5846C110.228 43.7171 100.626 34.0966 88.7808 34.0966C76.9356 34.0966 67.3333 43.7171 67.3333 55.5846C67.3333 67.4522 76.9356 77.0727 88.7808 77.0727Z" fill="#FFB6B6"/>
<path d="M107.563 39.8299C107.563 39.8299 113.173 29.0859 100.831 28.1092C100.831 28.1092 90.3105 18.5473 79.5867 26.3611C79.5867 26.3611 73.7374 26.3611 70.5388 32.9928C70.5388 32.9928 65.9383 31.2447 64.9273 35.923C64.9273 35.923 61.561 45.6903 64.9273 54.4809C68.2936 63.2715 69.4118 64.2482 69.4118 64.2482C69.4118 64.2482 63.8802 45.8183 77.3445 44.8415C90.8087 43.8648 105.876 35.4346 106.998 46.1787C108.12 56.9227 109.808 59.5699 109.808 59.5699C109.808 59.5699 120.466 44.2252 107.563 39.8299Z" fill="#2F2E41"/>
<path d="M144.261 108.541L144.192 108.906L143.416 113.007L138.058 141.376L137.741 143.046L137.075 146.578L136.165 151.397L134.146 162.074L133.569 165.135L133.352 166.283L133.277 166.685L132.677 169.852L132.495 170.808L131.032 181.668L129.755 191.132L134.03 195.416L131.481 197.97L129.808 207.572L129.811 207.594H61.5244C58.7619 205.801 56.0392 203.953 53.3562 202.049L53.9181 197.834C53.9181 197.834 55.8518 190.308 55.0388 189.409C54.2289 188.509 52.4521 186.902 52.4521 186.902L54.6904 181.668L55.0011 180.942L54.48 170.113L54.4675 169.852L54.2948 166.282L54.2729 165.823L54.2383 165.135L53.576 151.397L53.5634 151.17L53.3625 147.006L53.1741 143.046L53.0925 141.376L52.2858 124.666L51.7395 113.319L51.2624 103.44L53.1804 102.789L73.6951 95.8034L82.1928 84.7357L99.879 84.8678L108.537 84.9339L122.983 98.3573L126.27 99.9298L126.295 99.9424L128.653 101.071L134.63 103.93L140.949 106.956L144.192 108.507L144.261 108.541Z" fill="#5450A0"/>
<path d="M84.4784 175.357C83.1823 175.86 81.7919 176.072 80.4052 175.978C79.0184 175.885 77.669 175.488 76.4519 174.815C75.2349 174.143 74.1799 173.211 73.3611 172.086C72.5424 170.96 71.9799 169.669 71.7132 168.302L38.2624 163.547L49.8908 150.369L79.8735 156.904C82.1948 156.608 84.5441 157.174 86.4761 158.497C88.4082 159.82 89.7889 161.807 90.3565 164.081C90.9241 166.356 90.6392 168.76 89.5558 170.838C88.4725 172.916 86.6659 174.524 84.4784 175.357Z" fill="#FFB6B6"/>
<path d="M69.5638 151.397C68.9442 150.61 68.067 150.067 67.087 149.865L53.3625 147.006L51.953 146.714C51.1338 146.542 50.36 146.2 49.6822 145.708C49.0044 145.217 48.4378 144.587 48.0195 143.861C47.5857 143.099 47.3232 142.251 47.2504 141.376C47.185 140.581 47.28 139.781 47.5298 139.024L52.2857 124.666L55.3715 115.35C55.7455 114.227 55.9662 113.058 56.0276 111.875C56.1996 108.602 55.1887 105.376 53.1804 102.789C51.4147 100.515 48.9657 98.8698 46.1952 98.0972C43.4247 97.3247 40.4797 97.4655 37.7952 98.4988C37.7167 98.5272 37.6351 98.5586 37.5566 98.59C35.6314 99.3602 33.9114 100.568 32.5325 102.119C31.1535 103.67 30.1535 105.521 29.6113 107.525L26.2587 119.744L19.343 144.933C18.6507 147.457 18.5109 150.101 18.933 152.684C19.3552 155.267 20.3293 157.728 21.7889 159.899C23.2484 162.069 25.1588 163.899 27.3894 165.261C29.6199 166.623 32.118 167.487 34.7125 167.792L54.48 170.113L63.6276 171.189C64.6853 171.316 65.7522 171.04 66.6155 170.414C67.4789 169.789 68.0754 168.861 68.2861 167.814C68.3009 167.757 68.3125 167.699 68.3207 167.641L68.5404 166.282L70.402 154.841L70.4208 154.724C70.5178 154.14 70.4916 153.543 70.344 152.969C70.1964 152.396 69.9306 151.861 69.5638 151.397Z" fill="#5450A0"/>
<path d="M105.785 175.723C107.139 176.038 108.545 176.052 109.905 175.763C111.265 175.475 112.545 174.891 113.655 174.053C114.765 173.216 115.679 172.144 116.331 170.914C116.983 169.685 117.358 168.327 117.43 166.936L149.877 157.503L136.51 146.098L107.747 156.805C105.407 156.839 103.161 157.732 101.434 159.315C99.7077 160.897 98.6205 163.059 98.3787 165.391C98.1369 167.723 98.7573 170.063 100.122 171.967C101.487 173.872 103.502 175.208 105.785 175.723Z" fill="#FFB6B6"/>
<path d="M165.987 136.401L150.555 100.817C149.293 97.8954 147.038 95.5164 144.192 94.1019C143.312 93.668 142.388 93.3305 141.436 93.0955C141.288 93.0578 141.14 93.0232 140.993 92.9948C138.974 92.5534 136.879 92.5922 134.878 93.1081C133.048 93.579 131.338 94.4311 129.859 95.6087C128.381 96.7863 127.166 98.263 126.295 99.9424C126.286 99.9564 126.277 99.9711 126.27 99.9864C125.297 101.872 124.78 103.96 124.76 106.082C124.74 108.204 125.217 110.302 126.154 112.205L126.345 112.589L137.251 134.533C137.623 135.283 137.833 136.104 137.867 136.941C137.9 137.778 137.757 138.613 137.445 139.391C137.134 140.169 136.662 140.872 136.061 141.454C135.459 142.036 134.742 142.485 133.955 142.77L133.189 143.046L119.414 148.031C118.381 148.401 117.53 149.158 117.043 150.143C116.555 151.128 116.468 152.264 116.799 153.312L116.834 153.422L120.695 165.801C120.714 165.858 120.733 165.915 120.755 165.971C120.788 166.078 120.83 166.182 120.88 166.282C121.29 167.205 122.016 167.95 122.926 168.384C123.835 168.818 124.87 168.913 125.843 168.651L133.277 166.685L134.793 166.282L153.989 161.203C156.515 160.534 158.867 159.327 160.883 157.663C162.9 155.999 164.534 153.918 165.674 151.563C166.813 149.207 167.431 146.633 167.485 144.016C167.539 141.399 167.028 138.801 165.987 136.401Z" fill="#5450A0"/>
<path d="M14.0943 166.282C18.5427 171.718 23.3401 176.858 28.4561 181.668H170.338C171.705 181.671 173.015 182.216 173.982 183.184C174.948 184.153 175.491 185.466 175.493 186.836L175.697 222.857C184.425 218.839 192.599 213.709 200.016 207.594C202.075 205.898 204.071 204.13 206.002 202.288C207.267 201.086 208.502 199.856 209.707 198.595C218.736 189.171 226.048 178.235 231.311 166.282H14.0943Z" fill="#3F3D56"/>
<path d="M209.707 198.595C208.504 199.857 207.27 201.087 206.002 202.288H175.8V198.595H209.707Z" fill="white"/>
<path d="M143.978 80.4993C143.829 80.2234 143.608 79.993 143.339 79.8324C143.07 79.6719 142.763 79.5872 142.45 79.5872H39.5343C39.0729 79.5884 38.6308 79.7728 38.3048 80.1C37.9789 80.4272 37.7956 80.8705 37.7952 81.3327V143.046H144.192V81.3327C144.193 81.0411 144.12 80.7541 143.978 80.4993Z" fill="#3F3D56"/>
<path d="M37.702 141.376V148.991C37.702 149.307 37.7641 149.619 37.8847 149.911C38.0053 150.203 38.182 150.468 38.4048 150.691C38.6276 150.914 38.8922 151.091 39.1833 151.212C39.4744 151.333 39.7865 151.395 40.1016 151.395H79.3718V166.425H78.8501C78.8092 166.425 78.7686 166.433 78.7308 166.448C78.693 166.464 78.6586 166.487 78.6297 166.516C78.6007 166.545 78.5778 166.58 78.5621 166.617C78.5465 166.655 78.5384 166.696 78.5384 166.737V167.782C78.5384 167.823 78.5464 167.864 78.5621 167.902C78.5778 167.94 78.6007 167.974 78.6297 168.003C78.6586 168.032 78.693 168.055 78.7308 168.071C78.7686 168.087 78.8092 168.095 78.8501 168.095H103.229C103.269 168.095 103.31 168.087 103.348 168.071C103.386 168.055 103.42 168.032 103.449 168.003C103.478 167.974 103.501 167.94 103.517 167.902C103.532 167.864 103.54 167.823 103.54 167.782V166.737C103.54 166.696 103.532 166.655 103.517 166.617C103.501 166.58 103.478 166.545 103.449 166.516C103.42 166.487 103.386 166.464 103.348 166.448C103.31 166.433 103.269 166.425 103.229 166.425H102.707V151.395H141.977C142.292 151.395 142.604 151.333 142.895 151.212C143.186 151.091 143.451 150.914 143.674 150.691C143.897 150.468 144.073 150.203 144.194 149.911C144.315 149.619 144.377 149.307 144.377 148.991V141.376H37.702Z" fill="#3F3D56"/>
<path d="M89.7503 119.518C95.178 119.518 99.578 115.11 99.578 109.672C99.578 104.234 95.178 99.8254 89.7503 99.8254C84.3227 99.8254 79.9227 104.234 79.9227 109.672C79.9227 115.11 84.3227 119.518 89.7503 119.518Z" fill="#6C63FF"/>
<path d="M114.79 54.4105H113.221C113.221 42.522 101.477 34.7315 89.6295 34.7252C87.9063 34.7201 86.1869 34.8877 84.4969 35.2253C82.5946 35.6058 80.62 36.0619 78.68 36.6563C71.0298 39.0057 63.9353 43.5473 63.9353 54.4105C63.9336 56.5202 64.2016 58.6215 64.7326 60.663L63.2132 61.0593C62.6497 58.8882 62.3649 56.6539 62.3657 54.4105C62.3657 44.9185 66.2551 38.3987 72.973 34.5113C76.5046 32.467 80.8147 31.1492 85.7526 30.5076C87.8075 30.2337 89.8849 30.1705 91.9525 30.3189C105.577 31.3001 114.79 41.7671 114.79 54.4105Z" fill="#6C63FF"/>
<path d="M117.405 55.2817L116.787 50.7024C116.634 49.546 116.078 48.4809 115.217 47.6957C114.664 47.1838 114.003 46.8045 113.282 46.5866C112.561 46.3686 111.801 46.3177 111.058 46.4376L110.075 46.5729C109.806 46.6083 109.547 46.6969 109.313 46.8335C109.078 46.9701 108.873 47.152 108.709 47.3686C108.544 47.5844 108.424 47.8309 108.354 48.0938C108.285 48.3567 108.268 48.6308 108.305 48.9003L109.733 59.449C109.792 59.8789 109.984 60.2795 110.283 60.5939C110.581 60.9082 110.971 61.1206 111.397 61.2008C111.523 61.2262 111.651 61.2388 111.78 61.2386C111.872 61.2386 111.964 61.2323 112.056 61.2197L113.155 61.0719C113.824 60.9828 114.469 60.7575 115.049 60.4097C115.629 60.0619 116.131 59.5991 116.526 59.0496C116.611 58.9301 116.692 58.8074 116.768 58.6816C117.356 57.6525 117.581 56.4546 117.405 55.2817Z" fill="#6C63FF"/>
<path d="M109.441 46.7647C109.153 46.905 108.902 47.112 108.709 47.3686C108.544 47.5844 108.424 47.8309 108.354 48.0938C108.285 48.3567 108.268 48.6308 108.305 48.9002L109.733 59.449C109.792 59.8789 109.984 60.2795 110.283 60.5938C110.581 60.9082 110.971 61.1206 111.397 61.2008L109.441 46.7647Z" fill="white"/>
<path d="M117.405 55.2817L116.787 50.7024C116.634 49.5459 116.078 48.4808 115.217 47.6956L116.639 58.1909C116.66 58.3594 116.704 58.5243 116.768 58.6815C117.356 57.6524 117.581 56.4545 117.405 55.2817Z" fill="#3F3D56"/>
<path d="M112.517 58.5811C112.947 58.5227 113.163 57.4987 113 56.2938C112.837 55.0889 112.356 54.1595 111.927 54.2179C111.497 54.2763 111.281 55.3003 111.444 56.5052C111.608 57.7101 112.088 58.6395 112.517 58.5811Z" fill="#3F3D56"/>
<path d="M111.576 52.9199C112.005 52.8615 112.221 51.8375 112.058 50.6326C111.895 49.4278 111.414 48.4983 110.985 48.5567C110.555 48.6151 110.339 49.6392 110.503 50.844C110.666 52.0489 111.146 52.9783 111.576 52.9199Z" fill="#3F3D56"/>
<path d="M117.54 55.1215C117.97 55.0631 118.186 54.0391 118.022 52.8342C117.859 51.6294 117.379 50.6999 116.949 50.7583C116.52 50.8167 116.304 51.8408 116.467 53.0456C116.63 54.2505 117.111 55.1799 117.54 55.1215Z" fill="#3F3D56"/>
<path d="M89.6295 34.7251C87.9063 34.7201 86.1869 34.8876 84.4969 35.2252C82.5946 35.6058 80.62 36.0618 78.68 36.6562C75.6507 36.5084 73.4219 35.7221 72.973 34.5113C76.5045 32.4669 80.8147 31.1491 85.7526 30.5075C87.8075 30.2336 89.8848 30.1704 91.9525 30.3188C92.1714 30.4474 92.3606 30.6209 92.5078 30.828C92.655 31.035 92.7567 31.271 92.8064 31.5203C92.9539 32.6148 91.7076 33.7785 89.6295 34.7251Z" fill="#3F3D56"/>
<path d="M69.5889 65.3241L67.1718 55.2565C67.0856 54.8933 66.8942 54.5637 66.6216 54.3091C66.3491 54.0545 66.0075 53.8863 65.6398 53.8255C65.536 53.8093 65.431 53.8009 65.3259 53.8004C65.1778 53.8009 65.0303 53.8188 64.8864 53.8538L63.951 54.0803C62.7465 54.3721 61.7068 55.1308 61.06 56.1898C60.4132 57.2488 60.2122 58.5216 60.501 59.7289L61.584 64.2453C61.8313 65.3086 62.4202 66.2611 63.2603 66.9564C63.3965 67.0665 63.539 67.1684 63.6873 67.2615C64.2135 67.5919 64.8004 67.8134 65.4134 67.9127C66.0265 68.0121 66.6532 67.9875 67.2565 67.8402L68.1889 67.6138C68.4354 67.5561 68.6673 67.448 68.8701 67.2961C69.1716 67.0759 69.4009 66.7708 69.5289 66.4196C69.6569 66.0685 69.6778 65.6872 69.5889 65.3241Z" fill="#6C63FF"/>
<path d="M64.5215 63.4509C64.9429 63.3493 65.0544 62.3086 64.7704 61.1264C64.4865 59.9443 63.9147 59.0683 63.4933 59.1699C63.0719 59.2715 62.9605 60.3122 63.2444 61.4944C63.5283 62.6765 64.1001 63.5525 64.5215 63.4509Z" fill="#3F3D56"/>
<path d="M61.3823 64.3944C61.8037 64.2928 61.9152 63.2521 61.6312 62.07C61.3473 60.8878 60.7755 60.0119 60.3541 60.1135C59.9327 60.2151 59.8213 61.2558 60.1052 62.4379C60.3892 63.6201 60.9609 64.496 61.3823 64.3944Z" fill="#3F3D56"/>
<path d="M69.7428 65.2863L67.3256 55.2188C67.2314 54.8258 67.0236 54.4694 66.7282 54.1941C66.4328 53.9189 66.063 53.7371 65.6649 53.6714L68.9642 67.4219C69.2901 67.1828 69.5379 66.8524 69.6765 66.4723C69.815 66.0922 69.8381 65.6795 69.7428 65.2863Z" fill="white"/>
<path d="M61.0472 57.7349C60.9805 57.4549 60.8553 57.1923 60.6799 56.9644C60.3401 57.846 60.2777 58.8107 60.501 59.7289L61.584 64.2453C61.8313 65.3086 62.4202 66.2611 63.2603 66.9564L61.0472 57.7349Z" fill="#3F3D56"/>
</g>
<defs>
<clipPath id="clip0_4_212">
<rect width="533" height="386" fill="white" transform="translate(1 48)"/>
</clipPath>
<clipPath id="clip1_4_212">
<rect width="267" height="233" fill="white"/>
</clipPath>
</defs>
</svg>
