<svg width="433" height="264" viewBox="0 0 433 264" fill="none" xmlns="http://www.w3.org/2000/svg">
<path d="M124.094 156.397V14.4712C124.094 6.99803 130.181 0.918274 137.664 0.918274H419.43C426.912 0.918274 433 6.99803 433 14.4712V156.397C433 163.87 426.912 169.95 419.43 169.95H137.664C130.181 169.95 124.094 163.87 124.094 156.397ZM431.624 14.4712C431.624 7.74509 426.165 2.29252 419.43 2.29252H137.664C130.929 2.29252 125.47 7.74524 125.47 14.4715V156.397C125.47 163.123 130.929 168.576 137.664 168.576H329.317C385.82 168.576 431.624 122.829 431.624 66.3977L431.624 14.4712Z" fill="#4F4D8D"/>
<path d="M223.361 26.7341H65.4447C60.7623 26.7341 56.9547 30.5368 56.9547 35.2134V93.1511C56.9547 97.8277 60.7623 101.63 65.4447 101.63H223.361C228.043 101.63 231.851 97.8277 231.851 93.1511V35.2134C231.851 30.5368 228.043 26.7341 223.361 26.7341Z" fill="#1A1A2C"/>
<path d="M223.361 26.7341H65.4447C60.7623 26.7341 56.9547 30.5368 56.9547 35.2134V93.1511C56.9547 97.8277 60.7623 101.63 65.4447 101.63H223.361C228.043 101.63 231.851 97.8277 231.851 93.1511V35.2134C231.851 30.5368 228.043 26.7341 223.361 26.7341ZM230.958 93.1511C230.958 97.3373 227.552 100.739 223.361 100.739H65.4447C61.2533 100.739 57.8475 97.3373 57.8475 93.1511V35.2134C57.8475 31.0272 61.2533 27.6257 65.4447 27.6257H223.361C227.552 27.6257 230.958 31.0272 230.958 35.2134V93.1511Z" fill="#3F3D56"/>
<path d="M72.8386 53.1396H213.188C214.518 53.1396 215.596 54.2164 215.596 55.5446C215.596 56.8728 214.518 57.9495 213.188 57.9495H72.8386C71.5087 57.9495 70.4307 56.8728 70.4307 55.5446C70.4307 54.2164 71.5087 53.1396 72.8386 53.1396Z" fill="#6C63FF"/>
<path d="M72.8386 68.9434H123.75C125.08 68.9434 126.158 70.0201 126.158 71.3483C126.158 72.6766 125.08 73.7533 123.75 73.7533H72.8386C71.5087 73.7533 70.4307 72.6766 70.4307 71.3483C70.4307 70.0201 71.5087 68.9434 72.8386 68.9434Z" fill="#6C63FF"/>
<path d="M379.304 45.7923H282.986C281.469 45.7923 280.234 44.5593 280.234 43.0438C280.234 41.5283 281.469 40.2953 282.986 40.2953H379.304C380.822 40.2953 382.056 41.5283 382.056 43.0438C382.056 44.5593 380.822 45.7923 379.304 45.7923Z" fill="#4F4D8D"/>
<path d="M397.564 105.399H263.351V104.712C307.542 111.48 352.325 110.923 397.564 104.712V105.399Z" fill="#1A1A2C"/>
<path d="M379.304 80.8355H282.986C281.469 80.8355 280.234 79.6026 280.234 78.0871C280.234 76.5716 281.469 75.3386 282.986 75.3386H379.304C380.822 75.3386 382.056 76.5716 382.056 78.0871C382.056 79.6026 380.822 80.8355 379.304 80.8355Z" fill="#4F4D8D"/>
<path d="M398.252 114.331H264.039V115.019H398.252V114.331Z" fill="#E6E6E6"/>
<path d="M379.304 62.7593H282.986C281.469 62.7593 280.234 61.5263 280.234 60.0108C280.234 58.4953 281.469 57.2623 282.986 57.2623H379.304C380.822 57.2623 382.056 58.4953 382.056 60.0108C382.056 61.5263 380.822 62.7593 379.304 62.7593Z" fill="#4F4D8D"/>
<path d="M398.252 123.951C351.925 120.804 306.934 120.303 264.039 123.951V123.264H398.252V123.951Z" fill="#1A1A2C"/>
<path d="M213.026 112.77L207.364 110.091C209.686 113.328 211.687 118.383 212.759 122.406C214.573 118.659 217.497 114.074 220.391 111.335L214.407 112.872C218.094 94.8231 231.964 81.8655 247.846 81.8655V80.4912C231.257 80.4912 216.791 93.9915 213.026 112.77Z" fill="#3F3D56"/>
<path d="M239.087 140.271H203.311C201.794 140.271 200.559 139.038 200.559 137.522C200.559 136.007 201.794 134.774 203.311 134.774H239.087C240.604 134.774 241.838 136.007 241.838 137.522C241.838 139.038 240.604 140.271 239.087 140.271Z" fill="#6C63FF"/>
<path d="M147.485 80.6245C152.805 80.6245 157.117 76.3176 157.117 71.0048C157.117 65.692 152.805 61.3851 147.485 61.3851C142.166 61.3851 137.853 65.692 137.853 71.0048C137.853 76.3176 142.166 80.6245 147.485 80.6245Z" fill="#6C63FF"/>
<path d="M152.495 65.3719C152.036 65.1038 151.335 65.2428 151.083 65.7417C149.938 68.0068 148.793 70.272 147.649 72.5372C146.725 71.0922 145.544 69.8305 144.173 68.773C143.732 68.4324 143.017 68.7059 142.761 69.1428C142.449 69.6752 142.689 70.2115 143.131 70.553C144.73 71.7861 145.962 73.4435 146.792 75.2727C147.107 75.9681 148.245 75.9242 148.574 75.2727C150.004 72.4425 151.435 69.6123 152.865 66.7821C153.116 66.2854 152.997 65.6649 152.495 65.3719Z" fill="white"/>
<path d="M263.067 52.4525C268.387 52.4525 272.699 48.1456 272.699 42.8328C272.699 37.52 268.387 33.2131 263.067 33.2131C257.748 33.2131 253.435 37.52 253.435 42.8328C253.435 48.1456 257.748 52.4525 263.067 52.4525Z" fill="#6C63FF"/>
<path d="M268.077 37.1999C267.618 36.9318 266.917 37.0708 266.665 37.5697C265.52 39.8348 264.375 42.1 263.23 44.3652C262.307 42.9202 261.125 41.6585 259.755 40.601C259.313 40.2604 258.599 40.5339 258.343 40.9708C258.031 41.5032 258.271 42.0395 258.713 42.381C260.311 43.6141 261.544 45.2715 262.374 47.1007C262.689 47.7961 263.827 47.7522 264.156 47.1007C265.586 44.2705 267.017 41.4403 268.447 38.6101C268.698 38.1134 268.579 37.4929 268.077 37.1999Z" fill="white"/>
<path d="M401.353 68.2563C406.672 68.2563 410.984 63.9494 410.984 58.6366C410.984 53.3238 406.672 49.0169 401.353 49.0169C396.033 49.0169 391.721 53.3238 391.721 58.6366C391.721 63.9494 396.033 68.2563 401.353 68.2563Z" fill="#6C63FF"/>
<path d="M406.362 53.0037C405.903 52.7356 405.203 52.8746 404.95 53.3735C403.806 55.6387 402.661 57.9038 401.516 60.169C400.592 58.724 399.411 57.4624 398.04 56.4049C397.599 56.0643 396.884 56.3378 396.628 56.7746C396.317 57.3071 396.556 57.8434 396.999 58.1848C398.597 59.4179 399.829 61.0753 400.659 62.9045C400.975 63.5999 402.112 63.556 402.441 62.9045C403.872 60.0743 405.302 57.2441 406.733 54.4139C406.984 53.9172 406.864 53.2968 406.362 53.0037Z" fill="white"/>
<path d="M185.473 118.815H162.273C160.833 118.815 159.661 117.645 159.661 116.206C156.594 107.252 156.654 98.4778 159.661 89.8736C159.661 88.435 160.833 87.2646 162.273 87.2646H185.473C186.914 87.2646 188.085 88.435 188.085 89.8736V116.206C188.085 117.645 186.914 118.815 185.473 118.815Z" fill="#1A1A2C"/>
<path d="M167.244 88.0419C163.486 88.0419 160.439 91.0847 160.439 94.8381V115.648C160.439 116.968 161.511 118.038 162.833 118.038H175.662C182.093 118.038 187.307 112.831 187.307 106.408V90.4323C187.307 89.1121 186.235 88.0419 184.914 88.0419H167.244Z" fill="white"/>
<path d="M179.276 95.6943H168.414C168.14 95.6943 167.918 95.4718 167.918 95.1983C167.918 94.9248 168.14 94.7024 168.414 94.7024H179.276C179.55 94.7024 179.773 94.9248 179.773 95.1983C179.773 95.4718 179.55 95.6943 179.276 95.6943Z" fill="#4F4D8D"/>
<path d="M179.276 106.271H168.414C168.14 106.271 167.918 106.048 167.918 105.775C167.918 105.501 168.14 105.279 168.414 105.279H179.276C179.55 105.279 179.773 105.501 179.773 105.775C179.773 106.048 179.55 106.271 179.276 106.271Z" fill="#4F4D8D"/>
<path d="M185.105 100.986H162.586C162.312 100.986 162.089 100.764 162.089 100.49C162.089 100.217 162.312 99.9941 162.586 99.9941H185.105C185.379 99.9941 185.601 100.217 185.601 100.49C185.601 100.764 185.379 100.986 185.105 100.986Z" fill="#4F4D8D"/>
<path d="M185.37 110.571H175.974C175.7 110.571 175.477 110.349 175.477 110.075C175.477 109.802 175.7 109.579 175.974 109.579H185.37C185.644 109.579 185.867 109.802 185.867 110.075C185.867 110.349 185.644 110.571 185.37 110.571Z" fill="#E6E6E6"/>
<path d="M25.6348 46.7732C26.2458 43.9585 26.4254 46.0319 27.7545 43.4789C26.8422 46.778 28.5257 45.6977 30.762 48.2846C46.4778 50.7457 47.4681 45.3699 53.2841 45.5346L53.3139 45.5344C54.5936 45.5137 55.2511 43.9832 54.4796 42.9632C52.5745 40.4446 50.4745 36.5584 52.4619 34.1118C55.9829 29.7775 52.8801 20.8892 51.3625 22.8108C51.3625 15.3987 42.2232 10.538 38.6779 11.7423C32.1271 13.9676 26.0606 16.9689 25.3259 23.6843C25.2111 24.7329 25.0628 25.7754 24.8742 26.8133C24.4911 28.921 22.9135 29.4807 23.4564 31.5506L25.1542 33.2754C25.951 36.3131 25.6992 39.5021 24.6078 42.447C24.0044 44.0748 23.9208 45.4705 25.6348 46.7732Z" fill="#2F2E41"/>
<path d="M41.9961 36.8273C47.4366 36.8273 51.847 32.4224 51.847 26.9887C51.847 21.555 47.4366 17.1501 41.9961 17.1501C36.5555 17.1501 32.1451 21.555 32.1451 26.9887C32.1451 32.4224 36.5555 36.8273 41.9961 36.8273Z" fill="#A0616A"/>
<path d="M26.6506 251.279L31.7237 251.398L34.5515 228.635L27.0649 228.458L26.6506 251.279Z" fill="#A0616A"/>
<path d="M44.0557 261.849C44.0557 262.705 43.4476 263.399 42.6973 263.399H32.6277C32.6277 263.399 31.6367 259.421 27.5965 257.709L27.3177 263.399H22.1231L22.7525 254.249C22.7525 254.249 21.3629 249.354 24.2487 246.852C27.1346 244.35 24.7972 244.698 24.7972 244.698L25.9324 239.035L33.782 239.957L33.8397 248.846L37.6491 257.67L43.2364 260.427C43.7337 260.672 44.0557 261.231 44.0557 261.849Z" fill="#2F2E41"/>
<path d="M32.2299 230.627L36.2594 233.707L51.9672 216.974L46.021 212.427L32.2299 230.627Z" fill="#A0616A"/>
<path d="M40.0635 249.407C39.5588 250.099 38.6581 250.302 38.0517 249.861L29.9135 243.938C29.9135 243.938 31.4585 240.14 29.2028 236.38L25.622 240.815L21.4238 237.76L27.3278 230.735C27.3278 230.735 29.0912 225.961 32.8991 225.636C36.7069 225.312 34.6124 224.218 34.6124 224.218L38.8692 220.309L44.6696 225.671L39.4743 232.89L37.3499 242.262L40.2401 247.776C40.4974 248.267 40.428 248.908 40.0635 249.407Z" fill="#2F2E41"/>
<path d="M17.7134 134.888C18.0192 136.141 17.4559 141.97 17.7709 143.976C18.5718 149.076 25.8901 176.88 24.6276 184.806C20.002 213.848 26.3995 232.479 26.3995 232.479H36.7193L42.2232 144.527L47.5949 151.599L58.1058 182.953L39.5124 216.342L49.221 224.35L78.2085 178.318L57.6099 101.317L56.3655 96.6678L28.5343 95.8922L30.0828 98.2097L26.56 101.686C26.56 101.686 26.5554 101.695 26.5367 101.714C25.994 102.471 13.9333 119.418 17.7134 134.888Z" fill="#2F2E41"/>
<path d="M26.5367 101.714C29.76 102.864 51.5422 101.677 57.6099 101.317L56.3655 96.6679L28.5343 95.8923L30.0828 98.2098L26.56 101.686C26.56 101.686 26.5554 101.695 26.5367 101.714Z" fill="#A0616A"/>
<path d="M62.5604 64.4815L61.558 69.7941L61.315 71.0683L55.9829 81.9988L56.6837 98.0228C57.1323 99.8982 38.1996 95.6424 28.3643 100.039L20.7084 63.4703L28.4713 46.6157L34.5465 43.2448L35.5591 39.1996H48.4286C49.114 42.4054 48.371 43.985 47.0391 44.8941L50.2629 53.4809L62.5604 64.4815Z" fill="#6C63FF"/>
<path d="M72.6267 33.1459C72.4674 34.5217 72.0102 35.7474 71.3785 36.6716L70.69 49.8733L64.4097 49.3623L65.7844 36.0255C65.3805 34.9817 65.2155 33.6841 65.3748 32.3083C65.7387 29.1654 67.6571 26.805 69.6596 27.0363C71.6622 27.2676 72.9906 30.003 72.6267 33.1459Z" fill="#A0616A"/>
<path d="M47.5957 47.0197L48.4151 49.0168C48.4151 49.0168 36.4439 47.819 36.6995 54.0616C36.9176 59.3878 59.4508 80.4962 60.5275 80.9891C63.7164 82.4487 67.4227 80.4843 67.9997 77.0286C73.0735 63.9547 74.1249 52.1675 71.8066 41.4585H64.9267L62.6864 49.9066L62.5604 56.3328L58.9326 64.0619L47.0391 49.0169L47.5957 47.0197Z" fill="#6C63FF"/>
<path d="M7.71108 120.4C8.15341 119.054 8.25466 117.72 8.06441 116.591L13.0892 104.034L7.03634 101.82L2.59091 114.797C1.76796 115.594 1.0579 116.728 0.615568 118.075C-0.394934 121.15 0.37429 124.163 2.33366 124.805C4.29305 125.448 6.70058 123.475 7.71108 120.4Z" fill="#A0616A"/>
<path d="M36.6955 47.0266C36.6955 47.0266 29.2634 44.212 25.0444 47.6512C23.3044 49.0696 15.6094 58.8428 14.4241 72C14.3312 73.0312 13.6279 73.9183 13.2316 74.8827C10.7879 80.8304 6.58088 83.57 4.79201 88.6568C4.09295 90.6446 5.37515 95.7856 4.93344 97.5006C2.62053 106.481 3.45516 111.601 3.45516 111.601L9.70102 113.677L13.0892 111.286L18.6541 90.9898L36.6955 47.0266Z" fill="#6C63FF"/>
<path d="M92.5948 31.5506H69.3949C67.9545 31.5506 66.7826 30.3802 66.7826 28.9416C63.7153 19.9873 63.7758 11.2132 66.7826 2.60898C66.7826 1.17036 67.9545 0 69.3949 0H92.5948C94.0352 0 95.2071 1.17036 95.2071 2.60898V28.9416C95.2071 30.3802 94.0353 31.5506 92.5948 31.5506Z" fill="#E6E6E6"/>
<path d="M74.3657 0.777344C70.6075 0.777344 67.561 3.8201 67.561 7.57351V28.3829C67.561 29.7031 68.6325 30.7733 69.9543 30.7733H82.7839C89.2152 30.7733 94.4287 25.5662 94.4287 19.143V3.16767C94.4287 1.84753 93.3572 0.777344 92.0354 0.777344H74.3657Z" fill="#4F4D8D"/>
<path d="M86.3978 8.42976H75.5359C75.2621 8.42976 75.0393 8.20722 75.0393 7.93373C75.0393 7.66024 75.2621 7.43781 75.5359 7.43781H86.3978C86.6717 7.43781 86.8944 7.66024 86.8944 7.93373C86.8944 8.20722 86.6717 8.42976 86.3978 8.42976Z" fill="#E6E6E6"/>
<path d="M86.3978 19.0063H75.5359C75.2621 19.0063 75.0393 18.7838 75.0393 18.5103C75.0393 18.2368 75.2621 18.0143 75.5359 18.0143H86.3978C86.6717 18.0143 86.8944 18.2368 86.8944 18.5103C86.8944 18.7838 86.6717 19.0063 86.3978 19.0063Z" fill="#E6E6E6"/>
<path d="M92.2264 13.7215H69.7073C69.4335 13.7215 69.2107 13.499 69.2107 13.2255C69.2107 12.952 69.4335 12.7296 69.7073 12.7296H92.2264C92.5003 12.7296 92.723 12.952 92.723 13.2255C92.723 13.499 92.5003 13.7215 92.2264 13.7215Z" fill="#E6E6E6"/>
<path d="M92.492 23.3067H83.0956C82.8218 23.3067 82.599 23.0842 82.599 22.8107C82.599 22.5372 82.8218 22.3148 83.0956 22.3148H92.492C92.7659 22.3148 92.9886 22.5372 92.9886 22.8107C92.9886 23.0842 92.7659 23.3067 92.492 23.3067Z" fill="#E6E6E6"/>
<path d="M99.2732 252.064C100.695 252.153 101.48 250.389 100.405 249.362L100.298 248.937C100.312 248.903 100.326 248.869 100.34 248.835C101.778 245.412 106.649 245.435 108.074 248.864C109.339 251.906 110.95 254.954 111.346 258.171C111.524 259.591 111.444 261.038 111.128 262.432C114.092 255.966 115.652 248.905 115.652 241.804C115.652 240.02 115.554 238.236 115.354 236.456C115.19 235 114.963 233.553 114.67 232.12C113.084 224.371 109.649 216.991 104.694 210.826C102.312 209.526 100.326 207.493 99.1262 205.057C98.6951 204.178 98.3574 203.233 98.1974 202.27C98.4685 202.305 99.2195 198.182 99.015 197.929C99.3928 197.357 100.069 197.072 100.481 196.514C102.533 193.735 105.36 194.22 106.836 197.996C109.988 199.585 110.019 202.22 108.085 204.755C106.854 206.368 106.685 208.55 105.605 210.276C105.716 210.418 105.832 210.556 105.943 210.698C107.98 213.307 109.742 216.112 111.227 219.059C110.807 215.784 111.427 211.838 112.484 209.295C113.686 206.397 115.941 203.957 117.926 201.452C120.311 198.443 125.2 199.756 125.62 203.57C125.625 203.607 125.628 203.644 125.632 203.681C125.337 203.847 125.049 204.024 124.766 204.21C123.157 205.273 123.713 207.765 125.62 208.059L125.663 208.066C125.557 209.127 125.375 210.178 125.108 211.212C127.655 221.049 122.156 224.632 114.306 224.793C114.132 224.882 113.963 224.97 113.79 225.055C114.586 227.291 115.221 229.586 115.692 231.911C116.114 233.966 116.407 236.043 116.572 238.129C116.776 240.761 116.758 243.406 116.536 246.033L116.55 245.94C117.114 243.046 118.687 240.344 120.971 238.471C124.374 235.679 129.181 234.651 132.851 232.407C134.618 231.327 136.883 232.723 136.574 234.769L136.559 234.867C136.013 235.089 135.479 235.346 134.964 235.635C134.669 235.801 134.38 235.978 134.098 236.164C132.488 237.227 133.045 239.719 134.952 240.013L134.995 240.02C135.026 240.024 135.053 240.029 135.084 240.033C134.146 242.256 132.84 244.32 131.205 246.1C129.612 254.687 122.773 255.502 115.456 253.001H115.452C114.652 256.48 113.484 259.88 111.982 263.12H99.5839C99.5394 262.982 99.4994 262.84 99.4594 262.702C100.606 262.774 101.761 262.707 102.89 262.498C101.97 261.371 101.05 260.235 100.13 259.108C100.108 259.085 100.09 259.063 100.073 259.041C99.6061 258.464 99.1351 257.892 98.6685 257.315L98.6682 257.314C98.639 255.543 98.852 253.777 99.2732 252.064Z" fill="#4F4D8D"/>
<path d="M44.6665 15.3479H42.661C36.7938 15.3545 26.7653 23.6427 30.6458 29.4561C27.3322 38.2837 27.2115 42.8767 28.6181 45.2805C29.1359 46.1654 30.164 46.5685 31.1876 46.4967C31.3241 46.4872 31.4615 46.4842 31.5999 46.4888C32.5917 46.5216 33.922 51.1777 34.8451 51.5357L37.2955 50.7918L41.3149 46.7804L39.2754 40.6623L35.329 37.5785L35.8667 30.4367C33.2253 24.3735 36.099 24.0767 37.7162 22.1209L37.8798 28.3957L40.1959 26.1633C42.0824 26.2121 44.2871 27.029 45.7527 25.3299C48.4151 22.2191 51.175 25.975 54.3195 26.7341L55.2949 25.9629C55.3283 24.2135 55.0692 22.5244 54.5663 21.0119C54.3295 20.2999 53.7244 19.7131 53.6989 19.0054C53.6035 16.3494 48.5773 13.7732 44.6665 15.3479Z" fill="#2F2E41"/>
</svg>
