<svg width="576" height="592" viewBox="0 0 576 592" fill="none" xmlns="http://www.w3.org/2000/svg">
<g clip-path="url(#clip0_6_1065)">
<path d="M239.598 514.303L245.889 489.852C238.32 479.91 228.831 472.323 218.247 467.751C228.588 488.195 218.568 514.865 222.743 538.219C224.092 545.491 226.795 552.308 230.652 558.164C234.509 564.02 239.42 568.765 245.022 572.048L254.569 586.164C259.574 575.729 262.624 564.123 263.508 552.146C264.393 540.169 263.091 528.105 259.692 516.786C257.733 510.458 255.114 504.451 251.897 498.904C246.223 506.864 239.598 514.303 239.598 514.303Z" fill="#F2F2F2"/>
<path d="M205.006 517.427L201.5 492.194C191.009 487.324 179.681 485.584 168.5 487.125C185.395 499.92 186.393 529.123 198.858 547.804C202.783 553.595 207.75 558.257 213.39 561.446C219.03 564.635 225.2 566.268 231.441 566.224L245.261 573.778C245.841 561.774 244.233 549.763 240.549 538.572C236.864 527.381 231.191 517.277 223.919 508.955C219.801 504.334 215.211 500.351 210.259 497.099C208.156 507.242 205.006 517.427 205.006 517.427Z" fill="#F2F2F2"/>
<path d="M410.908 579.89L401.217 579.889L396.607 535.283L410.91 535.284L410.908 579.89Z" fill="#FFB6B6"/>
<path d="M413.379 591.099L382.133 591.098V590.626C382.133 586.777 383.415 583.086 385.696 580.364C387.976 577.642 391.069 576.113 394.295 576.113H394.296L400.003 570.945L410.652 576.113L413.379 576.114L413.379 591.099Z" fill="#2F2E41"/>
<path d="M567.444 537.708L560.836 546.167L530.35 519.779L540.102 507.294L567.444 537.708Z" fill="#FFB6B6"/>
<path d="M576 543.193L554.696 570.47L554.407 570.149C552.047 567.524 550.658 563.889 550.545 560.042C550.431 556.195 551.603 552.452 553.802 549.636L554.526 541.129L564.955 535.356L566.814 532.975L576 543.193Z" fill="#2F2E41"/>
<path d="M553.105 512.639L542.862 538.204L479.967 488.506L470.817 473.628L440.815 424.845L428.62 447.939L420.134 472.08C417.369 474.233 415.038 477.092 413.311 480.45C411.584 483.809 410.504 487.583 410.148 491.5L409.76 495.774L415.122 553.302L394.741 560.77L383.036 483.49L386.862 466.744L390.802 443.238L410.636 368.957H463.711L494.152 446.286L496.378 462.043L505.009 473.864L553.105 512.639Z" fill="#2F2E41"/>
<path d="M442.805 247.427L451.74 255.546L462.515 259.498C462.515 259.498 466.969 334.275 470.983 339.065C474.997 343.855 471.377 343.984 472.183 350.206C472.99 356.429 474.95 369.184 474.95 369.184C447.857 386.299 424.5 386.759 405.739 366.731C405.499 365.492 405.621 364.192 406.084 363.048C406.548 361.903 407.326 360.981 408.288 360.436C411.78 358.225 405.069 347.905 407.923 346.179C410.777 344.454 406.763 329.485 406.763 329.485L409.396 298.254L407.316 293.262L412.392 262.714L421.201 258.875L424.72 248.757L442.805 247.427Z" fill="#3F3D56"/>
<path d="M448.402 380.332C448.362 378.981 448.571 377.637 449.013 376.393C449.455 375.149 450.121 374.036 450.963 373.132C451.805 372.229 452.802 371.556 453.886 371.163C454.969 370.769 456.111 370.663 457.232 370.854L469.824 341.646L476.839 356.52L463.806 381.976C463.414 384.203 462.351 386.18 460.818 387.533C459.286 388.886 457.391 389.522 455.492 389.319C453.593 389.116 451.823 388.09 450.516 386.433C449.209 384.777 448.457 382.606 448.402 380.332Z" fill="#FFB6B6"/>
<path d="M469.607 373.187L496.614 323.233L496.525 323.003C496.423 322.74 490.308 306.977 484.382 292.539C483.469 290.316 482.561 288.124 481.68 286.024C481.3 285.119 480.926 284.232 480.557 283.363C478.068 277.508 475.893 272.668 474.595 270.369C471.724 265.171 467.45 261.301 462.481 259.402L462.356 259.364L462.237 259.423C459.807 260.647 457.799 262.822 456.544 265.591C455.289 268.359 454.862 271.556 455.333 274.653C457.676 289.591 462.896 303.675 470.581 315.794L474.959 322.681L459.744 362.158L469.607 373.187Z" fill="#3F3D56"/>
<path d="M376.737 181.707C377.481 182.726 378.029 183.927 378.341 185.226C378.654 186.525 378.724 187.889 378.547 189.224C378.37 190.559 377.949 191.831 377.316 192.95C376.682 194.07 375.85 195.011 374.879 195.705L380.509 227.858L367.211 221.574L363.903 192.005C363.033 189.981 362.816 187.646 363.292 185.443C363.768 183.24 364.905 181.322 366.487 180.053C368.069 178.783 369.987 178.251 371.876 178.556C373.765 178.86 375.495 179.982 376.737 181.707Z" fill="#FFB6B6"/>
<path d="M364.034 203.193L369.412 262.294L369.603 262.406C369.76 262.498 376.573 266.486 384.936 271.235C386.347 272.037 386.144 275.507 387.619 276.337C388.635 276.908 391.317 274.835 392.343 275.408C401.484 280.509 410.728 285.47 414.411 286.814C419.385 288.695 424.747 288.489 429.609 286.23L429.726 286.166L429.787 286.03C431.029 283.253 431.441 280.054 430.956 276.96C430.47 273.867 429.115 271.063 427.115 269.011C417.412 259.167 405.926 252.148 393.561 248.509L386.526 246.449L377.516 204.348L364.034 203.193Z" fill="#3F3D56"/>
<path d="M433.279 244.079C443.039 244.079 450.952 234.636 450.952 222.988C450.952 211.34 443.039 201.897 433.279 201.897C423.519 201.897 415.606 211.34 415.606 222.988C415.606 234.636 423.519 244.079 433.279 244.079Z" fill="#FFB6B6"/>
<path d="M415.733 208.855C417.186 203.809 424.421 200.309 436.15 199.823C447.879 199.336 450.854 215.831 450.854 215.831C458.684 223.411 442.493 243.705 441.71 242.974L442.062 239.162C442.645 232.846 445.123 227.918 441.972 221.337L438.945 221.378C435.037 222.275 431.129 223.172 427.22 224.069L431.847 219.207L431.717 218.966C429.748 220.189 427.607 220.965 425.401 221.255C422.914 221.429 420.195 220.248 419.004 217.637C418.686 216.919 418.491 216.132 418.432 215.324C415.078 216.923 413.545 221.857 413.545 221.857C413.545 221.857 414.28 213.901 415.733 208.855Z" fill="#2F2E41"/>
<path d="M71.2034 210.12C70.9636 209.758 70.7054 209.413 70.4302 209.087C70.4974 208.977 70.5647 208.857 70.6319 208.746L71.2034 210.12Z" fill="#2F2E41"/>
<path d="M74.6404 294.947C71.7495 301.074 65.9761 304.494 60.2532 306.169C53.825 308.178 47.0559 308.022 40.6976 305.718C39.8909 305.407 39.0841 305.046 38.3025 304.645C38.6783 303.454 38.9761 302.23 39.1933 300.984C39.4859 299.298 39.6323 297.581 39.6303 295.859C38.9936 297.342 38.1687 298.699 37.1848 299.881C36.4259 300.832 35.5639 301.659 34.6217 302.338C31.6992 300.221 29.1686 297.416 27.1844 294.094C27.3104 293.723 27.4365 293.352 27.5541 292.981C28.1644 291.043 28.6476 289.051 28.9996 287.024C29.4771 284.282 29.7164 281.489 29.7139 278.689C28.6777 281.102 27.3339 283.308 25.7305 285.228C25.2498 285.842 24.7391 286.422 24.201 286.963C23.3678 283.944 23.0458 280.756 23.2535 277.587C23.4612 274.417 24.1946 271.328 25.4111 268.5C28.739 261.159 35.1931 256.796 40.9413 252.052C46.6979 247.308 52.4545 240.89 52.9419 232.556C53.2696 226.929 51.0847 221.293 51.9586 215.757C52.3262 213.422 53.2236 211.253 54.553 209.485C55.8824 207.717 57.5928 206.418 59.498 205.731C61.4031 205.043 63.4299 204.992 65.3575 205.584C67.2852 206.176 69.0398 207.388 70.4301 209.087C67.1695 214.603 63.9256 220.31 62.6062 226.869C61.2616 233.548 62.3625 241.381 66.7745 245.804C68.2872 247.328 70.1444 248.412 71.3126 250.317C72.8672 252.844 72.8756 256.214 73.1277 259.323C73.6319 265.371 75.2875 271.188 76.1783 277.175C77.0775 283.152 77.1279 289.641 74.6404 294.947Z" fill="#2F2E41"/>
<path d="M15.3786 543.653L23.0486 550.725L49.556 518.785L38.2358 508.347L15.3786 543.653Z" fill="#A0616A"/>
<path d="M15.7049 536.743L28.3882 547.059L24.3744 553.258L29.7499 573.388C30.0155 574.382 30.0078 575.452 29.728 576.44C29.4483 577.429 28.911 578.285 28.1947 578.883C27.4784 579.482 26.6206 579.791 25.7465 579.767C24.8723 579.742 24.0277 579.384 23.3358 578.746L8.90164 565.436L10.3839 557.01L5.44226 562.246L0 557.228L15.7049 536.743Z" fill="#2F2E41"/>
<path d="M54.2908 227.939C54.2897 231.515 55.0242 235.037 56.4299 238.195C57.8356 241.353 59.8695 244.052 62.353 246.053C64.8365 248.054 67.6936 249.298 70.6737 249.674C73.6538 250.049 76.6656 249.547 79.4448 248.209C82.2241 246.872 84.6856 244.74 86.6136 242.002C88.5415 239.265 89.8767 236.004 90.5021 232.506C91.1276 229.009 91.024 225.382 90.2005 221.943C89.377 218.504 87.8589 215.36 85.7793 212.785L85.6914 212.68C85.5449 212.496 85.3984 212.313 85.2447 212.138L85.2418 212.137L85.2395 212.135L85.2379 212.133L85.2374 212.129C85.047 211.92 84.8566 211.71 84.6588 211.509C81.4368 208.136 76.9082 204.474 72.2874 204.474C62.1745 204.474 54.2908 215.87 54.2908 227.939Z" fill="#2F2E41"/>
<path d="M158.639 216.719C158.727 217.884 158.599 219.058 158.266 220.158C157.932 221.258 157.4 222.258 156.708 223.086C156.015 223.914 155.179 224.551 154.258 224.952C153.337 225.353 152.354 225.508 151.377 225.407L106.044 274.254L98.2427 259.55L145.257 216.158C145.509 214.211 146.35 212.443 147.622 211.187C148.894 209.931 150.507 209.276 152.157 209.345C153.806 209.414 155.377 210.203 156.572 211.562C157.767 212.921 158.502 214.756 158.639 216.719Z" fill="#A0616A"/>
<path d="M86.6693 288.998C86.6693 288.998 88.356 292.716 94.1176 286.976C98.7303 282.38 120.829 262.428 125.59 254.252C126.677 254.766 127.876 254.834 128.999 254.445C130.122 254.056 131.105 253.232 131.792 252.103L118.748 238.469C114.845 239.006 114.929 242.134 115.335 243.911L105.496 249.231L80.0868 268.61L85.4101 286.337L86.6693 288.998Z" fill="#6C63FF"/>
<path d="M62.0541 323.251L61.1039 328.651L60.2971 348.569L95.8178 350.899L94.7148 320.263L91.2718 313.512L62.0541 323.251Z" fill="#A0616A"/>
<path d="M77.1084 251.314C85.5868 251.314 92.4598 243.112 92.4598 232.993C92.4598 222.875 85.5868 214.673 77.1084 214.673C68.6301 214.673 61.757 222.875 61.757 232.993C61.757 243.112 68.6301 251.314 77.1084 251.314Z" fill="#A0616A"/>
<path d="M49.8538 300.568L49.7594 285.339C49.7572 279.859 51.311 274.541 54.1673 270.25C57.0235 265.96 61.0137 262.952 65.4868 261.716L65.5447 261.7L68.5803 256.818L80.9132 258.291L83.1737 263.804L92.1102 270.155L95.551 283.354C97.0434 284.542 98.3152 286.082 99.2876 287.881C100.26 289.679 100.912 291.697 101.203 293.809C102.371 302.714 97.1471 311.624 96.5257 312.645L94.9245 323.407L60.0923 330.742L59.8094 330.784L49.8538 300.568Z" fill="#6C63FF"/>
<path d="M95.8936 229.727C94.103 231.081 92.2451 232.303 90.3303 233.388C88.3868 234.502 86.354 235.379 84.2628 236.006C83.6645 234.439 82.9323 232.95 82.0778 231.563C82.2977 233.207 82.3033 234.881 82.0946 236.527C78.6284 237.194 75.0782 236.847 71.7496 235.514L68.8587 229.727L68.6402 236.186C66.2451 236.708 63.8584 237.199 61.4634 237.711C61.3205 237.731 61.1777 237.771 61.0432 237.801C59.5557 229.798 61.665 220.982 66.3544 215.647C68.6826 213.025 71.5869 211.247 74.7291 210.519C77.8713 209.791 81.1221 210.143 84.1031 211.535C84.4813 211.715 84.8678 211.916 85.2376 212.126L85.2382 212.13L85.24 212.133L85.2428 212.136L85.246 212.136C85.4645 212.267 85.6494 212.578 85.8931 212.548C96.381 211.153 96.7172 220.862 95.8936 229.727Z" fill="#2F2E41"/>
<path d="M70.3552 520.03L78.037 527.083L104.491 495.079L93.1533 484.67L70.3552 520.03Z" fill="#A0616A"/>
<path d="M71.3664 513.758L84.067 524.044L80.0638 530.253L85.4733 550.369C85.7406 551.363 85.7347 552.432 85.4566 553.422C85.1785 554.411 84.6427 555.268 83.9275 555.868C83.2122 556.468 82.3549 556.78 81.4807 556.757C80.6065 556.735 79.7613 556.38 79.0684 555.743L64.6117 542.468L66.0797 534.038L61.1469 539.286L55.6962 534.281L71.3664 513.758Z" fill="#2F2E41"/>
<path d="M45.4281 480.97L45.4277 480.85L49.0684 473.363L45.3508 463.617L45.2393 438.577L45.8419 434.818C46.6524 429.763 46.4166 424.547 45.1549 419.625L45.087 404.383C44.9564 400.565 49.9127 397.207 48.7569 394.024C37.832 363.937 59.9129 340.984 60.0621 340.8L60.5133 340.24L62.9616 342.453L65.2918 342.457L96.7375 349.295L96.9645 349.8C98.2013 352.568 100.588 362.111 100.73 366.43C102.297 368.595 120.149 393.247 121.736 394.96C132.459 406.539 138.599 425.705 141.304 436.099C141.976 438.668 142.112 441.393 141.699 444.039C141.286 446.684 140.337 449.169 138.936 451.277L98.3391 504.344L87.4142 492.309L109.381 444.539L107.797 439.693C104.955 439.067 102.382 437.284 100.519 434.647L96.0711 428.346C94.8396 426.606 94.057 424.478 93.8181 422.219L91.1207 421.831L81.4582 409.724L74.7546 482.173L72.9321 487.896L41.1935 532.426L27.7474 522.397L45.4281 480.97Z" fill="#2F2E41"/>
<path d="M40.581 169.883C39.9713 170.799 39.5372 171.863 39.3095 173.001C39.0817 174.139 39.0659 175.323 39.2629 176.469C39.46 177.615 39.8652 178.696 40.45 179.635C41.0349 180.574 41.7852 181.348 42.648 181.904L32.5557 217.56L40.7966 255.347L54.085 248.177L45.885 219.676L52.0199 178.19C52.7058 176.398 52.8172 174.369 52.3329 172.486C51.8487 170.603 50.8024 168.997 49.3924 167.973C47.9824 166.949 46.3066 166.578 44.6827 166.93C43.0587 167.282 41.5993 168.332 40.581 169.883Z" fill="#A0616A"/>
<path d="M52.7446 286.481C52.7446 286.481 49.6236 288.481 47.453 279.906C45.7152 273.042 33.8892 235.77 33.6761 225.817C32.5312 225.534 31.4978 224.804 30.7388 223.742C29.9797 222.681 29.5382 221.348 29.4837 219.954L46.6596 217.118C49.6736 220.125 48.163 222.684 47.0054 223.902L52.8554 235.728L65.0828 267.653L55.0222 285.083L52.7446 286.481Z" fill="#6C63FF"/>
<path d="M61.4599 237.709C63.2237 231.361 66.3865 225.696 70.6165 221.309C74.8465 216.923 79.9877 213.975 85.501 212.776C85.5229 212.767 85.5962 212.732 85.6914 212.68C85.7499 212.636 85.8232 212.593 85.8964 212.549C85.6767 212.4 85.4644 212.269 85.2446 212.138L85.2418 212.137L85.2394 212.136L85.2379 212.133L85.2374 212.129C85.047 211.92 84.8566 211.71 84.6588 211.509L84.1023 211.535C84.1023 211.535 64.5429 207.838 61.4599 237.709Z" fill="#FD6584"/>
<path d="M313.847 441.862C315.982 438.033 314.718 432.551 311.025 429.619C307.332 426.687 302.607 427.414 300.473 431.243C298.338 435.072 299.601 440.553 303.295 443.486C306.988 446.418 311.713 445.691 313.847 441.862Z" fill="#F2F2F2"/>
<path d="M270.514 298.943C272.649 295.113 271.385 289.632 267.692 286.7C263.999 283.767 259.274 284.494 257.139 288.323C255.005 292.153 256.268 297.634 259.961 300.566C263.655 303.499 268.379 302.772 270.514 298.943Z" fill="#F2F2F2"/>
<path d="M451.726 518.963C453.861 515.134 452.597 509.653 448.904 506.72C445.211 503.788 440.486 504.515 438.351 508.344C436.217 512.173 437.48 517.654 441.174 520.587C444.867 523.519 449.591 522.792 451.726 518.963Z" fill="#F2F2F2"/>
<path d="M85.3625 59.1767C87.4972 55.3475 86.2337 49.8662 82.5404 46.9338C78.847 44.0013 74.1225 44.7283 71.9878 48.5575C69.8531 52.3867 71.1166 57.868 74.8099 60.8004C78.5033 63.7328 83.2278 63.0059 85.3625 59.1767Z" fill="#F2F2F2"/>
<path d="M256.332 14.0443C258.467 10.2151 257.203 4.73376 253.51 1.80134C249.817 -1.13109 245.092 -0.404141 242.958 3.42503C240.823 7.2542 242.086 12.7356 245.78 15.668C249.473 18.6004 254.198 17.8734 256.332 14.0443Z" fill="#F2F2F2"/>
<path d="M175.417 392.7C177.552 388.871 176.288 383.39 172.595 380.457C168.901 377.525 164.177 378.252 162.042 382.081C159.907 385.91 161.171 391.391 164.864 394.324C168.558 397.256 173.282 396.529 175.417 392.7Z" fill="#E6E6E6"/>
<path d="M111.098 220.173C106.788 220.158 102.634 218.248 99.4296 214.808C96.2254 211.368 94.1959 206.64 93.7289 201.527L83.7266 90.664C83.2351 85.1596 84.5933 79.6474 87.5032 75.3366C90.4131 71.0258 94.6371 68.2686 99.2483 67.6699L396.242 29.5068C400.855 28.9201 405.474 30.5408 409.086 34.0134C412.698 37.486 415.009 42.5269 415.511 48.0301L425.513 158.892C426.005 164.397 424.646 169.91 421.736 174.22C418.826 178.531 414.602 181.289 409.991 181.887L112.997 220.051C112.366 220.132 111.732 220.173 111.098 220.173Z" fill="#E6E6E6"/>
<path d="M392.971 34.6535C392.413 34.6537 391.856 34.6895 391.301 34.7609L105.015 71.548C103.013 71.8053 101.073 72.5305 99.3062 73.6824C97.5392 74.8342 95.9797 76.3901 94.7167 78.2613C93.4536 80.1324 92.5117 82.2821 91.9448 84.5877C91.3779 86.8932 91.197 89.3095 91.4126 91.6984L96.4699 147.752C97.2874 156.813 99.5925 165.594 103.254 173.593C106.915 181.591 111.86 188.651 117.807 194.369C123.754 200.086 130.587 204.35 137.915 206.917C145.243 209.483 152.923 210.302 160.516 209.326L361.823 183.458C369.393 182.485 376.729 179.743 383.41 175.387C390.092 171.031 395.99 165.147 400.766 158.071C405.543 150.995 409.105 142.866 411.249 134.147C413.393 125.429 414.077 116.291 413.261 107.257L408.185 50.9936C407.781 46.5121 406.004 42.3663 403.197 39.351C400.389 36.3357 396.748 34.663 392.971 34.6535Z" fill="#22274B" fill-opacity="0.69"/>
<path d="M332.684 92.9889L172.675 113.55C172.217 113.609 171.754 113.561 171.312 113.407C170.871 113.252 170.459 112.996 170.1 112.652C169.742 112.307 169.443 111.882 169.223 111.4C169.002 110.918 168.863 110.389 168.814 109.843C168.764 109.297 168.806 108.745 168.935 108.218C169.065 107.691 169.281 107.199 169.57 106.772C169.859 106.344 170.215 105.989 170.619 105.726C171.024 105.463 171.467 105.298 171.925 105.24L331.934 84.6793C332.391 84.6198 332.854 84.6685 333.296 84.8226C333.738 84.9767 334.15 85.2333 334.508 85.5775C334.867 85.9218 335.165 86.3471 335.386 86.829C335.607 87.3109 335.746 87.84 335.795 88.3861C335.844 88.9322 335.803 89.4845 335.673 90.0115C335.543 90.5384 335.328 91.0297 335.039 91.4572C334.75 91.8847 334.393 92.24 333.989 92.5028C333.585 92.7656 333.141 92.9308 332.684 92.9889Z" fill="#FCAE18"/>
<path d="M334.985 118.491L174.975 139.052C174.052 139.171 173.127 138.847 172.404 138.152C171.681 137.456 171.219 136.447 171.119 135.345C171.02 134.243 171.291 133.139 171.874 132.276C172.456 131.413 173.302 130.861 174.226 130.743L334.235 110.182C335.158 110.063 336.083 110.387 336.806 111.082C337.53 111.778 337.992 112.787 338.091 113.889C338.191 114.991 337.919 116.095 337.337 116.958C336.754 117.821 335.908 118.373 334.985 118.491Z" fill="#6C63FF"/>
<path d="M195.923 162.158L177.276 164.554C176.353 164.673 175.428 164.349 174.705 163.654C173.982 162.958 173.519 161.949 173.42 160.847C173.321 159.745 173.592 158.641 174.175 157.778C174.757 156.915 175.603 156.363 176.527 156.245L195.173 153.849C195.631 153.789 196.094 153.838 196.535 153.992C196.977 154.146 197.389 154.403 197.748 154.747C198.106 155.091 198.405 155.516 198.625 155.998C198.846 156.48 198.985 157.009 199.034 157.555C199.084 158.101 199.042 158.654 198.912 159.181C198.783 159.708 198.567 160.199 198.278 160.626C197.989 161.054 197.633 161.409 197.228 161.672C196.824 161.935 196.381 162.1 195.923 162.158Z" fill="#6C63FF"/>
<path d="M104.802 95.3419C108.283 95.3419 111.105 91.9742 111.105 87.8199C111.105 83.6655 108.283 80.2978 104.802 80.2978C101.321 80.2978 98.4989 83.6655 98.4989 87.8199C98.4989 91.9742 101.321 95.3419 104.802 95.3419Z" fill="#3F3D56"/>
<path d="M386.862 57.7316C390.344 57.7316 393.166 54.3638 393.166 50.2095C393.166 46.0552 390.344 42.6874 386.862 42.6874C383.381 42.6874 380.559 46.0552 380.559 50.2095C380.559 54.3638 383.381 57.7316 386.862 57.7316Z" fill="#3F3D56"/>
<path d="M301.648 212.157C301.069 211.55 300.61 210.796 300.305 209.951C300.001 209.106 299.857 208.191 299.886 207.271C300.203 196.346 298.695 185.454 295.451 175.23C295.176 174.371 295.064 173.449 295.125 172.532C295.186 171.615 295.417 170.726 295.802 169.928C296.171 169.162 296.676 168.502 297.282 167.994C297.887 167.485 298.579 167.141 299.307 166.986C306.633 161.71 314.144 160.228 321.634 162.584C322.842 162.372 324.074 162.68 325.108 163.454C326.143 164.228 326.912 165.417 327.278 166.807C330.311 178.556 331.998 190.741 332.293 203.03C332.321 204.505 331.903 205.942 331.114 207.077C330.326 208.213 329.221 208.971 328.002 209.213L305.836 213.583C305.093 213.732 304.332 213.68 303.607 213.434C302.883 213.187 302.214 212.751 301.648 212.157Z" fill="#6C63FF"/>
<path d="M303.617 180.324L322.273 176.645C322.426 176.615 322.573 176.55 322.706 176.452C322.838 176.354 322.952 176.227 323.043 176.076C323.134 175.925 323.199 175.755 323.234 175.574C323.269 175.393 323.274 175.206 323.249 175.023C323.224 174.84 323.168 174.665 323.086 174.508C323.004 174.35 322.897 174.214 322.77 174.106C322.644 173.998 322.501 173.921 322.349 173.879C322.198 173.837 322.041 173.832 321.888 173.862L303.232 177.541C302.923 177.602 302.647 177.808 302.465 178.111C302.283 178.415 302.21 178.793 302.261 179.161C302.312 179.53 302.483 179.859 302.738 180.077C302.992 180.295 303.308 180.384 303.617 180.324Z" fill="white"/>
<path d="M305.158 191.456L323.814 187.777C324.123 187.716 324.4 187.511 324.582 187.207C324.765 186.903 324.839 186.525 324.787 186.156C324.736 185.787 324.565 185.457 324.31 185.239C324.055 185.022 323.738 184.933 323.429 184.994L304.773 188.673C304.619 188.703 304.472 188.768 304.34 188.866C304.208 188.964 304.093 189.091 304.003 189.242C303.912 189.393 303.847 189.563 303.812 189.744C303.776 189.924 303.771 190.112 303.797 190.295C303.822 190.478 303.877 190.653 303.959 190.81C304.042 190.968 304.149 191.104 304.275 191.212C304.402 191.32 304.545 191.397 304.696 191.439C304.848 191.481 305.005 191.486 305.158 191.456Z" fill="white"/>
<path d="M306.699 202.588L325.355 198.91C325.664 198.849 325.941 198.644 326.123 198.34C326.306 198.035 326.38 197.657 326.329 197.288C326.278 196.919 326.106 196.589 325.851 196.372C325.596 196.154 325.279 196.066 324.97 196.127L306.314 199.805C306.161 199.835 306.014 199.901 305.882 199.999C305.75 200.097 305.636 200.224 305.546 200.375C305.455 200.526 305.391 200.696 305.355 200.876C305.32 201.057 305.315 201.244 305.34 201.426C305.366 201.609 305.421 201.784 305.503 201.941C305.585 202.099 305.692 202.235 305.818 202.343C305.944 202.451 306.087 202.528 306.238 202.57C306.389 202.612 306.546 202.618 306.699 202.588Z" fill="white"/>
</g>
<defs>
<clipPath id="clip0_6_1065">
<rect width="576" height="592" fill="white"/>
</clipPath>
</defs>
</svg>
