<svg width="317" height="274" viewBox="0 0 317 274" fill="none" xmlns="http://www.w3.org/2000/svg">
<g clip-path="url(#clip0_6_1065)">
<path d="M131.862 238.039L135.325 226.722C131.159 222.121 125.937 218.609 120.112 216.493C125.803 225.955 120.288 238.299 122.586 249.108C123.329 252.474 124.816 255.629 126.939 258.339C129.061 261.05 131.764 263.246 134.847 264.765L140.102 271.299C142.856 266.469 144.534 261.098 145.021 255.554C145.508 250.01 144.791 244.427 142.921 239.188C141.843 236.26 140.401 233.479 138.631 230.912C135.508 234.596 131.862 238.039 131.862 238.039Z" fill="#F2F2F2"/>
<path d="M112.825 239.485L110.895 227.806C105.121 225.552 98.8871 224.747 92.7333 225.46C102.032 231.382 102.581 244.898 109.441 253.544C111.601 256.225 114.335 258.383 117.439 259.858C120.543 261.334 123.938 262.09 127.373 262.07L134.979 265.566C135.298 260.01 134.413 254.451 132.385 249.272C130.358 244.092 127.235 239.415 123.233 235.564C120.967 233.425 118.441 231.581 115.716 230.076C114.558 234.771 112.825 239.485 112.825 239.485Z" fill="#F2F2F2"/>
<path d="M226.142 268.395L220.809 268.394L218.272 247.749L226.143 247.75L226.142 268.395Z" fill="#FFB6B6"/>
<path d="M227.502 273.583L210.306 273.582V273.364C210.306 271.583 211.011 269.874 212.266 268.614C213.522 267.355 215.224 266.647 216.999 266.647H217L220.141 264.255L226.001 266.647L227.502 266.647L227.502 273.583Z" fill="#2F2E41"/>
<path d="M312.291 248.871L308.655 252.787L291.877 240.573L297.244 234.795L312.291 248.871Z" fill="#FFB6B6"/>
<path d="M317 251.41L305.275 264.035L305.116 263.886C303.818 262.672 303.053 260.989 302.991 259.209C302.928 257.428 303.573 255.696 304.783 254.392L305.182 250.455L310.921 247.783L311.945 246.681L317 251.41Z" fill="#2F2E41"/>
<path d="M304.4 237.269L298.763 249.101L264.148 226.099L259.113 219.213L242.602 196.635L235.89 207.323L231.22 218.497C229.698 219.493 228.415 220.816 227.465 222.371C226.514 223.925 225.92 225.672 225.724 227.485L225.51 229.463L228.461 256.089L217.245 259.546L210.803 223.777L212.909 216.027L215.077 205.147L225.992 170.767H255.202L271.955 206.558L273.18 213.851L277.93 219.322L304.4 237.269Z" fill="#2F2E41"/>
<path d="M243.696 114.519L248.614 118.277L254.544 120.105C254.544 120.105 256.995 154.715 259.204 156.932C261.413 159.149 259.421 159.209 259.865 162.089C260.309 164.969 261.387 170.872 261.387 170.872C246.477 178.794 233.623 179.006 223.297 169.737C223.165 169.164 223.232 168.562 223.487 168.032C223.743 167.502 224.171 167.076 224.7 166.824C226.622 165.8 222.929 161.024 224.499 160.225C226.07 159.426 223.861 152.498 223.861 152.498L225.31 138.043L224.165 135.733L226.959 121.594L231.807 119.817L233.743 115.134L243.696 114.519Z" fill="#3F3D56"/>
<path d="M246.777 176.032C246.755 175.407 246.87 174.785 247.113 174.209C247.357 173.633 247.723 173.118 248.186 172.7C248.65 172.282 249.199 171.97 249.795 171.788C250.391 171.606 251.019 171.557 251.636 171.645L258.566 158.127L262.427 165.011L255.254 176.793C255.038 177.823 254.453 178.739 253.61 179.365C252.767 179.991 251.724 180.285 250.679 180.192C249.634 180.098 248.659 179.623 247.94 178.856C247.221 178.089 246.807 177.084 246.777 176.032Z" fill="#FFB6B6"/>
<path d="M258.447 172.725L273.31 149.604L273.261 149.498C273.205 149.376 269.839 142.081 266.578 135.398C266.076 134.369 265.576 133.354 265.091 132.383C264.882 131.964 264.676 131.553 264.473 131.151C263.103 128.441 261.907 126.201 261.192 125.137C259.612 122.731 257.26 120.94 254.525 120.061L254.457 120.043L254.391 120.071C253.054 120.637 251.948 121.644 251.258 122.925C250.567 124.207 250.332 125.686 250.591 127.12C251.881 134.034 254.753 140.552 258.983 146.161L261.392 149.349L253.019 167.62L258.447 172.725Z" fill="#3F3D56"/>
<path d="M207.336 84.1008C207.746 84.5724 208.047 85.1284 208.219 85.7295C208.391 86.3306 208.43 86.9623 208.332 87.58C208.235 88.1977 208.003 88.7865 207.655 89.3048C207.306 89.8231 206.848 90.2583 206.314 90.5799L209.412 105.461L202.093 102.553L200.273 88.8673C199.794 87.9303 199.675 86.8497 199.937 85.8301C200.199 84.8105 200.825 83.9228 201.695 83.3353C202.566 82.7478 203.621 82.5012 204.661 82.6423C205.7 82.7834 206.652 83.3023 207.336 84.1008Z" fill="#FFB6B6"/>
<path d="M200.345 94.0453L203.305 121.4L203.41 121.451C203.496 121.494 207.246 123.34 211.848 125.538C212.625 125.909 212.514 127.515 213.325 127.899C213.884 128.164 215.36 127.204 215.925 127.469C220.956 129.83 226.043 132.126 228.07 132.748C230.807 133.619 233.758 133.523 236.434 132.478L236.498 132.448L236.532 132.386C237.216 131.1 237.443 129.62 237.175 128.188C236.908 126.756 236.162 125.458 235.061 124.508C229.722 119.952 223.4 116.704 216.595 115.02L212.724 114.066L207.765 94.5801L200.345 94.0453Z" fill="#3F3D56"/>
<path d="M238.454 112.969C243.826 112.969 248.18 108.598 248.18 103.207C248.18 97.816 243.826 93.4456 238.454 93.4456C233.082 93.4456 228.728 97.816 228.728 103.207C228.728 108.598 233.082 112.969 238.454 112.969Z" fill="#FFB6B6"/>
<path d="M228.797 96.6661C229.597 94.3306 233.579 92.7107 240.034 92.4855C246.489 92.2603 248.126 99.8949 248.126 99.8949C252.435 103.403 243.525 112.796 243.094 112.458L243.287 110.693C243.608 107.77 244.972 105.489 243.238 102.443L241.572 102.462C239.421 102.877 237.27 103.292 235.119 103.708L237.666 101.457L237.594 101.346C236.511 101.912 235.332 102.271 234.118 102.405C232.749 102.486 231.253 101.939 230.597 100.73C230.422 100.398 230.315 100.034 230.283 99.6599C228.437 100.4 227.593 102.684 227.593 102.684C227.593 102.684 227.998 99.0015 228.797 96.6661Z" fill="#2F2E41"/>
<path d="M39.1865 97.2517C39.0545 97.0837 38.9124 96.9241 38.761 96.7736C38.798 96.7225 38.835 96.6668 38.872 96.6158L39.1865 97.2517Z" fill="#2F2E41"/>
<path d="M41.0781 136.512C39.4871 139.349 36.3098 140.931 33.1602 141.707C29.6224 142.637 25.8971 142.564 22.3978 141.498C21.9538 141.354 21.5098 141.187 21.0797 141.001C21.2865 140.45 21.4504 139.883 21.5699 139.307C21.7309 138.527 21.8115 137.732 21.8104 136.935C21.46 137.621 21.006 138.249 20.4646 138.796C20.0469 139.237 19.5725 139.619 19.0539 139.933C17.4456 138.954 16.0529 137.656 14.9608 136.118C15.0302 135.946 15.0996 135.774 15.1643 135.603C15.5002 134.706 15.7661 133.784 15.9598 132.845C16.2226 131.577 16.3544 130.284 16.353 128.988C15.7827 130.105 15.0431 131.126 14.1607 132.014C13.8961 132.299 13.6151 132.567 13.319 132.818C12.8604 131.42 12.6832 129.945 12.7975 128.478C12.9118 127.011 13.3155 125.581 13.9849 124.272C15.8165 120.874 19.3684 118.855 22.5319 116.659C25.7 114.464 28.8682 111.493 29.1364 107.636C29.3168 105.031 28.1143 102.423 28.5953 99.8604C28.7976 98.7799 29.2915 97.7758 30.0231 96.9576C30.7547 96.1393 31.696 95.5383 32.7445 95.2199C33.793 94.9015 34.9085 94.878 35.9693 95.152C37.0302 95.4259 37.9958 95.9868 38.761 96.7736C36.9665 99.3266 35.1813 101.968 34.4552 105.004C33.7152 108.095 34.321 111.72 36.7492 113.767C37.5817 114.473 38.6038 114.974 39.2467 115.856C40.1023 117.026 40.1069 118.586 40.2456 120.025C40.5231 122.824 41.4343 125.516 41.9245 128.287C42.4194 131.054 42.4471 134.057 41.0781 136.512Z" fill="#2F2E41"/>
<path d="M8.46362 251.623L12.6848 254.896L27.2731 240.113L21.043 235.282L8.46362 251.623Z" fill="#A0616A"/>
<path d="M8.64314 248.425L15.6233 253.2L13.4144 256.069L16.3727 265.386C16.5189 265.846 16.5147 266.341 16.3607 266.798C16.2068 267.256 15.9111 267.652 15.5169 267.929C15.1227 268.206 14.6506 268.349 14.1695 268.338C13.6884 268.327 13.2236 268.161 12.8428 267.866L4.89899 261.705L5.71476 257.805L2.99513 260.229L0 257.906L8.64314 248.425Z" fill="#2F2E41"/>
<path d="M29.8788 105.499C29.8782 107.154 30.2824 108.784 31.056 110.246C31.8296 111.707 32.949 112.956 34.3158 113.883C35.6825 114.809 37.255 115.384 38.8951 115.558C40.5351 115.732 42.1927 115.5 43.7222 114.881C45.2518 114.262 46.6065 113.275 47.6675 112.008C48.7285 110.741 49.4634 109.231 49.8076 107.613C50.1518 105.994 50.0948 104.315 49.6416 102.724C49.1884 101.132 48.3529 99.6766 47.2083 98.4848L47.16 98.4363C47.0794 98.3514 46.9988 98.2664 46.9141 98.1855L46.9126 98.1852L46.9113 98.1843L46.9104 98.183L46.9101 98.1815C46.8053 98.0844 46.7005 97.9873 46.5917 97.8943C44.8185 96.333 42.3262 94.6383 39.7832 94.6383C34.2175 94.6383 29.8788 99.9127 29.8788 105.499Z" fill="#2F2E41"/>
<path d="M87.3067 100.306C87.3549 100.845 87.2847 101.388 87.1011 101.898C86.9174 102.407 86.6248 102.869 86.2438 103.253C85.8627 103.636 85.4026 103.931 84.8957 104.116C84.3889 104.302 83.8476 104.374 83.3101 104.327L58.3611 126.935L54.0676 120.13L79.9418 100.046C80.0804 99.1452 80.5435 98.3265 81.2434 97.7453C81.9433 97.1641 82.8312 96.8607 83.7391 96.8927C84.6469 96.9247 85.5115 97.2898 86.169 97.9188C86.8265 98.5478 87.2313 99.3971 87.3067 100.306Z" fill="#A0616A"/>
<path d="M47.6982 133.759C47.6982 133.759 48.6265 135.48 51.7974 132.823C54.3359 130.696 66.4979 121.462 69.118 117.677C69.7163 117.915 70.3764 117.947 70.9944 117.767C71.6124 117.587 72.1532 117.205 72.5315 116.683L65.3526 110.373C63.2046 110.621 63.2507 112.069 63.4744 112.891L58.0592 115.354L44.0756 124.323L47.0052 132.528L47.6982 133.759Z" fill="#6C63FF"/>
<path d="M34.1513 149.613L33.6283 152.112L33.1843 161.331L52.7331 162.409L52.126 148.23L50.2311 145.105L34.1513 149.613Z" fill="#A0616A"/>
<path d="M42.4364 116.318C47.1024 116.318 50.885 112.521 50.885 107.838C50.885 103.155 47.1024 99.3588 42.4364 99.3588C37.7704 99.3588 33.9878 103.155 33.9878 107.838C33.9878 112.521 37.7704 116.318 42.4364 116.318Z" fill="#A0616A"/>
<path d="M27.4368 139.114L27.3849 132.066C27.3837 129.529 28.2388 127.068 29.8107 125.082C31.3827 123.096 33.5787 121.704 36.0404 121.132L36.0723 121.124L37.7429 118.865L44.5303 119.547L45.7743 122.099L50.6926 125.038L52.5861 131.147C53.4075 131.697 54.1075 132.41 54.6426 133.242C55.1777 134.074 55.5366 135.008 55.6969 135.986C56.3398 140.107 53.4646 144.231 53.1226 144.704L52.2414 149.685L33.0715 153.08L32.9159 153.099L27.4368 139.114Z" fill="#6C63FF"/>
<path d="M52.7748 106.326C51.7893 106.953 50.7668 107.519 49.713 108.021C48.6434 108.536 47.5246 108.942 46.3738 109.232C46.0445 108.507 45.6415 107.818 45.1713 107.176C45.2923 107.937 45.2954 108.712 45.1805 109.474C43.2729 109.783 41.3191 109.622 39.4871 109.005L37.8962 106.327L37.7759 109.316C36.4578 109.557 35.1443 109.785 33.8262 110.021C33.7475 110.031 33.6689 110.049 33.5949 110.063C32.7763 106.359 33.9372 102.279 36.5179 99.8094C37.7993 98.5961 39.3976 97.7731 41.1269 97.4362C42.8562 97.0992 44.6453 97.2622 46.2859 97.9062C46.494 97.9898 46.7067 98.0826 46.9102 98.1801L46.9106 98.1819L46.9116 98.1834L46.9131 98.1844L46.9149 98.1847C47.0351 98.2451 47.1369 98.389 47.271 98.375C53.043 97.7298 53.228 102.223 52.7748 106.326Z" fill="#2F2E41"/>
<path d="M38.7198 240.689L42.9475 243.954L57.5063 229.141L51.2667 224.323L38.7198 240.689Z" fill="#A0616A"/>
<path d="M39.2763 237.787L46.2661 242.547L44.0629 245.421L47.04 254.732C47.1871 255.192 47.1839 255.687 47.0308 256.144C46.8778 256.602 46.5829 256.999 46.1892 257.277C45.7956 257.555 45.3238 257.699 44.8427 257.688C44.3616 257.678 43.8964 257.514 43.515 257.219L35.5588 251.075L36.3668 247.173L33.652 249.602L30.6522 247.285L39.2763 237.787Z" fill="#2F2E41"/>
<path d="M25.0012 222.611L25.001 222.556L27.0047 219.09L24.9587 214.579L24.8973 202.99L25.229 201.25C25.6751 198.91 25.5453 196.497 24.8509 194.218L24.8135 187.164C24.7416 185.397 27.4694 183.843 26.8333 182.369C20.8208 168.444 32.973 157.82 33.055 157.735L33.3034 157.476L34.6507 158.5L35.9332 158.502L53.2392 161.667L53.3642 161.901C54.0449 163.182 55.3585 167.599 55.4364 169.597C56.2989 170.6 66.1235 182.01 66.9969 182.802C72.8986 188.162 76.2776 197.032 77.7665 201.843C78.1362 203.032 78.2108 204.294 77.9836 205.518C77.7564 206.742 77.2343 207.893 76.463 208.868L54.1207 233.43L48.1082 227.859L60.1974 205.75L59.3256 203.506C57.7615 203.217 56.3459 202.391 55.3205 201.171L52.8725 198.255C52.1947 197.45 51.764 196.464 51.6326 195.419L50.148 195.239L44.8303 189.636L41.141 223.168L40.138 225.817L22.6707 246.427L15.2708 241.785L25.0012 222.611Z" fill="#2F2E41"/>
<path d="M22.3337 78.6281C21.9981 79.0521 21.7592 79.5448 21.6339 80.0715C21.5086 80.5982 21.4998 81.1461 21.6083 81.6766C21.7167 82.207 21.9397 82.7071 22.2616 83.1417C22.5835 83.5763 22.9964 83.9348 23.4712 84.1919L17.917 100.695L22.4523 118.184L29.7656 114.866L25.2527 101.674L28.6291 82.4731C29.0066 81.6439 29.0678 80.7045 28.8013 79.8329C28.5348 78.9613 27.959 78.2182 27.183 77.7442C26.407 77.2703 25.4848 77.0985 24.591 77.2614C23.6973 77.4243 22.8941 77.9106 22.3337 78.6281Z" fill="#A0616A"/>
<path d="M29.0279 132.594C29.0279 132.594 27.3102 133.52 26.1156 129.551C25.1593 126.374 18.6509 109.123 18.5336 104.517C17.9035 104.386 17.3348 104.048 16.917 103.556C16.4993 103.065 16.2563 102.448 16.2263 101.803L25.679 100.49C27.3378 101.882 26.5064 103.067 25.8694 103.63L29.0889 109.104L35.8182 123.88L30.2814 131.947L29.0279 132.594Z" fill="#6C63FF"/>
<path d="M33.8243 110.021C34.7951 107.083 36.5357 104.461 38.8637 102.43C41.1916 100.4 44.0211 99.0357 47.0553 98.4808C47.0674 98.4768 47.1077 98.4606 47.1601 98.4363C47.1923 98.4161 47.2326 98.3959 47.2729 98.3757C47.152 98.3069 47.0351 98.2462 46.9142 98.1855L46.9127 98.1852L46.9113 98.1843L46.9105 98.183L46.9102 98.1815C46.8054 98.0844 46.7006 97.9873 46.5918 97.8943L46.2855 97.9064C46.2855 97.9064 35.521 96.1955 33.8243 110.021Z" fill="#FD6584"/>
<path d="M172.725 204.51C173.9 202.738 173.204 200.201 171.172 198.844C169.139 197.487 166.539 197.823 165.364 199.595C164.189 201.368 164.885 203.905 166.917 205.262C168.95 206.619 171.55 206.283 172.725 204.51Z" fill="#F2F2F2"/>
<path d="M148.877 138.362C150.051 136.59 149.356 134.053 147.323 132.695C145.291 131.338 142.691 131.675 141.516 133.447C140.341 135.219 141.036 137.756 143.069 139.114C145.102 140.471 147.702 140.134 148.877 138.362Z" fill="#F2F2F2"/>
<path d="M248.606 240.196C249.781 238.424 249.086 235.887 247.053 234.529C245.02 233.172 242.42 233.509 241.246 235.281C240.071 237.053 240.766 239.59 242.799 240.947C244.831 242.305 247.431 241.968 248.606 240.196Z" fill="#F2F2F2"/>
<path d="M46.979 27.3892C48.1539 25.6169 47.4585 23.08 45.4259 21.7227C43.3933 20.3655 40.7931 20.702 39.6183 22.4742C38.4435 24.2465 39.1389 26.7835 41.1715 28.1407C43.2041 29.498 45.8042 29.1615 46.979 27.3892Z" fill="#F2F2F2"/>
<path d="M141.072 6.50022C142.247 4.72793 141.551 2.19096 139.519 0.833726C137.486 -0.523509 134.886 -0.187052 133.711 1.58523C132.536 3.35752 133.232 5.89452 135.264 7.25175C137.297 8.60899 139.897 8.27251 141.072 6.50022Z" fill="#F2F2F2"/>
<path d="M96.5402 181.756C97.715 179.984 97.0197 177.447 94.9871 176.09C92.9544 174.733 90.3543 175.069 89.1795 176.841C88.0046 178.614 88.7 181.151 90.7326 182.508C92.7652 183.865 95.3654 183.529 96.5402 181.756Z" fill="#E6E6E6"/>
<path d="M61.1423 101.904C58.7704 101.897 56.4842 101.013 54.7208 99.4213C52.9574 97.8293 51.8405 95.6408 51.5835 93.2743L46.0787 41.9627C45.8082 39.4151 46.5557 36.8638 48.1572 34.8686C49.7586 32.8734 52.0833 31.5973 54.6211 31.3202L218.071 13.6569C220.609 13.3853 223.151 14.1354 225.139 15.7427C227.127 17.35 228.399 19.6831 228.675 22.2301L234.18 73.5415C234.451 76.0892 233.703 78.6405 232.101 80.6358C230.5 82.6311 228.175 83.9073 225.637 84.1844L62.1876 101.848C61.8404 101.885 61.4915 101.904 61.1423 101.904Z" fill="#E6E6E6"/>
<path d="M216.271 16.0389C215.964 16.039 215.657 16.0556 215.351 16.0887L57.7945 33.1151C56.6928 33.2342 55.6253 33.5699 54.6528 34.103C53.6804 34.6361 52.8221 35.3562 52.127 36.2223C51.4319 37.0883 50.9135 38.0833 50.6015 39.1504C50.2895 40.2175 50.19 41.3358 50.3086 42.4415L53.0919 68.3851C53.5418 72.5792 54.8104 76.6433 56.8253 80.3453C58.8401 84.0474 61.5618 87.3149 64.8348 89.9612C68.1079 92.6076 71.8682 94.581 75.9012 95.7688C79.9342 96.9566 84.1608 97.3355 88.3396 96.8839L199.128 84.9114C203.294 84.4612 207.331 83.1918 211.009 81.1757C214.686 79.1597 217.932 76.4364 220.561 73.1614C223.189 69.8864 225.15 66.1238 226.33 62.0884C227.509 58.0531 227.886 53.824 227.437 49.6427L224.644 23.6018C224.421 21.5275 223.443 19.6087 221.898 18.2131C220.353 16.8176 218.349 16.0434 216.271 16.0389Z" fill="#22274B" fill-opacity="0.69"/>
<path d="M183.092 43.0388L95.031 52.5551C94.7792 52.5827 94.5244 52.5602 94.2813 52.4888C94.0382 52.4175 93.8115 52.2988 93.6142 52.1394C93.4168 51.9801 93.2527 51.7832 93.1312 51.5602C93.0097 51.3371 92.9332 51.0922 92.9061 50.8395C92.879 50.5867 92.9018 50.3311 92.9732 50.0872C93.0446 49.8433 93.1632 49.6159 93.3222 49.4181C93.4812 49.2202 93.6776 49.0558 93.9 48.9341C94.1224 48.8125 94.3665 48.736 94.6184 48.7092L182.679 39.1928C182.931 39.1652 183.185 39.1878 183.429 39.2591C183.672 39.3304 183.898 39.4492 184.096 39.6085C184.293 39.7679 184.457 39.9647 184.579 40.1877C184.7 40.4108 184.777 40.6557 184.804 40.9084C184.831 41.1612 184.808 41.4168 184.737 41.6607C184.665 41.9046 184.547 42.132 184.388 42.3299C184.229 42.5277 184.032 42.6922 183.81 42.8138C183.588 42.9354 183.343 43.0119 183.092 43.0388Z" fill="#FCAE18"/>
<path d="M184.358 54.8423L96.2972 64.3587C95.789 64.4136 95.28 64.2636 94.882 63.9418C94.4839 63.62 94.2296 63.1528 94.1749 62.6427C94.1202 62.1327 94.2696 61.6218 94.5902 61.2223C94.9108 60.8229 95.3764 60.5676 95.8846 60.5127L183.945 50.9963C184.453 50.9414 184.962 51.0913 185.36 51.4131C185.758 51.7349 186.013 52.2022 186.067 52.7123C186.122 53.2223 185.973 53.7332 185.652 54.1327C185.332 54.5321 184.866 54.7874 184.358 54.8423Z" fill="#6C63FF"/>
<path d="M107.826 75.0529L97.5636 76.1619C97.0554 76.2168 96.5463 76.0669 96.1483 75.7451C95.7503 75.4233 95.496 74.956 95.4413 74.446C95.3865 73.936 95.5359 73.425 95.8566 73.0256C96.1772 72.6261 96.6428 72.3709 97.151 72.3159L107.413 71.2069C107.665 71.1794 107.92 71.2019 108.163 71.2733C108.406 71.3446 108.633 71.4633 108.83 71.6227C109.027 71.782 109.191 71.9788 109.313 72.2019C109.434 72.4249 109.511 72.6698 109.538 72.9226C109.565 73.1753 109.542 73.431 109.471 73.6749C109.4 73.9188 109.281 74.1461 109.122 74.344C108.963 74.5419 108.767 74.7063 108.544 74.8279C108.322 74.9496 108.078 75.026 107.826 75.0529Z" fill="#6C63FF"/>
<path d="M57.6775 44.1279C59.5933 44.1279 61.1463 42.5691 61.1463 40.6464C61.1463 38.7236 59.5933 37.1649 57.6775 37.1649C55.7617 37.1649 54.2086 38.7236 54.2086 40.6464C54.2086 42.5691 55.7617 44.1279 57.6775 44.1279Z" fill="#3F3D56"/>
<path d="M212.909 26.7204C214.824 26.7204 216.378 25.1616 216.378 23.2389C216.378 21.3161 214.824 19.7574 212.909 19.7574C210.993 19.7574 209.44 21.3161 209.44 23.2389C209.44 25.1616 210.993 26.7204 212.909 26.7204Z" fill="#3F3D56"/>
<path d="M166.011 98.1941C165.692 97.9132 165.44 97.5645 165.272 97.1733C165.105 96.7822 165.026 96.3585 165.042 95.933C165.216 90.8762 164.386 85.8351 162.6 81.1033C162.449 80.7055 162.388 80.2789 162.421 79.8544C162.455 79.4299 162.582 79.0183 162.794 78.6493C162.997 78.2948 163.275 77.9891 163.608 77.7538C163.941 77.5185 164.322 77.3593 164.723 77.2873C168.755 74.8453 172.888 74.1598 177.011 75.2501C177.675 75.1519 178.353 75.2947 178.922 75.6529C179.492 76.0111 179.915 76.5612 180.117 77.2045C181.786 82.6426 182.714 88.2823 182.876 93.9702C182.892 94.6525 182.662 95.3176 182.228 95.8433C181.794 96.3689 181.186 96.7199 180.515 96.8316L168.316 98.8543C167.907 98.923 167.488 98.8994 167.09 98.7852C166.691 98.671 166.322 98.4691 166.011 98.1941Z" fill="#6C63FF"/>
<path d="M167.095 83.4606L177.362 81.7581C177.446 81.7443 177.527 81.7139 177.6 81.6687C177.673 81.6235 177.736 81.5643 177.786 81.4946C177.836 81.4249 177.871 81.3459 177.891 81.2623C177.91 81.1787 177.913 81.0921 177.899 81.0074C177.885 80.9227 177.855 80.8416 177.81 80.7687C177.764 80.6958 177.705 80.6326 177.636 80.5827C177.566 80.5328 177.487 80.4972 177.404 80.4778C177.321 80.4585 177.234 80.4558 177.15 80.47L166.883 82.1725C166.713 82.201 166.561 82.2961 166.461 82.4367C166.361 82.5773 166.32 82.7521 166.348 82.9227C166.376 83.0932 166.471 83.2456 166.611 83.3465C166.751 83.4473 166.925 83.4883 167.095 83.4606Z" fill="white"/>
<path d="M167.943 88.613L178.21 86.9105C178.38 86.8823 178.532 86.7874 178.633 86.6466C178.733 86.5059 178.774 86.3309 178.746 86.1601C178.718 85.9892 178.623 85.8366 178.483 85.7358C178.343 85.635 178.168 85.5942 177.998 85.6224L167.731 87.3249C167.646 87.3387 167.565 87.369 167.493 87.4142C167.42 87.4595 167.357 87.5186 167.307 87.5884C167.257 87.6581 167.221 87.737 167.202 87.8206C167.183 87.9042 167.18 87.9908 167.194 88.0756C167.208 88.1603 167.238 88.2414 167.283 88.3142C167.328 88.3871 167.388 88.4503 167.457 88.5002C167.527 88.5502 167.605 88.5858 167.689 88.6052C167.772 88.6245 167.858 88.6272 167.943 88.613Z" fill="white"/>
<path d="M168.791 93.7654L179.058 92.0629C179.229 92.0347 179.381 91.9398 179.481 91.799C179.582 91.6583 179.622 91.4833 179.594 91.3124C179.566 91.1416 179.471 90.989 179.331 90.8882C179.191 90.7874 179.017 90.7466 178.846 90.7748L168.579 92.4773C168.495 92.4912 168.414 92.5217 168.341 92.567C168.269 92.6123 168.206 92.6714 168.156 92.7411C168.106 92.8108 168.071 92.8896 168.052 92.9731C168.032 93.0566 168.029 93.1431 168.043 93.2277C168.057 93.3123 168.088 93.3933 168.133 93.4661C168.178 93.5389 168.237 93.602 168.306 93.652C168.376 93.7019 168.454 93.7376 168.537 93.7571C168.621 93.7765 168.707 93.7793 168.791 93.7654Z" fill="white"/>
</g>
<defs>
<clipPath id="clip0_6_1065">
<rect width="317" height="274" fill="white"/>
</clipPath>
</defs>
</svg>
