<svg width="713" height="616" viewBox="0 0 713 616" fill="none" xmlns="http://www.w3.org/2000/svg">
<g clip-path="url(#clip0_6_1065)">
<path d="M296.586 535.153L304.373 509.711C295.004 499.366 283.258 491.472 270.157 486.714C282.957 507.987 270.554 535.738 275.722 560.039C277.392 567.606 280.738 574.699 285.512 580.792C290.286 586.886 296.366 591.823 303.3 595.239L315.118 609.928C321.313 599.069 325.088 586.993 326.183 574.53C327.278 562.067 325.666 549.515 321.459 537.737C319.034 531.153 315.792 524.901 311.809 519.13C304.787 527.412 296.586 535.153 296.586 535.153Z" fill="#F2F2F2"/>
<path d="M253.766 538.404L249.426 512.148C236.44 507.081 222.418 505.27 208.577 506.873C229.491 520.187 230.726 550.574 246.156 570.012C251.015 576.038 257.163 580.889 264.144 584.207C271.126 587.525 278.763 589.225 286.488 589.179L303.595 597.039C304.313 584.549 302.323 572.051 297.762 560.406C293.202 548.762 286.179 538.248 277.177 529.588C272.08 524.78 266.399 520.636 260.269 517.252C257.665 527.806 253.766 538.404 253.766 538.404Z" fill="#F2F2F2"/>
<path d="M508.641 603.399L496.645 603.398L490.939 556.983L508.643 556.984L508.641 603.399Z" fill="#FFB6B6"/>
<path d="M511.7 615.063L473.022 615.061V614.571C473.023 610.565 474.609 606.724 477.432 603.892C480.255 601.06 484.084 599.469 488.077 599.469H488.078L495.143 594.092L508.324 599.469L511.701 599.469L511.7 615.063Z" fill="#2F2E41"/>
<path d="M702.409 559.507L694.23 568.309L656.493 540.851L668.564 527.86L702.409 559.507Z" fill="#FFB6B6"/>
<path d="M713 565.214L686.629 593.598L686.271 593.263C683.35 590.532 681.631 586.749 681.49 582.746C681.35 578.743 682.8 574.849 685.522 571.918L686.419 563.067L699.328 557.06L701.63 554.582L713 565.214Z" fill="#2F2E41"/>
<path d="M684.659 533.421L671.981 560.023L594.126 508.311L582.799 492.83L545.662 442.069L530.566 466.099L520.062 491.218C516.639 493.459 513.754 496.433 511.616 499.928C509.479 503.423 508.141 507.35 507.701 511.426L507.22 515.873L513.858 575.733L488.629 583.504L474.14 503.091L478.877 485.666L483.753 461.207L508.304 383.915H574.003L611.685 464.379L614.44 480.774L625.124 493.075L684.659 533.421Z" fill="#2F2E41"/>
<path d="M548.125 257.458L559.185 265.906L572.522 270.018C572.522 270.018 578.036 347.827 583.005 352.811C587.973 357.795 583.492 357.929 584.491 364.404C585.489 370.879 587.916 384.151 587.916 384.151C554.379 401.96 525.467 402.438 502.243 381.598C501.946 380.309 502.097 378.957 502.671 377.766C503.245 376.574 504.207 375.616 505.399 375.049C509.721 372.748 501.414 362.009 504.947 360.214C508.479 358.418 503.511 342.843 503.511 342.843L506.77 310.345L504.195 305.15L510.479 273.364L521.382 269.37L525.738 258.842L548.125 257.458Z" fill="#3F3D56"/>
<path d="M555.053 395.75C555.004 394.345 555.262 392.946 555.81 391.652C556.357 390.358 557.181 389.2 558.223 388.259C559.265 387.319 560.5 386.619 561.841 386.21C563.182 385.8 564.596 385.69 565.983 385.888L581.57 355.496L590.254 370.974L574.121 397.462C573.635 399.778 572.319 401.836 570.423 403.244C568.526 404.652 566.18 405.313 563.83 405.102C561.479 404.891 559.288 403.823 557.67 402.099C556.053 400.376 555.121 398.117 555.053 395.75Z" fill="#FFB6B6"/>
<path d="M581.302 388.316L614.733 336.337L614.623 336.098C614.496 335.824 606.926 319.422 599.591 304.399C598.461 302.085 597.337 299.804 596.247 297.62C595.776 296.677 595.312 295.754 594.856 294.851C591.775 288.758 589.083 283.722 587.476 281.33C583.922 275.921 578.631 271.894 572.481 269.918L572.327 269.878L572.179 269.94C569.171 271.213 566.685 273.477 565.131 276.358C563.578 279.239 563.049 282.565 563.633 285.787C566.533 301.331 572.994 315.987 582.507 328.596L587.927 335.763L569.093 376.84L581.302 388.316Z" fill="#3F3D56"/>
<path d="M466.343 189.073C467.264 190.134 467.942 191.384 468.328 192.735C468.715 194.086 468.802 195.506 468.583 196.895C468.364 198.284 467.843 199.608 467.059 200.773C466.275 201.938 465.245 202.917 464.043 203.639L471.012 237.095L454.551 230.557L450.456 199.789C449.38 197.683 449.111 195.253 449.7 192.961C450.29 190.669 451.697 188.673 453.655 187.352C455.614 186.031 457.987 185.477 460.325 185.794C462.664 186.111 464.805 187.278 466.343 189.073Z" fill="#FFB6B6"/>
<path d="M450.619 211.43L457.276 272.928L457.511 273.044C457.706 273.14 466.139 277.289 476.492 282.231C478.238 283.065 477.988 286.677 479.813 287.54C481.07 288.134 484.39 285.977 485.661 286.573C496.976 291.881 508.418 297.043 512.978 298.442C519.134 300.398 525.772 300.184 531.79 297.834L531.935 297.767L532.011 297.626C533.548 294.737 534.058 291.408 533.457 288.189C532.856 284.969 531.179 282.052 528.702 279.917C516.693 269.673 502.474 262.37 487.169 258.584L478.46 256.441L467.307 212.633L450.619 211.43Z" fill="#3F3D56"/>
<path d="M536.333 253.974C548.415 253.974 558.209 244.148 558.209 232.028C558.209 219.908 548.415 210.082 536.333 210.082C524.251 210.082 514.457 219.908 514.457 232.028C514.457 244.148 524.251 253.974 536.333 253.974Z" fill="#FFB6B6"/>
<path d="M514.614 217.322C516.413 212.072 525.368 208.43 539.887 207.924C554.406 207.417 558.088 224.581 558.088 224.581C567.78 232.469 547.739 253.585 546.769 252.825L547.205 248.857C547.927 242.286 550.994 237.158 547.093 230.31L543.347 230.353C538.509 231.286 533.671 232.219 528.833 233.153L534.561 228.094L534.399 227.843C531.963 229.116 529.312 229.923 526.581 230.224C523.502 230.406 520.137 229.177 518.662 226.46C518.269 225.713 518.028 224.894 517.955 224.053C513.804 225.717 511.905 230.851 511.905 230.851C511.905 230.851 512.815 222.573 514.614 217.322Z" fill="#2F2E41"/>
<path d="M88.1389 218.639C87.842 218.261 87.5224 217.902 87.1818 217.564C87.265 217.449 87.3483 217.324 87.4315 217.209L88.1389 218.639Z" fill="#2F2E41"/>
<path d="M92.3934 306.904C88.815 313.28 81.6684 316.839 74.5842 318.581C66.6271 320.672 58.248 320.51 50.3774 318.112C49.3788 317.788 48.3801 317.413 47.4127 316.995C47.8778 315.756 48.2465 314.483 48.5154 313.186C48.8775 311.432 49.0588 309.645 49.0563 307.854C48.2681 309.397 47.247 310.808 46.0291 312.038C45.0897 313.028 44.0227 313.888 42.8564 314.595C39.2388 312.392 36.1063 309.474 33.6501 306.017C33.8061 305.631 33.9622 305.245 34.1078 304.858C34.8632 302.842 35.4614 300.769 35.897 298.66C36.4881 295.807 36.7844 292.901 36.7813 289.988C35.4987 292.498 33.8352 294.793 31.8504 296.792C31.2554 297.43 30.6232 298.033 29.9572 298.597C28.9258 295.455 28.5271 292.138 28.7843 288.84C29.0414 285.542 29.9493 282.328 31.4551 279.385C35.5746 271.746 43.5637 267.207 50.6791 262.27C57.8049 257.334 64.9307 250.656 65.534 241.983C65.9397 236.129 63.235 230.264 64.3169 224.504C64.7719 222.075 65.8827 219.817 67.5283 217.978C69.1739 216.138 71.2911 214.787 73.6494 214.071C76.0077 213.355 78.5165 213.302 80.9027 213.918C83.2888 214.534 85.4607 215.795 87.1817 217.564C83.1455 223.304 79.1302 229.242 77.497 236.066C75.8326 243.017 77.1953 251.167 82.6567 255.769C84.5291 257.355 86.8281 258.482 88.2741 260.465C90.1985 263.095 90.2089 266.601 90.521 269.836C91.1451 276.129 93.1945 282.182 94.2971 288.412C95.4102 294.632 95.4726 301.383 92.3934 306.904Z" fill="#2F2E41"/>
<path d="M19.0364 565.693L28.5307 573.051L61.3428 539.817L47.33 528.956L19.0364 565.693Z" fill="#A0616A"/>
<path d="M19.4402 558.502L35.1402 569.237L30.1718 575.688L36.8258 596.633C37.1546 597.668 37.1451 598.781 36.7988 599.809C36.4525 600.838 35.7874 601.729 34.9008 602.351C34.0141 602.974 32.9522 603.296 31.8702 603.271C30.7882 603.245 29.7426 602.873 28.8862 602.209L11.0189 588.359L12.8537 579.591L6.73669 585.04L0 579.818L19.4402 558.502Z" fill="#2F2E41"/>
<path d="M67.2037 237.179C67.2024 240.901 68.1116 244.565 69.8516 247.852C71.5916 251.138 74.1092 253.946 77.1834 256.028C80.2576 258.111 83.7943 259.404 87.4832 259.795C91.1721 260.187 94.9003 259.663 98.3406 258.272C101.781 256.88 104.828 254.662 107.214 251.813C109.601 248.964 111.254 245.571 112.028 241.932C112.802 238.293 112.674 234.519 111.654 230.941C110.635 227.363 108.756 224.09 106.182 221.411L106.073 221.302C105.892 221.111 105.71 220.92 105.52 220.738L105.516 220.738L105.513 220.736L105.511 220.733L105.511 220.729C105.275 220.511 105.039 220.293 104.795 220.083C100.806 216.573 95.2005 212.764 89.4808 212.764C76.9625 212.764 67.2037 224.621 67.2037 237.179Z" fill="#2F2E41"/>
<path d="M196.371 225.505C196.48 226.717 196.322 227.939 195.909 229.083C195.496 230.228 194.837 231.268 193.98 232.13C193.123 232.992 192.088 233.655 190.948 234.072C189.808 234.489 188.591 234.651 187.382 234.545L131.266 285.373L121.609 270.072L179.806 224.921C180.118 222.896 181.159 221.055 182.734 219.749C184.308 218.442 186.305 217.76 188.347 217.832C190.389 217.904 192.333 218.725 193.812 220.139C195.291 221.553 196.202 223.462 196.371 225.505Z" fill="#A0616A"/>
<path d="M107.283 300.715C107.283 300.715 109.371 304.583 116.503 298.61C122.213 293.828 149.568 273.067 155.461 264.56C156.807 265.094 158.291 265.165 159.681 264.76C161.071 264.355 162.288 263.498 163.139 262.323L146.992 248.137C142.161 248.695 142.264 251.951 142.767 253.799L130.587 259.335L99.1352 279.499L105.725 297.945L107.283 300.715Z" fill="#6C63FF"/>
<path d="M76.8135 336.355L75.6374 341.974L74.6387 362.7L118.608 365.125L117.243 333.247L112.981 326.222L76.8135 336.355Z" fill="#A0616A"/>
<path d="M95.4484 261.502C105.943 261.502 114.451 252.967 114.451 242.439C114.451 231.911 105.943 223.376 95.4484 223.376C84.9535 223.376 76.4457 231.911 76.4457 242.439C76.4457 252.967 84.9535 261.502 95.4484 261.502Z" fill="#A0616A"/>
<path d="M61.7114 312.753L61.5945 296.907C61.5919 291.205 63.5152 285.671 67.0508 281.207C70.5864 276.742 75.5256 273.612 81.0627 272.326L81.1344 272.309L84.8919 267.23L100.158 268.762L102.956 274.499L114.018 281.107L118.278 294.842C120.125 296.077 121.699 297.68 122.903 299.552C124.107 301.423 124.914 303.523 125.274 305.72C126.72 314.986 120.253 324.257 119.484 325.32L117.502 336.518L74.385 344.15L74.0349 344.194L61.7114 312.753Z" fill="#6C63FF"/>
<path d="M118.702 239.041C116.485 240.449 114.185 241.721 111.815 242.85C109.409 244.009 106.893 244.921 104.304 245.573C103.564 243.943 102.657 242.394 101.6 240.95C101.872 242.661 101.879 244.403 101.621 246.116C97.3299 246.81 92.9353 246.449 88.8149 245.062L85.2365 239.041L84.966 245.761C82.0013 246.304 79.0469 246.815 76.0822 247.347C75.9054 247.368 75.7286 247.41 75.5621 247.441C73.7208 239.114 76.3319 229.941 82.1365 224.389C85.0185 221.661 88.6136 219.811 92.5032 219.054C96.3927 218.296 100.417 218.663 104.107 220.11C104.575 220.298 105.053 220.507 105.511 220.726L105.512 220.73L105.514 220.733L105.517 220.736L105.521 220.736C105.792 220.872 106.021 221.196 106.323 221.164C119.305 219.714 119.721 229.815 118.702 239.041Z" fill="#2F2E41"/>
<path d="M87.089 541.112L96.5979 548.451L129.344 515.15L115.31 504.318L87.089 541.112Z" fill="#A0616A"/>
<path d="M88.3407 534.586L104.062 545.289L99.1067 551.749L105.803 572.682C106.134 573.715 106.127 574.828 105.782 575.858C105.438 576.887 104.775 577.779 103.889 578.403C103.004 579.028 101.943 579.352 100.861 579.329C99.7786 579.305 98.7323 578.935 97.8746 578.273L79.9794 564.46L81.7966 555.688L75.6905 561.149L68.9434 555.941L88.3407 534.586Z" fill="#2F2E41"/>
<path d="M56.233 500.469L56.2325 500.344L60.7391 492.554L56.1373 482.412L55.9993 456.357L56.7452 452.446C57.7486 447.185 57.4566 441.759 55.8948 436.637L55.8107 420.777C55.6491 416.804 61.7843 413.31 60.3536 409.998C46.8302 378.691 74.163 354.808 74.3477 354.616L74.9062 354.034L77.9368 356.336L80.8212 356.34L119.746 363.455L120.027 363.981C121.558 366.862 124.513 376.791 124.688 381.285C126.628 383.538 148.726 409.189 150.69 410.972C163.964 423.021 171.564 442.963 174.913 453.778C175.745 456.451 175.912 459.288 175.401 462.04C174.89 464.793 173.716 467.379 171.981 469.572L121.729 524.791L108.205 512.268L135.397 462.561L133.436 457.518C129.918 456.867 126.734 455.011 124.427 452.268L118.921 445.712C117.397 443.901 116.428 441.687 116.132 439.335L112.793 438.932L100.833 426.335L92.5348 501.721L90.2788 507.676L50.9912 554.01L34.347 543.575L56.233 500.469Z" fill="#2F2E41"/>
<path d="M50.2331 176.77C49.4783 177.723 48.941 178.831 48.6591 180.015C48.3772 181.199 48.3576 182.431 48.6015 183.623C48.8454 184.816 49.347 185.94 50.071 186.917C50.7949 187.894 51.7236 188.7 52.7917 189.278L40.299 226.38L50.4999 265.699L66.949 258.238L56.7987 228.582L64.3927 185.414C65.2418 183.55 65.3796 181.438 64.7802 179.478C64.1807 177.519 62.8856 175.848 61.1402 174.783C59.3949 173.717 57.3206 173.331 55.3103 173.697C53.3 174.063 51.4935 175.157 50.2331 176.77Z" fill="#A0616A"/>
<path d="M65.2898 298.095C65.2898 298.095 61.4264 300.176 58.7395 291.254C56.5885 284.111 41.9497 245.328 41.6859 234.972C40.2686 234.677 38.9895 233.918 38.0499 232.813C37.1103 231.708 36.5638 230.322 36.4963 228.871L57.7575 225.92C61.4883 229.049 59.6184 231.712 58.1856 232.979L65.427 245.284L80.5626 278.503L68.1091 296.64L65.2898 298.095Z" fill="#6C63FF"/>
<path d="M76.078 247.346C78.2614 240.74 82.1764 234.846 87.4125 230.281C92.6486 225.717 99.0126 222.65 105.837 221.402C105.864 221.393 105.955 221.357 106.073 221.302C106.145 221.257 106.236 221.211 106.327 221.166C106.055 221.011 105.792 220.875 105.52 220.738L105.516 220.738L105.513 220.736L105.511 220.733L105.511 220.729C105.275 220.511 105.039 220.293 104.795 220.084L104.106 220.111C104.106 220.111 79.8942 216.264 76.078 247.346Z" fill="#FD6584"/>
<path d="M388.495 459.775C391.137 455.791 389.573 450.087 385.002 447.036C380.43 443.985 374.582 444.741 371.939 448.725C369.297 452.71 370.861 458.414 375.432 461.465C380.004 464.516 385.853 463.76 388.495 459.775Z" fill="#F2F2F2"/>
<path d="M334.855 311.062C337.498 307.078 335.933 301.374 331.362 298.323C326.79 295.271 320.942 296.028 318.299 300.012C315.657 303.997 317.221 309.7 321.793 312.752C326.364 315.803 332.213 315.046 334.855 311.062Z" fill="#F2F2F2"/>
<path d="M559.168 540.002C561.81 536.018 560.246 530.314 555.675 527.263C551.103 524.212 545.255 524.968 542.612 528.952C539.97 532.937 541.534 538.64 546.105 541.692C550.677 544.743 556.526 543.987 559.168 540.002Z" fill="#F2F2F2"/>
<path d="M105.666 61.5758C108.308 57.5914 106.744 51.8878 102.172 48.8365C97.6006 45.7852 91.7523 46.5416 89.1099 50.526C86.4674 54.5104 88.0315 60.214 92.6033 63.2653C97.175 66.3166 103.023 65.5602 105.666 61.5758Z" fill="#F2F2F2"/>
<path d="M317.3 14.6136C319.943 10.6292 318.379 4.92567 313.807 1.87437C309.235 -1.17694 303.387 -0.420522 300.744 3.56389C298.102 7.54829 299.666 13.2519 304.238 16.3032C308.809 19.3545 314.658 18.598 317.3 14.6136Z" fill="#F2F2F2"/>
<path d="M217.139 408.62C219.782 404.636 218.218 398.932 213.646 395.881C209.074 392.83 203.226 393.586 200.583 397.571C197.941 401.555 199.505 407.259 204.077 410.31C208.649 413.361 214.497 412.605 217.139 408.62Z" fill="#E6E6E6"/>
<path d="M137.522 229.099C132.187 229.083 127.045 227.096 123.079 223.517C119.112 219.937 116.6 215.017 116.022 209.697L103.641 94.3396C103.032 88.6121 104.714 82.8763 108.316 78.3908C111.918 73.9053 117.146 71.0363 122.854 70.4133L490.488 30.7031C496.197 30.0925 501.915 31.779 506.386 35.3924C510.858 39.0058 513.718 44.251 514.339 49.9773L526.72 165.334C527.329 171.062 525.647 176.798 522.045 181.283C518.443 185.769 513.214 188.638 507.506 189.261L139.873 228.972C139.092 229.056 138.307 229.099 137.522 229.099Z" fill="#E6E6E6"/>
<path d="M486.438 36.0583C485.748 36.0586 485.057 36.0959 484.371 36.1701L129.992 74.4486C127.514 74.7163 125.113 75.4709 122.926 76.6695C120.739 77.8681 118.808 79.4871 117.245 81.434C115.681 83.381 114.515 85.6179 113.814 88.0169C113.112 90.4159 112.888 92.9301 113.155 95.4159L119.415 153.742C120.427 163.171 123.28 172.308 127.812 180.63C132.344 188.953 138.466 196.299 145.827 202.249C153.189 208.198 161.647 212.635 170.718 215.305C179.789 217.975 189.295 218.827 198.695 217.812L447.882 190.896C457.252 189.883 466.332 187.03 474.604 182.497C482.875 177.965 490.175 171.842 496.088 164.48C502 157.117 506.409 148.658 509.063 139.586C511.717 130.514 512.564 121.006 511.555 111.605L505.271 53.0609C504.77 48.3977 502.571 44.0839 499.096 40.9464C495.621 37.8088 491.114 36.0683 486.438 36.0583Z" fill="#22274B" fill-opacity="0.69"/>
<path d="M411.812 96.7587L213.745 118.153C213.178 118.215 212.605 118.164 212.059 118.004C211.512 117.844 211.002 117.577 210.558 117.219C210.114 116.86 209.745 116.418 209.472 115.916C209.198 115.415 209.026 114.864 208.965 114.296C208.904 113.728 208.956 113.153 209.116 112.605C209.277 112.056 209.544 111.545 209.901 111.1C210.259 110.656 210.701 110.286 211.201 110.012C211.701 109.739 212.25 109.567 212.817 109.507L410.884 88.1123C411.45 88.0503 412.023 88.101 412.57 88.2613C413.116 88.4217 413.626 88.6887 414.07 89.0469C414.514 89.4051 414.883 89.8476 415.156 90.3491C415.43 90.8505 415.602 91.4011 415.663 91.9693C415.724 92.5376 415.672 93.1123 415.512 93.6606C415.351 94.2089 415.085 94.7201 414.727 95.1649C414.369 95.6097 413.928 95.9795 413.427 96.2529C412.927 96.5264 412.378 96.6983 411.812 96.7587Z" fill="#FCAE18"/>
<path d="M414.66 123.295L216.593 144.69C215.45 144.813 214.305 144.476 213.41 143.752C212.514 143.029 211.942 141.978 211.819 140.832C211.696 139.685 212.032 138.537 212.753 137.639C213.475 136.74 214.522 136.167 215.665 136.043L413.732 114.649C414.875 114.525 416.02 114.862 416.915 115.586C417.81 116.309 418.382 117.36 418.505 118.506C418.628 119.653 418.292 120.802 417.571 121.7C416.85 122.598 415.803 123.172 414.66 123.295Z" fill="#6C63FF"/>
<path d="M242.523 168.732L219.441 171.225C218.298 171.349 217.153 171.012 216.258 170.288C215.363 169.565 214.791 168.514 214.668 167.368C214.545 166.221 214.881 165.072 215.602 164.174C216.323 163.276 217.37 162.702 218.513 162.579L241.595 160.086C242.161 160.024 242.734 160.074 243.281 160.235C243.828 160.395 244.338 160.662 244.782 161.02C245.225 161.379 245.595 161.821 245.868 162.323C246.141 162.824 246.313 163.375 246.374 163.943C246.435 164.511 246.384 165.086 246.223 165.634C246.063 166.182 245.796 166.694 245.438 167.138C245.081 167.583 244.639 167.953 244.139 168.226C243.638 168.5 243.089 168.672 242.523 168.732Z" fill="#6C63FF"/>
<path d="M129.729 99.2071C134.038 99.2071 137.531 95.7029 137.531 91.3801C137.531 87.0574 134.038 83.5531 129.729 83.5531C125.42 83.5531 121.927 87.0574 121.927 91.3801C121.927 95.7029 125.42 99.2071 129.729 99.2071Z" fill="#3F3D56"/>
<path d="M478.877 60.072C483.186 60.072 486.679 56.5678 486.679 52.245C486.679 47.9223 483.186 44.418 478.877 44.418C474.568 44.418 471.074 47.9223 471.074 52.245C471.074 56.5678 474.568 60.072 478.877 60.072Z" fill="#3F3D56"/>
<path d="M373.394 220.758C372.677 220.126 372.11 219.342 371.732 218.463C371.355 217.583 371.178 216.631 371.213 215.674C371.605 204.306 369.739 192.972 365.723 182.334C365.382 181.44 365.245 180.481 365.32 179.527C365.395 178.572 365.682 177.647 366.158 176.817C366.615 176.02 367.24 175.333 367.989 174.804C368.739 174.275 369.595 173.917 370.497 173.755C379.565 168.265 388.862 166.724 398.134 169.175C399.629 168.955 401.154 169.276 402.434 170.081C403.715 170.886 404.667 172.123 405.12 173.569C408.874 185.795 410.962 198.474 411.328 211.261C411.363 212.795 410.845 214.291 409.869 215.472C408.893 216.654 407.525 217.443 406.016 217.694L378.579 222.242C377.659 222.396 376.716 222.343 375.82 222.086C374.923 221.83 374.094 221.376 373.394 220.758Z" fill="#6C63FF"/>
<path d="M375.831 187.634L398.925 183.807C399.115 183.776 399.297 183.707 399.46 183.606C399.624 183.504 399.766 183.371 399.878 183.214C399.99 183.057 400.071 182.88 400.114 182.692C400.158 182.504 400.164 182.309 400.133 182.119C400.102 181.928 400.033 181.746 399.931 181.582C399.83 181.418 399.697 181.276 399.54 181.164C399.384 181.052 399.207 180.972 399.019 180.928C398.832 180.885 398.638 180.879 398.448 180.911L375.354 184.738C374.972 184.802 374.631 185.016 374.406 185.332C374.181 185.648 374.09 186.041 374.153 186.425C374.216 186.808 374.428 187.151 374.743 187.377C375.057 187.604 375.449 187.696 375.831 187.634Z" fill="white"/>
<path d="M377.739 199.217L400.832 195.39C401.215 195.327 401.557 195.113 401.783 194.797C402.009 194.48 402.1 194.087 402.037 193.703C401.974 193.319 401.761 192.976 401.446 192.749C401.131 192.522 400.738 192.431 400.355 192.494L377.262 196.322C377.072 196.353 376.89 196.421 376.727 196.523C376.563 196.624 376.421 196.757 376.309 196.914C376.197 197.071 376.116 197.248 376.073 197.436C376.029 197.624 376.022 197.819 376.054 198.009C376.085 198.2 376.154 198.382 376.255 198.546C376.357 198.71 376.49 198.852 376.646 198.964C376.803 199.076 376.98 199.156 377.167 199.2C377.355 199.243 377.549 199.249 377.739 199.217Z" fill="white"/>
<path d="M379.647 210.801L402.74 206.974C403.123 206.91 403.465 206.697 403.691 206.38C403.917 206.064 404.008 205.67 403.945 205.286C403.882 204.902 403.669 204.559 403.354 204.333C403.038 204.106 402.646 204.014 402.263 204.078L379.17 207.905C378.98 207.936 378.799 208.005 378.635 208.107C378.472 208.209 378.331 208.342 378.219 208.498C378.107 208.655 378.027 208.832 377.983 209.02C377.94 209.208 377.933 209.402 377.965 209.592C377.996 209.782 378.064 209.964 378.166 210.128C378.267 210.292 378.4 210.434 378.556 210.546C378.712 210.658 378.889 210.739 379.076 210.782C379.263 210.826 379.457 210.832 379.647 210.801Z" fill="white"/>
</g>
<defs>
<clipPath id="clip0_6_1065">
<rect width="713" height="616" fill="white"/>
</clipPath>
</defs>
</svg>
