<svg xmlns="http://www.w3.org/2000/svg" version="1.1" xmlns:xlink="http://www.w3.org/1999/xlink" xmlns:svgjs="http://svgjs.dev/svgjs" viewBox="0 0 800 800"><defs><linearGradient x1="50%" y1="0%" x2="50%" y2="100%" id="ffflurry-grad" gradientTransform="rotate(270)"><stop stop-color="#7169c7" stop-opacity="1" offset="0%"></stop><stop stop-color="#524bad" stop-opacity="1" offset="45%"></stop><stop stop-color="hsl(227, 21%, 79%)" stop-opacity="1" offset="100%"></stop></linearGradient></defs><rect width="100%" height="100%" fill="#7169c7"></rect><g fill="url(#ffflurry-grad)"><rect width="169" height="2" x="172.5" y="310" rx="1" transform="rotate(34, 257, 311)" opacity="0.09"></rect><rect width="38" height="2" x="538" y="630" rx="1" transform="rotate(34, 557, 631)" opacity="0.24"></rect><rect width="343" height="2" x="341.5" y="212" rx="1" transform="rotate(34, 513, 213)" opacity="0.51"></rect><rect width="401" height="2" x="146.5" y="430" rx="1" transform="rotate(34, 347, 431)" opacity="0.33"></rect><rect width="261" height="2" x="15.5" y="508" rx="1" transform="rotate(34, 146, 509)" opacity="0.46"></rect><rect width="33" height="2" x="14.5" y="157" rx="1" transform="rotate(34, 31, 158)" opacity="0.35"></rect><rect width="444" height="2" x="-24" y="30" rx="1" transform="rotate(34, 198, 31)" opacity="0.93"></rect><rect width="286" height="2" x="485" y="412" rx="1" transform="rotate(34, 628, 413)" opacity="0.38"></rect><rect width="94" height="2" x="238" y="35" rx="1" transform="rotate(34, 285, 36)" opacity="0.77"></rect><rect width="108" height="2" x="368" y="106" rx="1" transform="rotate(34, 422, 107)" opacity="0.85"></rect><rect width="145" height="2" x="237.5" y="679" rx="1" transform="rotate(34, 310, 680)" opacity="0.59"></rect><rect width="201" height="2" x="-62.5" y="663" rx="1" transform="rotate(34, 38, 664)" opacity="0.86"></rect><rect width="286" height="2" x="-21" y="700" rx="1" transform="rotate(34, 122, 701)" opacity="0.79"></rect><rect width="411" height="2" x="353.5" y="507" rx="1" transform="rotate(34, 559, 508)" opacity="0.93"></rect><rect width="437" height="2" x="545.5" y="333" rx="1" transform="rotate(34, 764, 334)" opacity="0.28"></rect><rect width="326" height="2" x="448" y="55" rx="1" transform="rotate(34, 611, 56)" opacity="0.96"></rect><rect width="187" height="2" x="189.5" y="545" rx="1" transform="rotate(34, 283, 546)" opacity="0.81"></rect><rect width="333" height="2" x="-111.5" y="32" rx="1" transform="rotate(34, 55, 33)" opacity="0.18"></rect><rect width="303" height="2" x="332.5" y="37" rx="1" transform="rotate(34, 484, 38)" opacity="0.61"></rect><rect width="94" height="2" x="245" y="406" rx="1" transform="rotate(34, 292, 407)" opacity="0.39"></rect><rect width="134" height="2" x="44" y="766" rx="1" transform="rotate(34, 111, 767)" opacity="0.08"></rect><rect width="275" height="2" x="110.5" y="367" rx="1" transform="rotate(34, 248, 368)" opacity="0.47"></rect><rect width="236" height="2" x="58" y="398" rx="1" transform="rotate(34, 176, 399)" opacity="0.31"></rect><rect width="174" height="2" x="95" y="209" rx="1" transform="rotate(34, 182, 210)" opacity="0.43"></rect><rect width="451" height="2" x="351.5" y="278" rx="1" transform="rotate(34, 577, 279)" opacity="0.25"></rect><rect width="240" height="2" x="55" y="700" rx="1" transform="rotate(34, 175, 701)" opacity="0.15"></rect><rect width="251" height="2" x="261.5" y="305" rx="1" transform="rotate(34, 387, 306)" opacity="0.17"></rect><rect width="353" height="2" x="550.5" y="468" rx="1" transform="rotate(34, 727, 469)" opacity="0.78"></rect><rect width="312" height="2" x="22" y="341" rx="1" transform="rotate(34, 178, 342)" opacity="0.88"></rect><rect width="30" height="2" x="289" y="487" rx="1" transform="rotate(34, 304, 488)" opacity="0.64"></rect><rect width="335" height="2" x="602.5" y="608" rx="1" transform="rotate(34, 770, 609)" opacity="0.45"></rect><rect width="346" height="2" x="241" y="172" rx="1" transform="rotate(34, 414, 173)" opacity="0.74"></rect><rect width="576" height="2" x="418" y="43" rx="1" transform="rotate(34, 706, 44)" opacity="0.49"></rect><rect width="233" height="2" x="-22.5" y="507" rx="1" transform="rotate(34, 94, 508)" opacity="0.23"></rect><rect width="216" height="2" x="386" y="114" rx="1" transform="rotate(34, 494, 115)" opacity="0.51"></rect><rect width="126" height="2" x="439" y="768" rx="1" transform="rotate(34, 502, 769)" opacity="0.63"></rect><rect width="116" height="2" x="15" y="609" rx="1" transform="rotate(34, 73, 610)" opacity="0.22"></rect><rect width="222" height="2" x="316" y="367" rx="1" transform="rotate(34, 427, 368)" opacity="0.84"></rect><rect width="153" height="2" x="-40.5" y="768" rx="1" transform="rotate(34, 36, 769)" opacity="0.88"></rect><rect width="256" height="2" x="45" y="452" rx="1" transform="rotate(34, 173, 453)" opacity="0.20"></rect><rect width="280" height="2" x="113" y="656" rx="1" transform="rotate(34, 253, 657)" opacity="0.80"></rect><rect width="379" height="2" x="227.5" y="564" rx="1" transform="rotate(34, 417, 565)" opacity="0.41"></rect><rect width="404" height="2" x="285" y="290" rx="1" transform="rotate(34, 487, 291)" opacity="0.54"></rect><rect width="157" height="2" x="-58.5" y="595" rx="1" transform="rotate(34, 20, 596)" opacity="0.36"></rect><rect width="49" height="2" x="737.5" y="762" rx="1" transform="rotate(34, 762, 763)" opacity="0.38"></rect><rect width="130" height="2" x="507" y="745" rx="1" transform="rotate(34, 572, 746)" opacity="0.63"></rect><rect width="93" height="2" x="226.5" y="774" rx="1" transform="rotate(34, 273, 775)" opacity="0.35"></rect><rect width="374" height="2" x="256" y="685" rx="1" transform="rotate(34, 443, 686)" opacity="0.63"></rect><rect width="398" height="2" x="2" y="531" rx="1" transform="rotate(34, 201, 532)" opacity="0.83"></rect><rect width="261" height="2" x="454.5" y="452" rx="1" transform="rotate(34, 585, 453)" opacity="0.25"></rect><rect width="248" height="2" x="439" y="149" rx="1" transform="rotate(34, 563, 150)" opacity="0.68"></rect><rect width="69" height="2" x="366.5" y="473" rx="1" transform="rotate(34, 401, 474)" opacity="0.79"></rect><rect width="339" height="2" x="267.5" y="228" rx="1" transform="rotate(34, 437, 229)" opacity="0.20"></rect><rect width="360" height="2" x="309" y="513" rx="1" transform="rotate(34, 489, 514)" opacity="0.54"></rect><rect width="317" height="2" x="406.5" y="370" rx="1" transform="rotate(34, 565, 371)" opacity="0.88"></rect><rect width="148" height="2" x="31" y="445" rx="1" transform="rotate(34, 105, 446)" opacity="0.99"></rect><rect width="285" height="2" x="306.5" y="430" rx="1" transform="rotate(34, 449, 431)" opacity="0.66"></rect><rect width="171" height="2" x="542.5" y="627" rx="1" transform="rotate(34, 628, 628)" opacity="0.29"></rect><rect width="236" height="2" x="56" y="616" rx="1" transform="rotate(34, 174, 617)" opacity="0.10"></rect><rect width="108" height="2" x="-20" y="330" rx="1" transform="rotate(34, 34, 331)" opacity="0.96"></rect><rect width="390" height="2" x="-55" y="58" rx="1" transform="rotate(34, 140, 59)" opacity="0.61"></rect><rect width="118" height="2" x="-25" y="514" rx="1" transform="rotate(34, 34, 515)" opacity="0.50"></rect><rect width="156" height="2" x="270" y="538" rx="1" transform="rotate(34, 348, 539)" opacity="0.46"></rect><rect width="101" height="2" x="310.5" y="226" rx="1" transform="rotate(34, 361, 227)" opacity="0.74"></rect><rect width="34" height="2" x="51" y="553" rx="1" transform="rotate(34, 68, 554)" opacity="0.52"></rect><rect width="378" height="2" x="-52" y="574" rx="1" transform="rotate(34, 137, 575)" opacity="0.31"></rect><rect width="251" height="2" x="552.5" y="541" rx="1" transform="rotate(34, 678, 542)" opacity="0.73"></rect><rect width="78" height="2" x="638" y="738" rx="1" transform="rotate(34, 677, 739)" opacity="0.71"></rect><rect width="428" height="2" x="394" y="565" rx="1" transform="rotate(34, 608, 566)" opacity="0.18"></rect><rect width="45" height="2" x="408.5" y="42" rx="1" transform="rotate(34, 431, 43)" opacity="0.46"></rect><rect width="338" height="2" x="70" y="486" rx="1" transform="rotate(34, 239, 487)" opacity="0.44"></rect><rect width="119" height="2" x="76.5" y="124" rx="1" transform="rotate(34, 136, 125)" opacity="0.93"></rect><rect width="234" height="2" x="-28" y="265" rx="1" transform="rotate(34, 89, 266)" opacity="0.90"></rect><rect width="518" height="2" x="44" y="263" rx="1" transform="rotate(34, 303, 264)" opacity="0.65"></rect><rect width="150" height="2" x="540" y="774" rx="1" transform="rotate(34, 615, 775)" opacity="0.40"></rect><rect width="246" height="2" x="-80" y="208" rx="1" transform="rotate(34, 43, 209)" opacity="0.17"></rect><rect width="330" height="2" x="607" y="60" rx="1" transform="rotate(34, 772, 61)" opacity="0.13"></rect><rect width="207" height="2" x="662.5" y="690" rx="1" transform="rotate(34, 766, 691)" opacity="0.87"></rect><rect width="308" height="2" x="-34" y="640" rx="1" transform="rotate(34, 120, 641)" opacity="0.18"></rect><rect width="191" height="2" x="338.5" y="279" rx="1" transform="rotate(34, 434, 280)" opacity="0.98"></rect><rect width="205" height="2" x="550.5" y="478" rx="1" transform="rotate(34, 653, 479)" opacity="0.70"></rect><rect width="239" height="2" x="-97.5" y="711" rx="1" transform="rotate(34, 22, 712)" opacity="0.41"></rect><rect width="190" height="2" x="143" y="432" rx="1" transform="rotate(34, 238, 433)" opacity="0.45"></rect><rect width="65" height="2" x="734.5" y="517" rx="1" transform="rotate(34, 767, 518)" opacity="0.34"></rect><rect width="188" height="2" x="607" y="669" rx="1" transform="rotate(34, 701, 670)" opacity="0.91"></rect><rect width="170" height="2" x="-30" y="398" rx="1" transform="rotate(34, 55, 399)" opacity="0.71"></rect><rect width="424" height="2" x="138" y="751" rx="1" transform="rotate(34, 350, 752)" opacity="0.37"></rect><rect width="421" height="2" x="159.5" y="30" rx="1" transform="rotate(34, 370, 31)" opacity="0.35"></rect><rect width="472" height="2" x="-12" y="104" rx="1" transform="rotate(34, 224, 105)" opacity="0.62"></rect><rect width="362" height="2" x="-155" y="456" rx="1" transform="rotate(34, 26, 457)" opacity="0.54"></rect><rect width="279" height="2" x="555.5" y="775" rx="1" transform="rotate(34, 695, 776)" opacity="0.37"></rect><rect width="173" height="2" x="-9.5" y="700" rx="1" transform="rotate(34, 77, 701)" opacity="0.84"></rect><rect width="130" height="2" x="148" y="168" rx="1" transform="rotate(34, 213, 169)" opacity="0.74"></rect><rect width="431" height="2" x="296.5" y="418" rx="1" transform="rotate(34, 512, 419)" opacity="0.62"></rect><rect width="400" height="2" x="65" y="720" rx="1" transform="rotate(34, 265, 721)" opacity="0.20"></rect><rect width="165" height="2" x="133.5" y="260" rx="1" transform="rotate(34, 216, 261)" opacity="0.12"></rect><rect width="360" height="2" x="568" y="165" rx="1" transform="rotate(34, 748, 166)" opacity="0.58"></rect><rect width="217" height="2" x="534.5" y="712" rx="1" transform="rotate(34, 643, 713)" opacity="0.85"></rect><rect width="249" height="2" x="233.5" y="111" rx="1" transform="rotate(34, 358, 112)" opacity="0.71"></rect><rect width="484" height="2" x="463" y="394" rx="1" transform="rotate(34, 705, 395)" opacity="0.48"></rect><rect width="279" height="2" x="-12.5" y="209" rx="1" transform="rotate(34, 127, 210)" opacity="0.23"></rect><rect width="183" height="2" x="6.5" y="165" rx="1" transform="rotate(34, 98, 166)" opacity="0.70"></rect><rect width="412" height="2" x="303" y="341" rx="1" transform="rotate(34, 509, 342)" opacity="0.85"></rect><rect width="82" height="2" x="732" y="412" rx="1" transform="rotate(34, 773, 413)" opacity="0.36"></rect><rect width="263" height="2" x="158.5" y="186" rx="1" transform="rotate(34, 290, 187)" opacity="0.14"></rect><rect width="237" height="2" x="522.5" y="208" rx="1" transform="rotate(34, 641, 209)" opacity="0.71"></rect><rect width="82" height="2" x="68" y="344" rx="1" transform="rotate(34, 109, 345)" opacity="0.21"></rect><rect width="311" height="2" x="141.5" y="110" rx="1" transform="rotate(34, 297, 111)" opacity="0.54"></rect><rect width="281" height="2" x="534.5" y="301" rx="1" transform="rotate(34, 675, 302)" opacity="0.48"></rect><rect width="198" height="2" x="95" y="762" rx="1" transform="rotate(34, 194, 763)" opacity="0.88"></rect><rect width="303" height="2" x="-105.5" y="100" rx="1" transform="rotate(34, 46, 101)" opacity="0.86"></rect><rect width="39" height="2" x="595.5" y="679" rx="1" transform="rotate(34, 615, 680)" opacity="0.17"></rect><rect width="312" height="2" x="-8" y="275" rx="1" transform="rotate(34, 148, 276)" opacity="0.26"></rect><rect width="349" height="2" x="492.5" y="121" rx="1" transform="rotate(34, 667, 122)" opacity="0.83"></rect><rect width="339" height="2" x="375.5" y="33" rx="1" transform="rotate(34, 545, 34)" opacity="0.98"></rect><rect width="458" height="2" x="94" y="608" rx="1" transform="rotate(34, 323, 609)" opacity="0.74"></rect><rect width="157" height="2" x="634.5" y="589" rx="1" transform="rotate(34, 713, 590)" opacity="0.13"></rect><rect width="84" height="2" x="179" y="588" rx="1" transform="rotate(34, 221, 589)" opacity="0.71"></rect><rect width="171" height="2" x="122.5" y="652" rx="1" transform="rotate(34, 208, 653)" opacity="0.56"></rect><rect width="371" height="2" x="337.5" y="700" rx="1" transform="rotate(34, 523, 701)" opacity="0.29"></rect><rect width="86" height="2" x="380" y="761" rx="1" transform="rotate(34, 423, 762)" opacity="0.56"></rect><rect width="333" height="2" x="212.5" y="652" rx="1" transform="rotate(34, 379, 653)" opacity="0.78"></rect><rect width="431" height="2" x="-187.5" y="260" rx="1" transform="rotate(34, 28, 261)" opacity="0.59"></rect><rect width="319" height="2" x="180.5" y="349" rx="1" transform="rotate(34, 340, 350)" opacity="0.90"></rect><rect width="76" height="2" x="225" y="584" rx="1" transform="rotate(34, 263, 585)" opacity="0.13"></rect><rect width="383" height="2" x="441.5" y="349" rx="1" transform="rotate(34, 633, 350)" opacity="0.21"></rect><rect width="117" height="2" x="667.5" y="264" rx="1" transform="rotate(34, 726, 265)" opacity="0.18"></rect><rect width="40" height="2" x="755" y="240" rx="1" transform="rotate(34, 775, 241)" opacity="0.27"></rect><rect width="176" height="2" x="404" y="607" rx="1" transform="rotate(34, 492, 608)" opacity="0.29"></rect></g></svg>